<?xml version="1.0" encoding="UTF-8"?>
<svg id="_图层_1" xmlns="http://www.w3.org/2000/svg" version="1.1" viewBox="0 0 889 889">
  <defs>
    <style>
      .st0 {
        fill: #fff;
      }
    </style>
  </defs>
  <path class="st0" d="M288.09,195.8c-3.96,2.37-7.87,4.84-11.74,7.4-46.59,30.88-83.52,73.7-107.11,124.11-50.84,13.25-93.27,30.47-123,49.92-8.61,5.64-16.21,11.49-22.75,17.5,5.4-15.63,12.93-30.96,22.54-45.9,21.34-33.14,52.02-62.99,91.19-88.72,39.54-25.97,85.65-46.38,137.07-60.66,4.57-1.27,9.17-2.49,13.79-3.65M20.56,506.65c6.93,6.77,15.2,13.33,24.73,19.62,28.96,19.12,70.55,36.18,120.54,49.48,10.94,25.16,25.27,48.72,42.66,70.1,18.51,22.77,40.18,42.7,64.39,59.23,4.98,3.4,10.05,6.65,15.2,9.73-4.62-1.16-9.21-2.38-13.78-3.65-51.41-14.28-97.53-34.69-137.07-60.66-39.17-25.73-69.85-55.58-91.19-88.72-11.5-17.86-20.01-36.29-25.48-55.13M443.08,165.08h-.02.02ZM443.06,165.08C199.05,165.08,1.22,295.01,1.22,455.3s197.83,290.22,441.84,290.22c-121.23,0-225.07-74.34-268.49-179.9C72.07,539.3,6.1,498.19,6.1,451.97s67.35-88.19,171.67-114.47c45.17-101.58,146.95-172.42,265.29-172.42h0Z"/>
  <path class="st0" d="M599.12,195.35c5.22,1.3,10.41,2.66,15.58,4.1,51.42,14.28,97.53,34.69,137.07,60.65,39.17,25.72,69.85,55.57,91.2,88.71,10.25,15.91,18.11,32.26,23.58,48.96-7.15-7.06-15.75-13.9-25.73-20.44-29.31-19.23-71.37-36.34-121.91-49.63-23.5-50.42-60.36-93.28-106.88-124.22-4.24-2.82-8.55-5.53-12.91-8.12M869.3,503.55c-5.41,19.91-14.21,39.36-26.34,58.2-21.34,33.14-52.02,62.99-91.19,88.72-39.54,25.97-85.65,46.38-137.07,60.66-5.15,1.43-10.34,2.8-15.55,4.09,5.54-3.3,10.99-6.78,16.35-10.45,24.17-16.56,45.8-36.52,64.27-59.3,17.35-21.4,31.64-44.97,42.54-70.14,50.31-13.47,90.48-30,119.45-49.18,10.88-7.2,20.09-14.76,27.53-22.59M445.92,165.08h-.42c118.23.24,219.84,71.18,264.85,172.79,103.47,26.3,170.16,67.62,170.16,114.08s-65.31,86.93-166.96,113.27c-43.26,105.59-146.93,180.03-268.03,180.27h.42c244.03,0,441.84-129.93,441.84-290.22s-197.84-290.19-441.85-290.19h0Z"/>
  <g>
    <path class="st0" d="M446.02,308.08c85.84,0,165.89,8.21,233.33,22.37-44.8-82.89-132.5-139.21-233.33-139.21s-188.53,56.31-233.33,139.21c67.46-14.16,147.48-22.37,233.33-22.37Z"/>
    <path class="st0" d="M446.02,595.85c-87.99,0-169.85-8.63-238.34-23.44,43.04,88.2,133.59,148.96,238.34,148.96s195.29-60.76,238.34-148.96c-68.48,14.82-150.36,23.44-238.34,23.44Z"/>
  </g>
  <g>
    <path class="st0" d="M281.14,465.9l31.89,9.53c-2.15,8.84-5.51,16.22-10.13,22.16-4.6,5.93-10.32,10.4-17.15,13.43-6.83,3.02-15.52,4.54-26.07,4.54-12.81,0-23.26-1.84-31.37-5.51-8.11-3.67-15.12-10.14-21.02-19.41s-8.84-21.12-8.84-35.57c0-19.26,5.19-34.07,15.56-44.41,10.37-10.34,25.03-15.52,43.99-15.52,14.84,0,26.5,2.96,35,8.89,8.49,5.93,14.79,15.04,18.92,27.33l-32.14,7.07c-1.12-3.54-2.31-6.14-3.54-7.79-2.03-2.75-4.54-4.88-7.48-6.36-2.94-1.48-6.24-2.23-9.88-2.23-8.26,0-14.56,3.28-18.97,9.83-3.32,4.86-4.97,12.52-4.97,22.92,0,12.91,1.98,21.75,5.95,26.55,3.97,4.78,9.54,7.18,16.71,7.18s12.22-1.93,15.78-5.8c3.56-3.87,6.14-9.48,7.75-16.84h0l.02.02Z"/>
    <path class="st0" d="M403.14,494.33h-41.32l-5.74,19.23h-37.16l44.28-116.44h39.71l44.26,116.44h-38.12l-5.9-19.23h-.02ZM395.58,469.15l-13-41.86-12.87,41.86h25.88Z"/>
    <path class="st0" d="M458.63,397.11h97.55v24.85h-61.07v18.51h56.65v23.75h-56.65v22.95h62.84v26.37h-99.32v-116.44h0Z"/>
    <path class="st0" d="M577.41,397.11h60.5c13.18,0,23.05,3.1,29.62,9.3,6.57,6.19,9.85,15,9.85,26.45s-3.58,20.94-10.73,27.57c-7.15,6.62-18.06,9.93-32.74,9.93h-19.93v43.21h-36.56v-116.44h0l-.02-.02ZM613.97,446.75h8.92c7.02,0,11.95-1.2,14.79-3.61,2.84-2.41,4.26-5.49,4.26-9.25s-1.24-6.75-3.69-9.3c-2.47-2.54-7.1-3.82-13.9-3.82h-10.37v25.98h-.02Z"/>
  </g>
</svg>