<?xml version="1.0" encoding="UTF-8"?>
<svg id="_图层_1" xmlns="http://www.w3.org/2000/svg" xmlns:xlink="http://www.w3.org/1999/xlink" version="1.1" viewBox="0 0 889 889">
  <defs>
    <style>
      .st0 {
        fill: url(#_未命名的渐变_2);
      }

      .st1 {
        fill: #9fbad7;
      }

      .st2 {
        fill: url(#_未命名的渐变);
      }

      .st3 {
        fill: #053b7c;
      }
    </style>
    <linearGradient id="_未命名的渐变" data-name="未命名的渐变" x1="0" y1="724.02" x2="443.07" y2="724.02" gradientTransform="translate(0 1179.28) scale(1 -1)" gradientUnits="userSpaceOnUse">
      <stop offset="0" stop-color="#005895"/>
      <stop offset="1" stop-color="#172a88"/>
    </linearGradient>
    <linearGradient id="_未命名的渐变_2" data-name="未命名的渐变 2" x1="445.5" y1="724.04" x2="889" y2="724.04" gradientTransform="translate(0 1179.28) scale(1 -1)" gradientUnits="userSpaceOnUse">
      <stop offset="0" stop-color="#006934"/>
      <stop offset="1" stop-color="#8fc31f"/>
    </linearGradient>
  </defs>
  <path class="st2" d="M173.83,563.96C71.03,538.01,4.89,497.51,4.89,451.97s67.54-86.9,172.14-112.79c45.3-100.1,147.36-169.9,266.01-169.9h.02-.02C198.36,169.28,0,297.3,0,455.26s198.37,285.98,443.05,285.98c-121.56,0-225.69-73.25-269.23-177.27h.01Z"/>
  <path class="st0" d="M445.93,169.28h-.43c118.55.24,220.44,70.14,265.58,170.27,103.75,25.92,170.63,66.63,170.63,112.41s-65.5,85.66-167.41,111.61c-43.37,104.05-147.33,177.39-268.77,177.63h.43c244.69,0,443.05-128.03,443.05-285.98s-198.39-285.95-443.07-285.95h0Z"/>
  <g>
    <path class="st1" d="M446.03,310.19c86.08,0,166.35,8.09,233.97,22.04-44.92-81.67-132.87-137.17-233.97-137.17s-189.05,55.48-233.97,137.17c67.65-13.95,147.89-22.04,233.97-22.04h0Z"/>
    <path class="st1" d="M446.03,593.74c-88.23,0-170.32-8.51-238.99-23.1,43.16,86.92,133.95,146.78,238.99,146.78s195.83-59.88,238.99-146.78c-68.67,14.61-150.77,23.1-238.99,23.1h0Z"/>
  </g>
  <g>
    <path class="st3" d="M280.69,465.7l31.98,9.38c-2.15,8.72-5.53,15.98-10.15,21.83-4.62,5.85-10.35,10.25-17.19,13.23-6.84,2.98-15.56,4.47-26.15,4.47-12.85,0-23.33-1.81-31.46-5.43-8.14-3.62-15.16-10-21.08-19.12-5.91-9.13-8.87-20.81-8.87-35.05,0-18.98,5.2-33.58,15.6-43.76,10.4-10.18,25.1-15.3,44.1-15.3,14.89,0,26.56,2.92,35.09,8.77,8.51,5.85,14.83,14.81,18.97,26.93l-32.23,6.97c-1.13-3.49-2.32-6.06-3.55-7.67-2.04-2.71-4.54-4.8-7.5-6.26-2.95-1.46-6.26-2.2-9.91-2.2-8.28,0-14.6,3.23-19.02,9.69-3.32,4.79-4.98,12.33-4.98,22.58,0,12.72,1.98,21.43,5.96,26.16,3.98,4.71,9.57,7.08,16.76,7.08s12.25-1.91,15.83-5.72,6.16-9.34,7.77-16.6l.02.02h.03,0Z"/>
    <path class="st3" d="M403.03,493.72h-41.43l-5.76,18.95h-37.26l44.4-114.73h39.82l44.39,114.73h-38.22l-5.91-18.95h-.02ZM395.44,468.91l-13.04-41.25-12.91,41.25h25.95Z"/>
    <path class="st3" d="M458.68,397.91h97.82v24.49h-61.24v18.24h56.81v23.4h-56.81v22.61h63.01v25.98h-99.59v-114.73h0Z"/>
    <path class="st3" d="M577.77,397.91h60.67c13.21,0,23.12,3.06,29.7,9.17s9.88,14.78,9.88,26.06-3.58,20.63-10.76,27.16c-7.18,6.52-18.11,9.78-32.83,9.78h-19.98v42.57h-36.66v-114.73l-.02-.02h0ZM614.44,446.83h8.95c7.04,0,11.98-1.18,14.83-3.55s4.27-5.41,4.27-9.12-1.24-6.65-3.7-9.17c-2.48-2.49-7.12-3.77-13.94-3.77h-10.4v25.59h-.02Z"/>
  </g>
</svg>