<?xml version="1.0" encoding="UTF-8"?>
<svg id="_图层_1" data-name="图层_1" xmlns="http://www.w3.org/2000/svg" version="1.1" viewBox="0 0 889 889">
  <defs>
    <style>
      .st0 {
        fill-rule: evenodd;
      }

      .st0, .st1 {
        fill: #fff;
      }
    </style>
  </defs>
  <path class="st1" d="M444.5,889C199.4,889,0,689.6,0,444.5S199.4,0,444.5,0s444.5,199.4,444.5,444.5-199.4,444.5-444.5,444.5ZM444.5,13.41C206.8,13.41,13.42,206.81,13.42,444.5s193.4,431.08,431.08,431.08,431.08-193.39,431.08-431.08S682.2,13.41,444.5,13.41Z"/>
  <path class="st1" d="M75.37,459.6c13.28-.89,21.28,4.52,21.74,11.27.23,3.46-1.99,6.4-4.65,8.41l-6.33-2.94c1.73-1.44,2.94-2.93,2.79-4.81-.23-3.43-5.02-5.94-12.79-5.39-7.92.54-12.36,3.28-12.11,7.02.14,2.11,1.87,3.71,3.99,4.82l-5.78,3.77c-4.06-1.96-6.23-4.82-6.47-8.28-.43-6.77,6.12-12.95,19.61-13.87Z"/>
  <path class="st1" d="M97.52,484.81l.93,6.33-15.03,2.2,1.27,8.67,15.02-2.19.92,6.26-39.51,5.77-.89-6.26,16.25-2.38-1.27-8.67-16.25,2.37-.95-6.31,39.51-5.79Z"/>
  <path class="st1" d="M102.26,513.89l1.33,6.27-39.07,8.24-1.32-6.27,39.06-8.24Z"/>
  <path class="st1" d="M105.24,527.9l1.73,6.27-16.64,11.49-7.84,4.9.05.17c3.99-1.47,9.39-3.5,13.99-4.77l12.73-3.53,1.63,5.87-38.48,10.67-1.74-6.27,16.81-11.49,7.73-4.86-.05-.17c-4.21,1.47-9.34,3.43-14,4.74l-12.78,3.54-1.62-5.88,38.48-10.68Z"/>
  <path class="st1" d="M88.7,577.94l-2.69-7.4-9.14,1.69-2.22-6.12,40.35-5.88,2.61,7.19-34.7,21.41-2.3-6.32,8.09-4.57ZM95.24,574.26l2.98-1.69c3.5-2.03,7.75-4.3,11.34-6.37l-.05-.13c-4.15.82-8.79,1.75-12.73,2.45l-3.37.61,1.83,5.13Z"/>
  <path class="st1" d="M107.28,598.02l18.98-9.3,2.81,5.68-19.88,9.79c-6.8,3.34-8.54,5.87-7.25,8.5,1.29,2.63,4.41,2.86,11.19-.49l19.89-9.79,2.72,5.52-18.98,9.31c-12.09,5.94-19.1,5.38-22.24-.98-3.14-6.37.66-12.3,12.76-18.24Z"/>
  <path class="st1" d="M139.29,614.51l3.34,5.58-12.99,15.49-6.25,6.8.09.15c3.45-2.48,8.12-5.87,12.24-8.32l11.32-6.79,3.13,5.22-34.27,20.51-3.35-5.59,13.15-15.54,6.17-6.73-.1-.16c-3.67,2.54-8.09,5.81-12.24,8.29l-11.37,6.81-3.13-5.2,34.26-20.52Z"/>
  <path class="st1" d="M154.65,639.24l3.63,5.28-32.91,22.6-3.63-5.27,32.91-22.61Z"/>
  <path class="st1" d="M160.81,648.4l4.14,5.35-12.54,13.53c-2.94,3.25-5.87,6.17-8.81,9.45l.11.14c3.91-2.06,7.52-4.13,11.37-6.17l16.21-8.74,3.98,5.16-36.49,18.07-4.69-6.06,26.72-30.73Z"/>
  <path class="st1" d="M178.22,670.43l11.23,12.62-5.93,5.28-6.97-7.83-5.53,4.92,5.93,6.66-6.02,5.35-5.93-6.65-6.36,5.64,7.25,8.14-6.02,5.36-11.49-12.91,29.84-26.58Z"/>
  <path class="st1" d="M176.96,727l6.27-13.5-2.2-2.14-9.79,10.08-4.6-4.46,27.8-28.65,7.02,6.81c4.07,3.96,5.45,9.33-1.28,16.26-4.08,4.2-8,5.62-11.32,5.09l-6.77,15.49-5.13-4.98ZM186.3,705.95l2.05,1.99c2.18,2.11,4.72,1.81,7.34-.88,2.63-2.7,2.32-4.71.14-6.82l-2.05-2-7.48,7.71Z"/>
  <path class="st1" d="M189.84,732.17l7.01-2.73c-.1,3.06.72,5.93,2.33,7.28,1.81,1.52,3.52,1.21,4.9-.43,1.47-1.77.85-3.29.02-5.88l-1.21-3.83c-1.07-3.07-.83-7.41,2.9-11.85,4.32-5.14,10.84-6.67,15.18-3.03,2.36,1.96,3.71,5.43,3.24,9.59l-6.33,2.56c-.07-2.65-.63-4.53-2.22-5.87-1.51-1.27-3.2-1.14-4.58.49-1.38,1.63-.68,3.42.23,6.01l1.27,3.66c1.24,3.63.61,7.45-3.02,11.75-4.28,5.1-10.89,7.18-15.82,3.04-2.64-2.2-4.26-6.05-3.9-10.76Z"/>
  <path class="st1" d="M232.79,722.14l5.13,3.85-23.95,31.94-5.13-3.84,23.95-31.95Z"/>
  <path class="st1" d="M244.27,740.19l-5.99-3.99,4.41-6.61,17.33,11.54-4.41,6.61-6.01-4.01-17.72,26.63-5.33-3.55,17.72-26.62Z"/>
  <path class="st1" d="M255.53,768.41l5.88-26.38,5.88,3.38-2.49,8.79c-.87,2.94-1.67,5.72-2.56,8.81l.12.07c2.2-2.32,4.21-4.4,6.36-6.62l6.34-6.58,5.8,3.33-19.83,18.39-7.02,12.24-5.52-3.17,7.04-12.26Z"/>
  <path class="st1" d="M285.03,777.44c5.28-11.99,12.78-16.78,19.43-13.86,6.65,2.93,8.16,11.75,2.91,23.68s-12.95,17.17-19.58,14.25c-6.64-2.93-8.03-12.09-2.76-24.07ZM301.41,784.64c3.11-7.08,2.94-12.13-.26-13.54-3.2-1.41-7.01,1.9-10.12,8.97-3.12,7.08-3.14,12.46.08,13.87,3.21,1.41,7.17-2.18,10.3-9.3Z"/>
  <path class="st1" d="M321.45,771.42l16.03,5.64-2.64,7.49-9.99-3.51-2.9,8.25,8.57,3.02-2.64,7.54-8.58-3.02-5.06,14.38-6.04-2.12,13.25-37.67Z"/>
  <path class="st1" d="M353.38,781.87l6.73,1.55.24,17.74c0,2.37-.14,4.92-.21,7.44l.17.04c1.08-2.28,2.06-4.65,3.07-6.78l7.84-15.87,6.77,1.56-8.98,38.93-5.68-1.32,3.08-13.33c.89-3.87,2.72-9.56,3.92-13.31l-.14-.03-4.32,8.81-6.77,13.42-3.42-.79-.24-15.04.05-9.79-.14-.03c-.56,3.91-1.41,9.79-2.31,13.68l-3.06,13.32-5.58-1.29,8.98-38.91Z"/>
  <path class="st1" d="M385.74,788.74l6.32,1.01-6.31,39.42-6.29-1.01,6.28-39.42Z"/>
  <path class="st1" d="M399.88,790.98l6.48.62,4.75,19.66,1.75,9.07h.17c.06-4.26.11-10.02.57-14.78l1.27-13.14,6.05.59-3.84,39.74-6.48-.62-4.7-19.81-1.76-8.96h-.17c-.14,4.46-.14,9.96-.61,14.77l-1.27,13.19-6.05-.58,3.84-39.75Z"/>
  <path class="st1" d="M428.91,793.31l6.4.22-1.38,39.9-6.4-.22,1.38-39.9Z"/>
  <path class="st1" d="M443.6,793.67l6.51-.09,6.89,19.01,2.74,8.81h.18c-.42-4.24-.98-9.97-1.07-14.74l-.19-13.22,6.08-.09.57,39.92-6.51.09-6.86-19.16-2.73-8.71h-.18c.35,4.45.98,9.91,1.03,14.74l.19,13.26-6.08.08-.57-39.9Z"/>
  <path class="st1" d="M472.86,812.89c-1.41-13.22,3.73-21.45,10.8-22.2,3.88-.41,6.92,1.75,9.03,4.27l-2.74,6.45c-1.47-1.63-3-2.81-5.2-2.58-3.92.42-6.24,5.31-5.39,13.05.85,7.89,3.68,12.24,8.59,11.71.95-.09,1.82-.55,2.42-1.29l-.69-6.4-4.19.45-.83-7.79,9.85-1.05,1.96,18.57c-1.56,2.86-4.6,5.38-8.32,5.8-7.34.78-13.85-5.54-15.29-18.99Z"/>
  <path class="st1" d="M540.33,822.6c-2.3-.1-4.95-.98-7.64-2.38-1.67,2.9-4.11,4.98-7.35,5.7-5.83,1.29-9.97-3.35-11.26-9.27-1.2-5.45.31-9.08,2.3-12-1.54-2.35-2.67-4.94-3.35-7.67-1.22-5.55.49-10.88,4.96-11.87,3.99-.88,7.35,2.06,8.55,7.51,1.14,5.14-.82,8.87-2.93,12.19,1.96,2.07,4.13,3.93,6.46,5.56.76-3.2,1.07-6.49.92-9.77l5.66-1.25c.14,4.72-.35,9.43-1.47,14.01,1.88.85,3.61,1.4,4.96,1.37l.19,7.87ZM519.88,800.08c1.44-1.96,2.45-3.89,1.88-6.41-.39-1.78-1.18-2.7-2.33-2.45-1.23.27-1.9,2.02-1.32,4.63.35,1.5.95,2.93,1.77,4.23ZM524.53,818.62c1.11-.32,2.09-1.01,2.75-1.96-2.49-1.95-4.78-4.12-6.85-6.51-.68,1.45-.88,3.07-.59,4.64.63,2.75,2.45,4.34,4.69,3.85v-.02Z"/>
  <path class="st1" d="M555.72,783.93l-6.82,2.29-2.53-7.52,19.73-6.66,2.54,7.53-6.86,2.31,10.22,30.31-6.06,2.05-10.22-30.31Z"/>
  <path class="st1" d="M571.48,769.93l15.57-6.51,3.07,7.35-9.67,4.04,2.85,6.85,8.22-3.43,3.1,7.44-8.22,3.42,3.27,7.84,10.04-4.19,3.1,7.42-15.95,6.67-15.38-36.9Z"/>
  <path class="st1" d="M601.69,778.94c-5.99-11.88-4.12-21.36,1.91-24.41,3.1-1.57,6.68-.66,9.57.98l-.25,6.98c-2.01-1.04-3.83-1.55-5.52-.7-3.07,1.54-3.51,6.94,0,13.89,3.58,7.09,7.83,10.11,11.18,8.42,1.89-.95,2.69-3.16,2.9-5.55l5.72,3.86c-.24,4.51-2,7.62-5.1,9.19-6.06,3.05-14.31-.59-20.41-12.66Z"/>
  <path class="st1" d="M616.27,748.72l5.47-3.32,7.89,12.98,7.49-4.55-7.88-12.98,5.38-3.28,20.73,34.12-5.41,3.29-8.53-14.04-7.49,4.55,8.53,14.04-5.45,3.32-20.73-34.13Z"/>
  <path class="st1" d="M641.02,733.31l5.27-3.83,16.59,11.56,7.35,5.62.14-.1c-2.78-3.22-6.57-7.57-9.37-11.43l-7.77-10.68,4.9-3.58,23.5,32.32-5.27,3.83-16.65-11.71-7.25-5.54-.15.11c2.86,3.42,6.51,7.54,9.35,11.45l7.79,10.72-4.89,3.58-23.54-32.32Z"/>
  <path class="st1" d="M676.12,731.88c-8.56-9.91-9.66-18.75-4.17-23.51,5.5-4.75,14.12-2.32,22.64,7.55,8.52,9.88,9.93,19.07,4.44,23.81-5.5,4.75-14.36,2.04-22.91-7.85ZM689.66,720.19c-5.05-5.85-9.69-7.87-12.34-5.59-2.65,2.29-1.3,7.15,3.75,13,5.05,5.85,9.9,8.18,12.56,5.88,2.65-2.31,1.11-7.38-3.97-13.29Z"/>
  <path class="st1" d="M686.35,696.41l4.52-4.54,22.58,22.53,7.3-7.35,5.7,5.69-11.83,11.86-28.27-28.19Z"/>
  <path class="st1" d="M715.58,694.95c-9.9-8.56-12.27-17.13-7.52-22.63s13.63-4.35,23.5,4.18c9.88,8.53,12.6,17.43,7.83,22.92-4.76,5.49-13.9,4.1-23.81-4.47ZM727.29,681.43c-5.84-5.06-10.73-6.37-13.02-3.74-2.29,2.63-.25,7.26,5.6,12.31,5.84,5.06,10.98,6.67,13.28,4.01,2.29-2.65.02-7.49-5.86-12.58Z"/>
  <path class="st1" d="M736.11,671.39c-10.74-7.83-13.36-17.18-9.16-22.93,2.3-3.15,5.94-3.94,9.23-3.8l2.94,6.37c-2.19,0-4.1.32-5.39,2.12-2.33,3.17-.26,8.18,6.02,12.77,6.41,4.69,11.53,5.51,14.44,1.52.58-.75.82-1.71.68-2.65l-5.2-3.8-2.5,3.43-6.32-4.63,5.85-8,15.08,11.03c1.06,3.08.9,7.04-1.3,10.04-4.39,5.95-13.45,6.51-24.37-1.47Z"/>
  <path class="st1" d="M761.03,645.56l-26.14-6.85,3.6-5.77,8.68,2.81c2.94.98,5.66,1.89,8.7,2.9l.07-.12c-2.24-2.29-4.23-4.37-6.36-6.6l-6.34-6.6,3.55-5.67,17.62,20.5,11.97,7.48-3.37,5.38-11.98-7.46Z"/>
  <path class="st1" d="M765.14,629.65l4.95-8.81,5.88,3.28-4.95,8.81-5.88-3.28Z"/>
  <path class="st1" d="M754.95,604.64l4.05-8.37c2.4-4.96,6.29-7.97,13.22-4.63,3.19,1.55,6.09,4.41,6.27,6.89l.19.09c2.13-1.96,5.73-2.48,10.51-.16,7.34,3.55,8.62,9.3,6.1,14.51l-4.38,9.05-35.96-17.38ZM773.14,603.39c1.18-2.45.12-4.32-2.34-5.51-2.56-1.24-4.17-.62-5.34,1.79l-1.15,2.38,7.68,3.72,1.15-2.38ZM788.45,610.19c1.34-2.77.53-4.89-2.57-6.41-2.93-1.42-4.77-.6-6.13,2.21l-1.38,2.86,8.69,4.21,1.39-2.87Z"/>
  <path class="st1" d="M766.19,580.65l6.22-15.69,7.39,2.93-3.87,9.75,6.89,2.73,3.28-8.28,7.49,2.97-3.29,8.28,7.88,3.12,4.01-10.11,7.48,2.97-6.36,16.06-37.12-14.73Z"/>
  <path class="st1" d="M774.85,557.82l2.03-6.08,37.88,12.61-2.03,6.08-37.88-12.61Z"/>
  <path class="st1" d="M810.81,555.33l-3.55-5.5c2.88-.17,4.43-1.16,4.77-2.4.55-2-.66-3.48-5.68-4.85l-24.74-6.79,1.69-6.18,25.46,6.99c7.56,2.07,13.04,6.43,11.46,12.19-1.12,3.99-4.16,5.98-9.41,6.54Z"/>
  <path class="st1" d="M785.05,521.9l1.36-6.25,39.02,8.46-1.36,6.26-39.02-8.47Z"/>
  <path class="st1" d="M788.06,507.91l.98-6.44,19.89-3.67,9.14-1.25.03-.18c-4.25-.28-10-.65-14.72-1.37l-13.06-1.98.92-6.02,39.47,6.01-.98,6.43-20.03,3.62-9.04,1.27v.17c4.44.39,9.94.68,14.68,1.41l13.11,1.99-.92,6.01-39.47-6Z"/>
  <path class="st1" d="M812.11,481.98c-13.28-.93-20.46-7.42-19.96-14.52.27-3.91,2.93-6.5,5.78-8.13l5.88,3.82c-1.86,1.16-3.29,2.45-3.43,4.67-.27,3.92,4.13,7.07,11.9,7.61,7.92.56,12.69-1.46,13.03-6.4.09-.95-.21-1.89-.84-2.61l-6.42-.45-.3,4.22-7.83-.55.69-9.89,18.61,1.31c2.54,2.04,4.51,5.48,4.25,9.19-.5,7.39-7.87,12.68-21.36,11.73Z"/>
  <path class="st1" d="M135.98,350.87c-2.2-1.35-4.52-2.47-6.93-3.38-5.6-1.93-11.26-3.65-16.95-5.38-1.78-.48-3.38-1.46-4.61-2.82-1.1-1.35-2.68-2.23-4.41-2.45-1.67-.28-3.31-.78-4.86-1.47-1.47-.6-2.81-1.7-4.33-2.14-3.19-.92-4.68-3.11-5.57-6.1-1.6-5.36-3.33-10.68-5.08-15.98-1.18-3.57-3.4-4.74-6.71-3.1-2.27,1.22-4.35,2.75-6.19,4.55-2.29,2.15-3.99,4.85-4.93,7.84-.91,2.81-1.77,3.32-4.56,2.58-3.42-.91-6.72-2.23-10.1-3.27-1.39-.43-3.04-1.13-4.26-.74-1.88.59-3.61,1.88-5.19,3.13-1.58,1.25-1.78,3.19-1.17,5.05.55,1.85,2.34,3.05,4.26,2.87,5.66-.23,10.77,1.93,15.98,3.57,1.35.4,2.42,1.43,2.86,2.77.88,2.2,1.93,4.33,3.14,6.37,2.91,4.78,5.96,9.47,9.07,14.36-.55.66-.8,1.01-1.1,1.3-.3.29-.7.49-.98.83-1.2,1.29-1.14,2.22.31,3.16,1.67,1.08,3.64,1.78,5.53,1.11,3.14-1.12,6.2-2.44,9.15-3.98,2.16-1.12,3.1-3.17,3.01-5.68-.02-1.39.08-2.78.31-4.15.2-1.36.67-2.68.86-4.04.29-2.03.64-2.38,2.7-2.19,3.11.32,6.15,1.15,8.99,2.45,8.82,3.87,18.05,6.46,27.32,8.91,1.13.35,2.32.42,3.48.21.99-.28,1.81-.96,2.26-1.88.2-.59-.61-1.91-1.3-2.31ZM74.17,320.77c1.16,2,2.19,3.79,3.22,5.57-2.22,1.61-5,1.51-6.03-.06-.96-1.46-.07-3.39,2.81-5.51ZM79.59,349.74c-3.57-2.81-5.01-7.03-7.79-11.17,1.61,0,2.34-.16,3.02,0,1.47.32,2.89.86,4.36,1.19,2.73.61,4.69,1.68,4.85,4.98.07,1.5,1.19,2.94,1.91,4.6-2.67,1.78-4.36,1.98-6.35.4Z"/>
  <path class="st1" d="M177.36,227.44c-.87-2.68-2.54-4.29-5.28-4.77-2.36-.41-4.75-.74-7.13-1.05-4.5-.61-5.03-1.1-5.81-5.61-.32-1.83-.49-3.71-.98-5.48-.55-1.93-1.91-2.22-3.48-.93-.67.55-1.28,1.18-1.93,1.77-.86.79-2.1,1.43-2.48,2.41-.34.86.28,2.09.49,3.19-.26-.02-.52-.06-.78-.12-2.94-.93-5.07-2.79-6.74-5.39-3.34-5.18-8.92-5.05-12.13.19-.44.75-.83,1.53-1.19,2.33-.7,1.52-.43,2.9,1.04,3.68,2.67,1.41,3.13,3.58,2.88,6.36-.25,2.79.58,3.3,4.17,2.37.61,1.77,1.19,3.38,1.71,5,.81,2.52,1.83,3.49,4.22,3.12,2.38-.38,3.36.61,4.19,2.6,1.42,3.4,3.95,6.03,6.59,8.5,1.87,1.75,3.58,1.28,4.03-1.24.34-1.92.29-3.89-.15-5.8-.68-2.97-1.8-5.84-2.79-8.73-.32-.92-.66-1.96-1.31-2.62-.49-.52-1.62-.93-2.21-.71-.58.23-.95,1.33-.98,2.06,0,.82.56,1.64.76,2.49.49,2.13,1.38,4.21.87,6.55-1-1.28-1.81-2.7-2.41-4.22-.7-1.83-1.13-3.77-1.82-5.61-1.17-3.07-2.79-3.64-5.83-2.24-.45.14-.91.23-1.38.27l-2.09-5.48c3.22.35,6.29,1.5,8.95,3.34,1.47.98,2.83,1.86,4.69,2.12,1.09.15,2.33,1.22,2.98,2.22.88,1.33,1.32,2.98,1.83,4.52.72,2.18,1.26,4.41,1.99,6.59.43,1.29,1.2,2.41,2.76,2.43,1.16,0,2.19-1.32,2.18-3.21,0-1.73-.38-3.43-.63-5.17-.15-1.02-.37-2.03-.64-3.53,3.17.46,6.17,1.74,8.7,3.71-1.58,3.92-3.08,7.57-4.48,11.24-.57,1.42-.98,2.89-1.22,4.41-.23,1.67.6,2.4,2.33,2.27,3.76-.27,6.26-2.3,7.84-5.65,1.83-3.96,3.4-8.02,3.64-12.42.04-.85-.45-1.8-.88-2.59-.64-1.11-1.72-2.02-2.09-3.17Z"/>
  <path class="st1" d="M148.55,210.48c2.58-1.01,5.34-6.36,4.82-8.96-.54-2.71-2.89-4.07-5.39-2.83-1.72.92-3.3,2.07-4.71,3.43-.59.55-1.11,1.96-.82,2.53,1.05,1.99,2.31,3.87,3.75,5.6.37.43,1.67.5,2.35.23Z"/>
  <path class="st1" d="M197.81,221.06c-10.48-5.33-20.08-12.07-29.54-18.96-9.82-7.14-17.68-15.88-22-27.52-1.96-5.24-8.15-7.7-13.35-5.53-2.4,1-4.62,2.44-6.98,3.58-3.77,1.78-5.82,4.85-6.86,8.73-1.96,7.47-2.48,15.09-2.57,22.76-.04,2.99,1.51,5.45,3.19,7.74.41.55,1.55.84,2.27.73.4-.06.87-1.19.9-1.85.05-1.75-.02-3.5-.19-5.24-.64-7.14.92-13.92,3.3-20.56.9-2.51,2.94-3.19,5.28-1.92,1.02.64,1.99,1.36,2.9,2.15,3.84,2.9,7.49,6.08,11.55,8.61,7.69,4.87,14.65,10.79,20.68,17.6,1.58,1.81,3.33,3.47,5.24,4.94,7.04,5.21,14.07,10.41,20.07,16.87,1.09,1.07,2.44,1.85,3.92,2.26,3.71,1.11,6.85-1.03,7.34-4.86.09-1.19.11-2.39.05-3.58-.41-3.22-2.75-4.69-5.2-5.95Z"/>
  <path class="st1" d="M159.3,257.54c-4.53-3.43-9.19-6.67-13.62-10.22-5.45-4.38-10.61-9.1-16.08-13.45-4.72-3.77-9.3-7.59-12.59-12.76-.98-1.45-2.27-2.66-3.77-3.57-1.4-.81-2.95-1.35-4.56-1.58-1.39-.22-2.88,1.19-3.04,2.45-.19,1.43.83,1.92,1.93,2.19,1.71.43,2.34,1.78,3.09,3.15.61,1.24,1.39,2.4,2.33,3.42,5.92,5.8,11.93,11.5,17.89,17.25.57.52,1.05,1.12,1.43,1.78,2.02,3.95,5.31,6.58,8.9,8.94,1.1.72,2.09,1.59,3.14,2.38,3.91,2.94,7.73,6.09,11.84,8.78,2.21,1.38,4.65,2.35,7.2,2.88,2.41.56,4.17-1.41,3.64-4.27-.54-.72-1.3-2.07-2.38-3.09-1.71-1.52-3.49-2.95-5.35-4.28Z"/>
  <path class="st1" d="M260.15,83.06c2.59-1.64,5.15-3.33,7.62-5.13,1.72-1.26,1.8-2.6.36-4.17-1.77-1.92-4.09-2.88-6.61-3.36-4.74-.89-7.4,1.57-6.86,7.21.29.89.63,2.64,1.4,4.17.93,1.85,2.52,2.27,4.09,1.27Z"/>
  <path class="st1" d="M272.09,118.98c0-3.98-.56-5.25-4.21-6.85-1.11-.48-2.26-.89-3.43-1.2-2.2-.57-2.86-.06-2.82,2.17.09,2.97.74,5.89,1.9,8.61,2.59,6.37,4.33,12.88,3.76,19.85-.33,4.04-.41,8.09-.67,12.14-.49,7.71-1.51,15.29-6.06,21.9-.38.55-.38,1.36-.54,1.98,1.53.93,2.37.13,2.98-.79,1.57-2.38,3.33-4.69,4.47-7.26,2.59-5.7,4.4-11.72,5.35-17.91,1.1-7.51,1.92-14.95,0-22.52-.81-3.21-.75-6.73-.73-10.11Z"/>
  <path class="st1" d="M277.35,82.04c-1.33-1.57-3.59-1.98-5.38-.98-1.26.65-2.43,1.48-3.46,2.45-1.35,1.28-2.51,2.76-3.74,4.17-3.37,3.83-5.93,8.53-11.11,10.43-.39.21-.72.5-.98.85-.8.81-.96,2.06-.41,3.05,1.21,2.66,5.47,5.21,8.75,4.96,2.25.03,3.59-1.62,4.29-3.87.85-2.73,2.6-4.65,4.63-6.61,2.82-2.73,5.24-5.91,7.63-9.05,1.46-1.89,1.21-3.83-.22-5.4Z"/>
  <path class="st1" d="M230.74,151.91c1.57-8.08,2.86-16.23,4.77-24.23,1.47-6.18,3.61-12.21,5.66-18.24,1.1-2.98,2.37-5.89,3.81-8.72,1.47-3.02,1.04-4.9-2.1-6.05-5.01-1.8-7.9-1.73-10.61,2.84-4.04,6.8-7.76,14.2-16.29,16.87-1.47.46-2.36,1.96-2.34,3.69,0,1.84,1.35,2.67,2.77,3.34,3.25,1.52,7.11.58,9.52-2.31,1.45-1.81,2.33-4.01,2.53-6.32.42-3.51,2.94-5.88,4.62-8.66l.71.22c.13.81.18,1.63.16,2.45-.58,5.01-1.03,10.05-1.87,15.02-1.85,10.83-3.73,21.65-5.95,32.41-1.13,5.46-2.9,10.81-4.62,16.13-1.21,3.72.49,8.3,4.06,9.85,1.3.57,2.58.61,3.75-.29,1.12-.78,1.66-2.15,1.38-3.49-.19-.73-.56-1.4-1.07-1.95-1.81-1.98-2.53-4.74-1.9-7.35,1.07-5.05,2.02-10.14,3.01-15.2Z"/>
  <path class="st1" d="M255.94,128.12c-1.47-2.79-3.97-3.62-6.99-2.62-3.02,1-5.57,2.7-6.92,5.66-1.3,2.84-2.94,5.25-5.54,7.13-2.19,1.56-2.23,3.09-.86,5.46.93,1.6,2.03,3.11,2.96,4.71.47.92,1.52,1.37,2.51,1.07,2.36-.41,4.69-.96,6.99-1.64,1.05-.35,1.87-1.4,2.74-2.19.98-.87,1.73-2.04,2.81-2.69,3.48-2.09,4.25-5.33,4.23-9.79-.46-1.26-.97-3.3-1.93-5.1ZM250.1,140.25c-.31.78-6.08-.05-6.21-1.4-.43-1.76-.14-3.07.87-3.92,1.52-1.27,4.5-3.28,4.87-.94.37,2.35.79,5.48.47,6.26Z"/>
  <path class="st1" d="M390.56,32.52c-2.07-1.21-4.32-2.07-6.66-2.57-6.11-1.23-9.87,3.77-9.67,8.71.09,2.18.59,4.36.56,6.54-.03,1.76-.56,3.51-.88,5.26v.12c.52.38,1.03.78,1.58,1.1.35.13.71.21,1.08.24l1.86-2.35c.2.26.49.49.49.69.17,6.88.36,13.77.41,20.66,0,1.51-.46,3.02-.76,4.52-.12.66-.31,1.3-.58,1.91-.61,1.29-3.11,2.9-4.24,2.7-1.74-.3-1.64-1.96-1.96-3.11-.67-2.77-1.2-5.58-1.58-8.4-.58-3.92,0-7.56,2.42-10.92,1.47-2.01,2.52-4.41,1.29-7.05v-.11c.49-3.52-1.75-5.35-4.48-6.69-2.61-1.28-5.47-1.47-8.35-1.24-3.11.25-5.47,1.62-6.49,4.69-.98,2.89-.27,5.49,2.13,7.35,2.18,1.7,3.23,3.75,3,6.49-.02.55.04,1.1.17,1.63,1.31,6.1,2.49,12.24,4.02,18.26.68,2.7.09,4.86-1.81,6.54-1.43,1.27-3.26,2.14-4.97,3.07-1.08.53-2.19.99-3.32,1.38-2.09.81-2.65,2.41-2.48,4.48.49,5.84,6.55,10.41,12.47,9.34,1.01-.19,2.04-.33,2.88-.49.91,3.43,1.71,6.4,2.64,9.86l-4.72,1.39c-3.3.98-4.96,3.58-4.16,7.08.84,3.7,3.14,6.86,6.58,6.67.76-.01,1.52-.18,2.22-.49,1.55-.81,3.2-1.56,4.46-2.71,3.22-2.94,6.62-5.34,11.16-5.74,1.08-.16,2.07-.68,2.82-1.47,1.26-1.32,2.73-1.68,4.41-1.81,3.4-.2,6.72-1.18,9.68-2.88,3.06-1.73,4.14-5.61,2.42-8.67-.24-.42-.53-.82-.85-1.18-2.2-2.5-4.9-3.65-8.22-2.94-2.22.49-4.41,1.16-6.81,1.8-.62-1.08-1.47-2.12-1.84-3.31-.38-1.13-.46-2.34-.26-3.51.45-2.08,2.17-3.01,4.13-3.21,2.44-.25,3.91-1.58,5.13-3.57,1.47-2.45,3-4.84,4.66-7.15,2.19-3.03,1.83-5.85-.13-8.81-1.97-2.96-4.64-3.46-7.76-2.89-1.18.21-2.31.7-3.47,1.02-.66.19-1.35.29-2.4.49.37-2.32.71-4.24.98-6.17.83-6.36.38-12.7-.34-19.01-.32-2.86.34-5.15,2.31-7.17.85-.85,1.62-1.79,2.29-2.79,1.48-2.23,1.25-4.28-1.06-5.61ZM377.75,110.77c-.42-2-.85-4-1.27-6,1.89,2.15,2.04,2.74,1.27,6ZM375.53,97.55c-.21-.71-.38-1.44-.48-2.17-.13-2.29-.2-4.58-.27-6.86-.12-3.52.2-3.92,4.2-5.22,1.79,4.05.44,9.69-3.44,14.25h-.01Z"/>
  <path class="st1" d="M472.91,113.63c-.7-2.58-.68-5.19,1.15-7.38.39-.49,1.31-.69,1.99-.71.65.02,1.28.26,1.77.7,2.7,2.51,5.14,1.35,7.53-.46,5.65-4.27,10.61-9.19,14.35-15.27,1.9-3.08,1.93-3.39-.91-5.53-2.84-2.14-4.58-4.84-4.32-8.55.26-3.71,2.29-5.52,5.96-5.12,1.61.18,3.17.71,4.78.92,1.27.15,2.56.19,3.84.09,1.47-.09,2.36-.92,2.75-2.35.63-2.41,1.79-4.66,3.39-6.57.55-.65.7-1.78.71-2.7.03-2.82.81-5.35,2.73-7.44,1.64-1.8,2.04-3.71.94-5.94-.52-.95-.88-1.98-1.08-3.04-.23-1.67-.49-3.43-.18-5.07.49-2.54,2.24-3.53,4.81-3.21.98.12,1.91.49,2.87.49,5.08.21,7.66,3.43,9.37,7.69,1.47,3.67-.07,7.64-4.02,10.26-.72.48-1.48.9-2.28,1.25-4.35,1.96-5.29,5.64-5.17,9.92.04,1.47.68,2.32,2.05,2.94,2.26,1.01,4.46,2.17,6.56,3.5,2.42,1.58,2.88,3.31,1.91,5.51-1.02,2.31-2.4,2.94-5.28,2.49-2.24-.35-4.49-.67-6.74-.98-1.99-.26-3.5.45-4.83,2-3.84,4.45-4.19,10.02-.67,15.29,2.28,3.43,4.53,6.9,7.22,9.97,4.01,4.57,8.64,8.49,14.43,10.77,1.23.49,3.1.59,3,2.45-.12,2.02-2.05,2.08-3.47,2.19-3.77.34-7.55.48-11.33.43-1.6-.14-3.13-.74-4.41-1.71-3-2.16-5.33-5.13-6.72-8.56-1.8-4.41-3.67-8.75-5.57-13.11-.38-.87-1.02-1.62-1.96-3.05-1.39,1.73-2.45,3.07-3.51,4.37-3.24,3.92-6.28,8-9.82,11.6-2.9,2.94-6.53,4.97-10.94,4.95-2.05,0-4.11.24-6.15.15-2.15-.07-4.12-.85-4.75-3.18Z"/>
  <path class="st1" d="M673.57,89.37c-1.33.93-2.52,2.04-3.78,3.04-.84.66-1.63,1.47-2.58,1.88-4.8,2.16-9.64,4.22-14.58,6.37,3.04-2.25,6-4.37,8.87-6.61,1.03-.76,1.92-1.72,2.6-2.81,1.38-2.41.49-5.36-1.96-7.14-1.8-1.32-4.03-.95-6.12.98-.59.54-1.24,1.03-1.77,1.47-1.35-1.52-2.34-2.94-3.62-4.03-2.87-2.4-5.92-1.8-7.88,1.43-.78,1.29-1.42,2.67-2.13,3.99-3,5.6-5.96,11.23-9.03,16.79-.98,1.81-.77,3.53-.2,5.3.82,2.54,2.42,3.32,4.68,1.96,1.3-.78,2.26-2.14,3.38-3.25-.01.38.01.76.05,1.13.23,1.69.1,3.82,1.92,4.5,1.96.73,2.93-1.29,4.1-2.45.07-.07.13-.17.21-.25,1.79-1.98,4.1-2.51,7.05-2.45-.71,2.48-1.51,4.41-3.92,5.32-2.59.98-5.22,1.12-7.96.98-9.36-.56-18.69-2.04-28.11-1.1-1.13.11-1.95-.11-2.7-1.24-1.04-1.61-2.5-1.72-4.15-.72-2.53,1.52-3.43,5.26-1.91,8.04,1.7,3.15,5.88,4.96,8.38,3.39,2.13-1.34,4.4-1.65,6.78-1.76,1.96-.09,3.88-.15,5.81-.31,5.8-.49,11.59-1.23,17.41-1.49,5.21-.24,7.54,2.45,7.42,8.06-1.05.26-2.2.49-3.31.84-1.3.42-1.66,1.34-.92,2.49.47.72,1.08,1.34,1.78,1.84,2.44,1.75,4.89,3.5,7.48,5.09,3.12,1.92,5.42,1.13,7.08-2.2.93-1.85,1.11-3.73.22-5.61-.74-1.56-1.63-3.04-2.42-4.57-.67-1.31-1.3-2.65-1.89-3.84,3.66-4.02,3.38-3.01,3.54-8.87v-.65c.18-3.74,3.03-5.77,6.68-4.74,1.04.29,2.03.75,3.06,1.06,4.57,1.38,7.27-.64,6.94-5.39-.21-1.91.13-3.85.97-5.58,1.43-2.87.98-5.67-1.04-8.17-1.46-1.84-2.57-2.03-4.43-.72ZM644.34,99l-.62-.49c.19-.45.45-.87.75-1.25.26-.25.72-.28,1.47.07l-1.6,1.67Z"/>
  <path class="st1" d="M630.14,125.59c-1.59.04-2.9.87-3.11,2.71-.12,1.67.81,3.23,2.33,3.92.74.29,1.51.53,2.28.73.17.21.34.42.49.63-5.24,1.47-8.68,4.24-7.44,10.33-7.19-1.72-12.62.64-17.29,5.1-1.1,1.17-1.93,2.58-2.41,4.12-.58,1.85-.99,3.75-1.22,5.67-.44,2.72.73,4.73,3.39,5.44,3.29.87,6.6,1.17,9.47-1.36,1.85-1.64,3.78-3.19,5.61-4.85,2.94-2.68,4.03-2.82,7.34-.76,1.16.78,2.39,1.46,3.66,2.04,1.96.8,3.35.04,4.03-1.96.84-2.21.14-4.71-1.74-6.16-3.36-2.62-4.72-5.71-4.2-9.95.28-2.29.19-2.71,2.45-3.52,1.32-.49,2.69-.8,3.97-1.37,2.3-1.1,3.71-3.47,3.56-6.02-.22-2.59-1.95-3.84-4.2-4.25-2.3-.4-4.64-.56-6.97-.49ZM618.72,153.37c-1.35,1.61-2.94,2.99-4.46,4.47l-.81-.4c0-1.47-.16-2.99.1-4.41.23-1.02.74-1.96,1.47-2.71.92-.98,2.1-.87,3.19-.04,1.1.84,1.35,2.09.51,3.09Z"/>
  <path class="st0" d="M838.14,310.91l2.48,5.82c.17,4.27-.26,6.69-1.31,7.26-1.57.87-5.17,2.78-6.18,1.54-1.02-1.25-7.01-4.9-5.63-8.42,1.38-3.52,7.99-8.19,10.64-6.2Z"/>
  <path class="st0" d="M829.47,331.21c-.37-.46-4.43-3.54-12.18-9.24-13.03-10.69-19.95-16.28-20.74-16.78-1.19-.75-3.09-4.61-4.4-6.51-.88-1.27-2.4-3.1-4.57-5.49-1.05-.87-9.51-1.02-11.39,1.11-2.17,2.45,1.18,6.65,1.83,8.73.65,2.09,11.3,5.78,13.25,7.08,1.3.87,3.24,2.32,5.81,4.35l11.01,10.55c2.56.87,3.54,1.67,2.94,2.38-.91,1.08-10.31-2.21-14.79-3.27-4.48-1.07-7.21-.18-12.63,2.02-5.43,2.21-1.89,5.39-.84,7.02.71,1.09-.39,2.28-3.3,3.58-8.79,3.44-13.83,5.26-15.11,5.45-1.93.29-1.09-1.34-1.47-1.92-.26-.39,0-1.37.78-2.94,3.3-1.68,2.81-4.12,2.9-5.03.1-.9-1.92-5.82-5.91-4.45-3.99,1.37-4.58,4.06-3.72,7.09.85,3.02,4.37,2.71,5.03,2.89.44.13.16.92-.85,2.37-4.19,3.53-6.01,6.3-5.44,8.32.57,2.02,1.9,3.07,3.97,3.16,8.49-3.22,13.1-4.88,13.85-4.97.74-.09.81.62.21,2.11-6.62,5.57-5.06,11.24-3.85,13.25,1.2,2.02,4.28,2.45,6.99,1.14,2.7-1.31,2.23-7.55,2.32-9.62.08-2.07-2.99-4.4-3.53-5.07-.55-.67,0-1.89.98-2.41.97-.51,5.72-.28,7.61-.27,1.9.01,1.35-1.82,2.9-1.96,1.54-.13,5.99,3.12,6.97,3.03.99-.08,2.45-1.95,3.8-1.88,1.36.08,3.53,2.01,5.22,2.25,1.69.23,1.91-.49,4.96-1.96,3.05-1.47.49-3.49.27-6.42-.21-2.92-2.68-4.69-4.07-5.97-1.38-1.28-6.88-3.1-7.91-4.21-1.02-1.11,2.26-1.16,3.84-1.76,1.58-.6,11.47,4.07,13.18,4.62,1.71.55,11.46,10.38,14.03,12.41,1.71,1.35,2.98,1.27,3.81-.24,3.83-6.55-1.19-11.85-1.76-12.54ZM796.35,334.29c.06,1.47-.49,2.64-1.42,1.85-.63-.53-1.89-1.85-3.8-3.96,3.44.44,5.18,1.14,5.22,2.11Z"/>
  <path class="st1" d="M702.23,164.85c0,4-3.25,7.25-7.25,7.25s-7.24-3.25-7.24-7.25,3.24-7.25,7.24-7.25,7.25,3.25,7.25,7.25Z"/>
  <path class="st1" d="M737.96,205.12c7.93-5.05,11.98-7.74,12.14-8.05.23-.47.28-6.86,3.2-9.5,2.58-2.15,5.95-5.85,11.13-.73,5.18,5.12-1.21,17.42-1.67,17.85-1.79,1.25-4,1.74-6.15,1.36-13.03,7.32-19.84,11.17-20.44,11.55-.9.57-3.39,5.45-.45,8.25,2.95,2.8,14.15,3.94,16.54,2.57,1.59-.92,8.82-5.45,21.71-13.59,5.23-2.29,8.27-1.37,9.13,2.75,0,4.13-.22,6.41-.66,6.82-1.17,1.11-2.82,1.57-4.4,1.23-.99.76-2.05,1.43-3.15,2-1.11.46-1.01.98-3.92.57-2.91-.41-7.39-1.04-8.28,1.44-.9,2.47.54,3.1.82,3.32.29.23,5.17,4.75,3.62,10.28-.1.21-.33.29-.68.22-.36-.06-.81.32-1.35,1.14-.2.98-.94,1.05-2.22.2-1.91-1.26-11.12-7.99-11.71-8.22-.59-.22-3.43.92-4.95,1.35-2.22,1.18-10.94,3.04-8.49,9.17,1.25,2.26,2.04,4.29,2.35,6.1.47,2.71,1.27,5.16-2.41,5-3.68-.17-5.97-2.15-8.7-5.63-.72-1.57-1.26-2.53-1.61-2.9-.52-.56-.48-.76.98-.81.24-.13.36-.54.35-1.22-.02-1.02-.55-6.21,1.03-7.35,1.59-1.13,10.29-5.78,10.39-6.91.1-1.12-.55-1.55-1.65-2.23-1.1-.68-8.63-4.86-12.34-3.53-6.68,1.96-6.91,4.19-7.53,6.21-.63,2.01-7.1,7.8-9,7.38-1.91-.43-6.89-1.24-6.44-2.66.45-1.42,2.94-9.79,2.35-10.73-.59-.94-1.17-1.53-2.25-1.73-1.08-.21-3.07.05-3.88-1.09-.81-1.14-3.95-5.18-2.97-6.98.97-1.81,7.2-6.43,7.98-4.71.79,1.72,5.51,7.45,7.35,7.18,1.84-.26,9.3-3.79,9.84-5.38.55-1.59,1.07-1.73-1.1-3.85-2.17-2.12-.35-11.1,1.66-13.04,2-1.93,15,7.05,15.74,6.86l.09.04Z"/>
  <path class="st1" d="M445.69,692.37v58.1c28.75-.37,55.82-14.03,79.43-37.81-24.42-13.16-51.69-20.12-79.43-20.29Z"/>
  <path class="st1" d="M531.9,607.99l-.03-47.25c-2.8-.54-5.62-1.05-8.44-1.54v48.79h-26.99v-52.64c-2.77-.33-5.55-.61-8.33-.86v53.5h-26.89v-55.25c-5.15-.18-10.31-.31-15.5-.32v137.58c28.36.17,56.24,7.34,81.17,20.89,29.53-30.56,53.57-77.02,68.65-133.02-12.03-4.18-24.27-7.87-36.72-11.06v41.2l-26.92-.02ZM472.57,667.11c-.46,1.58-1.22,3.05-2.24,4.33-.89,1.08-1.97,2-3.19,2.68-2.58,1.4-5.71,1.31-8.21-.23-1.38-.9-2.55-2.1-3.43-3.49-.83-1.38-1.47-2.86-1.89-4.41-.7-2.52-1.05-5.12-1.04-7.73-.04-3.37.47-6.72,1.51-9.93.67-2.24,1.99-4.24,3.79-5.73,3.1-2.64,7.66-2.65,10.77-.03,1.71,1.38,2.99,3.22,3.68,5.3,1.12,3.2,1.67,6.58,1.63,9.98.03,3.14-.44,6.27-1.38,9.26ZM509.06,664.28c-1.7,3.23-4.29,5.89-7.47,7.69-3.31,1.93-7.22,2.98-11.75,3.14v-.68c2.43-.51,4.77-1.44,6.89-2.74,1.81-1.14,3.33-2.67,4.47-4.48,1.14-1.88,1.92-3.96,2.31-6.13-.82.44-1.69.81-2.58,1.08-.73.22-1.48.32-2.24.31-2.39.06-4.68-.94-6.27-2.71-1.67-1.81-2.51-4.29-2.51-7.44-.02-2.08.45-4.13,1.36-6,2.38-5.01,8.37-7.14,13.38-4.76.43.2.84.43,1.23.69,1.8,1.19,3.23,2.86,4.13,4.82,1.06,2.25,1.59,4.7,1.55,7.19,0,3.49-.86,6.94-2.5,10.02Z"/>
  <path class="st1" d="M501.37,642.79c-.44-.37-1.01-.57-1.58-.54-.78-.02-1.51.38-1.91,1.05-.66.98-.98,2.81-.98,5.5,0,4.52.54,7.63,1.61,9.34.57,1.03,1.66,1.67,2.84,1.66.88-.07,1.75-.34,2.52-.78.16-1.82.24-3.43.24-4.81.02-2.8-.32-5.58-1.02-8.29-.26-1.19-.85-2.28-1.72-3.13Z"/>
  <path class="st1" d="M465.14,643.05c-.49-.55-1.22-.84-1.96-.77-.61-.04-1.21.17-1.66.58-.61.57-1.01,1.58-1.22,3.02-.21,1.44-.32,6.48-.32,15.1,0,4.7.16,7.84.49,9.44.24,1.15.59,1.93,1.05,2.32.51.41,1.15.62,1.81.59.7.05,1.38-.24,1.83-.79.68-.91,1.08-2.32,1.17-4.23l.1-10.51c0-5.8-.03-9.18-.1-10.15-.16-2.26-.55-3.79-1.19-4.6Z"/>
  <path class="st1" d="M458.77,751.8c32.6-1.45,64.77-8.05,95.3-19.54-8.34-6.98-17.34-13.17-26.85-18.46-20.58,20.91-43.77,34.26-68.45,38Z"/>
  <path class="st1" d="M443.31,750.47v-58.1c-27.74.17-55.01,7.13-79.43,20.29,23.63,23.78,50.68,37.44,79.43,37.81Z"/>
  <path class="st1" d="M322.79,540.67l-41.45-23.44c2.67,19.66,6.52,39.13,11.52,58.32,12.23-4.25,24.68-7.98,37.35-11.22v-11.11c0-5.22-2.85-10.03-7.42-12.55Z"/>
  <path class="st1" d="M357.14,543.3v15.02c2.81-.54,5.62-1.06,8.44-1.54v-14.65c0-10.24-5.47-19.7-14.34-24.82l-74.06-42.08c.2,3.24.45,6.45.7,9.66l68.5,39.78c6.66,3.84,10.77,10.94,10.76,18.63Z"/>
  <path class="st1" d="M276.15,442.39l98.53,58.93c11.07,6.4,17.89,18.23,17.89,31.02v20.61c2.77-.31,5.56-.59,8.33-.86v-21.05c0-15.35-8.2-29.54-21.51-37.21l-33.58-19.32v-32.12l56.96,32.76c15.5,8.96,25.04,25.5,25.04,43.4v31.83c5.15-.18,10.31-.31,15.5-.32v-107.68h-167.16Z"/>
  <path class="st1" d="M684.39,473.87l-74.1,41.9c-2.72,20.42-6.69,40.65-11.91,60.57,34.25,12.1,66.96,28.19,97.46,47.92,38.59-52.81,59.45-116.48,59.6-181.89h-71.05v31.5Z"/>
  <path class="st1" d="M615.27,442.38c-.03,13.93-.62,27.62-1.62,41.07l70.73-41.07h-69.11Z"/>
  <path class="st1" d="M443.31,361.55v-27.56c-23.27,28.54-46.11,59.47-20.35,106.01h20.35v-2.69c-20.96-31.74-14.12-55.3,0-75.76Z"/>
  <path class="st1" d="M360.92,321.6c-22.84-4.18-45.33-10.08-67.28-17.65-11.13,41.04-17.4,87.23-17.49,136.05h146.2c-67.99-55.79-74.56-90.33-61.43-118.4Z"/>
  <path class="st1" d="M414.28,193.92c10.14,6.96,19.84,14.54,29.03,22.71v-26.55c-27.8-.17-55.14-7.07-79.68-20.11-29.71,30.01-53.98,76.02-69.37,131.67,22.1,7.63,44.75,13.56,67.76,17.73,20.3-39.77,78.76-67.05,52.26-125.45Z"/>
  <path class="st1" d="M486.24,475.18l56.95-32.76v32.13l-33.58,19.32c-13.3,7.67-21.5,21.85-21.5,37.21v21.03c2.78.26,5.56.54,8.32.85v-20.56c0-12.8,6.82-24.62,17.9-31.02l98.53-58.96v-.04h-167.17v107.66c5.19,0,10.36.13,15.51.32v-31.78c-.01-17.9,9.54-34.44,25.04-43.4Z"/>
  <path class="st1" d="M558.79,553.27v11.08c12.67,3.23,25.11,6.97,37.35,11.22,5-19.18,8.84-38.64,11.51-58.27l-41.44,23.44c-4.57,2.52-7.41,7.31-7.42,12.53Z"/>
  <path class="st1" d="M523.43,542.15v14.63c2.82.48,5.63,1,8.44,1.54v-14.99c-.01-7.69,4.1-14.8,10.77-18.64l68.49-39.77c.25-3.21.49-6.42.7-9.66l-74.04,42.07c-8.88,5.12-14.35,14.58-14.36,24.82Z"/>
  <path class="st1" d="M291.25,578.65c-33.98,12.03-66.43,27.99-96.69,47.57,35.09,47.36,82.89,83.8,137.84,105.11,8.58-7.3,17.84-13.75,27.65-19.26-29.59-30.88-53.66-77.44-68.8-133.42Z"/>
  <path class="st1" d="M552.14,149.38c-29.97-11.04-61.46-17.38-93.37-18.8,24.08,3.65,46.76,16.45,66.98,36.5,9.33-5.07,18.15-11,26.39-17.7Z"/>
  <path class="st1" d="M445.69,131.91v55.79c27.15-.17,53.87-6.86,77.9-19.5-23.27-22.84-49.77-35.92-77.9-36.29Z"/>
  <path class="st1" d="M430.22,130.58c-31.9,1.41-63.39,7.76-93.36,18.8,8.23,6.7,17.06,12.63,26.38,17.7,20.22-20.05,42.9-32.85,66.98-36.5Z"/>
  <path class="st1" d="M443.31,187.7v-55.79c-28.13.37-54.63,13.45-77.9,36.29,24.03,12.64,50.75,19.33,77.9,19.5Z"/>
  <path class="st1" d="M334.9,732.26c30.54,11.49,62.7,18.09,95.3,19.54-24.67-3.74-47.85-17.09-68.44-38-9.52,5.3-18.51,11.48-26.86,18.46Z"/>
  <path class="st1" d="M470.96,328.41c-7.84.44-15.74.69-23.7.75l-1.57,1.91v27.16c7.73-10.47,17.1-20.17,25.27-29.82Z"/>
  <path class="st1" d="M445.69,440h23.3c-19.27-41.89,37.55-67.75,40.1-92.82,11.7,48.8-38.73,58.67-39.91,92.82h143.68c-.1-48.82-6.39-94.99-17.5-136.05-30.51,10.53-62.06,17.82-94.1,21.75-3.32,28.78-46.4,47.88-55.57,85.58v28.72Z"/>
  <path class="st1" d="M422.76,643.3c-.65.98-.98,2.81-.98,5.5,0,4.52.54,7.63,1.62,9.34.57,1.03,1.66,1.67,2.83,1.66.89-.07,1.75-.34,2.53-.78.16-1.82.24-3.43.24-4.81.02-2.8-.33-5.58-1.03-8.29-.26-1.19-.86-2.28-1.74-3.13-.44-.37-1-.57-1.58-.54-.77-.01-1.49.39-1.89,1.05Z"/>
  <path class="st1" d="M400.92,607.96v-53.47c-2.79.26-5.56.55-8.33.86v52.61h-27.02v-48.76c-2.82.49-5.63.98-8.44,1.54l-.03,47.22h-26.89v-41.17c-12.45,3.19-24.69,6.88-36.73,11.06,15.08,56,39.12,102.46,68.66,133.03,24.92-13.56,52.8-20.73,81.17-20.89v-137.58c-5.19,0-10.36.13-15.5.32v55.22h-26.89ZM396.85,674.43h-17.46v-.91h.88c1.41,0,2.45-.16,3.03-.49.56-.28,1-.76,1.22-1.34.21-.57.32-1.9.32-3.99v-17.18c.06-.97-.02-1.93-.22-2.88-.16-.4-.45-.75-.82-.98-.41-.27-.89-.41-1.38-.4-1.05.06-2.08.32-3.03.79l-.44-.89,12.2-5.57h.81v27.11c0,2.04.08,3.34.27,3.92.19.58.59,1.07,1.12,1.38.85.42,1.79.61,2.74.54h.76v.89ZM434.92,647.07c1.06,2.25,1.58,4.7,1.54,7.19,0,3.49-.87,6.94-2.51,10.02-1.71,3.23-4.31,5.9-7.49,7.69-3.31,1.93-7.23,2.98-11.75,3.14v-.68c2.43-.51,4.76-1.44,6.88-2.74,1.81-1.14,3.34-2.67,4.48-4.48,1.14-1.88,1.92-3.96,2.31-6.13-.82.44-1.69.81-2.58,1.08-.73.22-1.48.32-2.24.31-2.39.06-4.68-.94-6.27-2.71-1.67-1.81-2.51-4.29-2.51-7.44-.02-2.08.44-4.13,1.36-6,2.38-5.01,8.37-7.14,13.38-4.76.42.2.84.43,1.23.69,1.81,1.19,3.26,2.86,4.17,4.82Z"/>
  <path class="st1" d="M449.22,326.75c7.99-.08,15.93-.36,23.83-.85,8.43-10.28,15.18-20.53,16.8-31.67,8.65,11.04,11.91,20.49,11.6,29.05,31.77-3.93,63.03-11.18,93.28-21.64-15.38-55.65-39.66-101.66-69.36-131.67-24.55,13.04-51.88,19.94-79.68,20.11v28.69c50.17,46.64,29.14,76.53,3.53,107.98Z"/>
  <path class="st1" d="M528.94,712.05c9.82,5.51,19.08,11.96,27.66,19.25,54.95-21.29,102.74-57.73,137.83-105.08-30.26-19.57-62.71-35.53-96.68-47.55-15.14,55.97-39.21,102.52-68.81,133.38Z"/>
  <path class="st1" d="M273.73,442.38h-69.07l70.69,41.04c-1-13.44-1.59-27.1-1.62-41.04Z"/>
  <path class="st1" d="M204.61,442.38h-71.04c.14,65.4,21.01,129.07,59.59,181.88,30.5-19.74,63.21-35.82,97.47-47.92-5.23-19.93-9.21-40.17-11.92-60.6l-74.1-41.9v-31.46Z"/>
  <path class="st1" d="M596.96,300.85c33.66-11.85,65.82-27.56,95.85-46.82-35.34-46.86-83.2-82.8-138.07-103.66-8.47,7-17.59,13.2-27.22,18.49,29.72,30.32,54.01,76.38,69.44,131.99Z"/>
  <path class="st1" d="M361.5,168.86c-9.64-5.29-18.75-11.49-27.23-18.49-54.87,20.86-102.74,56.79-138.1,103.66,30.04,19.27,62.21,34.97,95.87,46.82,15.44-55.61,39.71-101.67,69.46-131.99Z"/>
  <path class="st1" d="M291.41,303.15c-33.95-11.93-66.39-27.77-96.67-47.21-39.58,53.22-61.03,117.74-61.17,184.06h140.16c.1-49.1,6.46-95.55,17.68-136.85Z"/>
  <path class="st1" d="M615.27,440h140.17c-.16-66.33-21.61-130.85-61.2-184.06-30.29,19.44-62.73,35.28-96.67,47.21,11.24,41.3,17.6,87.75,17.7,136.85Z"/>
</svg>