<?xml version="1.0" encoding="UTF-8"?>
<svg id="_图层_1" data-name="图层_1" xmlns="http://www.w3.org/2000/svg" version="1.1" viewBox="0 0 88 88">
  <defs>
    <style>
      .st0 {
        fill: #fff;
        fill-rule: evenodd;
      }
    </style>
  </defs>
  <path class="st0" d="M61.3,76.1c.6,0,1.1-.5,1.1-1.1,0-.6-.5-1.1-1.1-1.1-.6,0-1.1.4-1.1,1,0,.6.4,1.1,1.1,1.1Z"/>
  <path class="st0" d="M25.9,75.6c.6,0,1.1-.5,1.1-1.1,0-.6-.5-1.1-1.1-1.1-.6,0-1.1.5-1.1,1,0,.6.4,1.1,1,1.1Z"/>
  <path class="st0" d="M44.6,1.8c0,0,2.1,0,2.1,0,3.4.3,6.6.9,10.4,2,3.9,1.4,7.5,3.1,10.9,5.4,4.5,3.2,8.2,7.1,11.3,11.6,2.2,3.5,3.9,7.1,5.2,11.1,1,3.8,1.5,7.2,1.7,10.5,0,.5,0,1.1,0,1.6,0,3.2-.4,6.1-1,9-.8,3.4-1.9,6.5-3.4,9.7-1.9,3.8-4.2,6.9-7,10-2.4,2.5-5,4.7-7.8,6.6-4.2,2.6-8.3,4.4-13.1,5.7-3,.6-5.7,1-8.4,1.2-3.7,0-7.2-.3-10.6-1-3.4-.8-6.5-1.9-9.8-3.4-3.7-2-6.9-4.2-10-7-3.6-3.5-6.3-7.1-8.6-11.2-1-2.1-1.8-3.9-2.5-5.7-1.3-4.2-2.1-8.1-2.3-12.3,0-.5,0-1,0-1.5,0-3.1.4-6.1,1-9.1.9-3.6,2-6.7,3.5-9.7,1.9-3.8,4.2-6.9,7-10,3.5-3.6,7.1-6.3,11.3-8.6,1.8-.9,3.7-1.7,5.6-2.5,4.2-1.3,8.1-2.1,12.4-2.3,0,0,2,0,2.1,0ZM44.6,0h-2.2c-4.5.3-8.6,1.1-12.9,2.4,0,0,0,0,0,0-2,.7-3.9,1.6-5.9,2.6-4.3,2.4-8.1,5.3-11.7,8.9-2.9,3.2-5.2,6.5-7.3,10.5-1.6,3.2-2.7,6.4-3.6,10.1,0,0,0,0,0,0C.3,38.2,0,41.8,0,45.7H0c.3,4.4,1,8.5,2.4,12.8,0,0,0,0,0,0,.7,1.8,1.5,3.7,2.6,5.9,0,0,0,0,0,0,2.4,4.3,5.3,8,9,11.7,3.2,2.9,6.5,5.2,10.4,7.3,0,0,0,0,0,0,3.4,1.6,6.6,2.7,10.2,3.5,3.6.7,7.1,1.1,11,1,2.9-.2,5.6-.5,8.8-1.2,0,0,0,0,0,0,4.9-1.3,9.3-3.2,13.6-6,2.9-2,5.5-4.2,8.1-6.8,2.9-3.2,5.2-6.5,7.3-10.4,1.6-3.4,2.7-6.6,3.6-10.1.8-3.6,1.1-7.1,1-11.1-.2-3.5-.8-6.9-1.8-10.9,0,0,0,0,0,0-1.3-4.2-3.1-7.9-5.4-11.5-3.3-4.8-7.1-8.7-11.8-12.1-3.6-2.4-7.3-4.3-11.4-5.7h0c-4-1.2-7.3-1.8-10.8-2h-2.2C44.6,0,44.6,0,44.6,0Z"/>
  <path class="st0" d="M24.5,11.7s0,0,0,.1c0,0,0,0,0,0,0,0,0,.1,0,.2,0,0,0,0-.1.1,0,0-.1.2-.1.2,0,0,0,0,0,0,0,0-.1,0-.2,0,0,0,0,0,0,0,0-.2,0-.5,0-.7,0,0,0-.1,0-.2,0-.1,0-.4,0-.4,0,0,.1,0,.1.1,0,0,0,0,0,0,0,.1.2.2.3.4ZM25.4,13.2h0s0,0,0,.1c0,0,0,0,0,0,0,0,0,0,0,0,0,0,0,0,0,.1,0,0,0,.2,0,.2,0,0,0,0-.1,0,0,0,0,0,0,0,0,0-.1,0-.2,0,0,0,0,0,0,0,0-.2,0-.6,0-.9,0,0,0,0,0-.1,0,0,0,0,0,0,0,0,0,0,.1-.1,0,0,0,0,0,0,0,0,0,0,0,0,0,0,0,0,0,0,0,0,0,0,.1.2,0,.1.1.2.1.3ZM25.9,14.7s0,0-.1.1c-.2.1-.6-.3-.8-.6,0,0,0,0,0,0,0,0,.1-.1.2-.2,0,0,0,0,0,0,0,0,.1,0,.1-.2,0,0,0,0,.1,0,0,0,0,0,0,0,0,0-.1,0,0,.1,0,0,0,0,.2,0,0,0,.3,0,.4,0,0,0,0,0,0,0,.2.3,0,.7,0,.8ZM25.8,11.8s0,0,0-.1c0-.1,0-.2.1-.3,0,0,.1,0,.1,0,.1,0,.2,0,.3.1,0,0,.1.2.1.2,0,0,0,.1,0,.2,0,0,0,.2,0,.3,0,0,0,0,0,.1,0,.1,0,.2,0,.3,0,0,0,.1,0,.1-.2-.3-.5-.5-.7-.8ZM30,13.1c0,0,0,0-.2,0,0,0,0,0,0,0-.3,0-.3,0-.5.2,0,0-.5.2-.6.2,0,0,0,0,0,0,0,0-.2.1-.3.1-.1,0-.3.2-.4.2,0,0,0,0-.1,0h0c0,0,0,0,0,0,0,0,0,0,0,0-.1,0-.2.2-.4.2,0,0,0,0,0,0,0,0,0,0,0,0,0,0-.2-.1-.2-.3,0-.2.3-.5.3-.6,0,0,0-.2,0-.3,0,0,0,0,0,0-.1-.1-.4-.3-.4-.3,0,0,.2-.2.2-.3,0,0,0-.1,0-.1,0-.1,0-.2,0-.4,0-.2,0-.5-.1-.7,0-.1,0-.3-.1-.4,0-.2-.3-.4-.4-.5,0,0-.2,0-.2,0-.1,0-.2,0-.4,0,0,0-.2,0-.3.1,0,0-.2.1-.3.2,0,0-.1.2-.1.2h0c0,0-.2-.3-.3-.3,0-.3.4-.7.2-1,0,0-.2-.1-.3-.2-.1,0-.3,0-.3,0-.2.2-.3-.2-.4-.3,0-.1-.3,0-.4,0,0,0,0,0,0,0,0,.2,0,.4,0,.7,0,0,0,.2,0,.3s0,0,0,0c0,0,0,0,0,0,0,0-.1.2-.1.3,0,0-.1.1-.2.2-.2.1-.3.2-.5.4,0,0-.1.1-.1.1,0,0-.2.2-.2.2,0,0-.1.2-.1.3,0,0-.1.3-.1.4,0,0,0,0,0,0,0,.1,0,.3,0,.4,0,0,0,0,0,0,0,0,.1.2.1.2,0,0,.2,0,.2,0,0,0,.1,0,.2-.1,0,0,.1,0,.2-.1,0,0,0,0,0,0,0-.1,0-.3.1-.4,0,0,.1-.2.2-.3,0,0,.2-.1.2-.2,0,0,0,0,0,0,0,0,.2-.1.3,0,0,0,0,.4,0,.4,0,0-.1.4-.1.4-.3.2-.1.7,0,1,0,0,0,.1.1.2.1.2.3.3.4.5,0,0,0,0,0,.1,0,0,.1.2.2.2,0,.1,0,.2.1.3.1.2.3.4.4.6,0,.1.2.3.3.3.2,0,.3,0,.5,0,0,0,.1,0,.2,0,0,0,.4,0,.5,0,.1,0,.3.8.3.8,0,0,0,0,0,.1,0,.3,0,.5,0,.8,0,0,0,.2,0,.2,0,.4-.1.7,0,1.1,0,0,.1.3.2.3,0,0,0,0,0,0,.1,0,.4,0,.6,0,.2-.1,0-.9,0-1.1,0,0,0-.1,0-.2,0,0,0-.3,0-.3,0,0,0-.2,0-.3,0,0,0,0,0,0,0-.1,0-.8,0-.8,0,0,.3.2.3.3,0,0,0,0,0,0,.1.2.2.3.4.4,0,0,0,0,0,0,.1,0,.2,0,.3,0,.1,0,.2-.1.3-.2.4-.3-.3-.9-.5-1.2-.2-.2-.3-.4-.4-.7,0,0,0,0,0,0,0,0,.3-.2.4-.3,0,0,0,0,.1,0,0,0,.2,0,.3-.1.1,0,.3-.1.4-.2,0,0,.1-.1.2-.2.1-.1.3-.2.4-.3,0,0,.2-.1.3-.2,0-.1,0-.4,0-.5,0,0,0,0,0,0Z"/>
  <path class="st0" d="M39.7,10.7c0-.1.2-.2.2-.2.2,0,0,.2,0,.2,0,0-.1,0-.1,0ZM38,7.7c0,0,0,0,0,.1,0,0,0,0,0,0-.1,0-.2,0-.2-.1,0,0,.1-.2.2-.2,0,0,0,0,0,0,0,0,0,0,0,0,0,0,0,0,0,.2ZM39.1,8.2s0,0,0,0c0,0,0-.1,0-.2,0,0,0,0,0,0,0,0,.2,0,.2,0,0,0,0,0,0,0,0,0,0,0,0,0,0,0,0,.2-.1.3,0,0,0,.1-.1.2,0,0,0,0,0,0,0,0,0,0,0,0,0,0,0,0,0,0,0,0,0-.1,0-.2,0,0,0,0,0,0ZM40.9,8.4c-.1,0-.3,0-.4,0-.1,0-.3.2-.3.2,0,0-.2.1-.3.2,0,0,0,0,0,0,0,0,0,0,0,0-.1,0-.2.2-.3.2,0,0-.2,0-.2,0,0,0-.1-.3-.1-.4,0,0,0,0,0,0,0,0,.2-.2.3-.2.1-.1.3-.2.4-.4,0-.1,0-.3.2-.4,0,0,0,0,.1-.1,0,0,.1-.2.2-.3h0c0-.1-.4-.6-.5-.6,0,0-.2,0-.3,0,0,0-.1,0-.2,0,0,0,0,0,0,0,0,0-.1,0-.1,0,0,0,0,0,0,0,0,0,0,0,0,0,0,0-.1,0-.1.1,0,0-.1.2-.2.2-.1,0-.1,0-.1,0,0,0,0,0,0,0,0,0,0,0,0,0,0,0,0-.1,0-.2,0,0,0,0,0,0,0,0,0,0,0,0,0,0,.2-.3.3-.4,0,0,.3,0,.3-.1,0,0,0,0,0,0,0,0,.2-.3.1-.4,0-.2-.3-.2-.5-.1,0,0,0,0,0,0,0,0,0,0,0,0,0,0-.2,0-.3,0,0,0,0,0,0,0,0,0,0,0,0,0,0,0,0,0-.1,0,0,0,0,0,0,0,0,0,0-.1,0-.2,0-.1,0-.3.1-.4,0,0,.2,0,.2,0h0s0,0,0,.1h0c.2,0,.3-.2.4-.3,0,0,.2,0,.2-.2,0,0,0,0-.1,0-.2,0-.4-.1-.6,0,0,0,0,0,0,0,0,0,0,0-.1,0,0,0,0,0,0,0,0,0,0,0,0,0,0,0,0,0,0,0,0,0,0,0,0,0,0,0,0,0,0,0-.1.1-.2.3-.4.4,0,0,0,0,0,0,0,0,0,0-.1,0,0,0,0,0-.1,0,0,0,0,0,0,0,0,0,0,0-.1,0h0c0,0-.1,0-.1,0,0,0,0,0,0,0,0,0,0,0,0,0,0,0-.4,0-.5,0,0,0-.1,0-.2,0-.1,0-.2.2-.2.3,0,0,0,0,0,0,0,.2,0,.2,0,.2,0,0,0,0,.1,0,0,0,.3.1.4.1h0c0,0,.2,0,.3,0,.1,0,.2-.2.4-.2,0,0,.1,0,.2,0,0,0,0,0,.1-.1,0,0,0,0,.1,0h0s0,0,0,0c0,0,0,0,.1,0s0,0,0,0c0,0,.1.1.1.2,0,0,0,0,0,0,0,0,0,.2-.1.3,0,0,0,0,0,.1,0,0,0,0,0,.1,0,0,0,0,0,0,0,0-.1,0-.2,0,0,0,0,0,0,0,0,0-.1,0-.2,0,0,0,0,0,0,0,0,0,0,0,0,0,0,0,0,0-.1,0,0,0,0,0-.1,0,0,0,0,0,0,0,0,0,0,0,0,0,0,0-.1,0-.2,0-.2,0-.4,0-.5.2,0,0-.2.2-.3.3,0,0,0,0,0,0,0,0,0,.2,0,.3,0,0,0,0,0,0,.1,0,.3.2.5.2.1,0,.2-.2.3-.2.1,0,.3-.1.4-.2.2-.1.4-.2.6-.3,0,.2-.2.4-.3.5,0,0,0,0,0,0,0,0-.2.1-.2.1,0,0,0,.1-.1.2,0,.1-.2.2-.3.3,0,0,0,0-.2.1,0,0,0,0,0,0,0,0-.1.2-.1.2,0,0,0,0,0,.1,0,0,0,0-.1,0-.4,0-.3.3-.5.5,0,0,0,0,0,.1,0,0,0,0,0,0,.1.3.4.3.7.2,0,0,0,0,0,0,0,0,.1,0,.2-.1,0,0,.2-.1.3-.2.2-.1.5-.1.7-.3.2-.1.4-.4.6-.5,0,0,.1,0,.2,0,0,.1,0,.3,0,.4,0,.2.1.3,0,.5h0s0,0-.1.1c-.2.2-.4.4-.6.5-.2,0-.3.1-.4.2,0,0,0,0,0,0,0,0-.2.2-.2.2,0,0,0,0,0,0,0,0,0,0-.1,0,0,0,0,0,0,0,0,0-.2,0-.2.1,0,0,0,0,0,0,0,0-.2,0-.2,0,0,0-.2.1-.2.1,0,0,0,0,0,0,0,0,0,0,0,0,0,0-.1,0-.2.1,0,0,0,0,0,0,0,0,0,0,0,.1,0,0,0,0,0,.1,0,0,0,0,0,.1,0,0,0,0,0,0,0,0,0,0,0,0s0,0,0,0c0,.1.2.2.4.2.1,0,.2,0,.3,0,.1,0,.2-.1.3-.2,0,0,.1,0,.2-.1,0,0,0,0,0,0,0,0,.1,0,.2,0,.1,0,.5-.3.5-.3,0,0,.5-.3.5-.3,0,0,.2-.1.2-.2,0,0,.1,0,.2,0,0,0,.4-.2.4-.1,0,0,0,0,0,.1,0,.1-.2.2-.3.3,0,0-.1.2-.2.2,0,0,0,0-.1.1,0,0-.1,0-.2.1,0,0,0,0,0,0,0,0,0,0,0,0-.2,0-.3,0-.5.2h0c-.1,0,0,.2-.1.3,0,.1-.3.2-.2.4,0,.2.2.3.3.3,0,0,.2.2.3.2.1,0,.2,0,.3-.1.1,0,.2-.1.3-.2,0,0,.1,0,.2-.1.1,0,.5-.3.7-.3h0c0,0,0,0,0,0,0,.1,0,.3,0,.3,0,0,0,0,0,.1,0,0,0,.2,0,.4,0,0,0,0,0,.2,0,0,0,.4,0,.4,0,0,0,0,0,0h0c0,.1,0,.3,0,.4,0,0,0,0,0,0,0,0,0,0,0,0,0,0,.1,0,.2,0s0,0,0,0c0,0,.2,0,.2,0,0,0,0-.1,0-.2,0,0,0-.1,0-.2,0-.2,0-.3,0-.5,0-.1,0-.2,0-.3,0,0,0,0,0-.1,0-.1,0-.2,0-.3,0-.2-.1-.7,0-.9.1-.2.5-.2.7-.3.2,0,.3-.2.4-.3,0,0,.4-.2.4-.3,0,0,0-.1,0-.2,0-.2-.1-.3-.3-.3,0,0,0,0-.1,0,0,0,0,0,0,0,0,0,0,0,0,0,0,0,0,0-.2.1h0s0,0,0,0h0s0,0-.1,0c0,0,0,0-.1,0,0,0,0,0-.1,0-.1,0-.2,0-.4,0,0,0-.1,0-.2,0,0,0,0,0,0,0,0,0,.3-.2.3-.3,0,0,0,0,0,0,0,0,0,0,.1-.1,0,0,0,0,.1,0,.2-.1.9-.4,1-.7,0,0,0-.2,0-.3,0,0-.2-.3-.3-.3Z"/>
  <path class="st0" d="M64.6,12.3c0-.1.2-.1.3-.2,0,0,0,0,0,0h0s0,0,0,0c0,0,0,0,0,0,0,0,0,0,0,0,0,0,0,.1-.1.2,0,0,0,0-.1,0,0,0,0,0,0,0,0,0-.2,0-.2,0-.1,0,0-.2,0-.2ZM66.1,11.9c.2,0,.3,0,.5,0,0,0,0,0,0,0,.1,0,.1.2,0,.3,0,0,0,0,0,0s0,0,0,0c0,0-.1.2-.2.3,0,0-.3.2-.4,0,0-.1,0-.3,0-.4,0,0,0,0,0-.1,0,0,0,0,0,0,0,0-.2,0-.3,0,0,0,0,0,0,0,0,0,0,0,0,0,0,0,0,0,0,0,0,0,0,0,0-.1.2-.2.3-.1.5-.2ZM66.5,14.8c0,0,0-.2,0-.3,0-.1-.2-.3-.4-.3,0,0-.1,0-.2,0,0,0-.3-.1-.3-.1,0,0-.1,0-.2,0,0,0-.3,0-.4-.1,0,0,0,0,0,0,0,0-.2-.1-.3-.2,0,0,0,0,0,0-.1,0-.2,0-.3-.1,0,0,0,0,0,0,0,0-.1,0-.2,0,0,0-.1,0-.2,0,0,0-.2,0-.2,0,0,0-.4-.1-.4-.1,0,0-.2,0-.3,0,0,0-.1,0-.2,0h-.2c-.2-.2.3-.4.3-.6,0,0,0-.1.1-.2.1-.2.3-.3.4-.4,0,0,0-.2.2-.2,0,0,0,0,0,0,0,0,0,0,0,0,0,.1-.2.2-.3.3,0,0,0,.1-.1.2,0,0-.1.1-.2.2,0,0-.1.1-.2.2,0,0,0,.3.1.3.2,0,.3-.1.4-.2,0,0,.2-.2.3-.3,0,0,0,0,.1-.1,0,0,.1,0,.2-.1.2-.2.6-.6.9-.5,0,0-.2.2-.2.2,0,0,0,0,0,0-.4.2-.5.3-.7.7,0,0-.1.1-.1.2,0,0,0,0,0,0,0,0,0,0,0,0,0,0,0,0,0,0s0,0,0,0c0,0,.2,0,.2,0,0,0,0,0,0,0,0,0,0,0,0,0,0,0,0,0,.1,0,0,0,0,0,0,0,0,0,.1,0,.1,0,0,0,0,0,0,0,0,0,0,0,0,0,0,0,0,0,0,0,0,0,0,0,0,0,0,0,0,0,0,0,0,0,0,0,0,0,0,0,0,0,0,0,0,0,.2-.2.3-.2,0,.1-.3.3-.4.4,0,0-.2,0-.2.1,0,0,0,0,0,0,0,0,0,0,0,0,0,0,0,0,0,0,0,0,0,0,0,0,0,0,0,0,0,0,.2,0,.4,0,.6,0,.1,0,.3,0,.4,0,.2,0,.5,0,.7,0,.3,0,.6-.3.8-.6.1-.2.2-.3.2-.5,0,0,0-.1,0-.2,0-.1,0-.3-.1-.4,0,0,0-.1-.2-.1,0,0,0,0,0,0,0,0,0,0,0,0,0,0,0,0,0,0,0,0-.4,0-.5,0,0,0,0,0,0,0,0,0,0,0,0,0,0,0-.3,0-.3.1,0,0,0,0,0,0,0,0,0,0,0-.1,0,0,0-.1,0-.2.2-.2.2-.4,0-.6h-.1c0,0,0,0-.1,0,0,0,0,0-.1,0-.1,0-.2.2-.4.1,0,0,0,0,0,0h0c0,0,0,0,0,0,0,0,0,0,0,0,0,0,0,0,0,0,0,0,0,0,0,0,0-.1,0-.2-.1-.2,0,0,0,0,0,0,0,0,0,0,0,0,0,0,0,0,0,0-.1,0-.1,0-.2.1,0,0,0,0-.1,0h0c0,0,0-.2,0-.2,0,0,0,0,0,0,0,0-.1,0-.1-.1,0,0,0,0,0,0,0,0,0,0-.2,0-.3,0-.8.4-.9.5,0,0,0,0,0,0,0,0,0,0-.1.1,0,0,0,0,0,0,0,0-.3.4-.4.5,0,0,0,0,0,0,0,.1-.1.1-.2.2,0,.1-.2.3-.3.4,0,0,0,0,0,.1,0,0,0,0,0,0,0,0,0,.3,0,.4h0c-.1.2-.4-.1-.4-.1-.1,0-.2-.2-.4-.3-.1,0-.3-.1-.4,0,0,0-.1,0-.2,0-.1,0-.4.2-.5.3-.2.2-.3.6-.5.8,0,0,0,0,0,0,0,0,0,.2,0,.3,0,0,0,.1.1.2,0,0,0,0,0,0,.3.1.5,0,.7-.2,0,0,.1-.2.2-.2,0,0,.8.2.9.2,0,0,.2,0,.3,0,0,0,.2,0,.2,0,.2,0,.4.2.6.3.1,0,.2.1.4.2.1,0,.3.2.4.2.1,0,.3.1.4.2,0,0,0,0,0,0,.2,0,.5.1.7.2,0,0,0,0,0,0,.2.1.4.1.6.2,0,0,0,0,0,0,0,0-.1.1-.1.1,0,0,0,0,0,0,0,0,0,0,0,0,0,0,0,0,0,0,0,0,0,0,0,0,0,0,0,0,0,0,0,0,0,0,0,0,.1,0,.2.2.3.3,0,0,.4.1.6.1,0,0,0,0,.1,0,0,0,.2,0,.2-.1.2-.2.2-.5.2-.8Z"/>
  <path class="st0" d="M63.8,16.2s-.1,0-.2-.1c0,0-.1,0-.2-.1,0,0-.1,0-.2,0,0,0,0,0,0,0h0c0,0,.1,0,.2,0,.5-.2.7-.3.5-.9,0-.1,0-.3-.2-.3h0c0,0,0,0,0,0,0,0-.1,0-.1,0,0,0,0,0,0,0,0,0-.1,0-.1,0,0,0,0,0,0,0-.2-.1-.8-.3-1-.3,0,0,0,0,0,0,0,0,0,0,0,0-.2,0-.6,0-.7.3,0,0,.1.4.1.4.2,0,.5,0,.7,0,.1,0,.2.1.3.2,0,0,.2,0,.2.1,0,0,0,.2,0,.2-.1.2-.3.4-.5.2,0,0-.3-.1-.3-.1,0,0-.3,0-.4,0,0,0-.8,0-.9,0,0,0,0,.2,0,.2,0,.2,0,.4.2.5,0,0,0,0,0,0,.1,0,.3.1.4.1.1,0,.5,0,.7,0,0,0,.1,0,.2.1,0,0,.1,0,.1.1,0,0-.3.2-.4.2-.3.2-.4.2-.7,0,0,0-.2-.1-.3-.2-.1,0-.5-.3-.5,0,0,0,0,.2,0,.2,0,0,0,0-.1.1,0,0,0,0,0,0,0,.1,0,.2,0,.3,0,0,0,0,0,.1,0,0,0,.2.1.2,0,0,0,0,0,0,0,0,.1.1.2.2.3.1.6.2,1,0,0,0,0,0,.1,0,0,0,0,0,0,0,0,0,0,0,.1,0,0,0,0,0,0,0,.1,0,.4-.1.5-.2,0,0,.2-.1.2-.2.1,0,.2-.2.3-.3,0,0,.1-.3.2-.3,0,0,.2,0,.2,0,.4,0,.6,0,.6-.4,0,0,0-.2,0-.3Z"/>
  <path class="st0" d="M53,9.3s.1-.2.2-.2c.1-.2-.3-.4-.4-.5,0,0,0,0,0,0,0,0,0,0-.1,0,0,0-.1,0-.1,0s0,0-.1,0c0,0-.2,0-.2,0,0,0-.2,0-.2,0h0s0,0,0-.1c0-.1,0-.3.2-.3.1,0,.2-.1.3-.3.3-.3.5-.7.7-1.1,0,0,0,0,0-.1,0,0,0,0,0-.1,0-.2,0-.3-.3-.4,0,0,0,0,0,0,0,0,0,0,0,0-.2,0-.7.5-.9.8,0,0,0,0,0,.1,0,0,0,0,0,.1,0,.1-.1.2-.2.3,0,0,0,0,0,0,0,.2-.3.4-.4.7,0,0,0,0,0,0-.2.3-.4.4-.6.4,0,0,0,0,0,0-.2,0-.3-.1-.5,0,0,0-.2,0-.2,0,0,0-.2,0-.2.1-.1.1-.2.3-.1.5,0,0,0,.1,0,.2,0,0,.5.2.6.2,0,0,.1,0,.1.2h0s0,0,0,0c0,0-.2.2-.2.3,0,0,0,0,0,0h0c0,0,0,.1-.1.2-.1.1-.2.3-.3.4-.1.1-.3.2-.4.2,0,0-.2.1-.3.2-.1,0-.3.2-.4.2,0,0-.2.1-.2.2,0,0,0,0-.1,0h0c0,0,0,0,0,0,0,0,0,0,0,0,0,0,0,0,0,0,0,0,0,0,0,.1,0,0,0,0,0,0,.3,0,.6,0,.9-.2.1,0,.2,0,.4-.1,0,0,.2-.1.2-.2.1-.1.3-.2.4-.3.2-.2.3-.4.5-.5,0,0,.2-.1.3-.2.1-.1.3-.3.4-.4.2-.2.4-.6.7-.8.2-.1.4-.2.7-.2.3,0,.6.1.9-.1Z"/>
  <path class="st0" d="M53.4,12.5c0,0-.1,0-.2,0,0,0,0,0,0,0,0,0-.1,0-.2-.1,0,0-.2,0-.3,0-.2,0-.2-.2-.4-.3,0,0,0,0-.1,0,0,0,0-.2-.2-.2-.1-.1-.2-.3-.3-.4,0,0,0-.1-.1-.1,0,0-.2,0-.3,0-.3.1-.4.4-.3.7,0,0,0,0,0,.1,0,.1.4.3.4.5,0,0,.2.4.3.5,0,.1.6.4.6.4.2,0,.4.1.6.2,0,0,0,0,.1,0,0,0,0,0,.1,0,0,0,.2,0,.3,0,.1,0,.2,0,.3,0,0,0,0,0,0,0,0,0,0,0,0,0,0,0,0,0,.1,0,0,0,.1,0,.1-.1,0,0,0,0,0-.2-.1-.3-.3-.3-.6-.4Z"/>
  <path class="st0" d="M62.6,41.1c0,.2-.2,1.2-.3,1.4,0,0,0,.3-.1.5-.1.3-.3.9-.4,1.1-.1.2,0,.1-.1.3,0,.2-.1.5-.2.6,0,.2-.1.3-.2.5,0,.2-.1.5-.3.7-.1.3-.1.3-.2.5-.1.2,0,0-.2.3-.1.2-.1.1-.3.4-.2.3-.2.3-.4.4-.1.1-.2.2-.2.2-.6.5-1.3,1.2-1.4,1.2-.1,0-.4.3-.5.4-.1.1-.2.1-.3.2-.1,0-.3.2-.3.2,0,0-.2.2-.3.2-.2,0-.6.3-.7.3-.1,0-.2,0-.3.2-.2,0-.2.2-.4.3-.2,0-1,.2-1.3.3-.2.1-.5.1-.7.3-.2.1-.2.1-.3.1-.1,0-.2,0-.3,0s0,0,0-.3c0-.2-.1-1-.1-1.2,0-.3,0-.4,0-.4,0,0,0-1.3.5-2.1.5-.7.5-1,.6-1.3,0-.2.2-.3.3-.6.1-.3.5-1.3.5-1.6,0-.4,0-.9,0-1,0-.2.2-.3.2-.6,0-.3,0-.5,0-.8,0-.3,0-1.3,0-1.3,0-.2.2-.2.3-.2,0,0,.2,0,.4,0,.1,0,.6.2.8.2s.8,0,1,0c.2,0,2.1-.1,2.3-.2.1,0,1,0,1.2,0,.2,0,1.2.2,1.4.2.2,0,.3,0,.3,0,0,0,.2.2.2.4ZM52.1,42.1c-.1.2,0,.8-.1,1,0,.1-.1.3-.1.5,0,.2-.1,1.1-.5,1.7-.4.6-.4.8-.6,1-.2.2-.1.3-.3.6-.1.3-.5,1-.5,1.2,0,.2,0,.7-.1,1,0,.3-.2.5-.2.6s0,.1,0,.5c0,.4,0,.5,0,.8,0,.5.2.9.2,1,0,0-.4.2-1,.2-.5,0-1,.1-1.1,0-.1,0-.3,0-.5,0-.3,0-1.1.2-1.2.2-.1,0-.3,0-.5-.1-.2,0-.3,0-.6,0-.3,0-.4-.2-.4-.2,0,0,0-.6,0-.9.1-.3.1-.3.1-.5,0-.2,0-.3.2-.6.1-.3.2-.4.3-.6,0-.2.5-1.1.5-1.3,0-.2.4-.7.4-1.1,0-.4.3-.7.5-1.1.1-.4.5-1.2.4-1.9,0-.8-.1-1.7,0-1.9,0-.2,0,0,0-.6,0-.5,0-.7,0-.7h0c.1,0,.5,0,.6,0,0,0,.3,0,.6-.1.2,0,.6,0,.8,0,.1,0,.8,0,1,0,.2,0,0,0,.3,0,.2,0,1.6,0,1.7,0,0,.1.2.3.2.5s.1.8,0,1.1ZM44.1,43.2c0,.3,0,.4,0,.7,0,.4,0,.8-.2,1.3-.2.5-1.4,2.8-1.4,3.1,0,.3-.2.3-.3.6,0,.3-.3.9-.3,1.1,0,.2,0,.3,0,.4,0,.2,0,0,0,.4,0,.4,0,.4,0,.6,0,.1,0,0,0,.2,0,.3,0,.3,0,.5v.2s-.2.1-.2.1c0,0-.5,0-.6,0,0,0-.7,0-1.1-.2-.4-.1-1.1-.1-1.3-.2-.2,0-.5,0-.7-.1-.1,0-.4-.2-.9-.3-.5,0-.8-.2-.9-.3-.1,0,.3-.5.4-.9.1-.4.2-.4.3-.6.1-.2.4-.9.5-1.1.1-.2.3-.7.4-.9,0-.2.3-.8.4-1.2.2-.5.3-1.3.5-2.1.1-.8,0-1.1,0-1.4,0-.3,0-.7,0-1,0-.2-.3-.8-.3-.9,0-.1-.1-.4-.3-.6-.1-.2,0-.3,0-.3.1,0,0,0,.4,0,.3,0,.2,0,.5,0,.3,0,.3,0,.6,0,.3,0,1.7,0,2.1,0,.4,0,.8,0,.9,0,.2,0,.4,0,.8,0,.4,0,.8,0,.9.3,0,.3,0,.3,0,.4,0,.2,0,.7,0,.9,0,.2,0,.4,0,.6,0,.2,0,.2,0,.5ZM35.3,46c-.1.4-.1.5-.3.8,0,.3-.9,2-1.1,2.2-.2.3-.2.2-.4.5-.1.3,0,.2-.3.2-.2,0,0,.1-.5,0-.4-.2-.4,0-.6-.2-.2-.1-.2,0-.3-.1-.2,0,0,0-.3-.2-.3-.2-.6-.4-.7-.4-1.4-.7-2.5-2.3-2.7-2.7-.1-.3-.8-1.1-.9-1.5-.1-.4-.6-1.5-.7-1.9-.1-.4-.5-1.8-.5-2s0-.3,0-.3c0,0,.2,0,.4,0,.1,0,.8,0,.9,0,.1,0,2.5,0,2.7,0,.2,0,2.4,0,2.8,0,.4,0,1.2-.1,1.3,0l.6.8c0,.3.4,1.3.3,1.6,0,.3.1.4.2.6,0,.2,0,.4,0,.7,0,.3.3,1,0,2ZM65.8,36c0-.3,0-.7,0-.8,0-.1,0-.4,0-.6,0-.3,0-.1,0-.4,0-.4,0-1.3-.5-1.7-.2-.2-.4-.2-.6-.3-.2,0-.6-.2-.7,0-.2.1-.3.1-.4.2-.1.1,0,.2-.2.3-.2,0-.4.3-.4.6,0,.2,0,.6,0,.7,0,.1,0,.3,0,.5,0,.2,0,.2.1.5,0,.2,0,.2,0,.3,0,0,0,.2,0,.2,0,0,0,.2,0,.3,0,.2-.1,1-.2,1.3-.1.3-.2.3-.2.4,0,.1-.1,0-.2.3,0,.2,0,.4-.1.4,0,0,0,0-.2,0-.2,0-.2.1-.3.1s-.3,0-.5,0c-.2,0-.2,0-.4,0-.2,0-.4,0-.5,0s-.2-.1-.4-.1c-.2,0-.3,0-.5,0s-.2,0-.4,0c-.2,0-.2,0-.4,0-.2,0-1.1.2-1.3.2s-.6,0-.6,0c0,0-.1,0-.4,0s-.3,0-.5,0c-.2,0-.4,0-.6,0h-.6c-.1,0-.2,0-.3,0,0,0-.2-.3-.2-.4,0-.1,0-.2-.1-.3,0-.1-.5-.6-.6-.9,0-.3-.6-1-.7-1.2,0-.2-.3-.7-.4-.8,0-.2-.1-.7-.2-.9,0-.2-.1-.7,0-1.1,0-.4,0-.7,0-.9,0-.2,0-.1,0-.4s0-.2,0-.4c0-.2,0,0,0-.3,0-.2,0-.1,0-.3,0-.2.1-.8.2-.9,0-.1.2-.4.2-.6,0-.2.1-.3.1-.4,0-.1.5-.8.6-1.1,0-.3.2-.5.2-.7,0-.2,0,0,0-.3,0-.2.3-.8.3-1,0-.2,0-.2,0-.5,0-.2.1-.4.1-.6,0-.2,0-1,0-1.4,0-.4,0-.1,0-.5,0-.4,0-.3,0-.5,0-.2-.2-.9-.2-1.1,0-.2-.1-.3-.2-.5,0-.2,0-.2-.1-.4,0-.2-.1-.3-.2-.4,0-.2,0,0-.2-.3-.1-.2-1-1-1.3-1-.3,0-.5,0-.7,0-.2.1-.6.4-.6.6,0,.2,0,.5,0,.7,0,.2,0,.2,0,.4,0,.2.4.9.5,1.1,0,.3,0,.3.1.5,0,.1.2.2.2.4s0,0,0,.4c0,.3,0,.6,0,.9s0,.3,0,.6c0,.3,0,.3,0,.5,0,.2-.1.5-.1.7,0,.2,0,.3,0,.5,0,.2,0,.1-.2.4-.1.3-.2.3-.2.5,0,.3-.3,1-.4,1.1,0,0-.1.1-.2.4,0,.3,0,.3-.1.4,0,.1-.3.6-.3.9,0,.3,0,.2,0,.4,0,.2,0,.8-.1.9,0,.1,0,.2,0,.4,0,.3,0,.3,0,.5-.1.6-.1,2,0,1.7,0-.1,0,.4,0,.6,0,.3,0,.5.1.7,0,.2.2.8.3,1,0,.1.1.2.2.3,0,.2.2.3.2.5,0,.2,0,.1.2.3.1.2.2.2.2.3,0,.2.2.3.2.5,0,.2,0,.1.1.3,0,.2,0,.2,0,.3,0,0,0,0-.2,0s-.2,0-.3,0c-.1,0-.2,0-.3,0-.1,0-.3,0-.4,0-.1,0-.5,0-.5,0,0,0-.2,0-.5,0-.2,0-.3,0-.6,0-.3,0-.6,0-.7,0s-.3,0-.5,0c-.2,0-.4,0-.6,0s-.2,0-.2,0c0,0-.5-.6-.5-.9,0-.3-.2-.4-.3-.4,0,0-.2-.3-.2-.3,0,0-.5-.6-.6-.7,0-.2-.1,0-.3-.3-.1-.2-.1-.3-.2-.4-.1-.2-.3-.4-.3-.6,0-.2,0-.6,0-.8,0-.2.2-.6.2-.7,0-.2,0-.3,0-.3,0,0,0-.3.1-.4,0-.1,0-.2,0-.2l.3-.5s.2-.8.2-.9c0-.1.2-.6.2-.8.1-.3.2-.3.2-.5,0-.2.4-1.1.4-1.3,0-.2.2-.8.2-1,0-.2,0-.1,0-.4,0-.3.1-.6.1-1,0-.3,0-.2,0-.5,0-.3,0-.2,0-.4,0-.2,0-.5,0-.7,0-.2,0-.7,0-1,0-.3,0,0,0-.5,0-.4,0-.3,0-.6,0-.2-.2-.6-.2-.8,0-.3,0-.3-.1-.5-.2-.2-.2-.6-.2-.7,0-.1-.2-.3-.3-.6-.1-.3,0-.2-.3-.5-.2-.3,0-.2-.3-.4-.2-.3-.3-.4-.4-.4,0,0,0,0-.2,0-.1,0-.2,0-.3,0s-.1,0-.2,0c-.1,0,0,0-.3,0-.3,0-.4.1-.4.1,0,0-.4.5-.4.5,0,0-.1,0-.1.4,0,.3,0,.4,0,.6,0,.2,0,.1.1.4,0,.2.2.4.3.6,0,.2,0,.2.2.4.1.2.3.4.4.7,0,.2.2.5.2.7,0,.2.1.2.2.5,0,.3.2,1.1.1,1.3,0,.2,0,.9,0,1,0,.1-.1.7-.2.9,0,.2,0,.2-.1.4,0,.2-.1.9-.2,1,0,.1-.1.3-.2.5,0,.2,0,.2-.1.4,0,.2-.5,1-.5,1.2,0,.2-.5,1.3-.6,1.7,0,.3-.3,1-.3,1.1,0,.2,0,0,0,.4,0,.3-.1.8,0,1.2,0,.3.1,1.1.2,1.4,0,.3.2.6.3.8,0,.2.4,1,.7,1.4.1.2.5.7.5.8,0,.2,0,.1-.1.2,0,0,0,0-.4,0-.3,0-.4,0-.6,0-.2,0-.3,0-.5,0-.2,0-.2,0-.4,0-.2,0-.3,0-.4,0-.1,0,0,0-.3,0-.4,0-1.8-.1-1.9-.1-.1,0,.1,0-.2,0-.3,0-.1,0-.4,0s-.8,0-.9,0c-.1,0-.2,0-.4,0-.1,0-.6,0-.7,0,0-.2-.1-.5-.2-.7,0-.2-.4-.8-.4-1,0-.2-.2-.6-.2-.7,0,0,0-.3,0-.5,0-.2,0-1.1,0-1.2,0-.1,0-.4.1-.5,0-.1.3-.7.4-.9,0-.2.4-.8.5-1,0-.1.4-1.2.5-1.5,0-.2.7-1.4.8-1.7,0-.2,0-.1.1-.3,0-.2.3-1.5.3-1.5,0,0,0-.3,0-.5s0,0,0-.3c0-.3,0-.6,0-.9,0-.3-.3-.8-.3-1.2,0-.4-.2-1-.2-1.2,0-.2,0-.2,0-.4,0-.2-.6-1.6-.7-1.8-.1-.2-.2-.4-.4-.4-.1,0-.5-.2-.5-.2-.2,0-.4-.2-.6-.2-.1,0-.2,0-.2,0,0,0-.2.1-.4.2-.2,0-.2,0-.3.1,0,.1-.3.3-.3.3-.1.2-.3.4-.3.7,0,.3,0,.5.1.6,0,.2.4.8.6.9.1.1.2.4.3.6.1.3.3,1.2.3,1.3,0,.3.1.6.1.9,0,0,0,.8,0,1.1,0,.3-.1,1.3-.2,1.4,0,0-.3,1.5-.4,1.8,0,.1-.4.7-.6,1-.1.2-.9,1.6-1,1.8-.1.3-.4,1.7-.4,2,0,.5,0,1.3,0,1.5,0,0,.2.5.4.9,0,.2.5,1.3.4,1.3,0,.1-.4.2-.6.2-.3,0-1.2,0-1.4,0-.1,0-1.8,0-2.1,0-.3,0-.3,0-.4,0-.1,0-1.1,0-1.3,0-.2,0-.4,0-.4,0-.2,0-.4.1-.5,0-.1,0-.3-.5-.3-.5,0,0,0-.2-.1-.4,0,0,0-.4,0-.7,0-.2,0-.3,0-.4s0-.2,0-.4c0-.1-.1-.8-.1-.8,0-.2,0-.4,0-.6,0-.2,0-.6,0-.7,0-.2-.1-.4-.2-.4,0,0-.2-.5-.4-.6-.2,0-.4-.2-.5-.2,0,0-.5,0-.7,0-.1,0-.6.3-.7.4,0,0-.2.2-.2.2-.1.1-.3.7-.3.7,0,.3-.1.3-.1.5s0,.3,0,.5c0,.2.1,1.8.2,1.9,0,.1.1.4.1.7,0,.1,0,0,.1.5,0,.2,0,.4,0,.5.1.1.1.3.1.5,0,.2,0,.2,0,.4,0,.2,0,.2,0,.4,0,.2,0,0,0,.3,0,.3.3,1.2.3,1.2,0,0,.2.3.2.4,0,0,0,.3,0,.4,0,.3.2.8.2.9s.2.2.2.5c.1.5.4.9.5,1,.1.2.3.9.3,1,0,.1.4.9.5,1,0,.2.5.9.6,1,0,.2.2.5.2.5,0,0,.3.5.4.7,0,0,.5.5.5.5,0,0,1.1,1,1.1,1.1,0,.1,1,.8,1.3,1.1,0,0,.8.7.9.8.1,0,.2.1.3.2.1,0,.3.1.4.1.1,0,1.2.6,1.2.7,0,0,.4.4.5.4.1,0,.3.1.3.2.1,0,0,.4,0,.4,0,0,.1.8.2,1,0,0,0,.4.1.4,0,.1.4,1.4.5,1.5,0,.2,0,.1.1.3.1.2,0,.1.2.3.1.2.7,1.2.8,1.4,0,.2.4,1.4.4,1.4,0,.1,0,.2,0,.3,0,.2,0,.4,0,.5,0,.2,0,.3,0,.4s0,.4,0,.5c0,0-.1.9-.1,1.1,0,.3,0,.6,0,.7,0,0-.1.5-.1.5,0,0,0,0,0,.2,0,.2,0,.3,0,.5,0,.2-.2.8-.3.9,0,0-.1.4-.1.4,0,0-.2.5-.2.6,0,0-.2.5-.2.7,0,.2,0,.4,0,.4,0,0,0,.5,0,.6,0,.1,0,.5,0,.5,0,0,.2.4.3.4,0,0,.2,0,.3.1,0,0,.2,0,.3,0s0,0,.3,0c.2,0,.7-.2.7-.2.1,0,.6-.4.7-.6.1-.2.3-.6.4-.8,0-.2.3-.9.3-.9,0,0,0,0,0-.3,0-.2,0-.4,0-.5,0-.1.1-.6.2-.8,0,0,0,0,0-.2,0-.1,0-.4.1-.6,0,0,0-.5.1-.6,0-.1.4-1.8.3-2.6,0-.3,0-.7,0-.8,0,0,0-1,0-1,0,0-.1-.4-.1-.5,0-.6-.6-1.7-.6-1.8,0-.1-.2-.6-.2-.7,0,0-.1-.3-.3-.6-.1-.3,0-.2-.1-.4,0-.2,0-.3-.1-.4,0-.1-.3-.8-.3-.9s0,0,0,0v-.3s.3,0,.4,0c0,0,.3.1.5.2.1,0,.8.2,1,.3.2.1.8.2.9.3.2,0,.4,0,.5,0,0,0,1.2,0,1.4,0,.2,0,.6.1.6.1s.6,0,.6,0c0,0,0,.2,0,.3,0,.1,0,.3.1.5,0,.1.3.9.3.9,0,0,.1.3.2.3,0,0,0,.4.2.5.1.2.1.1.2.4,0,.2.2.7.3.8,0,.2,0,.2.1.4,0,.2.3.7.3,1.2,0,.2,0,.4,0,.6,0,.2,0,.2,0,.4,0,.2,0,0,0,.3,0,.3,0,.5,0,.7,0,.2,0,.2,0,.5s0,0,0,.3c0,.3,0,.2,0,.4,0,.2,0,.5,0,.7,0,.2,0,.2,0,.4,0,.2,0,.1,0,.4,0,.2-.3.8-.3,1,0,.2-.1.3-.1.4,0,0-.3,1-.4,1.2,0,.2,0,.2,0,.3,0,.2,0,.3,0,.4,0,.2,0,.2,0,.4,0,.2,0,.2,0,.3,0,.1.3.4.4.5,0,0,.1.2.3.2.1,0,.3,0,.4,0,.1,0,.1,0,.3,0,.2,0,.1,0,.3,0,.1,0,.5-.2.5-.3,0,0,0,0,.1-.2,0-.1.2-.3.3-.6,0-.2.1-.4.2-.6q0-.2.1-.3c0-.2.5-.9.5-1,0-.2,0-.2,0-.4,0-.2.2-1,.3-1.1,0-.2,0-.2,0-.3,0-.1,0,0,.1-.2,0-.1,0-.2,0-.3,0-.1,0,0,0-.3,0-.2,0-.3,0-.6,0-.2,0-.2,0-.4,0-.2,0-.3,0-.4,0,0,0-.3,0-.5,0-.2,0-.5,0-.6,0-.1,0-.1,0-.3s0-.2,0-.4c0-.2,0-.5,0-.7,0-.2,0-.2,0-.3,0-.1,0-.1,0-.3,0-.2,0-.2,0-.3,0,0,0-.4,0-.5,0-.1,0-.1,0-.3,0-.1-.2-.8-.2-1,0-.1-.4-1-.4-1.1,0,0-.2-.6-.2-.7,0-.1-.5-1.1-.5-1.1,0,0,.1,0,.3,0,.1,0,.1,0,.3,0,.1,0,.3,0,.5,0,.2,0,.5-.2.6-.2.1,0,1.1,0,1.3,0,.2,0,.5,0,.8,0s.5,0,.7-.1c.1,0,.5,0,.6-.1,0,0,.2,0,.3,0,.2,0,.2.3.3.5,0,.2.2.3.3.6,0,.2,0,.1.2.4.1.2.2.3.3.5,0,.2.1.2.1.3,0,.2.4,1.8.4,2,0,.3,0,.4,0,.5,0,.2,0,.4,0,.5,0,.1,0,.1,0,.2,0,0,0,.4,0,.6,0,.2,0,.7,0,.9,0,.2,0,.2,0,.4,0,.3,0,.3,0,.5,0,.2,0,.4,0,.7,0,.3,0,.6,0,.9,0,.2,0,.9-.2,1.1,0,.2,0,.3-.1.4,0,.1,0,0,0,.3,0,.2,0,.6-.1.8,0,.2,0,.2,0,.4,0,.2-.1.4-.1.6,0,.2,0,.5,0,.7,0,.3.1.3.2.4,0,0,0,.4.3.4.2,0,.2.1.4.1.1,0,0,0,.2,0,.2,0,.5,0,.6-.1.1,0,.2,0,.3-.2.1-.2.3-.3.4-.5,0-.1.1-.2.2-.3.1-.2.2-.5.2-.7,0-.1,0-.1,0-.3,0-.2,0-.2,0-.3,0-.1.1-.2.2-.5,0-.2,0-.2,0-.4,0-.3,0-.2,0-.5,0-.3,0-.2,0-.5,0-.3.2-.6.2-1,0-.4,0-.7,0-1.1,0-.4,0-.5,0-.7,0-.2,0-.8,0-.9,0-.2,0,0,0-.4,0-.4,0-.4,0-.8,0-.4,0-.6,0-.9,0-.3,0-.4,0-.6,0-.1,0,0,0-.3,0-.3,0-.4,0-.5,0,0-.1-.7-.1-.8s0-.1,0-.3c0-.3,0-.1-.1-.4-.1-.3-.2-.8-.3-1-.1-.3,0-.2-.1-.4-.1-.2,0-.2,0-.4s0-.2,0-.3,0,0,.1-.2c0,0,.3-.1.5-.1s.2-.1.3-.2c.1,0,.7-.3.8-.4.1,0,.4,0,.5-.1.1,0,1-.6,1.2-.6.2,0,1.9-1.1,2-1.2.1,0,.5-.2.7-.4.1-.2.1-.1.2-.2.1-.1.1,0,.3-.3.2-.2.2-.1.3-.3,0,0,.1-.1.1-.1,0,0,0-.1.2-.2.1,0,.1-.1.3-.2.1-.1.2-.2.2-.2.1-.2.5-.5.6-.6.1-.1.8-.9.8-1,0-.1.7-.6.8-1,0-.2.2-.3.3-.5,0-.2.1-.5.2-.6,0-.1.2-.5.3-.6,0-.1,0-.2.1-.4,0-.2.1-.1.1-.2,0-.1.1-.4.2-.6,0-.2.4-1.2.4-1.4,0-.3,0-.8,0-1,0-.2.3-.9.3-1.1,0-.2.1-.2.1-.3,0-.1.1-.1.1-.3,0-.2.1-.1.1-.4,0-.2,0-.6,0-.8,0-.3,0-.6-.1-.8,0-.2-.2-.2-.2-.5v-.4c0-.2,0-.5,0-.7,0-.2,0-.2,0-.3,0-.1,0,0,0-.2Z"/>
  <path class="st0" d="M21.7,68.9l-2.5,2.5c-.3.3-.6.5-.7.5-.1,0-.4,0-.6-.3-.6-.6-.8-1.2-.7-1.9,0-.6.4-1.2,1-1.8.6-.6,1.2-1,1.8-1.1.1,0,.3,0,.4,0,.5,0,1,.2,1.5.7.2.2.4.4.3.6,0,.2-.2.4-.5.8ZM19.9,66.1c-.9,0-1.7.3-2.4,1.1-.4.4-.6.8-.8,1.2-.2.4-.2.9-.1,1.4,0,.5.3.9.5,1.3.2.2.4.5.8.9l1.8,1.7.3-.3h0c-.2-.3-.3-.5-.3-.6,0-.2.2-.4.6-.8l2.4-2.5c.3-.3.6-.5.8-.6.2,0,.4,0,.6.3h0s.3-.2.3-.2l-1.8-1.7c-.8-.7-1.6-1.1-2.4-1.2Z"/>
  <path class="st0" d="M15,63.9c-.6.4-1.2.6-1.8.7-.8,0-1.3-.1-1.6-.7-.3-.5-.3-1.1.2-1.8.3-.5.8-.9,1.4-1.3.6-.4,1.3-.6,1.8-.7.1,0,.2,0,.3,0,.6,0,1,.2,1.3.7.3.5.3,1.1-.2,1.8-.3.5-.8.9-1.4,1.3ZM17.2,63c.3-.8.2-1.6-.2-2.4-.5-.8-1.1-1.2-2-1.3-.8-.1-1.6,0-2.4.5-.8.5-1.3,1.1-1.6,1.9-.3.8-.3,1.6.2,2.4.5.8,1.1,1.2,2,1.3.1,0,.3,0,.4,0,.7,0,1.3-.2,2-.6.8-.5,1.3-1.1,1.6-1.8Z"/>
  <path class="st0" d="M13.7,55.8c.2,0,.3.2.4.6h0s.4,0,.4,0l-.6-2h-.4c0,0,0,.1,0,.1,0,.3,0,.6,0,.7-.1.1-.4.3-.9.4l-3.6,1.1,3.9-5.1h0s-.1-.4-.1-.4l-4.8,1.5c-.5.1-.8.2-1,.1-.2,0-.3-.2-.4-.5h0s-.4,0-.4,0l.6,2h.4c0-.1,0-.1,0-.1,0-.3,0-.5,0-.7.1-.1.4-.3.9-.4l3-.9-3.5,4.6h0s.5,1.5.5,1.5h.4c0-.1,0-.1,0-.1,0-.3,0-.5,0-.7.1-.1.4-.3.9-.4l3.3-1c.5-.1.8-.2,1-.1Z"/>
  <path class="st0" d="M9,48.6c0,0,.2,0,.2,0,.9,0,1.7-.3,2.2-.9.6-.6.9-1.3.8-2.2,0-.2-.1-.6-.3-1.2,0-.2-.1-.5-.1-.6,0,0,0-.1,0-.2,0,0,0-.1,0-.2h0c0,0-1.3,0-1.3,0-.4,0-.7,0-.8,0-.2,0-.3-.3-.3-.6h0s-.4,0-.4,0v2.5c.1,0,.1,0,.1,0h.4s0,0,0,0c0-.4,0-.6.1-.8,0-.1.3-.2.6-.2.5,0,.9,0,1.1.2.3.2.4.5.5,1,0,.6-.3,1.2-.9,1.6-.5.3-1.1.5-1.8.6-.8,0-1.5,0-2.1-.3-.8-.3-1.2-.8-1.2-1.5,0-.4.1-.8.4-1.2.2-.3.5-.6.9-.9h0s-.2-.3-.2-.3l-1.7.7h0c0,.2.2.3.2.4,0,0,0,.2,0,.3,0,0,0,.1,0,.7,0,.2,0,.3,0,.5,0,.9.5,1.6,1.2,2.1.6.4,1.4.6,2.2.6Z"/>
  <path class="st0" d="M6.1,39.6c0-.3.2-.5.3-.6.2,0,.5,0,1,0l3.4.7c.5,0,.8.2.9.3.1.1.1.3,0,.7h0s.4.1.4.1l.5-2.5h-.4c0,0,0,0,0,0,0,.3-.2.5-.3.6-.2,0-.5,0-1,0l-1.5-.3.5-2.6,1.5.3c.5,0,.8.2.9.3.1.1.1.3,0,.7h0s.4.1.4.1l.5-2.5h-.4c0,0,0,0,0,0,0,.3-.2.5-.3.6-.2,0-.5,0-1,0l-3.4-.7c-.5,0-.8-.2-.9-.3-.1-.1-.2-.3,0-.7h0s-.4-.1-.4-.1l-.5,2.5h.4c0,0,0,0,0,0,0-.3.2-.5.3-.6.2,0,.5,0,1,0l1.4.3-.5,2.6-1.4-.3c-.5,0-.8-.2-.9-.3-.1-.1-.2-.3,0-.7h0s-.4-.1-.4-.1l-.5,2.5h.4c0,0,0,0,0,0Z"/>
  <path class="st0" d="M8.4,30.3c.1-.3.3-.4.4-.5.2,0,.5,0,.9.3l2.7,1.3c.4.2.7.2,1,.2s.5,0,.7-.1c.5-.2.9-.6,1.2-1.2.3-.7.4-1.3.2-1.8s-.6-.9-1.4-1.3l-2.5-1.2c-.4-.2-.7-.4-.8-.5,0-.1,0-.4,0-.7h0s-.3-.2-.3-.2l-.9,1.9.3.2h0c.1-.3.3-.5.5-.5.2,0,.5,0,.9.3l2.2,1c.6.3,1.1.6,1.3.9.3.4.3.9,0,1.5-.3.6-.7.9-1.1.9-.4,0-.9-.1-1.5-.4l-2.2-1.1c-.4-.2-.7-.4-.8-.5,0-.1,0-.4,0-.7h0s-.3-.2-.3-.2l-1.1,2.3h0s.3.2.3.2h0Z"/>
  <path class="st0" d="M14.8,20.6l2.8,1-1.2,1.5-1.6-2.5ZM17.1,25.4c0,.3,0,.6-.2.9h0s.3.3.3.3l1.4-1.8h0s-.3-.3-.3-.3h0c-.1.2-.3.3-.4.4-.2,0-.3,0-.5,0,0,0-.2-.2-.3-.3-.1-.2-.3-.5-.4-.7l-.2-.3,1.4-1.7,1,.4c0,0,.2,0,.3.1.1,0,.2,0,.2.1.1.1.2.2,0,.4l-.3.5.3.2,1.7-2h0s-.3-.3-.3-.3h0c0,.1-.2.2-.3.2,0,0-.2,0-.3,0-.2,0-.5,0-.9-.2-.2,0-.3-.1-.5-.2l-4.7-1.8h0s-.4.8-.4.8l2.7,4.3c.2.4.4.7.5.9Z"/>
  <path class="st0" d="M70.1,24.8s0,0,.1,0c.5,0,1-.2,1.6-.7l2.1-1.7c.4-.3.7-.5.8-.5.2,0,.4,0,.6.3h0s.3-.2.3-.2l-1.3-1.6h0s-.3.2-.3.2h0c.2.3.3.5.2.6,0,.2-.3.4-.6.7l-1.9,1.5c-.6.5-1,.7-1.4.8-.5.1-1,0-1.4-.6-.4-.5-.5-1-.3-1.4.1-.3.5-.7,1-1.2l1.9-1.6c.4-.3.7-.5.8-.5.2,0,.4.1.6.4h0s.3-.2.3-.2l-1.6-2h0s-.3.2-.3.2h0c.2.3.3.5.2.6,0,.2-.3.4-.7.7l-2.3,1.9c-.5.4-.8.9-.8,1.5,0,.5.2,1.1.6,1.6.5.6,1,.9,1.6,1Z"/>
  <path class="st0" d="M75.7,25.1l-3.1,1.6c-.4.2-.7.3-.9.3-.2,0-.3-.2-.5-.5h0s-.3.1-.3.1l1,1.9.3-.2h0c-.2-.3-.2-.6-.1-.7,0-.2.3-.3.8-.6l3.3-1.7-3,5.7h0s.2.3.2.3l4.4-2.3c.4-.2.7-.3.9-.3.2,0,.3.2.5.5h0s.3-.1.3-.1l-1-1.9-.3.2h0c.2.3.2.6.1.7,0,.1-.4.3-.8.6l-2.8,1.5,2.6-5.1h0s-.7-1.4-.7-1.4l-.3.2h0c.2.3.2.6.1.7,0,.2-.3.3-.8.6Z"/>
  <path class="st0" d="M79.8,31.7c-.1.1-.4.3-.9.4l-3.3,1.1c-.5.2-.8.2-1,.2-.2,0-.3-.2-.4-.5h0s-.4,0-.4,0l.8,2.4h0s.4,0,.4,0h0c-.1-.4-.1-.6,0-.7.1-.1.4-.3.9-.4l3.3-1.1c.5-.1.8-.2,1-.2.2,0,.3.2.4.6h0s.4,0,.4,0l-.8-2.4h0s-.3,0-.3,0h0c0,.4,0,.6,0,.7Z"/>
  <path class="st0" d="M81,35.1c0,0,0,.2,0,.3,0,0-.1.2-.2.3,0,0-.2.1-.4.3l-4.9,2.6h0s0,.4,0,.4l4.9.9c.3,0,.5,0,.7.1.3,0,.5.2.6.3.1,0,.2.2.2.3,0,0,0,.2,0,.4h0s.4,0,.4,0l-.4-2.2h-.4c0,0,0,0,0,0,0,.1,0,.3,0,.4,0,.2,0,.4-.3.4-.1,0-.3,0-.6,0-.2,0-.4,0-.6,0l-3.2-.6,3.2-1.8c.2,0,.3-.2.3-.2.2,0,.3-.1.4-.1.1,0,.2,0,.3,0,0,0,.1.3.2.5h0s.4,0,.4,0l-.5-2.7h-.4c0,0,0,.2,0,.2,0,.1,0,.3,0,.4Z"/>
  <path class="st0" d="M82.1,42.1h0c0,.4,0,.6-.2.7-.1,0-.5.1-1,.1h-3.4c-.5,0-.8-.1-1-.2-.1,0-.2-.3-.2-.6h0s-.4,0-.4,0v4.7c0,0,0,0,0,0l1.7.7h0s.1-.3.1-.3h0c-.5-.4-.8-.7-.9-.9-.3-.4-.5-1-.5-1.7,0-.4,0-.6.2-.7.1,0,.3-.1.7-.1h2s0,.4,0,.4c0,.5,0,.8-.2,1-.2.3-.5.4-1,.4h0v.3s2.6,0,2.6,0h0v-.3s0,0,0,0c-.4,0-.7-.1-.9-.4-.1-.2-.2-.6-.2-1v-.3s1.6,0,1.6,0c.4,0,.7,0,.8.2,0,0,.2.3.1.8,0,.6-.1,1-.3,1.3-.2.2-.5.6-1.1,1h0s.2.3.2.3l1.6-.6v-4.6c0,0,0,0,0,0h-.4Z"/>
  <path class="st0" d="M81.2,51.7c0,.4-.3.7-.5,1-.3.3-.6.3-1,.3-.4,0-.7-.4-.9-.8-.1-.4-.2-.8,0-1.3v-.4c0,0,1.8.3,1.8.3.4,0,.6.2.7.2.1.1.1.3,0,.6ZM81.7,49.3c0,.4-.2.6-.5.6-.1,0-.4,0-.9-.1l-3.4-.7c-.5-.1-.8-.2-.9-.3-.1-.1-.1-.3,0-.7h0s-.4-.1-.4-.1l-.5,2.5h.4c0,0,0,0,0,0,0-.3.2-.5.3-.6.2,0,.5,0,1,0l1.6.3v.6c-.1,0-3.5,1.1-3.5,1.1h0s-.3,1.5-.3,1.5h.4c0,0,0,0,0,0,0-.4.2-.6.5-.7,0,0,.2,0,.6-.2l2.2-.7c0,.4,0,.8.3,1.2.2.4.6.7,1,.7.1,0,.2,0,.3,0,.4,0,.8-.2,1.1-.6.3-.4.5-.8.6-1.5l.5-2.6h-.4c0,0,0,0,0,0Z"/>
  <path class="st0" d="M78.8,55.6c-.6-.2-1.2-.1-1.8.3-.4.4-.8.9-1.2,1.4-.5.5-1,.6-1.5.4-.3-.1-.5-.3-.6-.6-.1-.3,0-.6,0-.9.1-.4.5-.7.9-1,.3-.2.8-.4,1.3-.5h0s0-.4,0-.4h-1.9s0,0,0,0c0,0,0,.2,0,.3,0,.1,0,.2,0,.3,0,0,0,.1-.4.7-.1.2-.2.4-.3.5-.2.5-.2,1,0,1.5.2.5.5.8,1.1,1,.4.2.8.2,1.2,0,.3,0,.6-.3.9-.6.1-.1.4-.4.7-.9.3-.3.5-.6.7-.7.3-.2.6-.2.9-.1.3.1.5.3.6.6.1.3.1.6,0,.9-.1.4-.4.7-.8.9-.3.2-.7.3-1.2.4h0s0,.4,0,.4h1.8s0,0,0,0c0,0,0-.1,0-.2,0,0,0-.2,0-.2,0,0,0-.2.1-.2l.2-.2c.1-.1.2-.2.3-.3,0,0,0-.2.1-.3.2-.5.2-1,0-1.5-.2-.4-.5-.8-1-1Z"/>
  <path class="st0" d="M77.8,61.5c-.2.3-.3.4-.5.5h0c-.2,0-.5-.1-.9-.3l-3-1.7c-.4-.2-.7-.4-.8-.6,0-.1,0-.4.1-.7h0s-.3-.2-.3-.2l-1.3,2.3.3.2h0c.2-.3.3-.5.5-.5.2,0,.5,0,.9.3l3,1.7c.4.2.7.4.8.6,0,.2,0,.4-.1.7h0s.3.2.3.2l1.3-2.3-.3-.2h0Z"/>
  <path class="st0" d="M74.8,63.9h0c.2.4.3.9.3,1.3,0,.5-.1.9-.4,1.2-.1.1-.2.2-.4.2,0,0-.2,0-.4-.2l-3.2-2.5c-.4-.3-.6-.5-.7-.7,0-.2,0-.4.3-.7h0s-.3-.3-.3-.3l-1.7,2.2h0s.3.3.3.3h0c.2-.3.4-.5.6-.5h0c.2,0,.5.2.9.5l3.2,2.5c.2.1.2.2.3.3,0,.1,0,.3-.1.4-.2.3-.6.6-1.1.7-.4.1-.8.1-1.3,0h0s0,.3,0,.3l1.7.5h0s3.1-4,3.1-4h0s-.9-1.6-.9-1.6l-.3.2Z"/>
  <path class="st0" d="M71.7,70.2c-.2.2-.5.3-.8.2-.1,0-.4-.1-.9-.2l-2.7-.9-.7-.7c-.3-.4-.5-.6-.5-.8,0-.2,0-.4.4-.6h0s-.2-.3-.2-.3l-2,1.8.2.3h0c.3-.3.5-.4.6-.3.2,0,.4.2.8.6l.8.9.6,2.5c.1.4.2.7.1.8,0,.3-.1.5-.3.8h0s.2.3.2.3l1.7-1.5-.2-.3h0c0,0-.2.1-.3.3-.2.1-.3.1-.5,0,0,0-.1-.2-.2-.3,0-.2,0-.3-.1-.4l-.5-2,2.3.7s.1,0,.3.1c.2,0,.2.1.3.1,0,0,0,.2,0,.4,0,0,0,.1-.3.3h0s.2.3.2.3l1.9-1.7h0s-.2-.3-.2-.3h0Z"/>
  <path class="st0" d="M32.4,75.1c-.2.1-.5.2-.7.2h0c-.3,0-.5,0-.7-.1h0s-.1.3-.1.3h0c.3.1.5.2.6.3.1,0,.2.1.2.2,0,0,0,.2,0,.3,0,.1,0,.2-.1.4l-.7,1.9c0,.2-.2.4-.2.5,0,.1-.2.2-.3.2,0,0-.2,0-.3,0-.1,0-.2,0-.4-.1h-.1s-.1.2-.1.2l2.4.9v-.3c.1,0,0,0,0,0-.2,0-.3-.1-.4-.2-.1,0-.2-.2-.3-.3,0-.1,0-.3,0-.4l1.5-4h0s-.2-.1-.2-.1h0Z"/>
  <path class="st0" d="M40.1,79.1c-.2.2-.3.4-.5.5-.2.2-.4.2-.6.2-.3,0-.5-.2-.6-.5,0-.2-.1-.5,0-.8,0-.4.1-.7.3-.9.2-.3.4-.4.6-.4s0,0,.1,0c.4,0,.6.3.7.8,0,.3,0,.7,0,1.2ZM39.5,76.9c-.4,0-.8,0-1.2.4-.3.3-.5.7-.6,1.2,0,.4,0,.7.2,1.1.2.3.5.5.9.6.3,0,.5,0,.7-.1.2,0,.3-.2.5-.4h0c0,.5-.2,1-.5,1.4-.3.5-.6.8-.9.7-.1,0-.2,0-.3-.2,0,0,0-.2,0-.3,0-.1,0-.2,0-.3,0,0-.1-.1-.2-.1-.1,0-.2,0-.3,0,0,0-.1.2-.2.3,0,.2,0,.4.3.6.2.1.4.2.6.3,0,0,.1,0,.2,0,.3,0,.5,0,.8-.2.3-.2.5-.4.7-.7.2-.2.3-.5.4-.8.1-.3.2-.6.2-.9,0-.6,0-1.1-.1-1.6-.2-.6-.6-.9-1.2-1Z"/>
  <path class="st0" d="M47.3,78.9c-.2,0-.4,0-.5.1-.1,0-.3.2-.4.3v-1.6s1.9-.2,1.9-.2h0v-.6c0,0-2.3.2-2.3.2h0s0,2.5,0,2.5h0s.3.1.3.1h0c0-.2.2-.3.3-.4.1,0,.3-.2.5-.2.3,0,.6,0,.8.3.2.2.3.5.3.8,0,.4,0,.7-.2,1-.2.3-.4.5-.8.6-.1,0-.3,0-.4,0-.1,0-.2-.2-.2-.3,0,0,0-.1,0-.2,0,0,0-.2,0-.2,0-.1,0-.2-.1-.3,0,0-.2-.1-.3,0-.1,0-.2,0-.3.2,0,.1,0,.2,0,.4,0,.3.2.5.6.7.2.1.5.2.8.2s0,0,.1,0c.5,0,.9-.3,1.2-.6.3-.4.4-.8.4-1.3,0-.4-.2-.8-.5-1.1-.3-.3-.7-.4-1.1-.4Z"/>
  <path class="st0" d="M57.2,79.8h0c-.2,0-.3,0-.4.1-.2,0-.3,0-.4,0,0,0-.2-.2-.3-.4l-1.3-4h0s-.3,0-.3,0h0c0,.2-.2.5-.4.6-.2.2-.4.3-.7.4h0s0,.3,0,.3h0c.3,0,.5-.2.6-.2.1,0,.2,0,.3,0,0,0,.1.1.2.2,0,.1,0,.2.1.4l.6,2c0,.2.1.4.1.6,0,.1,0,.3,0,.4,0,0-.1.1-.2.2-.1,0-.2,0-.4.1h-.1s0,.3,0,.3l2.4-.8h0s0-.3,0-.3Z"/>
  <path class="st0" d="M44,72.3c-15.6,0-28.3-12.7-28.3-28.3s12.7-28.3,28.3-28.3,28.3,12.7,28.3,28.3-12.7,28.3-28.3,28.3ZM44,15c-16,0-29,13-29,29s13,29,29,29,29-13,29-29-13-29-29-29Z"/>
</svg>