<?xml version="1.0" encoding="UTF-8"?>
<svg id="_图层_1" data-name="图层_1" xmlns="http://www.w3.org/2000/svg" version="1.1" viewBox="0 0 972 972">
  <defs>
    <style>
      .st0 {
        fill: #fff;
        fill-rule: evenodd;
      }
    </style>
  </defs>
  <path class="st0" d="M677.3,841.8c6.6,0,12-5.2,12-11.8.1-6.6-5.1-11.8-11.7-11.8-6.7-.2-11.7,4.9-11.9,11.5,0,6.5,4.9,12,11.6,12.1Z"/>
  <path class="st0" d="M285.4,836.6c6.6.1,12.1-5.2,12.1-11.8.2-6.5-5.2-11.7-11.7-11.8-6.7,0-11.8,5.1-11.9,11.5,0,6.8,4.9,12.2,11.5,12.2Z"/>
  <path class="st0" d="M492.5,19.7c.7,0,23,.9,23.4.9,37.2,2.8,72.8,9.6,115,21.7,43.3,15.1,82.8,34.6,120.8,60.2,49.4,35.8,90.2,78,124.8,128.5,24.3,38.2,42.9,77.9,56.9,122.2,11.2,42.5,17.1,79.1,18.9,115.5.3,5.9.3,11.7.2,17.5-.6,34.9-4,67.2-10.9,99.9-8.8,37.4-20.7,71.4-37.8,107.1-21.5,41.4-45.9,76.5-76.9,110.7-26.9,27.7-55,51.4-85.7,72.6-46,28.9-92.1,49-144.7,63-33.4,7-63,11.1-93,12.8-41.1.6-79.5-3-117.1-10.8-37.2-8.8-71.6-20.7-107.9-37.7-41.3-21.7-76.5-46.2-110.5-77-39.5-38.7-69.8-78.2-95.2-124.2-11.4-23.4-20-43.2-27.5-62.7-14.9-46.3-23-89.6-25.7-136.2,0-5.6-.1-11.5,0-17.1.5-34.8,4-67.7,10.5-100.4,9.6-39.3,21.8-73.7,38.2-107.6,21.5-41.4,46-76.7,76.9-110.5,38.4-39.5,78.1-69.7,124.5-95.3,20.1-10.2,41-19.3,62-27.2,46-14.8,89.7-23,137.3-25.7.2,0,22.1-.3,23.6-.3ZM492.5,0l-24.3.5c-49.9,2.7-95.2,11.3-142.8,26.5,0,.2-.3.3-.3.3-21.9,8.2-43.5,17.6-64.7,28.4-47.6,26.2-90,58.4-129.6,98.7-32.2,35.7-57.6,72.3-80.1,115.6-17.1,35.7-29.8,71.1-39.7,112.1,0,0,0,.2,0,.5C2.9,421.8-.6,461.8,0,504.4v.4c2.8,48.5,11.1,93.4,26.7,141.5,0,.3,0,.5,0,.5,7.7,20.1,16.7,40.6,28.4,64.8,0,.2,0,.3.2.5,26.4,47.7,58,88.9,99.2,129.1,35.5,32.1,71.9,57.6,115,80.1,0,0,.2.3.4.3,37.6,17.7,73.2,30,112.2,39.1,39.3,8.2,79,11.9,121.9,11.3,31.7-2,62.1-6,96.7-13.1.1-.3.3-.3.6-.3,54.6-14.7,102.4-35.6,150.4-65.8,32.2-22,61.2-46.5,89.3-75.4,32.4-35.6,57.8-72.1,80.2-115.3,17.7-37.3,30.2-72.9,39.2-111.9,8.3-39.8,11.9-78.5,11.3-122.2-2.1-38.2-8.3-76.1-19.7-119.9-.1-.2-.1-.5-.1-.5-14.6-46-34.1-87.6-59.4-127.4-35.9-52.6-78.2-96.2-129.9-133.6-39.6-26.6-80.7-47.3-125.9-62.8l-.3-.3c-43.7-12.5-80.4-19.4-119.3-22.3l-24.3-1.2h-.6Z"/>
  <path class="st0" d="M270.5,129.3c.1.5,0,.9,0,1.4.1.3.3.7.4,1.1,0,.7-.7,1.4-1.1,2-.3.5-.7,1-1.1,1.4-.8.6-1.1,1.7-1.6,2.5-.2.2-.4.4-.5.6-.8.6-1.6,1.1-2.4-.1-.3-.4-.5-.9-.5-1-.4-1.8,0-5.6,1.1-7.7.3-.6.4-1.3.5-2,0-1.4.8-3.9.8-3.9.4.3,1.1.9,1.2,1.5,0,0,.2.2.2.3.9,1.1,2.6,2.5,3.1,4ZM280.3,146.2h0c-.5.4-.7.9-.9,1.5-.2,0-.4.3-.5.3-.2.1-.3.4-.3.6,0,.4-.2.9-.4,1.2-.7.9-1.1,2.6-1,2.7-.5.1-.9.3-1.3.5-.2,0-.8-.2-.9-.1-.4.3-1.2.6-1.7.8-.3,0-.6,0-.7-.3-1-2.1-.6-6.9.5-9.4.2-.5.6-.9,1-1.2.3-.2.5-.4.7-.7.4-.5.8-.9,1.2-1.3.1-.1.3-.2.4-.3.2,0,.4-.1.6-.2.3-.1.7,0,.9.3.5.6.9,1.1,1.4,1.7.9,1.2,1.5,2.3,1.2,3.8ZM285.2,162.5c-.4.5-.8,1.1-1.2,1.6-1.7,1.4-6.4-2.8-8.7-6.3,0,0-.3-.5-.3-.6.7-.5,1.6-1.3,2-2.2,0,0,0-.2,0-.3.2-.5,1.4-.9,1.4-1.8.4-.2.9-.4,1.3-.7,0,0,.1.1.2.2-.4.3-1.3.9-.3,1.1.6.2,1.1-.4,1.7-.4,1-.8,2.8.3,3.9.6.2,0,.3.2.5.4,1.9,3.1-.1,7.8-.4,8.4ZM284.6,130.7c-.4-.5-.8-1-1.1-1.4-.4-1.6.4-2.6,1.5-3.6,0,0,1.4-1.1,1.5-1,1.3-.5,2.5.2,3.4,1.2.7.8,1.1,1.7,1.3,2.5,0,.7,0,1.3,0,1.9.2,1,.7,2,.9,3,0,.5,0,1.1.2,1.6.3,1.1.9,2.3.7,3.5-.1.5-1,1.1-1,1.1-2.5-3.1-5.3-5.6-7.4-8.8ZM330.7,145.4c-.6-.6-1-1-1.7-1.1-.3,0-.6,0-.9,0-2.9,0-2.9.6-5.5,2,0,0-5,1.8-6.3,2.2-.2,0-.3.1-.5.3-1,.7-2.3,1.2-3,1.6-1.4.9-3.3,2.2-4.8,2.6-.4.3-.9.6-1.4.9l-1.1.8h0c-.1.1-.3.3-.4.4-1.3.9-2.6,1.7-3.9,2.5-.1.1-.2.3-.3.4,0,.1-.1.3-.1.3-.7.9-2.1-1.6-2.2-3.1-.5-1.8,2.9-5.4,3.4-7.1.3-.8-.4-2.3-.6-3,0-.1,0-.2-.2-.3-1.1-1.5-4-2.9-4-3,.9-.7,1.9-2.7,1.9-3.7,0-.5-.2-1.1-.2-1.6.2-1.3.5-2.7.8-4,0-2.6-.9-5.3-1.5-7.9-.3-1.6-.5-3.3-1.2-4.7-.9-1.8-3-4.5-4.7-5.3-.8-.4-1.8-.3-2.7-.4-1.5-.1-2.7-.2-4.2.5-1.1.6-2.3-.1-3.4,1.1-.9.7-2.2,1.3-2.8,2.2-.7.5-1.4,1.7-1.6,2.5l-.2.2c-.7-.8-2.7-3.1-2.8-4-.4-3.5,4.9-7.6,2.1-11.1-.9-1.1-2.4-1.6-3.8-1.7-1.1,0-2.9.1-3.7,1-2.3,1.8-3.2-2-4.5-3.4-.9-1.2-3.3-.9-4.7-.1-.2.1-.5.3-.5.7-.8,2.3.2,4.9.3,7.3,0,1,0,2,0,3s-.1.6-.3.7c-.3.3-.7.8-.8.9-.8.6-1.2,2.1-1.6,3-.6.6-1.2,1.3-1.8,1.9-1.7,1.3-3.4,2.6-5.1,4-.2.1-1.3,1.2-1.3,1.2-.7.5-1.8,1.9-1.9,2,0,0-1.3,2.5-1.6,3.4,0,.3-1.2,3.6-1.5,4.5,0,.1-.1.2-.2.3-.9,1.2-.5,3.4,0,4.5,0,0,0,0,0,.1-.5.5,1.2,2.6,1.6,2.7.6.2,2.4-.2,2.7-.3.6-.2,1.2-.7,1.8-1.1.6-.5,1.2-1,1.8-1.5,0,0,.1-.1.1-.2.8-1.4.8-3.2,1.6-4.6.7-1,1.4-2,2.1-3.1.7-.9,2-1.6,2.3-2.7,0,0,0-.3,0-.4.4-1,2-1.1,2.8.5,0,0-.6,4.4-.7,4.8,0,0-1.6,4.1-1.5,4.2-3.5,2.7-1.5,8.1.4,11.2.2.4,1,1.6,1.2,1.8,1.4,1.9,2.9,3.7,4.4,5.7.3.4.7.9,1.1,1.4.6.9,1.2,1.8,1.8,2.6.5,1.2.7,2.4,1.2,3.7,1.3,2.6,3,4.7,4.8,7.1,1.1,1.3,2.2,3.1,3.7,3.8,1.7.7,3.7.4,5.3.3.6,0,1.2.2,1.7.2,1.1,0,4.1-.6,5.1-1.1,1.6-.5,3.7,8.7,3.7,8.7.1.4.2.8.3,1.2.9,3.1,0,5.8-.5,8.8,0,.9,0,1.7,0,2.5-.5,4.1-1.3,8.1.1,11.8-.1.1,1.5,3.1,2.7,3.6.1.1.6.3.7.3,1.6,0,4.2,1,6.2-.9,1.8-1.6.7-9.9.5-12.3,0-.8,0-1.6.1-2.3,0-.8.3-3,.2-3.2,0,0-.2-2.3-.3-3.5,0-.3-.1-.6-.2-.9-.4-1.5-.4-8.3.3-8.9.7-.4,3.2,2.6,3.7,3.7,0,.2.2.4.3.6,1.4,1.8,2.6,3.7,4.6,4.9.1,0,.3.2.3.3,1.2.7,2.3,1.1,3.7,1.1,1.6-.2,2.8-1.6,2.9-1.7,4.9-3.6-2.9-9.7-5.5-13-1.8-2.2-3.2-4.9-4.8-7.3.2-.3.4-.7.7-1.1.9-.8,3.4-2.4,4.6-2.8.5,0,1,0,1.6,0,1,0,2.2-.7,3.1-1.3,1.4-1.1,2.9-1.6,4.3-2.7.8-.8,1.6-1.5,2.3-2.3,1.4-1.1,2.9-2.2,4.3-3.3,1.1-.9,2.4-1.2,3.2-2.4,1-1.5.9-4.5-.5-5.8-.2-.2-.4-.3-.6-.5Z"/>
  <path class="st0" d="M437.8,119.1c-.7-1.4,1.8-2.1,1.8-2.1,2,.2.5,2.3-.6,2.7,0,.3-1.2-.4-1.3-.5ZM418.7,85.3c-.2.6-.6,1.1-1,1.4-.1.1-.3.2-.4.2-1.3.3-2.7.4-2.1-1.4.5-1,1.4-1.7,2.5-2.6,0,0,.2-.3.3-.3.3,0,.7-.1.9,0,0,0,.3,1-.2,2.6ZM431.3,90.5c0-.3.3-.5.4-.9.4-.9.4-1.3,1.1-1.7.2-.1.4-.2.7-.2,1.1,0,1.7-.3,2.2.9,0,.1-.1.4,0,.5,0,.2,0,.3,0,.5-.1.8-.9,2.6-1.3,3.1-.5.4-1.1,1.5-1.5,2,0,.1-.3,0-.3,0-.2-.3-.3-.7-.5-1,0,0,0-.1,0-.2-.1-.7-.4-1.4-.5-2.1,0-.1-.3-.5-.2-.9ZM451.4,93.4c-1.3-.4-3.4,0-4.6.7-1.3.3-3.7,2.3-3.8,2.4-1.1.8-2.1,1.6-3.2,2.4-.1,0-.3.1-.4.1-.1,0-.2,0-.3.1-1.3.5-2,2-3.3,2.6-.6.3-2,.6-2.5.3-.8-.3-1.4-3.1-1.4-3.9.2-.3.5-.7.7-1,.7-.7,2.5-1.9,3.2-2.7,1.3-1.4,3.5-2.7,4.8-4.4,1.1-1.4,1.1-3,2.1-4.6.4-.5,1.1-.7,1.5-1.2.8-.8,1.4-2.2,1.7-3.2h0c-.4-1.4-4-6.2-5.2-6.5-.9-.3-2.2.2-3.2.5-.5.1-1.4.5-1.7.6,0,0-.2,0-.3,0-.5.1-1.2.1-1.6.3-.2,0-.3.2-.5.3,0,.1-.2.2-.3.2-.5.4-1.1.8-1.6,1.2-.9.9-1.5,1.9-2.4,2.6-1.1.3-1.3.1-1.6-.9-.1-.1-.1-.2-.2-.3-.1-.3-.3-.6-.4-.9,0-.3-.3-1.1-.2-1.7,0-.3,0-.7-.2-1-.1-.3-.2-.5-.2-.5-.3-1.1,1.8-3.6,2.8-3.9,1.1-.6,3.4-.4,3.8-1.6.1-.3.4-.6.7-.9,1-1,1.7-3.6,1.3-4.5-.8-1.9-3.7-1.9-5.4-1.1-.3.1-.5.3-.7.4-.3.1-.5.3-.7.4-1,.4-2,.7-3,1,0,0-.3.1-.4.1-.1,0-.2.1-.3.2-.5.1-.9.1-1.3-.2-.2-.1-.3-.4-.5-.5-.3-.8-.8-1.6-1.1-2.3-.4-1.4,0-3.4,1.1-4.3,0,0,1.7-.5,2-.5h0c-.2.5-.4.9-.7,1.3h0c2.2-.5,3.1-2,4.6-3.4.9-.9,2.4-1.1,1.8-2.7-.2-.7-1-.9-1.6-1.1-2.3-1-4.1-1.4-6.8-.9-.3.1-1,.5-1,.5-.5.3-1,.6-1.5.9-.2.2-.5.3-.7.6,0,0,0,.1-.1.2-.3.4-.7.7-1.1,1-.3.2-.5.3-.7.5-.2.1-.3.3-.5.4-1.6,1.6-2.5,3-4.7,4.3-.2,0-.4.1-.6.2-.4.2-.9.3-1.3.5-.4.1-.8.3-1.3.4-.2,0-1,.4-1,.4-.4.1-.9.2-1.2.3h0c-.7.1-1.4-.3-1.6-.8,0-.1.1-.2.1-.3,0-.3-.1-.3-.3-.5-.9-.8-4.4-.8-5.5-.1-.7.2-1.1.5-1.7.9-1.1.3-1.7,2-2.5,2.9,0,0-.2.4-.2.6,0,1.7.6,1.7,1.1,1.7.5,0,1,.1,1.4.5,1,.6,3.7,1.3,4.2,1.3h.2c1-.3,2.1-.4,3-.8,1.6-.4,2.7-1.7,4.1-2.4.7-.3,1.3-.5,2-.8.5-.5,1.1-.9,1.6-1.4.4-.3.9-.6,1.4-.7h.5c.2-.2.3-.2.5-.3.4-.3.8-.6,1.2-.6s.3,0,.4.2c.3.4,1.1,1.4,1.3,2.6,0,0,0,.1,0,.1-.2,1.1-.8,2.7-1.2,3.7-.2.4-.3.7-.3,1.1,0,.5-.1.9-.1,1.3-.2.2-.3.4-.6.6-.4.1-1.3.5-1.8.6-.1,0-.2.1-.4.2-.6.3-1.1.5-1.7.7,0,0-.3.2-.5.3-.3.2-.5.3-.8.4-.4.1-.9.3-1.3.4,0,0-.9.6-1.3.8-.2,0-.3.2-.4.3-.3.2-.5.3-.8.5-.9.3-1.4,0-2.2,0-2.4.1-4.3,1.1-5.9,2.3-.7.5-2.1,2.7-3.2,3.2-.1,0-.3.3-.4.5-.8.9-.6,1.9,0,2.8.3.4.6.7,1.1.7,1.6.2,3.3,2.8,6,1.9,1.6-.4,2.4-1.9,3.7-2.6,1.6-.8,3.2-1.6,4.7-2.5,2-1.2,4-2.7,6.3-3.6.6,2.2-1.7,3.9-3.1,5.4-.1.1-.3.3-.4.3-.5.3-1.7,1.2-1.8,1.4-.6.7-1.1,1.4-1.6,2.2-.8,1.2-1.7,2.3-2.8,3.3-.5.5-1.1,1-1.7,1.5-.3.2-.5.5-.8.9-.7.9-1.6,2.3-1.6,2.3-.2.3-.7,1-.9,1.3-.5.3-.9.5-1.4.7-4.1,1.1-3.8,2.9-5.6,5.9-.4.5-.8.9-1.1,1.4-.2.3-.3.6-.2.9,1.2,3.8,4.1,3.5,7.5,2,.1,0,.2-.1.3-.2.4-.3,1.3-.8,1.7-1.1.9-.7,1.9-1.2,2.8-1.8,2.5-1.1,5.2-1.5,7.3-2.9,2.4-1.5,4-4.3,6.6-5.5.1-.1,1.5-.6,1.7-.7.4,1.6.3,3.4.4,5,.2,1.9,1.5,3.5,0,5.1h0c-.5.5-.9.9-1.4,1.3-1.8,2-4.4,4.2-6.8,5.5-1.7.9-3.4,1.6-4.8,2.7-.2.2-.5.4-.8.5-1,.5-2.3,1.7-2.5,1.8-.3.1-.5.3-.8.5-.5.3-1,.6-1.6.9,0,0-.2.1-.3.1-.4.2-1.7.9-2.4,1.2,0,0-.2.1-.3.2-.4.3-1.7.9-1.8,1,0,0-2.4,1.2-2.7,1.3-.2,0-.5.2-.7.3-.2.1-.4.1-.6.2-.7.5-1.4,1-2.1,1.5-.1.1-.3.2-.4.4-.3.4-.6.9-.9,1.3-.3.4-.4.8-.3,1.3,0,.5,0,.6-.2,1.2,0,.3-.1.5-.1.8,0,.2,0,.5,0,.7s0,.7.3,1c.8,1.2,2.7,1.8,3.9,2,1.2,0,2.6.4,3.8.1,1.6-.4,2.5-1.6,3.6-2.4.6-.5,1.1-.9,1.7-1.4.2-.1.4-.3.6-.4.6-.2,1.2-.5,1.7-.9,1.5-1.1,5.1-3.2,5.4-3.3.3-.1,5-3.1,5.1-3.3,0,0,1.8-1.3,2.6-1.7.7-.4,1.5-.2,2.3-.4,1.1-.4,4-2.6,4.9-1.3.3.3.4.9.3,1.3-.4,1.2-2.1,2.2-3,3-.8.9-1.6,1.7-2.4,2.4-.5.5-1,.9-1.5,1.4-.6.6-1.4,1-2.1,1.4,0,0-.2,0-.2.1-.3.2-.6.3-.9.3-1.7.4-3.8.8-5,1.8h-.1c-1.2.5-.7,2-1.2,2.8-.8,1.4-2.8,2.4-2.7,4.4.1,1.7,1.7,2.9,3,3.6,1,.6,1.8,1.7,3,2,1.5.4,2.5-.4,3.6-1.2,1.2-.6,2.4-1.1,3.5-1.7.6-.5,1.2-1,1.8-1.5,1.6-1,5.7-3.2,7.6-2.9v.5c0,.1,0,.3.1.5.3,1.1,0,3,0,3-.3.5-.7.9-.8,1.4-.1,1-.4,2.5-.6,4.2,0,.6,0,.9,0,1.8,0,.6.3,4,.4,4.9,0,.3,0,.5.1.8v.4c-.3.9,0,3.1.8,3.6.2.1.5.3.8.5,0,0,.2.1.3.1.7.1,1.3,0,2.1,0s.5,0,.7,0c.9.1,1.7.1,2.7-.6.6-.5.8-1.1,1.1-1.7.3-.5.7-1.1,1-1.7.7-1.8.5-3.7.7-5.5.2-1.2.7-2.4.6-3.6,0-.5,0-1,0-1.5.2-1.2.3-2.4.5-3.7.2-2.6-1.3-7.3.3-9.4,1.4-1.9,5.7-2.3,7.9-3.4,1.8-.9,2.9-2.2,4.5-3.1,1-.5,4-1.7,4-2.8-.2-.6-.5-1.3-.7-2-.5-1.7-1.5-2.8-3.1-3.5-.5-.2-1.1-.3-1.6,0,0,0-.1.1-.1.1-.1.1-.2.3-.4.4-.3.2-1.1.9-2,1.3h0s-.8.2-.8.2h-.1c-.4,0-.8.1-1.2.2-.5,0-1.1,0-1.6-.1-.5-.1-1-.3-1.5-.4-1.4-.3-2.7-.6-4.1-.9-.9-.1-1.6-.3-2.5-.4,0,0-.8-.1-.8-.6,0-.4,2.9-2.6,3.9-3.2.2-.1.3-.2.4-.4.3-.6.8-1,1.4-1.4.5-.3,1.1-.6,1.6-.9,2.7-1.3,10-4.9,11.1-7.5,0-1,.2-1.9.3-2.9-.3-.6-2.7-2.9-3.3-3.1Z"/>
  <path class="st0" d="M713.4,136.7c.8-1.2,2.2-1.3,3.2-2.4.2-.2.4-.3.7-.3h.1c.2,0,.4,0,.5.2.2.2.4.3.5.5.1,0,.2.3,0,.4-.4.7-.9,1.6-1.5,2.2-.4.4-.7.9-1.2,1.1-.1,0-.6.4-.7.6,0,0-2,.5-2,.4-1.2-.8-.3-1.7.3-2.7ZM729.9,132.3c2-.1,3.8-.4,5.8-.4.2,0,.5,0,.7.2,1.6.7,1.2,2.7,1,3.3,0,.2-.1.5-.1.7s0,.2,0,.3c-.3,1-1.5,2.4-2.2,2.9-.9.7-3.5,2.1-4.1.8-.8-1.5,0-3.1.2-4.8,0-.5-.4-.9-.7-1.1-.2-.2-.3-.5-.6-.7-.8-.5-2.5,0-3.2.7,0,0-.2.3-.3.3-.3.2-.6.7-.7.9,0,.2-.4.3-.5.4-.3,0-1-.6-.4-1.3,1.7-2.1,3.1-1.4,5.2-2ZM734.3,163.8c0-1,0-2.2-.4-3.2-.7-1.4-2.6-3.1-4.1-3.5-.6-.3-1.2-.5-1.8-.8-.3-.2-3.1-1.2-3.4-1.4-.1-.1-1.4-.3-1.8-.4-.3,0-3.5-1.1-4.7-1.2-.3,0-.6-.2-.9-.4-1-.6-2.2-1.3-2.9-1.9-.2-.2-.5-.4-.7-.5-1.2-.5-2.4-1.1-3.7-1.6,0,0-.5-.3-.6-.4-.2-.1-1.3-.9-1.8-1.1-.7-.2-1.4-.5-2.1-.7,0,0-2.5-.9-2.8-1-.7-.5-3.9-1.4-3.9-1.4,0,0-2.1-.5-3-.7-1-.5-1.6-1-2.7-1.1l-1.9-.3c-2.4-1.6,3.1-4.2,3.8-6.4.4-.5.9-1.1,1.3-1.7,1.4-2.2,3.2-3.3,4.7-4.9.7-.7,1.1-1.7,2-2,.3,0,.8-.3,1,0,0,.1,0,.3,0,.5-.4,1.6-2,2.1-3,3.3-.4.6-.9,1.3-1.2,1.9-.8.8-1.5,1.6-2.2,2.4-.6.9-1.6,1.3-2.2,2.5-.3.6.2,3.2,1.1,3.5,1.7.4,3-1.4,4.5-1.7,1-1,1.9-2,2.9-2.9.4-.5.8-1,1.2-1.4.5-.7,1.3-1,2-1.6,2.1-1.7,6.9-6.3,9.7-5.5.8.5-1.8,1.8-2.1,2,0,0-.4.2-.6.3-4.2,2.6-5.6,3.7-8.1,7.5-.4.6-1.1,1.4-1.4,2.1,0,.2,0,.4,0,.6,0,.2.2.3.2.5.1.3.2.6.2.9s0,.5.2.8c1,1.1,1.7.7,2.7.7.2,0,.4,0,.5.1.3.1.6.2.9.3.5,0,1.1.1,1.6.1.2,0,.4,0,.6-.1.4-.1,1.2,0,1.6,0,.3,0,.6,0,.9,0,.2,0,.3-.1.5-.1.4-.1.7-.3,1-.5.3-.2.8-.5,1-.7.2-.1.3-.2.5-.2,0,0,.2,0,.2,0,.4-.1.8-.3,1.1-.6,1-.9,2.7-2.7,3.3-1.7.6,1.1-3.6,3.5-4.2,4-.8.4-1.7.9-2.5,1.3-.1,0-.3.2-.3.3-.2.4-.2.7-.1,1.1,0,.3.3.5.5.6.3.1.6.3.8.4,0,0,.2,0,.3,0,2.1.4,4.1,1,6.3,1,1.6-.3,3.2-.6,4.6-.8,2.7-.2,5.5-.2,8.2-.9,3.4-.9,6.4-3.8,8.7-6.6,1.4-1.8,2.7-3.5,2.7-5.7,0-1-.4-1.6-.6-2.5-.5-1.5.2-2.8-1.3-4.2-.6-.4-1.1-1.2-1.9-1.6-.3-.2-.7-.5-1-.9,0,0-.8-.5-1.1-.7,0,0-.2,0-.3,0-.9,0-4.7.5-5.8.9-.2,0-.8.3-1.1.4-.1,0-.3.1-.3.2-1.1.8-3.6,1.1-3.6,1.2-.4,0-1.1,0-1.1,0-.2-.2-.4-.8-.3-1.1-.2-.2.7-1.4.9-1.8,1.7-2.7,2-4.8-.5-6.9l-1.3-.8c-.4,0-.8.1-1.2.3,0,0-.9.6-1.3.9-1.5,1-2.5,2-4.3,1.6-.2,0-.4-.3-.4-.5v-.5c0-.2,0-.4,0-.6.2-.3.3-.5.3-.8,0-.1.1-.5,0-.6,0-.1,0-.3,0-.4.5-1.1-.7-1.8-1.5-2.4-.1,0-.3-.2-.5-.2-.4,0-.9-.2-1-.2-.2,0-.4,0-.6,0-1.3,0-1.3.7-2.3,1.2-.4.1-.9.3-1.3.5h0c-.7-.5-.2-1.8.2-2.6.1-.2,0-.5-.1-.7-.5-.5-1.2-1.1-1.5-1.4-.1-.1-.3-.2-.5-.2-.5,0-1.1-.3-1.8-.2-2.8.3-8.4,4.7-9.6,5.6-.3.3-.7.5-1,.8,0,0-.9.7-1.5,1.1-.3.3-.6.5-.9.8-.8,1-3.7,4.2-4.8,5.2-.2.2-.4.4-.6.6-.9,1.2-1.6,1.6-2.5,2.7-1.1,1.2-1.9,3.1-3.3,3.9-.4.5-.5.9-1.1,1.1,0,0-.2.4-.2.5-.2.9-.5,3.6-.1,4.4h0c-1.3,1.8-4.4-1.2-4.5-1.2-1.2-.8-2.7-2.4-4.1-3.1-1.5-.5-3.4-1.5-4.5-1-.6.3-1.4.5-2,.6-1.4.7-4,1.8-5,3-2.2,2.6-3.6,6.3-6,8.6,0,.2-.3.4-.4.6-.6,1.1-.3,2.4.2,3.5.4.6.8,1.1,1.2,1.7.3.2.5.4.8.6,2.8,1.3,5.8-.6,7.8-2.5.8-.7,1.3-1.7,2.2-1.9.5-.2,8.9,1.9,9.9,2.4.3.1,2.2.4,3.6.6.9.1,1.8.4,2.6.7,2.2.9,4.4,1.9,6.6,2.9,1.2.9,2.6,1.4,3.9,2.1,1.6.7,2.9,1.8,4.4,2.6,1.4.6,2.9,1.3,4.3,1.9.3.1.6.3.9.5,2.4,1,5,1.5,7.5,2.3.4.1.7.2,1,.4,1.8,1.2,4.4,1.2,6.3,2.1-.2.4-.4.7-.6.9-.3.5-1.2,1.2-1.3,1.3-.1.1-.7.3-1.1.4-.1,0-.2.2-.3.3,0,.1-.1.2-.2.4-.1.2,0,.5,0,.6.2.2.5.6.6.8,0,0,.1.1.1.1,1.1,1,2.7,2.1,3.9,2.9.2.1,3.9,1.5,6.3,1.4.6,0,1,0,1.5,0,1.1,0,1.9-.7,2.5-1.4,2.6-2.8,2.1-5.1,2-8.4Z"/>
  <path class="st0" d="M704.8,179.7c-.4-.4-1.3-.9-2.1-1.3-.8-.3-1.5-.8-2-1.4-.4-.5-1.3-.8-1.7-1-.2-.2-.3-.4-.5-.5h0c.9-.3,1.6-.5,2.3-.7,5.8-1.7,7.6-3.9,5.1-9.6-.6-1.2-1.1-2.8-2.6-3.4l-.7-.5c-.2-.2-.4-.4-.7-.5-.1,0-1.2-.4-1.3-.4-.2-.1-.5-.2-.7-.3-.6-.4-1.1-.7-1.6-1.1-.1-.1-.2-.1-.3-.2-1.7-1.1-8.5-2.8-11-2.9-.3,0-.5,0-.8-.2-.4-.2-.9-.4-1-.5-2.2-1.1-7.1.2-7.6,2.9-.1.6,1.2,4.6,1.6,4.9,2.6.2,5.3.4,7.9.5,1.3.2,2.6,1.3,3.8,1.9.7.3,2,.6,2.4,1.4.4.9-.5,1.7-1.1,2.3-1.5,1.8-2.8,4.3-5.3,2.7-.7-.5-2.9-1.4-2.9-1.4-.8-.5-3.5-.6-4.6-.9-.9-.6-9.1-.5-9.9.1-.8.5-1,1.7-1,2.5-.3,2.2-.6,4.4,2,5.7,0,0,.1,0,.2.1,1.2.8,2.8,1.2,4.2,1.6,1.3.9,5.7.6,7.5.9.8.5,1.6.9,2.4,1.3.6.3,1.5.4,1.3,1.1-.1,0-2.8,1.9-4.1,2.8-3.2,2-4.9,2.6-8.2-.5-1-.8-2-1.6-2.8-2.4-1.6-1.1-5.1-2.8-5.1.2,0,0,.6,1.8.4,2.3-.5.5-1,1-1.5,1.5,0,0-.6.7-.9,1-1,1.2,0,2.1.2,3.3,0,.4-.1.8-.1,1.2,0,.7.9,2,1.3,2.6.1.2.3.4.5.6.9.7,1.6,1.6,2.7,2.2,3.2,1.6,7.1,1.7,10.7.8.5-.2.9-.3,1.3-.5.3-.2.7-.3,1.1-.3.4,0,.8-.1,1.2-.2.4,0,.7-.1,1.1,0,1.2.1,4.7-1.3,5.3-1.8.9-.6,1.8-1.3,2.7-1.8,1.2-.7,2.1-1.7,3-3.1.5-1,1.2-2.9,2.3-3.6.7-.4,1.8.1,2.5.3,3.9.7,6.7-.5,6.2-4.9,0-1,0-2-.8-2.8Z"/>
  <path class="st0" d="M585.4,102.6s1.3-1.8,2-2.6c1.3-2-2.8-4.9-4.1-5.2-.1,0-.3,0-.5.1-.5,0-1,.2-1.5.3-.3,0-1.3-.1-1.5-.1s-1,0-1.1,0c-.9-.1-1.8.3-2.7.4-.5,0-1.9-.4-2-.4h0c-.2-.3,0-.9,0-1.2.3-1.2,1.1-3,2-3.8,1.2-1.1,2.6-1.6,3.6-2.9,2.8-3.7,5.2-7.5,7.2-11.8,0-.5-.1-1.1-.2-1.5-.3-.5-.5-1-.8-1.4-.7-2.6-.1-3.7-2.8-4.6-.2,0-.5,0-.8,0-.2,0-.5.2-.7.2-2.1.1-8.2,5.9-10.4,8.6-.4.5-.7,1-.9,1.5-.2.5-.3,1-.5,1.5-.7,1.2-1.3,2.4-2,3.6-.2.3-.3.7-.4,1-.7,2.7-2.9,4.9-4,7.2,0,.1-.2.3-.2.4-2.3,3.6-4.6,4.3-6.2,4.8-.2,0-.5,0-.7,0-2.2-.3-3.7-1.2-5.7-1.1,0,0-1.8.3-2,.3-1,.2-1.7.9-2.1,1.6-1.2,1.5-2.3,3.2-1.6,5.3.2.6-.1,1.5.2,2,.6,1,5.5,2,6.9,2.6.6.3,1.3.8,1.3,1.7h0c0,.3-.3.4-.4.5-.9,1.1-2.2,2.6-2.7,3.5-.3.4-.5.7-.9,1h-.2c-.6.7-1.1,1.3-1.6,1.8-1.2,1.4-2.4,3-3.7,4.2-1.4,1.2-3.1,1.8-4.6,2.7-1.1.8-2.1,1.5-3.1,2.3-1.6.8-3.3,1.7-4.9,2.6-.9.7-1.7,1.5-2.6,2.2-.5.3-1.1.5-1.5,1v.5c-.2.2-.3.4-.4.6-.1.1,0,.7,0,1,0,.3,0,.5,0,.8-.1.5,0,1,.2,1.4.1.4.5.7.9.7,3.6.5,6.4-.8,9.6-2,1.4-.5,2.6-.7,4-1.5.9-.7,1.7-1.4,2.5-2,1.6-1.1,3.2-2.2,4.7-3.2,2.1-1.8,3.9-4,5.9-5.8,1-.7,1.9-1.3,2.9-2,1.5-1.4,3-2.9,4.5-4.3,2.4-2.6,4.1-6.5,7.2-8.3,2.4-1.4,4.6-2.4,7.3-2.7,3.2-.3,7,1.3,9.5-1.4Z"/>
  <path class="st0" d="M590,138.9c-.8-.3-1.6-.7-2.5-1-.2-.2-.5-.5-.8-.8,0,0-1.2-1-1.8-1.3-.9-.4-2-.4-2.8-.9-1.8-.9-2.5-1.9-4-3.2-.5-.4-1-.7-1.6-1.1-.5-.8-1.1-1.8-1.7-2.7-1.1-1.5-2.3-3-3.5-4.3-.5-.6-.8-1.3-1.4-1.6-.8-.4-1.9-.5-2.8-.7-3.1,1.5-4.1,4.6-3.7,8.2,0,.5-.4.9,0,1.4,1,1.4,4,3.5,4.4,5.4,0,0,2.5,4.7,3,5.3,1.1,1.2,6.2,4.2,6.4,4.4,1.8,1.1,4.1,1.2,6.2,2,.5.2.9-.1,1.4,0,.4.2.8.2,1.2.2.8,0,2.1,0,3.2,0,1.2,0,2.4-.3,3.4-.8.2-.1.5-.3.7-.4.2,0,.3-.2.5-.3.2-.2.9-.4,1.2-.7.3-.3,1.3-.6,1.6-1.1.4-.7,0-1.1-.2-1.7-1.1-3.2-3.6-2.8-6.6-4Z"/>
  <path class="st0" d="M691.1,454.7c-.7,2.4-2.2,13.4-3.4,15.4-.7,1.1-.5,3.7-1.4,5.7-1.3,2.9-3,10-4.2,12.5-1.1,2.4-.6,1.4-1.5,3.2-1,1.9-1.5,5-2.1,6.9-.7,1.8-1.3,3.7-2.2,6-.9,2.3-1.5,5.3-3.2,8.1-1.6,2.9-1.1,3.3-2.6,5.4-1.4,1.9-1,1-2.4,3.6-1.2,2.4-1.2,1.5-3.1,4.1-2.3,2.9-2.5,3.4-4.1,4.6-1.4,1.3-1.9,1.8-2.6,2.3-6.2,5-14.3,12.8-15.5,13.3-1.3.6-4.2,3.1-5.6,4.2-1.3,1.1-2.5,1.5-3.6,2.5-1.1.9-3.7,2.4-3.7,2.4,0,0-2.1,2-3.8,2.4-1.7.5-6.4,3.3-7.5,3.7-1.1.3-1.9,1-3.6,2.2-1.8,1-2.6,2.1-4.5,3-1.9.6-11.1,2.5-14,3.7-2.8,1.4-5.7,1.4-8.3,2.9-2.6,1.4-2.6,1.2-3.7,1.1-1.1-.3-2.2-.3-2.8-.3s-.1-.5-.7-2.9c-.5-2.3-1.4-10.7-1.3-13.3,0-2.9-.4-4-.4-4,0,0,0-14.4,5.1-22.7,5-8.2,5.9-11.4,6.9-13.9.9-2.3,1.9-2.8,3.4-6.3,1.3-3.8,5.9-14,6-18.2.1-3.9.5-9.9,1-11.5.7-1.8,2-3.2,2-6.3.1-3.3.1-5.4.3-9,0-3.6.3-14.5.3-14.5.3-1.7,2-2.3,3.2-2.3,1,.2,2.5.2,4,1.1,1.4.9,7.1,2.2,9.2,2.2s8.4,0,11-.9c2.6-.9,23.4-1.3,25-2.1,1.5-.6,11-.9,13.6-.9,2.6.3,12.8,2.2,15.3,1.8,2.6-.2,2.9-1,3.6-.2.8.6,2.5,2.5,1.8,4.9ZM574.9,466.1c-1.1,2.5-.6,9.1-1.2,10.5-.5,1.5-1.1,3.4-1.5,5.4-.5,2-1.6,12.6-5.8,19.3-4.1,6.6-4.5,9.1-6.4,11.4-2,2.4-1.4,3.2-2.8,7.2-1.4,3.9-5.1,11.1-5.3,13.7,0,2.6-1,7.8-1.3,10.9-.2,3.3-1.8,5.2-1.8,6.5s.3,1.4-.9,5.8c-1.1,4.7-.4,5.2.1,8.7.7,5.3,2.2,10.4,2,11.2-.3,1-4.7,1.9-10.6,1.9-5.9-.1-11.1,1.1-12.6,1-1.5-.1-2.8-.9-5.9-.9-3.1-.1-12.3,1.8-13.6,1.7-1.5-.2-3-.5-5.8-1.2-2.7-.6-2.8-.6-6.8-.6-3.8-.1-4.5-2.1-4.5-2.1,0,0-.5-7.2.5-10.3,1.1-3.2,1.1-3,1.5-5.1.7-2.2,1.1-3.6,2.4-6.9,1.3-3.4,2.1-3.9,2.9-6.4.8-2.7,5.5-12.2,6-14.4.5-2,3.9-7.8,4.9-12.1,1-4.3,3.6-8.2,5.1-12.7,1.4-4.4,5.1-12.9,4.7-21.4-.5-8.3-1.4-18.9-.5-21.4.7-2.7,1-.7.7-6.4-.5-5.8-.4-7.3-.4-7.3v-.5c1.5-.2,5.7-.2,6.4-.2.8.2,3.9-.9,6.5-1.3,2.6-.4,7-.6,8.6-.9,1.6-.5,8.7,0,11.1-.5,2.3-.4.9-.4,3.4-.4,2.6.3,18.1-.8,18.7.6.5,1.2,1.7,3.3,1.7,5.6s1.4,8.9.4,11.6ZM486.7,478.3c-.1,3.7-.3,3.9-.7,8.3-.5,4.6-.6,8.8-2.3,14.4-1.7,5.7-15.1,30.7-15.9,33.8-1.1,3.1-2.1,3.5-3,6.9-.7,3.4-3.3,9.7-3.4,11.9,0,2.1,0,3-.7,4.7-.6,1.8-.1-.3-.3,4.6,0,4.8.3,4.9-.3,6.5-.5,1.4.2-.7-.5,2.1-.9,2.9-.9,3.9-.9,5.8l-.2,2.2-2.5,1.2s-5.9-.4-6.7-.4c-1.1,0-7.9-.8-12.2-2.3-4.4-1.4-11.6-1.4-14-2.3-2.3-.7-6-.7-7.4-1.1-1.6-.3-4.5-1.9-10.2-3-5.7-1.1-8.9-2.3-10.1-3.2-1.2-.6,3.6-5.6,4.8-10.1,1.3-4.7,1.8-4.6,3.1-6.2,1.4-1.7,4.4-9.8,5.9-11.8,1.5-2,2.8-8.1,3.9-10.3.9-2.3,3.1-8.3,5-12.9,2.4-5.8,3.6-14,5-23.5,1.4-9.1.5-12.7,0-15.9-.5-3.2,0-7.5-.5-10.5-.4-2.3-3-9-3.5-10-.5-1.2-1.4-3.9-2.9-6.3-1.3-2.6-.9-3.6-.9-3.6,1.2-.8,1.1-.3,4.6-.3,3.6,0,2.4,0,5.8,0,3.3,0,3.6,0,6.8.9,3.1.9,18.7.5,23.3.3,4.4-.3,8.6-.3,10.1-.1,1.7,0,4.8.7,9,.7,4.2-.1,9.1-.4,9.5,2.8.5,3.2,1,2.9.8,4.7,0,1.8.8,8.2.7,10.3,0,2.1,1,3.9,1,6.2,0,2.6,0,2.3-.1,5.7ZM389.6,509.2c-1.6,4.2-1.6,5.6-2.9,8.7-1.1,2.8-10,21.8-12.5,24.7-2.5,2.8-2.8,2.1-4,5.4-1.2,3.4-.7,2.6-3,2.4-2.1,0-1.1,1.4-5.2-.9-4-2-4.2-.6-6.3-2.2-2-1.6-1.7-1.1-3.6-1.6-2.1-.6.6.2-3.1-2-3.5-2.4-6.4-4.1-8-4.9-15.6-7.8-27.6-25.5-29.7-29.7-1.4-3.3-8.6-12.3-9.8-16.2-1.2-4.1-6.4-16.6-7.9-21-1.5-4.3-5.5-19.6-5.5-21.7s1-3.3,1-3.3c0,0,2.3-.1,4-.6,1.6-.8,8.4,0,10-.3,1.5-.3,27.5.4,29.9.6,2.4,0,26.6.1,30.7.2,4.1,0,12.8-1.3,14.9-.7l6.5,8.9c.6,2.8,4,14.3,3.8,17.6-.1,3.4,1.4,4,1.7,6.5.3,2.5.1,4.7.1,8,0,3.2,2.9,11.1-1.1,22ZM726.7,398.6c-.3-3,.5-7.8.3-9.3-.3-1.5-.4-4.1-.3-7,0-2.9.9-1.5.5-4.7-.7-3.9.2-14.1-6-18.4-2.4-1.8-4.7-2.7-7-3.7-2.4-.9-6.4-2.1-8.2-.9-1.9,1.2-3,1.2-4.3,2.6-1.2,1.5,0,1.7-1.9,2.9-1.9,1-4.4,3.6-4.7,6.5-.4,2.7-.6,6.6-.7,8.1,0,1.5,0,3.2-.3,5-.3,2,1,2.6,1.2,5.2.2,2.5.5,2.4.7,3.4.3,1.1.8,2.6.8,2.6,0,0,.6,1.8.3,3.7-.1,2-1.1,11.4-2.4,14.3-1.1,2.9-1.7,3.9-2.2,4.8-.3,1.2-1.1.7-1.7,3.3-.7,2.7-.3,4.1-1.5,4.7-.3.1-.8.3-1.7.8-1.7,1-2,1.2-3.7,1.2s-2.8-.1-5.1.2c-2.2.4-2.5,0-4.9.4-2.5.6-4.4.6-5.2.6s-2.4-1.1-4.6-1.3c-2.3-.1-3.3-.3-5.3-.3s-2.3-.1-4.5-.3c-2.2-.1-2.3-.4-4.7-.3-2.4.1-11.9,2.4-13.9,2.4s-6.4-.7-7.2-.5c-.7.2-1.3.2-4.7.2s-3.7,0-5.8.3c-2.3,0-4.1-.3-6.2-.3h-7.1c-1.4,0-2.5,0-3.5-.4-.9-.3-2.2-2.8-2.5-4-.4-1.2-.8-2-1.5-3.3-.9-1.2-5.5-6.4-6.3-9.8-.8-3.2-7-11.2-7.8-13.7-.8-2.3-3.6-7.5-3.9-9.2-.3-1.9-1.4-8.1-1.8-10.3-.3-2.2-1.2-7.8-1.1-12.1.1-4,.5-7.7.3-9.7,0-1.9.2-1.4.2-4.3s.3-2.4.5-4.6c0-2.1,0-.8.3-3.6.4-2.7.8-1.6,1-3.3.2-1.9,1.6-8.6,2.2-9.9.6-1.4,1.8-4.1,2.5-6.2.9-2.1,1.2-3.2,1.5-4.8.5-1.6,5.8-8.9,6.2-11.9.5-2.9,2.3-5.2,2.4-7.7,0-2.4,0-.9.4-3.3.5-2.3,2.9-9.1,2.9-11.4.1-2.2.7-2.7.8-5.3,0-2.6,1.2-4.7,1.3-7,.2-2.2-.8-11-.7-15,0-4.1.3-1.2-.1-5.3-.4-4,.3-3.2-.6-5.3-.8-2.1-2.1-9.7-2.6-12.3-.7-2.7-1.2-3.1-2-5.7-1.1-2.6-.8-2.6-1.3-4.8-.5-2.1-1.6-2.8-2.4-4.9-.7-1.9-.4-1.1-1.8-3.2-1.5-2.2-11.3-11.2-14.8-10.9-3.5.3-5.6-.6-7.5.9-1.8,1.6-6.2,4.3-6.4,6.7-.2,2.2-.7,5.1-.6,7.4.2,2,.6,2.7.9,4.3.3,1.8,4.6,9.4,5.5,12.1,1,2.8.6,3.8,1.2,5.7.6,1.5,1.9,2.6,1.9,4.9s.2.9,0,4.4c0,3.5.5,7.1.5,10s0,2.9,0,6.3c-.1,3.4,0,3.5-.2,6-.3,2.3-1.4,5.7-1.3,7.9,0,2.3-.5,3.7-.7,5-.2,2.5-.2,1.4-1.7,4.4-1.5,3.2-1.7,3.4-2.3,6-.8,3.4-3.8,11.4-4.2,12.4-.3,1.1-1.5,1.4-1.8,4.7-.3,2.9-.8,3.1-1.5,4.5-.7,1.4-3,7-3.6,9.8-.5,3.2-.5,2.7-.9,5-.5,2.3-1,8.5-1.3,9.6-.5,1.2-.6,1.7-.9,4.9-.1,3.3-.5,3.1-1.1,5.1-1.6,6.9-1.2,21.6-1.1,18.9,0-1.4.5,4,.5,6.9,0,2.8.3,5.5,1.1,7.4.7,1.8,2.7,8.8,3.6,10.6.9,1.5,1.3,1.7,2.1,3.7.8,2.1,2.1,3.5,2.6,5.1.5,1.7.8,1.6,2.3,3.6,1.5,2,1.7,1.8,2.4,3.5.7,1.8,1.8,2.9,2.4,5.1.6,2.3.6,1.3,1.2,3.6.5,2.3.8,2.8.5,3.1-.1.2-.5.2-2.1.2s-1.8.6-2.8.6c-1.2.1-1.9.2-3,.1-1.2-.1-3.4-.1-4.7-.1-1.3.1-5.9,0-5.9,0,0,0-2.4-.4-5.3-.8-2.8-.4-3.6-.6-6.5-.6-2.9,0-6.5-.5-7.5-.5s-3.5-.1-5.9-.1c-2.3.1-4.7.1-6.4.1s-1.8,0-2.3,0c-.6-.1-5.3-6.5-5.8-9.5-.6-2.9-2.3-4.1-2.8-4.7-.3-.7-1.8-3.6-1.8-3.6,0,0-5.9-6.1-7-8.2-1-2.2-1.6-.9-2.8-3.3-1.2-2.5-1.4-2.8-2.5-4.9-1.2-2.3-3.1-4.6-3.2-6.7-.1-2.1-1.1-6.7-1.1-9.2.1-2.4,1.9-6.2,2.1-8.3.3-1.8.4-3.1.4-3.1,0,0,1-2.9,1.1-4.2.3-1.1.6-1.9.6-1.9l3-5s2.4-8.9,2.7-10.3c.3-1.4,1.7-6.3,2.7-8.9,1.1-2.9,1.9-3.9,2-5.5.2-1.7,3.9-12.3,4-14.3.2-1.9,2-8.7,2.5-11,.5-2.4.8-1.3.8-4.1.2-2.9,1.5-7,1.5-10.9.1-3.8.3-2.4,0-5.7-.3-3.2-.6-2.4-.5-4.9,0-2.4-.6-5.2-.2-7.8.2-2.4-.8-8.1-.6-10.9.4-2.8.4-.9.2-5.7-.1-4.9.2-3.8-.5-6.4-.8-2.7-2.2-6.5-2.6-9.1-.4-2.8.2-3-1.3-5.3-1.7-2.4-1.7-6.7-2.5-7.7-.7-1.1-2.3-2.9-3.3-6.5-1.2-3.8-.7-2.2-2.8-5.8-2.2-3.5-.8-1.9-3.5-4.9-2.7-2.8-3.9-4.2-4.6-4.7-.9-.4-.6-.7-2.1-.7-1.6-.2-2.2-1.1-3.3-1.1s-1.1-.3-2.6,0c-1.4,0-.5-.5-3.6-.3-3.1.6-4.4,1.3-4.5,1.6-.3.2-4.3,5.4-4.7,6-.3.6-1.6,1-1.4,4.3.2,3.7-.3,4,.2,6.3.6,2.4.4,1.6,1.5,3.9,1,2.4,2.6,4.1,3.5,6.6.7,2.7.7,2.7,2,4.8,1.2,2,3.4,4.8,4,7.4.6,2.6,1.9,5.9,2.2,7.8.6,1.8,1.4,1.9,1.8,5.2.4,3,1.8,12,1.6,14.5-.2,2.5.3,9.9,0,11.5-.2,1.4-1.6,7.7-2,10-.4,2.4-.3,2.2-1.1,4.5-.9,2-1.3,9.9-1.9,11.5-.7,1.6-1.6,3.6-2.5,5.4-.8,2-1,2.2-1.6,3.9-.5,1.8-5.7,10.7-6,13-.3,2.5-5.6,14.4-6.2,18.2-.5,3.7-3.2,10.9-3.5,11.9-.3,1.7-.7.6-.8,3.9,0,3-1.4,9.3-1,12.8.5,3.8,1.3,11.7,1.8,15.1.7,3.3,2.7,6.2,3.4,8.4.7,2,4.9,11.1,7.4,15.3,1.3,2.2,5.6,7.2,6,9.2.3,2-.8,1.6-1.2,2-.6,0-.7.9-3.9.7-3,0-4.2-.5-6.7,0-2.7,0-3.4.3-5.1,0-1.7,0-2.3-.1-4.6-.5-2.3,0-3-.5-4.4-.2-1.5.3,0,.7-3.9.2-4-.5-19.9-1.5-21.1-1.2-1.2,0,1.4.3-1.9,0-3.3,0-1.1-.3-4.3-.3s-8.4-1.1-10-1c-1.6.3-2.4,0-3.9,0-1.5,0-6.6.9-7.7-1.1-1-2-1.2-5.9-2-7.7-.9-1.9-4.2-9-4.9-11.1-.6-1.7-2.1-6.4-2.6-7.6-.4-.9-.6-3.2-.9-5.9-.3-2.7,0-11.9.3-13.1.5-1.4.9-4.2,1.1-5.4.3-1.1,3.2-8,4.1-10.3.9-2.1,4.8-9.3,5.3-10.9.5-1.3,3.9-13.8,5-16,1-2.2,7.8-15.8,8.3-18.6.5-2.7.9-1.5,1.4-3.9.4-2.4,3.4-17,3.4-17,0,0,.5-3.5.5-5.6s0-.5.1-3.5c0-3.2.5-6.7.4-10.2-.3-3.3-3.1-8.9-3.2-12.9-.2-4.1-2.4-10.9-2.8-13.8-.3-2.6-.7-2-.8-4-.3-1.9-6.4-17.2-7.9-19.6-1.6-2.4-2.7-4.4-3.9-4.7-1.2-.4-5.3-2.5-5.3-2.5-2.3-.3-4.8-2.1-6.3-2-1.6.1-1.9.5-2.8.6-1,.3-2.3,1.4-4.3,1.8-1.9.4-1.8,0-2.9,1.5-1,1.4-3.5,3.2-3.5,3.2-1.3,2.6-3.7,4.9-3.1,7.6.7,3.3.7,5.1,1.5,6.7.9,2.2,4.9,9,6.1,10.4,1.2,1.3,2,4.4,2.9,6.8,1.4,3.7,2.9,13.6,2.9,14.7.4,3.3,1.4,6.2,1.2,10,0,.9-.1,9.3-.5,12-.2,3-1.3,14-2.3,15.5-.5.5-3.8,16.6-4.9,19.8-.6,1.2-4.1,8-6.3,11.3-1.5,2.3-10,18.1-11.1,20.4-1.3,3.2-4.5,18.8-4.5,22.6.3,5,0,13.9.8,16.6.3.8,2.3,5.4,4,9.8.9,2.1,5.4,13.9,4.6,14.9-.2,1.2-4.6,1.7-7.1,1.7-3.1-.3-13.8.3-15.1.8-1.5.4-20.1-.5-23.1-1.1-3.2-.7-3.5-.5-5-.5-1.5-.1-12.3.2-14.5-.7-2-.7-4.5,0-4.5,0-2.5.7-4.5,1.3-5.8.9-1.1-.3-2.9-5.1-3.5-5.7-.8-.9-.6-2.5-1.3-4.1-.2-.3-.7-4.7-.5-7.2.3-2.5-.2-3.6-.2-5s0-2.6-.2-4.1c-.2-1.4-1.1-8.4-1.1-9.1-.3-2.3-.9-4.1-.8-7,0-2.1-.1-6.4-.8-8-.7-1.7-1.4-4.2-2-4.9-.6-.5-2.7-6-4.4-6.6-1.9-.7-4.9-2.6-5.8-2.4-.9,0-5.3.3-7.8.9-1.6.3-6.8,3.6-7.9,4-1.1,0-2,2-2.6,2.7-1.2,1.6-2.9,7.4-3.1,8.2-.7,2.8-1.2,3.4-1.2,5.4s-.3,3.6.2,5.9c.6,2,1.5,19.9,1.8,21,.3,1.3,1.2,4.5,1.6,7.5.2,1.4.5,1.1,1.3,5.4.5,2.6.4,4.8.9,5.5,1.2,1.5,1.4,3.7,1.3,5.4,0,1.8-.3,1.8.1,4.3.4,2.4,0,2.7.3,4.7.5,2.8,0,0,.6,3.6.8,3.6,3.1,13.3,3.1,13.3,0,0,1.7,3.7,2.3,4.7.5,1.1.6,2.8.6,4.2.6,2.9,2.3,9.3,2.3,9.6s1.7,2.3,2.6,5.3c1.6,5.1,4.4,10.1,5.3,11.3,1.2,1.7,3,10.1,3.5,11.2.6,1.4,4,9.7,5,11.5,1,2.2,5.6,9.5,6.1,11.4.5,1.7,2.2,5.1,2.6,5.9.5.9,3,5.8,4.5,7.8.6.8,5.3,5.4,5.5,5.9.3.3,11.6,11,12.6,12.4.8,1.6,10.9,9.1,13.9,11.7.7.6,9,8.2,10.5,8.6,1.6.5,2.6,1.2,3.6,2.1,1.1.8,3.6,1.3,4,1.6,1.3.7,12.8,7,13.5,7.2.7.3,4.6,4.5,5.9,4.5,1.3.1,3,1.3,3.8,1.8,1.6.9,1.1,4.5,1.1,4.5,0,0,1.2,8.5,2.4,10.7.6.8,1,4.1,1.4,4.7.9,1.3,4.1,15.1,5.1,16.7.8,1.7,0,1.5,1.2,3.5,1.1,1.9,0,1.2,1.7,3.6,1.6,2.5,7.6,13.6,8.6,15.6,1.1,2.1,4.1,15.2,4.1,15.2,0,1.2.4,1.9.4,3.7,0,1.8,0,4.3.4,5.8.4,2,.4,3.4.4,4.8s-.2,4.2-.4,5.3c0,1.1-1.1,9.8-1.5,12.7-.3,3-.8,7.2-1,8,0,.8-1.3,6-1.3,6,0,0,0,.6-.7,2.5-.6,1.9,0,2.8-.9,5.3-.8,2.3-2.5,9.1-3.1,9.8-.5.9-1.2,4.1-1.2,4.1,0,0-2.3,5.3-2.5,6.2-.2.7-2.1,5.2-2.6,7.9-.4,2.5-1,4.1-1.1,4.5,0,1,0,5.4.6,6.4.7,1.2.9,5.3,1,5.7,0,.2,2.6,3.9,3,4.8.5.8,2.5,1,2.9,1.3.4.4,2.5.6,3.3.6s.8-.2,3.2-.2c2.5,0,7.7-1.9,8.2-2.2,1.5-1.1,6.4-4.3,7.6-6.2,1.2-1.9,3.3-6.2,3.9-9,.6-2.6,2.9-9.4,2.9-9.4,0,0,.6-.8,1-3.4.3-2.2.5-4.3.7-5.4.2-1.3,1.3-6.7,2-8.4.3-.5.3-1,.3-2,.1-1.1.1-4.1,1.2-6.4.2-.8.7-5.5,1.1-6.6.5-1.4,4.1-20,3.4-28.3-.3-2.8-.2-7.4-.2-8.5,0-.9-.6-10.9-.5-11.5,0-.6-1.1-4.4-1.2-5.1-.3-6.3-6.1-18.6-6.2-19.6,0-1.2-1.8-6.5-2.7-7.7-.4-.8-1.6-3.7-3.3-6.6-1.6-3.1-.7-2.3-1.4-4.8-.9-2.4-.8-3.1-1.6-4.7-.9-1.4-3.2-8.4-3.2-9.6s0,.3,0-.9l.3-3.3s3,.7,4.1,1c1.1.3,3.8,1.5,5,2,1.5.7,8.9,2.3,11,2.9,2.3,1.3,8.7,2.7,10.3,2.9,2.6.1,4.5.4,5.7,1,.8.2,12.9.3,15,.5,2.1,0,6.5,1.4,7,1.4s6.8.6,6.8.6c0,0,.7,1.7.9,3.2.2,1.3.9,3.5,1.2,5.8.1,1.5,3,9.5,3,9.5,0,0,1.3,2.9,1.8,3.8.4.7,1,4,2.1,5.8,1.1,1.8,1.3,1.6,2.2,3.9.6,2.1,2.5,7.5,2.8,9.1.3,1.7,1,2.5,1.5,4.5.4,1.9,3.4,8,3.8,13.4.2,2.3.3,4.3.9,6.4.6,2.1.2,2.2.6,4.2.5,2,.5.4.5,3.7,0,3.2-.3,5-.5,7.3,0,2.3-.2,2.7-.2,5.1s.5,1-.2,3.6c-.7,2.8-.5,2.2-.7,4.6-.1,2.4-.6,5.8-.8,8.2-.3,2.4.4,2.7-.4,4.9-1,2.3,0,1.5-1,4.1-.9,2.6-3.4,9.1-3.6,11.6-.3,2.2-1.3,3.3-1.5,4.2-.2.5-3.4,11.5-3.9,13.8-.5,2.3-.1,1.8-1,3.6-.8,2.1-.5,3.1-.7,4.9-.2,1.9-.2,2.1-.2,4.5.2,2.3.2,2.1.5,3.4.4,1.6,3.7,4.7,4.1,5.6.4.9,1.4,1.8,2.8,1.9,1.5.3,2.9.6,4,.4,1.2,0,1.4.5,3.3.4,2-.3,1.1,0,2.8-.6,1.6-.6,5.4-2.6,6.1-3.3.6-.7.4-.6,1.3-2,.8-1.4,2.4-3.8,2.8-6.2.4-2.3,1.3-4.7,2.2-6.6q.7-1.8,1.3-3.5c.9-1.7,5.4-9.5,5.8-11.3.3-2,.4-2.2.9-4.1.4-2.2,2.8-10.8,3.1-12.7.6-1.7.2-2.4.6-3.4.4-1.2.9-.9,1.1-2.2.2-1.5.3-2.3.7-3.6.5-1.2.7-1.1.8-3.1.2-1.8.1-3.7.4-6.2.2-2.3.3-2.3.4-4.6,0-2.3,0-3.2-.2-4.2-.3-1,0-3.3-.3-5.4-.2-2.2.7-5.7.7-7.2,0-1.2-.3-1.2-.3-3.6s-.2-1.8-.2-4c0-2,0-5.2-.3-7.7-.4-2.6.2-2.3-.5-3.4-.5-1.3-.3-1.3-.6-3.3-.5-2-.6-2-.7-2.9-.3-.7-.3-4-.7-5.8-.4-1.6-.2-1.6-.6-2.8-.3-1.2-2.2-9.1-2.6-10.6-.3-1.4-4.5-11.5-4.6-12.2,0-.6-2.1-7-2.6-8-.7-1.2-5.4-11.7-5-12,.4-.4,1.4-.6,2.8-.4,1.6.1,1.4.1,3.1.3,1.6.1,3-.2,5.1-.6,2.1-.3,5.7-1.8,7-1.8,1.3.2,11.7-.7,14-1,2-.4,5.6.6,8.5.6s6.1-1,7.7-1.3c1.4-.3,5.2-.7,6.2-1.2.9-.4,2.2-1.1,3.8-.2,1.7.9,2.5,3.2,3.5,5.1.8,2,2.1,3.8,2.9,6.3,1,2.6.3,1.6,1.8,4,1.5,2.6,2.1,3.7,2.9,5.5.9,1.7,1.2,1.9,1.4,3.7.3,1.8,4.2,19.8,4.6,22.5.4,2.9.8,4.1,1,5.7.3,1.9,0,4.8,0,5.8,0,1.2.1,1.6-.3,2.7-.2,1-.6,4.6-1,6.7-.1,2.3,0,7.8-.1,10,0,2.2-.2,2-.8,4.9-.5,2.8-.5,3.6-.5,5.2,0,1.8.9,4.7.2,7.5-.6,2.9-.5,7-.8,9.7-.3,2.6-.9,9.5-1.7,11.7-.9,2-.9,2.9-1.1,4.4-.4,1.6-.1.9-.8,3.6-.6,2.7-1.1,7-1.4,8.8-.4,1.7-.2,2.4-.9,4.8-.5,2.4-1.3,4.5-1.5,6.6-.4,2.2-.6,5,.3,7.8.9,2.9,1.1,2.9,1.7,4.1.7,1,1,4.3,3.1,4.8,2.1.4,2.5,1.4,4.1,1.6,1.5.2,0,0,2.2.7,2.3.5,5.5-.7,6.6-1.3,1.3-.7,2.2-.9,3-2.1,1.2-1.8,3.5-3.5,4.6-5.8.8-1.6,1.3-2.3,1.7-2.8,1.1-1.7,1.7-5.3,2.4-7.5.5-1.5.5-1.3.5-2.9,0-2.6-.2-2.3.5-3.7.7-1.3,1.5-2.6,1.9-5.2.3-2.4-.3-2,.5-4.8.7-3,1.1-2,1.1-5.4-.1-3.3-.5-2.2.3-5,.7-2.8,1.7-6.7,1.9-10.9,0-4.3-.1-7.7-.1-12,.1-4.5.3-5.5.3-7.6.2-2.1.7-8.4.9-10.4.3-2.2.3-.4.4-4.9.2-4.4.9-4.8.5-8.6-.2-4,.2-7,0-10.3-.2-3.4,0-4.9-.5-7.1-.3-1.6-.3-.8-.5-3-.3-3.6-1-4.7-1.1-5.7,0-.9-1.5-8-1.5-8.9s-.7-1.6-1-3c-.9-3.5-.4-1.2-1.6-4.4-1.4-3.3-2.1-8.4-3.4-11.4-1.2-2.9.1-2.1-1.5-4.6-1.6-2.3-.8-2.7-.8-4.2s1-2.6,1-3.4,1-1.1,1.6-1.9c.6-.9,3.1-1.5,5.6-1.5s2.1-1.1,3.7-1.8c1.6-1,7.6-3.3,9.1-3.9,1.6-.4,4.1-.3,5.6-1.3,1.5-1,11.1-6.4,12.9-7.1,1.7-.5,21.4-12.6,22.6-13.6,1.3-1.1,5.9-2.4,7.3-4.3,1.5-1.9,1.2-1.4,2.6-2.4,1.6-1.2,1.5-.3,3.5-2.9,1.9-2.3,1.9-1.6,3.1-3.2.4-.5,1.5-1.4,1.5-1.4,0,0,1.1-1.5,1.9-2.1,1.1-.7,1.4-1.3,2.9-2.6,1.2-1.2,1.9-1.9,2.5-2.7,1.4-2,5.7-5,6.9-6.3,1.4-1.4,8.6-10.3,9.4-11.6.9-1.4,7.2-6.3,8.7-11.5.5-1.9,2.5-3.3,3.7-5.3.9-2,1.4-5.6,2.4-7,.8-1.5,2.6-5.8,2.8-7,0-1.4.5-2.5,1.1-4.5.7-2.1,1.2-1.6,1.4-2.7.2-1.1,1.6-4.3,2.1-6.3.6-2.6,4.3-13.7,4.3-15.6,0-3,.7-8.7,1-10.7.5-1.8,3-9.9,3.8-12.5.9-2.4,1.2-2.2,1.6-3.6.3-1.4,1.2-1.2,1.6-3,.3-2.2,1.3-1.5,1.3-4.4,0-2.7.1-6.6.3-9.3.2-3-1-6.8-1.6-8.9-.7-2.3-1.9-2.3-1.8-5v-4.5c0-1.9.7-5.8.7-7.9.1-2,.2-1.8.5-3.1.1-1.3.3-.9.1-1.9Z"/>
  <path class="st0" d="M239.2,761.6l-27.3,28.1c-3.6,3.7-6.2,5.7-8,6-1.6.3-3.9-1-6.8-3.7-6.6-6.4-9.3-13.3-8.1-20.6,1-6.2,4.9-12.8,11.5-19.7,6.7-6.9,13.4-11,19.9-12.4,1.6-.3,3.2-.5,4.7-.5,5.9,0,11.5,2.5,16.6,7.4,2.7,2.7,3.9,5,3.6,6.8-.4,2-2.4,4.9-6,8.6ZM218.7,731.5c-9.8-.4-18.9,3.7-27,12.1-4,4.1-7,8.7-8.7,13.7-1.8,4.9-2.2,10.1-1.3,15.4,1,5.2,2.8,9.9,5.5,13.9,1.7,2.6,4.5,5.7,8.3,9.4l19.4,18.9,2.8-2.9-.3-.3c-2.6-2.6-3.8-4.8-3.4-6.6.4-1.9,2.4-4.9,6.2-8.7l26.6-27.3c3.7-3.9,6.6-6.1,8.5-6.4,1.8-.4,4.1.7,6.7,3.2l.3.3,2.8-2.9-19.4-18.9c-8.5-8.2-17.5-12.6-27-12.9Z"/>
  <path class="st0" d="M164.9,706.9c-6.9,4.2-13.7,6.8-20.2,7.5-8.4.9-14.5-1.6-18.2-7.6-3.6-5.9-3.1-12.6,1.7-19.6,3.6-5.4,9-10.2,15.9-14.5,7.1-4.3,14-7,20.5-7.8,1.3-.2,2.5-.3,3.7-.3,6.6,0,11.5,2.6,14.8,7.9,3.6,5.9,2.9,12.6-2.2,19.8-3.8,5.5-9.2,10.4-16,14.5ZM189,696.5c3.4-9.1,2.6-17.8-2.5-26.1-5.1-8.3-12.5-13.2-21.9-14.4-8.8-1.2-17.6.9-26,6-8.5,5.2-14.4,12.1-17.7,20.5-3.6,9.2-2.8,18.1,2.3,26.4,5.1,8.3,12.6,13.1,22.3,14.3,1.5.2,3,.3,4.5.3,7.4,0,14.7-2.2,21.7-6.5,8.5-5.1,14.3-12,17.5-20.4Z"/>
  <path class="st0" d="M150.7,617.4c1.8.5,3.2,2.6,4.3,6.1v.4c.1,0,4-1.2,4-1.2l-6.9-22.5-3.9,1.1v.4c1.2,3.5,1.2,6.1,0,7.5-1.2,1.5-4.5,3-9.7,4.6l-39.5,12.1,43.5-56.5v-.2c.1,0-1-3.8-1-3.8l-52.7,16.1c-5.1,1.6-8.7,2.1-10.5,1.5-1.8-.6-3.3-2.5-4.3-6v-.4c-.1,0-4,1.2-4,1.2l6.9,22.4,3.9-1.2v-.4c-1.2-3.5-1.2-6,0-7.4,1.2-1.4,4.5-3,9.7-4.6l33.6-10.3-38.9,50.4v.2c-.1,0,5,16.8,5,16.8l3.9-1.2v-.4c-1.2-3.5-1.1-6,0-7.5,1.3-1.5,4.5-3.1,9.6-4.6l36.5-11.1c5.1-1.6,8.7-2.1,10.6-1.6Z"/>
  <path class="st0" d="M98.8,537.4c.8,0,1.7,0,2.5,0,10.1-.5,18.3-3.7,24.5-9.5,6.6-6.2,9.8-14.4,9.3-24.3-.1-2.5-1.2-6.8-3.2-13.4-.9-2.7-1.3-5.1-1.4-7.2,0-.5,0-1.1.2-1.9.2-.9.3-1.5.4-2.1v-.6c.1,0-14.7.7-14.7.7-4.4.2-7.3,0-8.8-.6-2.2-.9-3.4-3.2-3.6-6.7v-.4s-4.1.2-4.1.2l1.4,28.1v.4s4.1-.2,4.1-.2v-.4c-.2-4.1.2-7,1.1-8.4,1-1.4,3.4-2.2,7.2-2.4,5.4-.2,9.5.5,12.2,2.2,3.1,2.1,4.8,5.6,5.1,10.7.3,6.9-2.9,12.7-9.5,17.2-5.8,3.8-12.4,6-19.8,6.4-8.6.4-16.4-.7-23.1-3.4-8.6-3.4-13.1-8.9-13.5-16.3-.2-4.5,1.2-8.8,4.3-13.1,2.5-3.3,5.9-6.5,10.2-9.5l.3-.3-1.8-3.4-18.8,7.8.3.4c1.1,2,1.8,3.3,2.1,4.1.3.8.4,1.8.5,2.9,0,.2-.1,1.3-.9,7.5-.2,1.8-.3,3.7-.2,5.7.4,9.5,5.1,17.1,13.7,22.7,7.1,4.6,15.2,6.9,24,6.9Z"/>
  <path class="st0" d="M67.1,437.7c.7-3.6,1.9-5.7,3.7-6.4,1.8-.7,5.4-.6,10.7.5l37.4,7.4c5.3,1.1,8.7,2.3,10.1,3.6,1.3,1.3,1.6,3.7.9,7.4v.4c0,0,3.9.8,3.9.8l5.6-28-4-.8v.4c-.8,3.6-2,5.7-3.7,6.4-1.8.7-5.4.5-10.7-.5l-17-3.4,5.8-28.8,17,3.4c5.3,1,8.7,2.2,10,3.6,1.3,1.3,1.6,3.7.9,7.2v.4c0,0,3.9.8,3.9.8l5.6-28.1-4-.8v.4c-.8,3.7-2,6-3.7,6.6-1.7.7-5.3.6-10.7-.5l-37.4-7.4c-5.2-1-8.6-2.3-10-3.6-1.3-1.3-1.7-3.9-1-7.5v-.4c0,0-3.9-.8-3.9-.8l-5.6,28.1,4,.8v-.4c.8-3.6,2-5.7,3.7-6.4,1.8-.7,5.4-.5,10.7.5l15.1,3-5.8,28.8-15.1-3c-5.2-1-8.6-2.3-10-3.6-1.4-1.3-1.7-3.8-1-7.3v-.4c0,0-3.9-.8-3.9-.8l-5.6,28,4,.8v-.4Z"/>
  <path class="st0" d="M92.2,335.8c1.5-3.2,3.2-4.9,5-5,1.9-.2,5.3.9,10.2,3.2l29.7,14.2c3.9,1.8,7.6,2.8,11.1,2.8s5.2-.5,7.6-1.5c5.4-2.3,9.8-7,13.1-13.8,3.8-7.8,4.6-14.7,2.5-20.3-2.1-5.6-7.1-10.3-15.1-14.1l-27.1-13c-4.8-2.3-7.8-4.3-8.8-6-1-1.6-.7-4.1.9-7.3l.2-.4-3.7-1.8-10,20.9,3.7,1.7.2-.4c1.5-3.2,3.2-4.9,5.1-5.1,1.9-.2,5.3.8,10.1,3.1l23.9,11.4c7.1,3.4,12,6.8,14.4,10.1,3.3,4.5,3.5,10,.5,16.4-2.9,6.1-7.2,9.5-12.7,9.8-4.1.3-9.7-1.3-16.5-4.5l-24.6-11.8c-4.8-2.3-7.8-4.3-8.8-6-1-1.6-.7-4.2,1-7.6l.2-.4-3.7-1.7-12.1,25.2-.2.4,3.7,1.7.2-.4Z"/>
  <path class="st0" d="M162.6,228l30.5,11.4-13,16-17.5-27.5ZM188.3,280.8c1.1,3.6.5,6.7-1.7,9.5l-.3.3,3.2,2.5,15.9-19.7.3-.4-3.2-2.6-.3.3c-1.6,2-3.1,3.4-4.5,4-1.8.9-3.5.7-5.1-.5-.7-.6-1.7-1.8-3-3.6-1.6-2.5-3.1-5-4.7-7.6l-1.9-3,15.2-18.8,11.5,4.3c1.1.4,2.2.8,3.3,1.3,1.1.5,2,.9,2.5,1.3,1.5,1.2,1.8,2.7.8,4.6l-3.6,5.2,3.1,2.6,18.2-22.6.3-.3-3.1-2.5-.3.3c-.9.9-1.8,1.6-2.8,2.2-1,.5-2,.8-3,.9-2,.1-5.3-.6-9.8-2.2-1.9-.7-3.7-1.3-5.5-2l-52.3-19.5h-.4c0-.1-4.1,9.1-4.1,9.1l30.3,47.3c2.7,4.1,4.3,7.4,5,9.6Z"/>
  <path class="st0" d="M774.3,274.7c.5,0,1,0,1.4,0,5.6,0,11.5-2.6,17.7-7.7l23.2-19.1c4.1-3.4,7.2-5.2,9.1-5.4,1.9-.2,4,1.1,6.3,3.9l.3.3,3.1-2.6-14.4-17.5-.3-.3-3.1,2.6.2.3c2.2,2.7,3.1,5,2.5,6.7-.6,1.8-3,4.5-7.2,7.9l-20.5,16.9c-6.1,5-11.2,8-15.2,8.8-5.5,1.1-10.5-1.1-15-6.5-4.3-5.3-5.5-10.5-3.6-15.6,1.5-3.9,5.2-8.2,11-13l21.1-17.4c4.1-3.4,7.2-5.2,9.2-5.4,1.8-.3,4,1.2,6.5,4.1l.3.3,3.2-2.6-17.8-21.6-.3-.3-3.1,2.6.3.3c2.2,2.7,3.1,4.9,2.5,6.6-.6,1.7-3.1,4.4-7.2,7.8l-25.4,20.9c-5.8,4.7-8.8,10.3-9,16.4-.2,5.9,2.2,11.8,7,17.7,5.6,6.7,11.4,10.4,17.3,10.9Z"/>
  <path class="st0" d="M836.4,277.9l-33.9,17.5c-4.8,2.5-8.2,3.6-10.1,3.4-1.8-.2-3.6-1.9-5.3-5.3l-.2-.4-3.6,1.9,10.8,20.9,3.7-1.7-.2-.4c-1.7-3.3-2.1-5.8-1.3-7.4.9-1.7,3.8-3.8,8.7-6.2l36.8-19-32.7,63.4v.2c-.1,0,1.7,3.5,1.7,3.5l48.9-25.3c4.7-2.4,8.1-3.6,10.1-3.4,1.9.2,3.7,1.9,5.3,5.1l.2.4,3.6-1.9-10.8-20.8-3.6,1.9.2.4c1.7,3.3,2.1,5.8,1.2,7.4-1,1.6-3.9,3.7-8.7,6.2l-31.2,16.1,29.3-56.6v-.2c.1,0-7.9-15.6-7.9-15.6l-3.6,1.9.2.4c1.7,3.2,2,5.7,1.1,7.4-1,1.7-3.9,3.8-8.6,6.3Z"/>
  <path class="st0" d="M881.2,351.3c-1.2,1.5-4.4,3.2-9.5,4.8l-36.2,11.8c-5.2,1.7-8.7,2.3-10.5,1.8-1.8-.5-3.3-2.5-4.4-6.1v-.4c0,0-4,1.3-4,1.3l8.8,27v.4c.1,0,4-1.3,4-1.3v-.4c-1.3-3.5-1.3-6.1,0-7.6,1.2-1.5,4.4-3.2,9.5-4.8l36.3-11.8c5.1-1.6,8.6-2.2,10.5-1.7,1.8.5,3.3,2.6,4.5,6.1v.4c.1,0,4-1.3,4-1.3l-8.8-27v-.4c-.1,0-4,1.3-4,1.3v.4c1.2,3.5,1.2,6,0,7.5Z"/>
  <path class="st0" d="M895.1,388.3c0,1.1-.2,2.2-.6,3.3-.4,1-1.3,2-2.8,2.9-1,.7-2.6,1.6-4.9,2.8l-53.7,29.3h-.3c0,.1.7,3.9.7,3.9l54.4,9.7c3.3.5,6,1,8,1.5,3.4.9,5.7,1.8,6.9,2.8,1.1,1,1.9,2,2.2,2.8.3.9.7,2.2,1,3.9v.4c0,0,4.1-.7,4.1-.7l-4.2-24.7-4,.6v.4c0,1.4.1,2.8.2,4.1,0,2.5-1,3.9-3.1,4.3-1.3.2-3.4.1-6.3-.2-2.1-.2-4.3-.6-6.4-1l-35.3-6.1,35.9-19.3c1.9-1,3.2-1.7,3.9-2.1,1.7-.9,3-1.4,4-1.5,1.3-.2,2.3,0,2.9.9.7.9,1.3,2.9,1.8,6.1v.4c0,0,4.1-.7,4.1-.7l-5.1-30.1-4,.7.3,1.5c.3,1.6.4,3,.4,4.1Z"/>
  <path class="st0" d="M906.5,466.2v.4c0,3.7-.9,6-2.5,7-1.6,1-5.2,1.4-10.6,1.4l-38.1-.8c-5.4,0-8.9-.7-10.5-1.8-1.5-1.1-2.3-3.4-2.2-7.1v-.4h-4c0-.1-1.1,52.4-1.1,52.4v.3s18.6,7.7,18.6,7.7h.4c0,.1,1.3-2.8,1.3-2.8l-.3-.2c-5.4-4.5-8.9-7.6-10.4-9.3-3.6-4.1-5.3-10.5-5.1-19.1,0-4.2.7-6.9,1.8-7.9,1.1-1,3.8-1.5,7.8-1.4l22,.5v3.5c-.2,5.1-.8,8.7-1.9,10.7-1.7,3.2-5.3,4.7-10.6,4.6h-.4v3.6c0,0,28.2.6,28.2.6h.5v-3.6c0,0-.4,0-.4,0-4.7,0-7.9-1.6-9.5-4.5-1.3-2.3-2-6.2-1.9-11.3v-3.5c0,0,17.8.3,17.8.3,4.8.1,7.8.7,8.9,1.7.8.7,1.7,2.8,1.5,8.6-.1,6.5-1.3,11.6-3.4,14.9-1.7,2.6-5.7,6.1-11.8,10.5l-.3.3,1.8,3.1,17.4-6.7,1-51.1v-.4h-4.1Z"/>
  <path class="st0" d="M897.3,572.1c-.9,4.5-2.9,8.1-5.9,10.7-3.3,2.8-7.1,3.8-11.4,2.9-4.9-1-8.3-3.9-10-8.6-1.5-4.1-1.7-8.8-.6-14.2l1-4.5,18.6,3.9c3.9.9,6.4,1.7,7.4,2.7,1.3,1.3,1.6,3.7.9,7.2ZM902.8,545.7c-.9,4-2.6,6.4-5.1,6.9-1.3.3-4.5-.1-9.5-1.1l-37.1-7.7c-5.3-1.1-8.6-2.4-10-3.7-1.3-1.3-1.6-3.8-.9-7.4v-.4c0,0-3.9-.9-3.9-.9l-5.8,28,4,.9v-.4c.8-3.6,2.1-5.7,3.7-6.4,1.8-.7,5.4-.5,10.7.6l17.4,3.6-1.3,6.1-37.8,12.4h-.3c0,.1-3.4,16.6-3.4,16.6l4,.9v-.5c.9-3.9,2.6-6.5,5.1-7.7.5-.3,2.6-1,6.1-2.2l24.9-7.8c-.3,4.7.8,9.2,3,13.1,2.6,4.5,6.3,7.2,11,8.2,1.3.3,2.5.4,3.7.4,4.8,0,8.9-2,12.4-6.2,3.3-3.9,5.7-9.4,7.1-16.3l5.9-28.4-4-.8v.4Z"/>
  <path class="st0" d="M870.8,614.8c-6.9-2.7-13.4-1.4-19.4,3.8-4.4,4.9-9,9.9-13.6,15.1-5.2,5.1-10.7,6.6-16.2,4.4-3.5-1.4-5.9-3.8-7-7.2-1.2-3.4-1-6.9.4-10.5,1.6-4.1,5.1-7.7,10.2-10.7,3.8-2.2,8.7-4.2,14.5-5.8h.3c0,0-.2-4-.2-4l-21.4-.4.3.6c.4,1,.7,2.1.8,3.2.1,1.2,0,2.2-.3,3,0,.2-.8,1.4-5,7.3-1.5,2.1-2.6,4-3.3,5.8-2.3,5.8-2.4,11.5-.3,16.8,2.1,5.4,6.1,9.3,11.8,11.6,4.6,1.8,8.9,2.1,12.8,1,3.2-1,6.4-3.1,9.6-6.3,1.6-1.6,4.4-4.8,8.2-9.5,3-3.8,5.7-6.5,8-8,3.4-2.3,6.9-2.7,10.2-1.4,3.3,1.3,5.7,3.6,7,6.6,1.3,3,1.3,6.3,0,9.6-1.6,4-4.7,7.2-9.4,9.8-3.6,1.9-8,3.4-13.4,4.3h-.4c0,0,.3,4,.3,4l19.4.3-.4-.7c-.4-.7-.6-1.5-.5-2.3,0-.9.2-1.7.5-2.4.4-1.1.9-1.8,1.3-2.3l1.7-2c1.4-1.6,2.3-2.7,2.8-3.4.5-.7,1.1-1.9,1.6-3.3,2.3-5.8,2.5-11.2.5-16.2-2-5-5.9-8.6-11.6-10.9Z"/>
  <path class="st0" d="M859.2,680.1c-1.8,3.2-3.6,4.9-5.5,5h-.3c-2,0-5.3-1.2-9.6-3.7l-33.3-18.6c-4.7-2.7-7.6-4.9-8.4-6.5-.9-1.6-.4-4.1,1.4-7.4l.2-.4-3.6-2-14.1,25.1,3.6,2,.2-.4c1.8-3.3,3.7-4.9,5.6-5.1,2-.2,5.3,1.1,9.9,3.7l33.3,18.6c4.7,2.6,7.5,4.8,8.4,6.5.9,1.7.4,4.2-1.4,7.4l-.2.3,3.6,2,14.1-25.2-3.6-2-.2.4Z"/>
  <path class="st0" d="M826,707.3l.2.4c2.1,4.5,3.3,9.1,3.3,13.6,0,5.1-1.4,9.5-4.2,13.1-1.3,1.6-2.6,2.3-4,2.2-1.1-.1-2.4-.8-4-2.1l-35.5-27.2c-4.4-3.3-6.8-5.9-7.4-7.8-.5-1.8.5-4.4,3-7.8l.3-.3-3.3-2.5-18.4,23.9-.3.4,3.2,2.4.2-.4c2.6-3.2,4.8-4.9,6.7-4.9h.1c2,0,5.1,1.8,9.4,5.1l35.4,27.1c1.7,1.3,2.7,2.4,3.1,3.4.5,1.3.2,2.8-1.1,4.5-2.8,3.6-6.7,6.1-11.6,7.5-4.5,1.2-9.2,1.3-14.1.4h-.4c0,0-.8,3.3-.8,3.3l18.8,5.7h.3c0,0,34.3-44.7,34.3-44.7l.2-.2-10.4-17.1-3.2,1.8Z"/>
  <path class="st0" d="M792.1,776.1c-2.3,2.1-5.4,2.9-9,2.4-1.6-.2-4.8-1.1-9.5-2.7l-30.1-10-7.2-8c-3.7-4-5.7-7-5.9-8.9-.3-1.8,1-4,3.9-6.6l.3-.3-2.7-3-21.6,19.5,2.8,3,.3-.3c2.8-2.6,5.1-3.6,6.9-3.2,1.9.4,4.6,2.7,8.3,6.8l9.4,10.3,6.8,28.1c1.1,4.6,1.7,7.8,1.6,9.4,0,3.3-1.4,6-3.9,8.3l-.3.3,2.7,3,18.5-16.8-2.7-3-.3.3c-.6.5-1.7,1.3-3.2,2.5-2,1.4-3.7,1.4-5.1,0-.6-.7-1.2-2-1.8-3.8-.6-1.9-1-3.5-1.2-4.8l-5.5-21.9,25.3,8c.5.1,1.6.6,3.2,1.2,2,.7,2.7,1.3,3,1.6,1,1.1.9,2.4-.3,4.1-.3.4-1.1,1.2-3.6,3.5l-.3.3,2.7,3,21.4-19.3.3-.3-2.7-3-.3.3Z"/>
  <path class="st0" d="M357.4,830.7c-2.3,1.4-5.1,2.2-8.2,2.3h-.1c-2.8,0-5.6-.5-8.3-1.6h-.3c0-.1-1.1,2.9-1.1,2.9h.3c3,1.3,5.1,2.3,6.4,3,1.2.8,1.9,1.6,2,2.5.1.9,0,2-.3,3.2-.3,1.2-.8,2.7-1.4,4.4l-8.2,21.5c-.9,2.4-1.8,4.4-2.6,5.8-.8,1.3-1.8,2.2-3.1,2.6-.8.4-1.8.4-3,.1-1.2-.3-2.6-.7-4-1.2l-1.3-.5-1.1,3,26.6,10.2,1.2-3h-.3c-1.8-.8-3.2-1.5-4.1-2-1.5-.9-2.5-2.1-2.9-3.3-.5-1.2-.4-2.9.2-5l16.6-43.7v-.3c.1,0-2.6-1.1-2.6-1.1h-.1Z"/>
  <path class="st0" d="M442.5,874.9c-1.9,2.3-3.6,3.9-5.1,5-2.3,1.7-4.5,2.4-6.5,2.1-3.1-.5-5.2-2.2-6.4-5.3-.9-2.4-1.1-5.5-.6-9,.5-4.1,1.6-7.4,3.2-10,1.8-3,4.2-4.5,7-4.5s.8,0,1.2,0c4.1.6,6.5,3.4,7.4,8.6.5,3.1.4,7.4-.4,12.8ZM435.6,850.3c-4.9-.6-9.4.9-13.3,4.7-3.7,3.5-5.9,7.9-6.6,12.8-.6,4.3.2,8.3,2.3,11.9,2.1,3.7,5.3,5.8,9.5,6.4,2.9.4,5.6,0,8.2-1.3,1.8-.9,3.8-2.3,6-4.3v.7c-.8,5.1-2.5,10.1-5.2,15.1-3.2,5.9-6.7,8.7-10.2,8.2-1.5-.2-2.5-.9-3-2.2-.4-.9-.6-2.1-.7-3.5,0-1.6-.3-2.8-.8-3.5-.5-.8-1.3-1.2-2.5-1.4-1.4-.2-2.6,0-3.6.8-1,.7-1.5,1.7-1.7,3.1-.3,2.5.8,4.7,3.4,6.8,2.1,1.6,4.5,2.6,7.1,3,.7.1,1.4.1,2,.1,2.8,0,5.7-.8,8.4-2.4,3-1.7,5.6-4.3,7.8-7.4,1.8-2.7,3.4-5.8,4.7-9.2,1.3-3.5,2.2-6.9,2.6-10.2.9-6.7.4-12.6-1.5-17.5-2.4-6.2-6.8-9.8-13-10.7Z"/>
  <path class="st0" d="M522.3,872.7c-2.1.2-4.1.7-5.8,1.5-1.6.7-3.1,1.7-4.6,2.9l-.3-17.2,21.2-1.9h.3l.8-6.3-26.4,2.3h-.3s.7,28,.7,28v.2l3.2,1.1v-.3c1.1-1.8,2.3-3.2,3.8-4.3,1.5-1,3.2-1.7,5.1-1.8,3.6-.3,6.5.9,8.6,3.7,1.9,2.4,3,5.6,3.4,9.3.4,4.1-.2,7.8-1.7,11-1.8,3.7-4.6,5.8-8.4,6.1-1.6.1-3.1-.2-4.3-.9-1.2-.7-1.8-1.8-2-3.4,0-.5,0-1.3,0-2.3.1-1.1.1-1.8,0-2.2-.1-1.3-.6-2.3-1.5-3.2-.9-.8-2-1.2-3.3-1.1-1.5.1-2.6.8-3.3,2.1-.7,1.2-.9,2.5-.8,4.1.3,3.3,2.4,6,6.1,7.9,2.7,1.4,5.6,2.2,8.5,2.2s1.1,0,1.6,0c5.2-.5,9.6-2.8,12.8-7,3.3-4.2,4.7-8.9,4.3-14.2-.4-4.7-2.3-8.8-5.5-12-3.4-3.4-7.5-4.8-12.2-4.4Z"/>
  <path class="st0" d="M631.9,882.1h-.3c-1.8.7-3.3,1.1-4.4,1.2-1.8.2-3.2,0-4.3-.7-1.1-.7-2.1-2-2.9-4l-14.6-44.5v-.3c-.1,0-2.9.9-2.9.9v.2c-1,2.6-2.6,4.9-5,6.9-2.2,1.8-4.7,3.2-7.5,4.1h-.3c0,0,1,3.2,1,3.2h.3c3-1.1,5.3-1.7,6.8-1.8,1.4-.2,2.5,0,3.1.7.7.6,1.3,1.5,1.8,2.7.5,1.2,1.1,2.7,1.6,4.3l7.2,21.9c.8,2.5,1.3,4.6,1.6,6.2.2,1.5,0,2.9-.7,4-.4.7-1.2,1.4-2.3,1.9-1.1.6-2.5,1.1-3.9,1.6l-1.3.4,1,3.1,26.8-8.8h.3c0-.1-1-3.2-1-3.2Z"/>
  <path class="st0" d="M485.6,799.8c-172.9,0-313-140.1-313-313S312.7,173.7,485.6,173.7s313.1,140.2,313.1,313.1-140.1,313-313.1,313ZM485.6,165.7c-177.3,0-321,143.8-321,321.1s143.7,321,321,321,321.1-143.7,321.1-321-143.8-321.1-321.1-321.1Z"/>
</svg>
