<svg width="88" height="88" viewBox="0 0 88 88" fill="none" xmlns="http://www.w3.org/2000/svg">
<path fill-rule="evenodd" clip-rule="evenodd" d="M61.3402 76.1119C61.9382 76.1184 62.4249 75.6416 62.4249 75.0435C62.4347 74.4503 61.9612 73.9801 61.3631 73.9801C60.7601 73.962 60.3046 74.4225 60.2865 75.0173C60.2849 75.6088 60.7257 76.1053 61.3402 76.1119Z" fill="#9D1E23"/>
<path fill-rule="evenodd" clip-rule="evenodd" d="M25.8909 75.6412C26.489 75.6543 26.9822 75.1742 26.9839 74.5695C27.0019 73.9829 26.512 73.5094 25.9237 73.4995C25.3207 73.4962 24.857 73.9616 24.8504 74.5368C24.8439 75.1479 25.2928 75.6412 25.8909 75.6412Z" fill="#9D1E23"/>
<path fill-rule="evenodd" clip-rule="evenodd" d="M44.5884 1.78607C44.6507 1.78607 46.6678 1.86964 46.7071 1.86964C50.0728 2.12526 53.3008 2.73973 57.1171 3.83431C61.035 5.20417 64.6153 6.96894 68.0547 9.28427C72.5297 12.527 76.2248 16.3417 79.3545 20.915C81.5551 24.3692 83.2412 27.9692 84.5046 31.9755C85.5172 35.8213 86.0514 39.1411 86.2136 42.4347C86.2448 42.9656 86.2415 43.4932 86.2349 44.0175C86.1841 47.1767 85.8744 50.1016 85.2501 53.0626C84.4505 56.4446 83.3756 59.5268 81.8271 62.7598C79.8788 66.5105 77.6684 69.6861 74.8664 72.7863C72.4347 75.2983 69.8834 77.4367 67.1076 79.3636C62.9407 81.9756 58.7705 83.796 54.0071 85.0659C50.9806 85.6968 48.2999 86.0737 45.588 86.2277C41.8635 86.2851 38.3946 85.9524 34.983 85.2495C31.6108 84.4548 28.4975 83.3798 25.2153 81.8346C21.4777 79.8683 18.2857 77.6546 15.2068 74.8673C11.633 71.3591 8.8884 67.7837 6.58454 63.62C5.5555 61.4981 4.77062 59.7103 4.09879 57.9456C2.75187 53.7573 2.01286 49.8362 1.77035 45.6184C1.76216 45.1088 1.75888 44.5779 1.76216 44.07C1.80312 40.9239 2.12593 37.9433 2.71254 34.9807C3.58428 31.4249 4.68705 28.31 6.16998 25.236C8.11499 21.4836 10.3386 18.2883 13.1291 15.2275C16.6095 11.6553 20.2029 8.91559 24.401 6.60025C26.2231 5.67773 28.1173 4.85515 30.0181 4.13909C34.185 2.79872 38.1357 2.0548 42.4484 1.81392C42.4681 1.81392 44.4475 1.78607 44.5884 1.78607ZM44.5868 0L42.3845 0.0475192C37.8686 0.294947 33.7672 1.06672 29.456 2.44642C29.4495 2.46772 29.4298 2.47755 29.4298 2.47755C27.4455 3.21984 25.4874 4.07518 23.5718 5.04523C19.2607 7.41955 15.4248 10.3346 11.8379 13.9838C8.92445 17.2151 6.6255 20.5267 4.58218 24.4462C3.03043 27.6742 1.88669 30.8842 0.985466 34.5907C0.978911 34.5956 0.978911 34.6087 0.978911 34.6349C0.267762 38.1874 -0.0484868 41.8103 0.00722538 45.666V45.6987C0.25793 50.0869 1.0166 54.1506 2.42579 58.5093C2.42579 58.5322 2.43071 58.5519 2.43071 58.5519C3.13202 60.3691 3.94149 62.2256 5.00002 64.418C5.00002 64.4328 5.00821 64.4492 5.02132 64.4623C7.40875 68.78 10.2763 72.5078 14.0008 76.1536C17.2157 79.0589 20.5109 81.366 24.4124 83.4061C24.4206 83.4142 24.4337 83.4306 24.4485 83.4306C27.8486 85.0315 31.0799 86.1474 34.6078 86.97C38.1652 87.7106 41.757 88.0498 45.6437 87.9941C48.5112 87.8155 51.2657 87.4468 54.3987 86.811C54.4102 86.7881 54.4298 86.7881 54.4511 86.7881C59.3915 85.4576 63.7223 83.565 68.0711 80.8285C70.9829 78.8376 73.6128 76.6141 76.1527 73.9989C79.089 70.7774 81.3863 67.4674 83.4165 63.5627C85.0207 60.1872 86.1464 56.9641 86.969 53.4362C87.7244 49.8362 88.0505 46.3329 87.9931 42.374C87.8047 38.9133 87.241 35.4805 86.2136 31.5151C86.2022 31.4954 86.2022 31.4708 86.2022 31.4708C84.8831 27.3104 83.1151 23.5384 80.8276 19.94C77.5733 15.1734 73.7472 11.2309 69.0641 7.84395C65.4789 5.43194 61.7593 3.56558 57.6628 2.15475L57.6349 2.13181C53.6777 1.00118 50.3546 0.375238 46.8382 0.113063L44.6376 0H44.5868Z" fill="#9D1E23"/>
<path fill-rule="evenodd" clip-rule="evenodd" d="M24.5467 11.6643C24.5565 11.7101 24.5467 11.7495 24.5467 11.7937C24.5598 11.8248 24.5696 11.8543 24.5811 11.8887C24.5877 11.951 24.5205 12.0116 24.4861 12.0657C24.4549 12.1099 24.4189 12.1542 24.3845 12.1968C24.3124 12.2541 24.2812 12.3508 24.2354 12.4196C24.2173 12.4393 24.201 12.459 24.1895 12.4754C24.1141 12.5327 24.042 12.5704 23.9699 12.4655C23.9453 12.4278 23.9257 12.3852 23.924 12.3754C23.888 12.2083 23.9273 11.8658 24.0223 11.6757C24.0486 11.62 24.06 11.5594 24.0666 11.4955C24.0731 11.3644 24.1371 11.1432 24.1371 11.1432C24.1764 11.1727 24.2386 11.2267 24.2436 11.2825C24.2436 11.2825 24.2583 11.2972 24.2632 11.307C24.3452 11.4103 24.5025 11.5332 24.5467 11.6643ZM25.4332 13.1996H25.4365C25.3889 13.2357 25.3758 13.2848 25.3529 13.3373C25.3381 13.3422 25.3152 13.3618 25.3119 13.3684C25.2923 13.3815 25.2857 13.4044 25.2824 13.4257C25.2775 13.4651 25.266 13.5028 25.2447 13.5355C25.1841 13.6207 25.1464 13.7715 25.1513 13.7797C25.1104 13.7928 25.0727 13.8092 25.0301 13.8256C25.0104 13.8223 24.9563 13.8092 24.9498 13.8141C24.9121 13.8452 24.8384 13.8698 24.7925 13.8829C24.7679 13.8895 24.7401 13.8813 24.7286 13.8567C24.6368 13.6682 24.6729 13.234 24.7712 13.0063C24.7908 12.9604 24.8285 12.9227 24.8629 12.8997C24.8892 12.8817 24.9088 12.8621 24.9252 12.8408C24.9596 12.7982 24.9973 12.7621 25.0334 12.7228C25.0432 12.7097 25.0563 12.7031 25.0678 12.6982C25.0858 12.6933 25.1038 12.6884 25.1202 12.6802C25.1481 12.6703 25.1808 12.6835 25.1972 12.7064C25.2382 12.7572 25.2759 12.8047 25.3218 12.8588C25.4053 12.9669 25.4594 13.0636 25.4332 13.1996ZM25.8772 14.6743C25.8428 14.7219 25.8019 14.771 25.7658 14.8202C25.6085 14.9431 25.1841 14.5678 24.9793 14.2483C24.9793 14.2483 24.9498 14.2057 24.9514 14.1926C25.0121 14.1451 25.094 14.0746 25.1284 13.9911C25.1284 13.9911 25.135 13.9698 25.1366 13.9632C25.1579 13.9173 25.2611 13.878 25.266 13.801C25.3054 13.7813 25.3447 13.7649 25.3791 13.742C25.3857 13.7485 25.3922 13.7551 25.3988 13.7616C25.3611 13.7895 25.2808 13.8419 25.3726 13.8649C25.425 13.8813 25.4692 13.8321 25.5233 13.8256C25.6167 13.7518 25.7756 13.8518 25.8756 13.8829C25.892 13.8895 25.9067 13.9026 25.9166 13.9173C26.0903 14.2008 25.9035 14.6203 25.8772 14.6743ZM25.8232 11.7937C25.7888 11.7511 25.7527 11.7036 25.7248 11.6659C25.6904 11.5217 25.7576 11.4316 25.8625 11.3382C25.8625 11.3382 25.9903 11.2431 25.9969 11.2464C26.1148 11.2038 26.223 11.2661 26.3065 11.3578C26.3672 11.4316 26.4065 11.5119 26.4278 11.5856C26.4327 11.6462 26.4344 11.7036 26.4311 11.7593C26.4524 11.8478 26.4917 11.9428 26.5097 12.0313C26.5179 12.0788 26.5179 12.1263 26.5245 12.1722C26.5507 12.2738 26.6048 12.382 26.5835 12.4885C26.5736 12.5327 26.4917 12.5901 26.4917 12.5901C26.2689 12.3099 26.0149 12.0854 25.8232 11.7937ZM29.9901 13.1226C29.936 13.0702 29.9016 13.0308 29.8344 13.0226C29.8082 13.0194 29.7836 13.0259 29.7574 13.0259C29.4953 13.0292 29.4936 13.0767 29.2577 13.2078C29.2577 13.2078 28.8038 13.3733 28.6907 13.4094C28.676 13.4159 28.6596 13.4225 28.6432 13.4356C28.5514 13.4995 28.4384 13.5437 28.3712 13.5847C28.2466 13.6617 28.073 13.7797 27.9369 13.8223C27.8976 13.8501 27.8534 13.8764 27.8124 13.9058L27.7174 13.9796L27.7092 13.9845C27.6994 13.9927 27.6862 14.0042 27.6731 14.014C27.5552 14.091 27.4339 14.1647 27.3176 14.2418C27.3061 14.2516 27.2963 14.2647 27.293 14.2794C27.2897 14.2909 27.2832 14.3024 27.2832 14.3024C27.2225 14.3794 27.0914 14.1615 27.0816 14.0189C27.039 13.8567 27.3405 13.5273 27.3897 13.3782C27.4142 13.3094 27.3569 13.1668 27.3356 13.1095C27.3307 13.0997 27.3274 13.0898 27.3192 13.08C27.2192 12.9424 26.9538 12.8145 26.9538 12.8047C27.0374 12.7408 27.1242 12.5622 27.1275 12.4655C27.1193 12.4196 27.1111 12.3639 27.1062 12.318C27.1258 12.1968 27.1488 12.0772 27.175 11.9526C27.1684 11.7167 27.0947 11.4725 27.0423 11.2366C27.0144 11.0957 27.0013 10.94 26.9374 10.8105C26.8538 10.645 26.6654 10.4042 26.513 10.3288C26.4409 10.2927 26.3492 10.3009 26.2656 10.2927C26.1279 10.2829 26.0198 10.2764 25.8887 10.3337C25.792 10.3878 25.679 10.3206 25.5774 10.4353C25.4938 10.5008 25.3791 10.5549 25.3218 10.6369C25.2578 10.6827 25.1956 10.7925 25.1776 10.8663L25.1612 10.881C25.1005 10.8073 24.9154 10.6008 24.9056 10.5189C24.8728 10.1993 25.3529 9.82902 25.094 9.51769C25.0104 9.41774 24.8744 9.37677 24.7515 9.36694C24.6499 9.3653 24.4893 9.37677 24.4123 9.46034C24.2075 9.62092 24.1256 9.27846 24.0027 9.1572C23.9175 9.04742 23.7012 9.07855 23.5783 9.14737C23.557 9.16048 23.5357 9.1785 23.5291 9.20636C23.4587 9.41118 23.5455 9.65206 23.5586 9.86344C23.557 9.9552 23.5586 10.047 23.5586 10.1354C23.5586 10.1617 23.5488 10.1862 23.5324 10.2026C23.5046 10.2321 23.4718 10.2731 23.462 10.2862C23.3915 10.337 23.3522 10.4779 23.3178 10.5549C23.2604 10.6123 23.2112 10.668 23.1506 10.7253C22.9982 10.845 22.8475 10.9613 22.6902 11.0842C22.6689 11.0957 22.5722 11.1891 22.5722 11.1891C22.505 11.2333 22.4083 11.3578 22.3985 11.3709C22.3985 11.3709 22.2772 11.5954 22.2494 11.6741C22.2428 11.6987 22.1429 11.9985 22.115 12.0837C22.1117 12.0952 22.1052 12.105 22.0986 12.1132C22.0134 12.2181 22.0544 12.4213 22.0921 12.518C22.0921 12.518 22.0921 12.5229 22.0888 12.5294C22.0478 12.5737 22.1953 12.7621 22.2363 12.7719C22.2936 12.7867 22.4575 12.7572 22.4772 12.7474C22.528 12.7277 22.582 12.6851 22.6361 12.6458C22.6885 12.6032 22.7426 12.5589 22.8 12.5114C22.8065 12.5065 22.8098 12.4999 22.8131 12.4934C22.8884 12.3656 22.8852 12.2083 22.954 12.0739C23.0212 11.9821 23.0818 11.892 23.1424 11.7937C23.2096 11.7134 23.321 11.6462 23.3472 11.5479C23.3472 11.5479 23.3472 11.5217 23.3505 11.5151C23.3849 11.425 23.5357 11.4119 23.6029 11.5594C23.6029 11.5594 23.5488 11.9559 23.5422 11.9952C23.5357 12.0034 23.4013 12.3623 23.4046 12.3787C23.0867 12.6245 23.267 13.1128 23.4439 13.3897C23.462 13.4225 23.5324 13.5322 23.5488 13.5503C23.6799 13.7207 23.8142 13.8895 23.9486 14.0664C23.9781 14.1041 24.0158 14.15 24.0469 14.191C24.1026 14.2696 24.1567 14.3499 24.2141 14.4302C24.2567 14.5351 24.2747 14.6481 24.3222 14.7612C24.4402 14.9971 24.5893 15.1856 24.7548 15.4068C24.8498 15.5281 24.9563 15.6903 25.094 15.7493C25.2447 15.8132 25.4266 15.7837 25.5741 15.7755C25.6298 15.7837 25.6806 15.7951 25.7314 15.7968C25.8281 15.8033 26.1034 15.7394 26.1886 15.7001C26.3328 15.6509 26.5278 16.485 26.5278 16.485C26.5409 16.5227 26.5441 16.5555 26.5507 16.5915C26.631 16.8717 26.5474 17.1126 26.5048 17.3846C26.5032 17.4665 26.5032 17.5402 26.5081 17.614C26.4606 17.9827 26.3934 18.3448 26.5179 18.684C26.5065 18.6955 26.6523 18.9658 26.7621 19.0133C26.7752 19.0232 26.8129 19.0412 26.826 19.0412C26.9669 19.0396 27.2045 19.1313 27.388 18.9625C27.5519 18.8151 27.4486 18.0662 27.4372 17.8483C27.4405 17.7746 27.4454 17.7074 27.4503 17.6402C27.4519 17.5648 27.4732 17.3682 27.4667 17.3551C27.465 17.3469 27.4503 17.1437 27.4405 17.0388C27.4372 17.0126 27.4306 16.9864 27.4208 16.9585C27.3815 16.8193 27.3864 16.2048 27.4503 16.1524C27.5142 16.113 27.7354 16.39 27.7895 16.4883C27.796 16.5079 27.8059 16.5243 27.819 16.5407C27.9468 16.7062 28.0549 16.8783 28.2368 16.988C28.2499 16.993 28.263 17.0061 28.2679 17.011C28.3777 17.0716 28.476 17.106 28.5989 17.106C28.7415 17.0913 28.848 16.9618 28.8611 16.9504C29.3085 16.6226 28.5989 16.0688 28.3613 15.7788C28.2008 15.5838 28.073 15.3363 27.9238 15.1217C27.9435 15.0905 27.9583 15.0545 27.9845 15.0234C28.068 14.948 28.2892 14.8087 28.3974 14.7727C28.4449 14.7727 28.4892 14.7727 28.5416 14.7759C28.6317 14.771 28.7448 14.712 28.8202 14.6612C28.9463 14.5662 29.079 14.517 29.2069 14.4187C29.2773 14.3483 29.3478 14.2827 29.415 14.2106C29.546 14.1074 29.6739 14.0091 29.8017 13.9091C29.9016 13.8321 30.0163 13.7961 30.0901 13.6912C30.1802 13.5535 30.1753 13.2848 30.0425 13.1636C30.0262 13.1472 30.0098 13.1406 29.9901 13.1226Z" fill="#9D1E23"/>
<path fill-rule="evenodd" clip-rule="evenodd" d="M39.6776 10.7457C39.617 10.6228 39.8448 10.5524 39.8448 10.5524C40.0266 10.5687 39.889 10.7572 39.7923 10.7932C39.7989 10.8211 39.6809 10.7539 39.6776 10.7457ZM37.9555 7.6881C37.9391 7.74545 37.8981 7.78478 37.8653 7.81591C37.8539 7.82574 37.8408 7.83229 37.826 7.83557C37.7064 7.86343 37.5786 7.87326 37.6392 7.70448C37.6802 7.61436 37.767 7.54718 37.867 7.47344C37.8719 7.46689 37.8834 7.44886 37.8948 7.44723C37.9243 7.44067 37.9555 7.43412 37.9719 7.45378C37.9751 7.46197 38.0013 7.54063 37.9555 7.6881ZM39.091 8.15838C39.0976 8.12888 39.1156 8.11086 39.1303 8.07317C39.1664 7.9896 39.1697 7.95683 39.2287 7.92078C39.2467 7.90931 39.268 7.90276 39.2942 7.90276C39.3941 7.8962 39.4482 7.87326 39.4925 7.98796C39.4957 7.99779 39.4826 8.02073 39.4859 8.03712C39.4892 8.05187 39.4859 8.06498 39.4826 8.07972C39.4728 8.15182 39.4056 8.31896 39.3614 8.35992C39.3188 8.39761 39.2647 8.49265 39.2287 8.53853C39.2205 8.54836 39.2041 8.54508 39.2008 8.53361C39.1844 8.50412 39.1697 8.47299 39.1566 8.44677C39.1533 8.44021 39.1533 8.43366 39.15 8.4271C39.1369 8.3632 39.1139 8.30257 39.1058 8.23867C39.1041 8.22556 39.0828 8.18951 39.091 8.15838ZM40.9066 8.42055C40.7886 8.38286 40.6034 8.41236 40.4936 8.48446C40.3789 8.51395 40.161 8.69092 40.1512 8.70239C40.0529 8.77285 39.9595 8.84658 39.8661 8.9236C39.8562 8.93015 39.8431 8.93343 39.8317 8.93671C39.8218 8.93671 39.8153 8.94162 39.8054 8.94654C39.6907 8.99078 39.6203 9.1317 39.5072 9.1825C39.4548 9.21035 39.3253 9.23329 39.2811 9.21035C39.2106 9.18577 39.15 8.92688 39.1566 8.85642C39.1762 8.82856 39.1975 8.79579 39.2172 8.76466C39.2778 8.70567 39.44 8.59424 39.5089 8.5205C39.6268 8.39433 39.8218 8.27472 39.9414 8.12233C40.0365 7.99452 40.0398 7.84704 40.1332 7.7094C40.1708 7.66352 40.2282 7.64222 40.2692 7.59798C40.3445 7.52915 40.3953 7.40298 40.4199 7.30631L40.4183 7.30139C40.3855 7.1785 40.0561 6.74755 39.9464 6.71641C39.8628 6.69347 39.7514 6.73444 39.6596 6.75738C39.617 6.76885 39.5302 6.79834 39.5039 6.80817C39.4957 6.81145 39.4892 6.81473 39.4794 6.81473C39.4335 6.82456 39.3696 6.82784 39.3352 6.84095C39.3171 6.8475 39.304 6.85897 39.2942 6.87208C39.2876 6.88191 39.2778 6.88847 39.268 6.89174C39.2205 6.92615 39.168 6.96384 39.1189 6.99989C39.0419 7.0769 38.9861 7.17194 38.8993 7.23749C38.7977 7.2637 38.7846 7.24896 38.7535 7.15392C38.7436 7.14081 38.7436 7.13425 38.7338 7.13098C38.724 7.10148 38.7059 7.0769 38.6961 7.05069C38.6879 7.01955 38.6732 6.94909 38.6764 6.8983C38.6797 6.8688 38.6732 6.83767 38.6601 6.81145C38.6502 6.78523 38.6404 6.76557 38.6404 6.76557C38.6158 6.66725 38.8075 6.44113 38.8927 6.40836C38.9927 6.35756 39.2041 6.37395 39.2385 6.26416C39.25 6.23303 39.2713 6.20845 39.2975 6.18715C39.386 6.1003 39.4482 5.86434 39.4122 5.78405C39.3384 5.612 39.073 5.61036 38.9222 5.68082C38.8977 5.69229 38.8747 5.70376 38.8551 5.71687C38.8288 5.7267 38.8141 5.74473 38.7911 5.75292C38.701 5.78733 38.6093 5.81355 38.5191 5.8414C38.5191 5.8414 38.4946 5.85451 38.4864 5.85451C38.4749 5.85779 38.4651 5.86434 38.4585 5.86926C38.4126 5.88237 38.3749 5.87909 38.3438 5.84796C38.3274 5.83485 38.3176 5.81519 38.3028 5.80208C38.2717 5.73162 38.2324 5.66116 38.2029 5.59234C38.1668 5.46289 38.2111 5.28756 38.3045 5.20235C38.3045 5.20235 38.4618 5.15647 38.4864 5.15647L38.488 5.1663C38.4683 5.20071 38.4487 5.23349 38.4225 5.26954L38.4241 5.27445C38.6191 5.22693 38.7059 5.09257 38.837 4.96476C38.9173 4.88774 39.0517 4.8648 39.0025 4.71897C38.9812 4.65179 38.914 4.64195 38.8583 4.61901C38.6502 4.53053 38.488 4.48793 38.2471 4.53872C38.2226 4.55183 38.157 4.58133 38.157 4.58133C38.1161 4.61246 38.0685 4.6354 38.0226 4.66162C38.003 4.67636 37.9817 4.69275 37.9637 4.71241C37.9604 4.71733 37.9555 4.72224 37.9506 4.72716C37.9243 4.76321 37.8899 4.79107 37.8539 4.81728C37.8309 4.83367 37.8096 4.84842 37.79 4.86316C37.7736 4.87463 37.7605 4.88774 37.7474 4.90085C37.5999 5.04996 37.518 5.17614 37.323 5.29411C37.3033 5.30067 37.2869 5.30395 37.2705 5.31378C37.2328 5.32852 37.1919 5.34491 37.1558 5.35802C37.1181 5.37113 37.0821 5.38096 37.0379 5.39407C37.0215 5.39735 36.9445 5.43176 36.9445 5.43176C36.9068 5.44159 36.8674 5.45142 36.833 5.45797L36.8265 5.46289C36.7593 5.4678 36.6987 5.42848 36.679 5.38915C36.6724 5.37768 36.6888 5.36785 36.6921 5.35802C36.6954 5.33508 36.679 5.32852 36.6643 5.31378C36.5807 5.24332 36.2694 5.24004 36.1645 5.30395C36.1039 5.31869 36.0612 5.34819 36.0137 5.38096C35.9105 5.40718 35.8597 5.56284 35.7892 5.63986C35.7892 5.63986 35.7729 5.67755 35.7745 5.69393C35.7827 5.84468 35.8286 5.85124 35.8695 5.85124C35.9171 5.84796 35.9613 5.86434 36.0006 5.8922C36.0875 5.94791 36.3333 6.01182 36.3775 6.01182L36.3972 6.0069C36.484 5.9856 36.584 5.97905 36.6659 5.93808C36.8101 5.90203 36.9133 5.78733 37.0346 5.72015C37.0952 5.69721 37.1558 5.67263 37.2197 5.64969C37.2673 5.60709 37.3181 5.5694 37.3639 5.52679C37.3983 5.49894 37.4409 5.476 37.4885 5.46289L37.5294 5.4547C37.5458 5.44814 37.5589 5.44486 37.572 5.43503C37.6064 5.41045 37.6425 5.38096 37.6835 5.38096C37.6966 5.38096 37.7097 5.38588 37.7195 5.39571C37.7474 5.43503 37.8227 5.5186 37.8408 5.63003C37.8408 5.63658 37.8342 5.64313 37.8342 5.64313C37.8145 5.74309 37.7605 5.89056 37.7277 5.98232C37.713 6.0151 37.7031 6.04951 37.6998 6.08555C37.6966 6.12652 37.69 6.16257 37.6867 6.20517C37.6703 6.22156 37.6572 6.2445 37.6359 6.25761C37.6015 6.27072 37.5147 6.30349 37.477 6.31496C37.4639 6.32151 37.4557 6.32479 37.4442 6.33134C37.3918 6.35428 37.3426 6.37886 37.2935 6.39525C37.2935 6.39525 37.264 6.41 37.2476 6.41983C37.223 6.43458 37.1984 6.44604 37.1755 6.45588C37.1362 6.46899 37.0985 6.48046 37.0608 6.4952C37.0608 6.4952 36.9805 6.546 36.9412 6.56566C36.9264 6.57222 36.9133 6.58041 36.9035 6.59024C36.8805 6.60663 36.856 6.62137 36.833 6.63448C36.7527 6.65742 36.7085 6.63776 36.6364 6.6394C36.4201 6.65087 36.2464 6.73772 36.1022 6.84914C36.0432 6.89666 35.9121 7.09329 35.8089 7.14081C35.7958 7.14409 35.7827 7.16703 35.7712 7.18341C35.6958 7.26862 35.7155 7.35874 35.763 7.43412C35.786 7.46853 35.8204 7.49638 35.8597 7.49966C36.0006 7.51932 36.1612 7.74873 36.4004 7.67335C36.5414 7.6373 36.6216 7.50294 36.7396 7.43903C36.8838 7.3653 37.0247 7.29156 37.1657 7.21455C37.3508 7.10476 37.5311 6.96876 37.7392 6.89174C37.7932 7.09329 37.5884 7.2424 37.459 7.37841C37.4475 7.38987 37.4344 7.40298 37.4213 7.40954C37.377 7.43903 37.2689 7.5226 37.2574 7.53735C37.2034 7.59634 37.1591 7.66516 37.1149 7.73562C37.046 7.84377 36.9608 7.94372 36.8625 8.03057C36.8134 8.07481 36.7626 8.11905 36.7118 8.16493C36.6888 8.18623 36.6642 8.21245 36.6429 8.24194C36.5807 8.32715 36.4971 8.45332 36.4971 8.45332C36.4775 8.48118 36.4348 8.54672 36.4135 8.56802C36.3709 8.59424 36.33 8.61063 36.2857 8.62865C35.9138 8.72533 35.94 8.8941 35.7794 9.15792C35.745 9.20216 35.7106 9.23985 35.6795 9.28081C35.6582 9.30539 35.6516 9.33652 35.6614 9.36602C35.7729 9.7134 36.0301 9.68227 36.3431 9.55118C36.3529 9.54463 36.3644 9.54135 36.3709 9.53479C36.4037 9.51185 36.484 9.46106 36.5266 9.4332C36.6118 9.37421 36.6987 9.32341 36.7822 9.26934C37.0116 9.16775 37.2525 9.13498 37.4442 9.00553C37.6638 8.86625 37.8031 8.61882 38.0423 8.50412C38.0554 8.49265 38.18 8.45004 38.1931 8.44349C38.2291 8.59096 38.216 8.75318 38.2324 8.89247C38.2471 9.06452 38.3651 9.21035 38.2275 9.35127L38.2242 9.35291C38.1832 9.39715 38.1423 9.42829 38.0997 9.46761C37.9391 9.6495 37.6998 9.84449 37.4885 9.96411C37.3361 10.0477 37.182 10.105 37.0526 10.2099C37.0313 10.2296 37.0034 10.2459 36.9789 10.2591C36.8871 10.3033 36.7691 10.4114 36.756 10.418C36.7298 10.4311 36.7085 10.4426 36.6856 10.459C36.6397 10.4852 36.5922 10.5147 36.5446 10.5425C36.5381 10.5491 36.5299 10.5524 36.5201 10.5556C36.484 10.572 36.3693 10.6392 36.3021 10.6638C36.2939 10.6687 36.2825 10.6736 36.2726 10.6802C36.2333 10.7064 36.117 10.7572 36.1055 10.767C36.1055 10.767 35.8876 10.8719 35.863 10.8801C35.8417 10.8883 35.8171 10.8948 35.7958 10.9047C35.7745 10.9145 35.7581 10.9161 35.7384 10.9243C35.6778 10.9686 35.6156 11.0177 35.5517 11.0636C35.5402 11.0734 35.5271 11.0849 35.5172 11.0997C35.4927 11.1341 35.4599 11.1832 35.432 11.216C35.4091 11.2504 35.3993 11.2914 35.4091 11.3323C35.4156 11.3815 35.4091 11.388 35.3894 11.4388C35.3829 11.4618 35.3796 11.4847 35.3796 11.5093C35.3829 11.5306 35.3796 11.5535 35.3796 11.5765C35.3796 11.6076 35.3862 11.6404 35.4058 11.6666C35.4779 11.7715 35.6516 11.8321 35.763 11.8452C35.8695 11.8518 36.0006 11.8845 36.1104 11.8583C36.253 11.819 36.3333 11.7174 36.4365 11.6437C36.4906 11.6011 36.5381 11.5601 36.5905 11.5159C36.6053 11.5027 36.6249 11.4929 36.6413 11.4831C36.6921 11.4618 36.7462 11.4356 36.7953 11.4061C36.9281 11.311 37.2525 11.116 37.2804 11.1062C37.3066 11.0931 37.7326 10.8276 37.7457 10.8113C37.7523 10.8063 37.9047 10.6933 37.9817 10.654C38.0489 10.6195 38.1193 10.6359 38.1931 10.6163C38.293 10.5819 38.5519 10.3819 38.6338 10.495C38.6568 10.5261 38.6732 10.5753 38.6568 10.6163C38.6175 10.7244 38.4651 10.8129 38.3815 10.885C38.3078 10.962 38.2373 11.039 38.1636 11.1062C38.1193 11.1504 38.0734 11.1914 38.0276 11.234C37.9719 11.2848 37.9047 11.3258 37.8342 11.3569C37.826 11.3602 37.8195 11.3651 37.8129 11.3684C37.79 11.3848 37.7605 11.3946 37.7326 11.3995C37.5753 11.4388 37.3869 11.4749 37.2787 11.565L37.2689 11.5666C37.1624 11.6093 37.2017 11.742 37.1591 11.819C37.0854 11.9435 36.9068 12.0386 36.915 12.2204C36.9264 12.3728 37.069 12.4826 37.187 12.5465C37.2804 12.5973 37.3459 12.7022 37.459 12.7317C37.5933 12.7677 37.6818 12.6924 37.7834 12.6268C37.8916 12.5744 37.9981 12.5236 38.098 12.4728C38.1537 12.4236 38.2062 12.381 38.257 12.3384C38.3979 12.2516 38.7682 12.0533 38.9485 12.0763L38.9452 12.1238C38.9485 12.1369 38.9517 12.1516 38.9583 12.1697C38.9829 12.2712 38.9599 12.44 38.9517 12.4384C38.9255 12.4793 38.8845 12.5187 38.878 12.5646C38.8682 12.6547 38.8403 12.7923 38.8223 12.9463C38.8206 13.0037 38.819 13.0299 38.8141 13.1135C38.8141 13.1708 38.8436 13.4756 38.8501 13.5543C38.8518 13.5838 38.8583 13.5969 38.8616 13.6247V13.6575C38.8337 13.7361 38.8616 13.9377 38.9353 13.9803C38.955 13.9901 38.9796 14.0098 39.0091 14.0278C39.0156 14.0344 39.0271 14.0376 39.0353 14.0376C39.0992 14.0475 39.15 14.0344 39.2237 14.0344C39.2336 14.0344 39.2647 14.0344 39.2876 14.0376C39.3712 14.0508 39.4384 14.0508 39.5285 13.9803C39.5793 13.9377 39.599 13.8771 39.6236 13.823C39.6547 13.7755 39.6842 13.723 39.712 13.6706C39.771 13.51 39.7546 13.338 39.7792 13.1692C39.794 13.061 39.8415 12.9529 39.8317 12.8398C39.8284 12.794 39.8251 12.7514 39.8317 12.7055C39.8464 12.594 39.8595 12.4859 39.8759 12.3745C39.8956 12.1402 39.7546 11.7141 39.9021 11.5224C40.0332 11.3536 40.4166 11.3143 40.6198 11.2193C40.7853 11.1373 40.8853 11.0161 41.0278 10.9358C41.1147 10.8883 41.3867 10.785 41.3932 10.6802C41.3752 10.6228 41.3506 10.5589 41.3293 10.4983C41.2818 10.3475 41.195 10.2427 41.0475 10.1853C41 10.1673 40.9492 10.1558 40.8984 10.1771C40.8935 10.1804 40.8869 10.187 40.8869 10.187C40.8771 10.2001 40.8656 10.2099 40.8492 10.223C40.8197 10.2443 40.7509 10.3017 40.6641 10.3443L40.6575 10.3475L40.587 10.3639L40.5772 10.3672C40.5395 10.3705 40.5035 10.3754 40.4674 10.3819C40.4183 10.3901 40.3691 10.3885 40.3216 10.3721C40.2724 10.3606 40.2282 10.3475 40.1856 10.3344C40.0627 10.3066 39.9398 10.2836 39.8185 10.2558C39.7383 10.2443 39.6744 10.2296 39.5908 10.2164C39.5826 10.2164 39.5154 10.2033 39.522 10.1624C39.5236 10.1296 39.7858 9.93133 39.871 9.87726C39.8857 9.86743 39.8956 9.85596 39.9054 9.84121C39.9349 9.79041 39.9791 9.74945 40.0299 9.71668C40.0774 9.68882 40.125 9.65933 40.1774 9.63639C40.4216 9.52168 41.0852 9.19233 41.1851 8.96129C41.1917 8.8728 41.2015 8.78596 41.2081 8.69747C41.1819 8.64176 40.9656 8.43694 40.9066 8.42055Z" fill="#9D1E23"/>
<path fill-rule="evenodd" clip-rule="evenodd" d="M64.6056 12.3346C64.6793 12.2232 64.8071 12.2183 64.8907 12.12C64.9087 12.1036 64.93 12.0954 64.9546 12.097H64.9677C64.9873 12.1003 65.0021 12.1036 65.0152 12.1134C65.0316 12.1282 65.048 12.1429 65.0644 12.1576C65.0758 12.1642 65.0791 12.1806 65.0709 12.1937C65.0316 12.2609 64.9857 12.3363 64.9316 12.3887C64.894 12.4231 64.8644 12.469 64.8235 12.487C64.8104 12.4903 64.7661 12.5263 64.7563 12.5394C64.7563 12.5394 64.5711 12.5837 64.5761 12.5771C64.4646 12.5018 64.5449 12.4231 64.6056 12.3346ZM66.0967 11.9414C66.2769 11.9282 66.4391 11.902 66.6194 11.9086C66.6374 11.9086 66.6636 11.9151 66.6816 11.9233C66.8258 11.9823 66.7914 12.1642 66.7734 12.2199C66.7685 12.2347 66.7636 12.2609 66.7636 12.2822C66.7636 12.292 66.7652 12.3002 66.7619 12.3084C66.7341 12.3952 66.6292 12.5263 66.5669 12.5722C66.4834 12.6328 66.2507 12.7639 66.1966 12.6443C66.1262 12.5067 66.1966 12.3625 66.2114 12.2101C66.2163 12.1675 66.1737 12.1265 66.1442 12.1069C66.1229 12.0905 66.1131 12.061 66.0868 12.0397C66.018 11.9905 65.864 12.0397 65.8017 12.1003C65.7984 12.1069 65.7804 12.1232 65.7739 12.1282C65.7509 12.1445 65.7165 12.1871 65.7067 12.2101C65.7001 12.2265 65.6739 12.2412 65.6608 12.2445C65.6362 12.2445 65.569 12.1921 65.6231 12.1232C65.7771 11.9364 65.9017 11.9938 66.0967 11.9414ZM66.4949 14.786C66.4883 14.6991 66.4981 14.5844 66.4588 14.4976C66.3982 14.373 66.2245 14.2157 66.0852 14.178C66.0295 14.1518 65.9754 14.1289 65.9213 14.1076C65.8935 14.0912 65.6428 13.9962 65.6182 13.9847C65.6051 13.9748 65.4953 13.9535 65.4543 13.947C65.4249 13.9437 65.1365 13.8503 65.0283 13.8356C64.9988 13.8307 64.9742 13.8192 64.948 13.8028C64.8563 13.7454 64.7465 13.6815 64.6858 13.634C64.6645 13.6176 64.6432 13.598 64.6252 13.5865C64.5138 13.5373 64.404 13.4915 64.2926 13.4439C64.286 13.4407 64.2467 13.4128 64.2352 13.4063C64.2188 13.3931 64.114 13.3243 64.0746 13.3112C64.0107 13.2916 63.9436 13.2653 63.8813 13.244C63.8813 13.244 63.6519 13.1637 63.6322 13.1539C63.5683 13.1113 63.2816 13.0228 63.2816 13.0228C63.2816 13.0228 63.0915 12.9769 63.0128 12.9556C62.9227 12.9147 62.8637 12.8622 62.7654 12.8557L62.5917 12.8278C62.3722 12.6804 62.8736 12.4493 62.9325 12.2478C62.9702 12.2003 63.0112 12.1462 63.0538 12.0954C63.1849 11.8955 63.3438 11.7972 63.4831 11.648C63.5487 11.5825 63.5814 11.4957 63.665 11.4711C63.6929 11.4662 63.7355 11.4449 63.7584 11.4694C63.76 11.4825 63.765 11.4989 63.765 11.5153C63.7256 11.6628 63.588 11.707 63.4946 11.8135C63.4602 11.8693 63.4176 11.9299 63.3832 11.9872C63.3127 12.061 63.2488 12.1331 63.1816 12.2068C63.1292 12.2855 63.0374 12.3281 62.9866 12.4297C62.9571 12.487 63.0014 12.7148 63.0882 12.7426C63.2422 12.782 63.3602 12.6181 63.4962 12.587C63.5847 12.4985 63.6716 12.4067 63.7584 12.3215C63.7961 12.2805 63.8272 12.2347 63.8633 12.1937C63.9075 12.1265 63.9845 12.1003 64.0468 12.0528C64.2352 11.8988 64.6727 11.4809 64.9284 11.5596C65.0021 11.6087 64.7661 11.7234 64.7366 11.7382C64.7284 11.7431 64.7039 11.7546 64.6858 11.7644C64.3041 11.9954 64.1828 12.097 63.9534 12.4395C63.9174 12.4936 63.8502 12.5657 63.8272 12.6263C63.8223 12.641 63.8239 12.6607 63.8321 12.6787C63.8387 12.6951 63.8469 12.7099 63.8534 12.7246C63.8665 12.7508 63.8731 12.7787 63.8731 12.8065C63.8731 12.8311 63.8731 12.8524 63.8944 12.877C63.9878 12.972 64.0452 12.936 64.1353 12.9393C64.1533 12.9425 64.168 12.9475 64.1844 12.9524C64.2123 12.9638 64.2385 12.9737 64.2664 12.9835C64.3122 12.9868 64.3647 12.9933 64.4138 12.9966C64.4319 12.9999 64.4466 12.9933 64.4646 12.9835C64.5023 12.9704 64.5711 12.9786 64.6121 12.9868C64.64 12.9901 64.6662 12.9901 64.6924 12.9835C64.7071 12.9786 64.7203 12.9737 64.7366 12.9704C64.7694 12.9606 64.7956 12.9474 64.8235 12.9261C64.8546 12.9048 64.8939 12.877 64.9169 12.859C64.9316 12.8491 64.948 12.8442 64.9644 12.8377C64.971 12.8377 64.9792 12.8344 64.9792 12.8344C65.0152 12.8246 65.0496 12.8065 65.0758 12.7787C65.1627 12.6951 65.3216 12.5378 65.3708 12.6246C65.4281 12.7279 65.0496 12.9393 64.9939 12.9835C64.9185 13.0212 64.8415 13.0638 64.7661 13.1015C64.753 13.108 64.7432 13.1162 64.7399 13.1244C64.7219 13.1588 64.7186 13.1883 64.7268 13.2195C64.7334 13.244 64.753 13.2621 64.776 13.2719C64.8022 13.2817 64.83 13.2948 64.8513 13.3079C64.8595 13.3112 64.8661 13.3129 64.8743 13.3145C65.066 13.3489 65.243 13.4063 65.4412 13.403C65.5822 13.3784 65.7263 13.3489 65.8607 13.3325C66.1032 13.3161 66.3572 13.3178 66.5997 13.2555C66.9078 13.1703 67.1749 12.9147 67.383 12.6541C67.5124 12.4919 67.6238 12.333 67.6271 12.1396C67.6271 12.0528 67.5878 11.9922 67.5731 11.9151C67.5304 11.7775 67.5943 11.6579 67.4551 11.5383C67.3994 11.4989 67.3584 11.4285 67.2814 11.3891C67.2502 11.3678 67.2207 11.34 67.188 11.3121C67.188 11.3121 67.1175 11.2679 67.0913 11.2466C67.0831 11.2417 67.0733 11.2384 67.0634 11.24C66.9782 11.2466 66.639 11.281 66.5424 11.3203C66.5227 11.3285 66.4686 11.3515 66.4457 11.3547C66.4359 11.3613 66.4228 11.3678 66.4146 11.376C66.3179 11.4498 66.0885 11.4727 66.0852 11.4825C66.0524 11.4809 65.9853 11.4809 65.9853 11.4809C65.9656 11.4596 65.9525 11.4055 65.959 11.3793C65.9377 11.3646 66.0246 11.2482 66.0426 11.2204C66.1934 10.9762 66.2228 10.7878 65.9984 10.5944L65.8787 10.5256C65.8443 10.5322 65.8099 10.5387 65.7739 10.5485C65.7706 10.5551 65.6936 10.6059 65.6575 10.6272C65.5182 10.7173 65.4347 10.8074 65.2659 10.7763C65.2479 10.773 65.2331 10.7534 65.2331 10.7337V10.6911C65.2299 10.6731 65.2331 10.6534 65.2397 10.637C65.2544 10.6092 65.2626 10.5879 65.2626 10.5617C65.261 10.5485 65.2725 10.5207 65.2692 10.5109C65.2692 10.4978 65.2725 10.4863 65.2757 10.4781C65.3167 10.3765 65.2118 10.3159 65.1365 10.2569C65.1234 10.252 65.1102 10.2421 65.0922 10.2389C65.0594 10.2307 65.0119 10.2208 65.0005 10.2176C64.9808 10.2176 64.9677 10.2208 64.948 10.2225C64.8333 10.2159 64.83 10.2815 64.7399 10.3306C64.7039 10.3437 64.6629 10.3585 64.6187 10.3765L64.6121 10.3781C64.5449 10.3306 64.5924 10.2159 64.6318 10.1438C64.6416 10.1225 64.64 10.0963 64.6219 10.0799C64.5728 10.0389 64.5138 9.98487 64.4843 9.95702C64.4712 9.94719 64.4564 9.94063 64.44 9.93735C64.3974 9.9308 64.3401 9.91114 64.2762 9.91769C64.0189 9.94227 63.5142 10.3437 63.4061 10.424C63.3766 10.447 63.3455 10.4715 63.3127 10.4978C63.3127 10.4978 63.2357 10.56 63.1751 10.5993C63.1456 10.6223 63.121 10.6452 63.098 10.6731C63.0243 10.7665 62.7589 11.0516 62.6655 11.1401C62.6474 11.1565 62.6311 11.1745 62.6147 11.1958C62.5377 11.3007 62.4672 11.3367 62.3869 11.4383C62.2919 11.5497 62.2116 11.7152 62.087 11.789C62.0526 11.8348 62.0379 11.8693 61.9871 11.8922C61.9789 11.8988 61.9723 11.925 61.9707 11.9397C61.9527 12.0249 61.9215 12.2625 61.9592 12.3395L61.9625 12.3412C61.8478 12.5067 61.561 12.233 61.5561 12.2297C61.4431 12.1544 61.3136 12.0085 61.1825 11.9528C61.0498 11.9053 60.8745 11.8201 60.7729 11.8611C60.7204 11.884 60.6467 11.902 60.5894 11.9184C60.4583 11.9823 60.2305 12.0839 60.1387 12.1904C59.9356 12.428 59.8159 12.7623 59.5915 12.9655C59.5833 12.9819 59.5685 12.9999 59.5554 13.0212C59.5013 13.1211 59.5325 13.2391 59.5718 13.3391C59.6062 13.3915 59.6423 13.4407 59.6767 13.4947C59.6996 13.5095 59.7225 13.5341 59.7455 13.5505C59.9995 13.6652 60.2731 13.4931 60.4517 13.3243C60.5255 13.2588 60.5681 13.1703 60.6533 13.1506C60.7024 13.1343 61.4594 13.326 61.5496 13.3702C61.5742 13.3833 61.7446 13.4063 61.8724 13.4259C61.9527 13.4374 62.033 13.4587 62.1067 13.4898C62.3082 13.5734 62.5065 13.6635 62.7081 13.7487C62.8211 13.8257 62.9457 13.8765 63.062 13.9388C63.2046 14.006 63.3225 14.0977 63.4602 14.178C63.5913 14.2354 63.7191 14.296 63.8502 14.3534C63.8764 14.3632 63.9026 14.3829 63.9305 14.3943C64.1451 14.4877 64.3843 14.5303 64.6056 14.6008C64.64 14.6123 64.6645 14.6221 64.6924 14.6385C64.8579 14.7515 65.0922 14.745 65.2626 14.8302C65.243 14.863 65.2266 14.8892 65.2086 14.9138C65.1807 14.958 65.102 15.0219 65.0955 15.035C65.0857 15.0481 65.0283 15.0612 64.9972 15.0727C64.9857 15.0776 64.9791 15.0875 64.9726 15.0989C64.9677 15.1088 64.9611 15.1186 64.9546 15.1317C64.9447 15.1497 64.948 15.1727 64.9611 15.189C64.9808 15.2103 65.0054 15.2398 65.0185 15.2628C65.0218 15.2677 65.0283 15.2743 65.0283 15.2743C65.1299 15.3644 65.2725 15.4643 65.3773 15.5397C65.3954 15.5512 65.7313 15.6757 65.9459 15.6692C65.9967 15.6692 66.0393 15.6741 66.0819 15.6757C66.1802 15.6741 66.2507 15.6151 66.3113 15.5463C66.5473 15.2972 66.5047 15.0891 66.4949 14.786Z" fill="#9D1E23"/>
<path fill-rule="evenodd" clip-rule="evenodd" d="M63.8345 16.2247C63.7968 16.1853 63.7182 16.1427 63.6412 16.1116C63.5707 16.0821 63.5035 16.0411 63.4576 15.9822C63.4232 15.9379 63.338 15.9068 63.3053 15.8937C63.2872 15.8773 63.2741 15.8609 63.2577 15.8494L63.261 15.8429C63.338 15.8248 63.4019 15.8035 63.4724 15.7904C63.9984 15.6364 64.1639 15.4414 63.9296 14.9236C63.8788 14.8188 63.8296 14.668 63.6936 14.6123L63.6264 14.568C63.6068 14.5517 63.5887 14.5353 63.5642 14.5205C63.5543 14.514 63.4544 14.4845 63.4462 14.4812C63.4249 14.4714 63.4019 14.4665 63.379 14.4583C63.3282 14.4239 63.2774 14.3911 63.2315 14.3599C63.2201 14.3501 63.2102 14.3468 63.2004 14.3419C63.0496 14.2387 62.4302 14.0912 62.2074 14.0814C62.1828 14.0781 62.1582 14.0748 62.1353 14.065C62.0992 14.0503 62.0583 14.0306 62.0452 14.024C61.8469 13.9274 61.4012 14.0404 61.3537 14.2895C61.3439 14.3468 61.4602 14.7057 61.5012 14.7303C61.7404 14.7483 61.9846 14.763 62.2189 14.7794C62.3401 14.7991 62.4515 14.8925 62.5646 14.9482C62.6285 14.9744 62.7481 15.0056 62.7776 15.0777C62.817 15.1612 62.7301 15.23 62.681 15.2858C62.5466 15.4447 62.4253 15.6725 62.2008 15.5283C62.1337 15.4857 61.937 15.3972 61.937 15.3972C61.8682 15.3497 61.6159 15.3431 61.5208 15.3202C61.4389 15.2661 60.7015 15.2743 60.6212 15.33C60.5491 15.3775 60.5344 15.4824 60.5278 15.5578C60.5 15.7609 60.477 15.9527 60.7081 16.069C60.713 16.0723 60.7179 16.0756 60.7245 16.0821C60.8375 16.1575 60.9817 16.1903 61.1046 16.2247C61.2193 16.3017 61.6224 16.2804 61.7797 16.3099C61.8535 16.3541 61.9223 16.3918 61.9977 16.4311C62.0534 16.4573 62.1304 16.4639 62.1124 16.5327C62.1025 16.5393 61.8567 16.7031 61.7437 16.7818C61.4536 16.9653 61.2963 17.0128 61.0047 16.7359C60.9145 16.6638 60.8277 16.5917 60.7491 16.5212C60.6016 16.4213 60.2886 16.264 60.2919 16.536C60.2919 16.536 60.346 16.6966 60.3296 16.7408C60.2853 16.7834 60.2394 16.8342 60.1952 16.8752C60.1952 16.8752 60.1395 16.9342 60.1133 16.9686C60.0264 17.0784 60.1133 17.1603 60.1313 17.2668C60.1247 17.3045 60.1215 17.3405 60.1182 17.375C60.1215 17.4421 60.1985 17.5552 60.2362 17.6093C60.2493 17.6273 60.2657 17.6437 60.2853 17.6601C60.364 17.7207 60.4328 17.8043 60.5311 17.8551C60.8195 18.0025 61.1734 18.0124 61.4946 17.9288C61.5372 17.9124 61.5749 17.8977 61.6142 17.8796C61.6454 17.8649 61.6781 17.8551 61.7125 17.8518C61.7519 17.8452 61.7879 17.842 61.824 17.8354C61.8584 17.8288 61.8912 17.8256 61.9239 17.8288C62.0288 17.842 62.3483 17.7076 62.4007 17.6699C62.481 17.6142 62.563 17.5568 62.6433 17.5028C62.7481 17.4356 62.8366 17.3504 62.9104 17.2242C62.9562 17.1357 63.0185 16.9653 63.1152 16.9014C63.1742 16.8637 63.2807 16.9129 63.3413 16.9243C63.6936 16.9882 63.9459 16.8785 63.9033 16.4786C63.8984 16.3918 63.9033 16.2935 63.8345 16.2247Z" fill="#9D1E23"/>
<path fill-rule="evenodd" clip-rule="evenodd" d="M53.0295 9.25275C53.0295 9.25275 53.1474 9.08889 53.2081 9.01352C53.326 8.83655 52.9574 8.5711 52.8345 8.54488C52.823 8.5416 52.805 8.55143 52.7902 8.55799C52.7476 8.55799 52.7001 8.57929 52.6542 8.58093C52.6264 8.58257 52.5395 8.5711 52.5182 8.5711C52.4953 8.5711 52.4265 8.56946 52.415 8.56782C52.3314 8.55471 52.2479 8.5924 52.1708 8.60387C52.1233 8.59568 51.9955 8.56946 51.989 8.56454L51.9857 8.56126C51.9644 8.53341 51.9857 8.48753 51.9857 8.45803C52.0086 8.34661 52.0824 8.1893 52.1659 8.11065C52.2741 8.0107 52.4052 7.96154 52.4953 7.84848C52.7476 7.51257 52.9656 7.17174 53.1474 6.78503C53.1409 6.73915 53.1343 6.68999 53.1311 6.65067C53.1048 6.60315 53.0868 6.55727 53.059 6.52122C53 6.28854 53.0475 6.18203 52.8017 6.10665C52.7804 6.1001 52.7558 6.1001 52.7312 6.10829C52.7132 6.11485 52.6886 6.12468 52.6641 6.12468C52.4723 6.13615 51.9185 6.65886 51.7235 6.89809C51.6907 6.93906 51.6645 6.98658 51.6465 7.03737C51.6301 7.08325 51.617 7.1275 51.6023 7.1701C51.5416 7.27661 51.4843 7.38639 51.4253 7.49454C51.4089 7.52404 51.3991 7.55517 51.3909 7.58794C51.3237 7.83209 51.1254 8.02872 51.0287 8.24338C51.0222 8.25321 51.014 8.2696 51.0074 8.27615C50.7961 8.60059 50.5896 8.66941 50.4421 8.7071C50.4274 8.71038 50.4012 8.7071 50.3815 8.70382C50.1849 8.67597 50.0489 8.5924 49.8637 8.60878C49.8572 8.61206 49.6982 8.63172 49.6785 8.63828C49.5917 8.65958 49.5278 8.72185 49.4852 8.78084C49.3754 8.91684 49.2804 9.06759 49.3394 9.25767C49.359 9.31338 49.3295 9.39039 49.359 9.44119C49.4115 9.53295 49.8572 9.62307 49.9833 9.67879C50.039 9.70337 50.1046 9.75416 50.0964 9.83281L50.0931 9.84428C50.0849 9.86067 50.0685 9.86886 50.0603 9.88197C49.9833 9.98193 49.8637 10.113 49.8162 10.1999C49.7932 10.2343 49.7687 10.2638 49.7359 10.2883L49.7195 10.2982C49.6687 10.3473 49.6196 10.4014 49.572 10.4489C49.4672 10.5735 49.3525 10.7193 49.2328 10.8274C49.1083 10.9323 48.951 10.9929 48.815 11.0732C48.7183 11.1437 48.6249 11.2109 48.5332 11.2846C48.389 11.3583 48.2382 11.4386 48.0907 11.5206C48.0137 11.5845 47.9334 11.6533 47.8564 11.7188C47.8089 11.7451 47.7614 11.7614 47.7171 11.8057L47.704 11.8516C47.7008 11.8729 47.6942 11.8892 47.6844 11.9024C47.6745 11.9122 47.6811 11.9695 47.6778 11.9908C47.6696 12.0203 47.6778 12.04 47.6696 12.0662C47.6565 12.1072 47.6696 12.1547 47.6844 12.1957C47.6942 12.2317 47.7286 12.2579 47.7647 12.2628C48.0875 12.3055 48.3447 12.1891 48.6315 12.081C48.7544 12.04 48.8707 12.0154 48.9903 11.9433C49.069 11.8811 49.1427 11.8188 49.2165 11.7647C49.3607 11.6631 49.5016 11.5697 49.6425 11.473C49.8309 11.3075 49.9915 11.1109 50.1767 10.9487C50.2652 10.8881 50.3504 10.8291 50.4372 10.7635C50.5732 10.6357 50.7092 10.503 50.8485 10.3703C51.0681 10.1376 51.2205 9.78366 51.5023 9.6198C51.7235 9.49199 51.9185 9.40514 52.1659 9.37729C52.456 9.34615 52.7984 9.49199 53.0295 9.25275Z" fill="#9D1E23"/>
<path fill-rule="evenodd" clip-rule="evenodd" d="M53.4461 12.533C53.3724 12.5019 53.297 12.4724 53.2217 12.4396C53.2004 12.4183 53.1741 12.3954 53.1479 12.3691C53.1479 12.3691 53.0431 12.2806 52.9824 12.2479C52.9054 12.2135 52.8038 12.2102 52.7317 12.1709C52.5695 12.0873 52.5089 11.9955 52.3712 11.8825C52.3221 11.8481 52.2778 11.8186 52.2303 11.7842C52.1812 11.7104 52.1304 11.6219 52.0796 11.54C51.9796 11.4073 51.8747 11.2713 51.7666 11.1467C51.724 11.0959 51.6945 11.032 51.6388 10.9993C51.57 10.9616 51.4651 10.9517 51.3832 10.9321C51.1046 11.0681 51.0112 11.3516 51.0456 11.6695C51.0489 11.7137 51.0128 11.7547 51.0391 11.7973C51.1325 11.9251 51.4045 12.1135 51.4405 12.2839C51.4405 12.2839 51.6699 12.7067 51.7158 12.7657C51.8108 12.8755 52.2778 13.1475 52.2975 13.1606C52.4564 13.2605 52.6645 13.2736 52.8595 13.3375C52.9054 13.3523 52.9447 13.3244 52.989 13.3441C53.0218 13.3588 53.0611 13.3621 53.0971 13.3588C53.1709 13.3556 53.2905 13.3523 53.3855 13.3523C53.4937 13.349 53.6002 13.3244 53.6969 13.2818C53.7182 13.2704 53.7427 13.2589 53.7624 13.2491C53.7788 13.2409 53.7919 13.231 53.8083 13.2179C53.8279 13.1983 53.8935 13.1802 53.9132 13.1507C53.9361 13.1212 54.0344 13.0999 54.0606 13.0492C54.0967 12.9836 54.0639 12.9525 54.041 12.8918C53.9394 12.6035 53.7149 12.6379 53.4461 12.533Z" fill="#9D1E23"/>
<path fill-rule="evenodd" clip-rule="evenodd" d="M62.5952 41.1026C62.528 41.3206 62.4002 42.3185 62.2839 42.4954C62.2199 42.5905 62.238 42.8346 62.1544 43.0132C62.0348 43.2721 61.8824 43.9194 61.7759 44.1406C61.6759 44.3569 61.7218 44.2651 61.6415 44.4339C61.5514 44.6076 61.5039 44.8862 61.4531 45.0549C61.3892 45.2221 61.3367 45.3876 61.2515 45.5989C61.1712 45.8038 61.1172 46.0758 60.9631 46.3281C60.8157 46.5886 60.8599 46.6296 60.7272 46.8181C60.5977 46.9917 60.6338 46.9115 60.5142 47.1458C60.406 47.3588 60.406 47.2818 60.2372 47.5194C60.0291 47.7783 60.0095 47.8291 59.862 47.9356C59.7375 48.0568 59.6867 48.0962 59.626 48.1404C59.0689 48.5943 58.3348 49.3022 58.2234 49.3431C58.1022 49.3956 57.84 49.625 57.7138 49.7249C57.5942 49.8265 57.4844 49.8593 57.3861 49.9478C57.2829 50.0313 57.0502 50.169 57.0502 50.169C57.0502 50.169 56.8568 50.3541 56.7044 50.3836C56.5504 50.4246 56.1244 50.6819 56.0261 50.7195C55.9228 50.7425 55.8556 50.8064 55.7049 50.9145C55.5427 51.0079 55.4706 51.1063 55.3018 51.1898C55.1265 51.2406 54.2941 51.4176 54.0368 51.529C53.7877 51.6535 53.5223 51.6535 53.288 51.7879C53.052 51.9141 53.052 51.8944 52.9521 51.8879C52.8505 51.8649 52.7505 51.8649 52.6997 51.8649C52.6358 51.8649 52.6866 51.824 52.6325 51.6027C52.585 51.3914 52.5047 50.6393 52.5178 50.3967C52.5178 50.1313 52.4834 50.0313 52.4834 50.0313C52.4834 50.0313 52.4916 48.7287 52.9471 47.9798C53.3978 47.2408 53.4781 46.9459 53.5698 46.723C53.6534 46.5116 53.7435 46.4723 53.8779 46.1528C53.9926 45.8103 54.412 44.8862 54.4219 44.5109C54.4317 44.1553 54.4628 43.6179 54.5136 43.4737C54.5726 43.3147 54.6972 43.1804 54.6972 42.9051C54.7086 42.6036 54.7086 42.4184 54.7217 42.094C54.7217 41.7712 54.748 40.7864 54.748 40.7864C54.7758 40.6324 54.9298 40.575 55.0364 40.575C55.1265 40.5914 55.2625 40.593 55.3985 40.6701C55.5247 40.7471 56.0408 40.8683 56.2342 40.8683C56.4095 40.8683 56.9912 40.8634 57.2255 40.7864C57.4647 40.7028 59.3442 40.67 59.4884 40.593C59.6211 40.539 60.4863 40.5144 60.7223 40.5144C60.9566 40.539 61.8824 40.7127 62.1102 40.6799C62.3494 40.6586 62.3756 40.5914 62.4362 40.6586C62.5067 40.7127 62.6591 40.888 62.5952 41.1026ZM52.082 42.13C51.9804 42.3578 52.0279 42.9559 51.9705 43.0837C51.9296 43.2213 51.8673 43.3885 51.8378 43.5704C51.7936 43.7522 51.692 44.7125 51.3118 45.3138C50.9366 45.907 50.9022 46.1331 50.7285 46.3445C50.5499 46.5624 50.604 46.6296 50.4761 46.9917C50.35 47.3408 50.0124 47.9929 49.9993 48.2305C49.9993 48.4632 49.9125 48.9368 49.8781 49.212C49.86 49.507 49.7175 49.6823 49.7175 49.7987C49.7175 49.9232 49.7404 49.9297 49.6339 50.3197C49.5372 50.7425 49.5962 50.7933 49.647 51.1063C49.7076 51.5831 49.842 52.0452 49.8289 52.1156C49.801 52.2074 49.4045 52.291 48.872 52.291C48.3411 52.2779 47.8708 52.3942 47.7364 52.3844C47.6021 52.3712 47.4808 52.3008 47.199 52.3008C46.9171 52.291 46.0847 52.4614 45.9667 52.4515C45.834 52.4319 45.6996 52.4089 45.4457 52.345C45.2048 52.291 45.1884 52.291 44.8328 52.291C44.4887 52.2779 44.4281 52.0992 44.4281 52.0992C44.4281 52.0992 44.3822 51.452 44.4707 51.1652C44.5707 50.8736 44.5707 50.89 44.6083 50.6999C44.6706 50.4983 44.705 50.3738 44.8263 50.0772C44.9475 49.7724 45.0147 49.7249 45.0901 49.4972C45.1655 49.2514 45.5833 48.396 45.6325 48.1945C45.6783 48.0093 45.9848 47.4866 46.0749 47.0999C46.1617 46.7099 46.4042 46.3576 46.5321 45.9512C46.6566 45.5514 46.9909 44.7829 46.9581 44.0144C46.9171 43.2623 46.8335 42.3086 46.9138 42.0825C46.9777 41.8384 47.0023 42.0186 46.9777 41.5025C46.9335 40.9748 46.9384 40.8437 46.9384 40.8437V40.8011C47.0711 40.7864 47.4546 40.7864 47.5218 40.7864C47.5955 40.8011 47.8708 40.7028 48.11 40.6701C48.3411 40.6324 48.7474 40.6127 48.8916 40.5914C49.0407 40.5488 49.6765 40.5914 49.8961 40.5488C50.1075 40.5144 49.9731 40.5144 50.2074 40.5144C50.4434 40.539 51.8427 40.4406 51.8968 40.5717C51.9443 40.6799 52.0476 40.8683 52.0476 41.0797C52.0476 41.2665 52.1721 41.881 52.082 42.13ZM44.1037 43.2377C44.0938 43.5736 44.0725 43.59 44.0365 43.9866C43.9922 44.3995 43.9791 44.7829 43.8251 45.2892C43.6678 45.8038 42.4618 48.0699 42.3848 48.3485C42.2881 48.6271 42.1931 48.6647 42.1128 48.9728C42.0489 49.2792 41.8162 49.8462 41.808 50.0477C41.8063 50.2394 41.808 50.3197 41.749 50.477C41.6949 50.6393 41.7375 50.4508 41.7228 50.89C41.7162 51.3242 41.7457 51.3373 41.6949 51.4782C41.6458 51.6027 41.7162 51.4143 41.6458 51.6699C41.5688 51.9321 41.5687 52.019 41.5687 52.1959L41.554 52.3942L41.3279 52.5023C41.3279 52.5023 40.7986 52.4696 40.7183 52.4696C40.6184 52.4614 40.0072 52.3942 39.6106 52.2598C39.2141 52.1287 38.5603 52.1287 38.3473 52.055C38.1392 51.9878 37.8049 51.9927 37.6804 51.9518C37.5362 51.9255 37.274 51.783 36.7562 51.683C36.2433 51.5864 35.95 51.4782 35.8435 51.3946C35.7386 51.3373 36.1729 50.89 36.281 50.477C36.3941 50.0477 36.4481 50.0576 36.5596 49.9134C36.6841 49.7593 36.961 49.0269 37.0905 48.8417C37.2265 48.6582 37.3477 48.1076 37.4428 47.9094C37.5198 47.7045 37.7246 47.1572 37.8917 46.741C38.1064 46.2167 38.2146 45.4777 38.3473 44.6191C38.4784 43.7998 38.3899 43.4737 38.3473 43.1804C38.3047 42.8887 38.3473 42.5036 38.3047 42.2284C38.267 42.0186 38.0327 41.4123 37.9851 41.3206C37.9425 41.2108 37.8606 40.965 37.7246 40.7471C37.6066 40.5144 37.6394 40.4177 37.6394 40.4177C37.7508 40.344 37.7377 40.3882 38.0523 40.3882C38.3751 40.38 38.267 40.3882 38.5734 40.3833C38.8749 40.38 38.9028 40.38 39.1846 40.4652C39.4664 40.5488 40.8789 40.5144 41.2886 40.4947C41.6851 40.4652 42.0652 40.4652 42.2062 40.4849C42.3586 40.4849 42.6388 40.5488 43.0189 40.5488C43.3974 40.539 43.8415 40.5144 43.8792 40.8011C43.925 41.0895 43.966 41.0617 43.9529 41.2239C43.9529 41.3878 44.0266 41.9662 44.0201 42.1595C44.0201 42.348 44.1135 42.5102 44.1135 42.7248C44.1069 42.9559 44.1069 42.9297 44.1037 43.2377ZM35.3159 46.0283C35.1684 46.4051 35.1684 46.5329 35.0521 46.8181C34.9538 47.072 34.1508 48.786 33.9231 49.0498C33.7002 49.3054 33.674 49.2383 33.5626 49.5414C33.4528 49.8462 33.4987 49.7724 33.2906 49.7593C33.1005 49.7593 33.1906 49.8839 32.8187 49.6823C32.4598 49.4972 32.4352 49.625 32.2468 49.484C32.0649 49.3431 32.096 49.3857 31.9224 49.3366C31.7306 49.2792 31.9781 49.3562 31.6438 49.1547C31.3275 48.9368 31.0654 48.786 30.9179 48.7155C29.5103 48.006 28.419 46.4051 28.229 46.0283C28.1012 45.73 27.4523 44.914 27.3408 44.5617C27.2311 44.1947 26.7575 43.064 26.6297 42.6642C26.4953 42.271 26.1332 40.888 26.1332 40.7028C26.1332 40.5144 26.22 40.4013 26.22 40.4013C26.22 40.4013 26.4281 40.3882 26.5805 40.344C26.728 40.2735 27.3441 40.3505 27.4834 40.3178C27.6161 40.2899 29.9741 40.3505 30.192 40.3702C30.4116 40.3702 32.6007 40.38 32.9694 40.3882C33.3414 40.3882 34.1279 40.2735 34.3163 40.3243L34.903 41.1321C34.9603 41.3878 35.2634 42.425 35.2487 42.7248C35.2389 43.0329 35.3765 43.0837 35.4011 43.3147C35.4273 43.5409 35.4142 43.7359 35.4109 44.0341C35.4109 44.3225 35.6764 45.0353 35.3159 46.0283ZM65.8117 36.0296C65.7806 35.7543 65.8576 35.32 65.838 35.1922C65.8117 35.0562 65.8052 34.8236 65.8117 34.5597C65.8117 34.3008 65.8953 34.4237 65.8527 34.1321C65.7904 33.7798 65.8724 32.8605 65.3136 32.4705C65.1006 32.3083 64.8925 32.2264 64.6778 32.1379C64.4583 32.0609 64.0994 31.9511 63.9339 32.0576C63.7635 32.1657 63.6603 32.1657 63.5488 32.2952C63.4374 32.4279 63.5488 32.4525 63.3801 32.5574C63.2064 32.6491 62.9852 32.8867 62.9508 33.1456C62.9163 33.3865 62.8934 33.7388 62.8869 33.8748C62.8869 34.0124 62.8836 34.1616 62.8623 34.3303C62.8311 34.5089 62.9508 34.5696 62.9704 34.8039C62.9901 35.0267 63.0114 35.0251 63.031 35.1152C63.054 35.2103 63.1064 35.3512 63.1064 35.3512C63.1064 35.3512 63.1589 35.5167 63.131 35.6904C63.1179 35.8739 63.031 36.7178 62.9163 36.9865C62.8131 37.2454 62.759 37.3355 62.7181 37.4224C62.6886 37.5272 62.6148 37.4863 62.5608 37.7173C62.5001 37.9631 62.5346 38.0876 62.4248 38.1384C62.3969 38.1515 62.3527 38.1614 62.2691 38.2089C62.1118 38.299 62.0856 38.3219 61.9299 38.3219C61.7693 38.3219 61.6726 38.3121 61.4727 38.3432C61.2761 38.3793 61.245 38.3383 61.0303 38.3826C60.8058 38.4399 60.6338 38.4399 60.56 38.4399C60.4863 38.4399 60.3388 38.3383 60.1406 38.3219C59.9357 38.3121 59.8423 38.299 59.6637 38.299C59.4884 38.299 59.4556 38.2859 59.2541 38.2679C59.0525 38.258 59.046 38.2285 58.8297 38.2449C58.6134 38.258 57.7564 38.4661 57.5713 38.4661C57.3861 38.4661 56.9912 38.4072 56.924 38.4203C56.8634 38.4399 56.8027 38.4399 56.5012 38.4399C56.2145 38.4399 56.1653 38.4399 55.9769 38.4661C55.7655 38.4694 55.6033 38.4399 55.4198 38.4399H54.7758C54.6496 38.4399 54.5497 38.4399 54.4628 38.4022C54.3858 38.3793 54.2646 38.1483 54.2367 38.0368C54.2039 37.9287 54.163 37.8599 54.0991 37.7386C54.0221 37.6337 53.5993 37.1602 53.5288 36.8554C53.4551 36.5637 52.8931 35.8444 52.8193 35.6199C52.7456 35.4085 52.4916 34.9448 52.4687 34.7908C52.4408 34.622 52.3441 34.0583 52.3097 33.8617C52.2835 33.6651 52.1983 33.1522 52.2114 32.7655C52.2229 32.4066 52.2524 32.0674 52.236 31.8855C52.236 31.7151 52.2524 31.7594 52.2524 31.4956C52.2524 31.2416 52.2835 31.2744 52.2966 31.081C52.2966 30.8893 52.2966 31.0089 52.3245 30.7533C52.3638 30.5091 52.3982 30.6042 52.4162 30.4551C52.431 30.2797 52.5588 29.6735 52.6145 29.5555C52.6702 29.4244 52.7735 29.1884 52.8406 28.9918C52.9177 28.8001 52.9471 28.7034 52.9783 28.5543C53.0274 28.4134 53.5059 27.7448 53.542 27.4777C53.5829 27.2156 53.7501 27.0107 53.755 26.7846C53.755 26.5716 53.755 26.6994 53.7877 26.4831C53.8303 26.275 54.0499 25.6573 54.0499 25.4492C54.0597 25.2542 54.1089 25.205 54.1187 24.9658C54.1237 24.7282 54.2236 24.543 54.2367 24.3333C54.2547 24.1301 54.163 23.337 54.1728 22.9749C54.1777 22.6078 54.2039 22.8635 54.163 22.498C54.1302 22.1359 54.1892 22.208 54.1089 22.0147C54.0368 21.8229 53.9172 21.1413 53.8779 20.9037C53.8189 20.6579 53.7681 20.6251 53.696 20.3859C53.5993 20.1467 53.6222 20.1467 53.5829 19.9533C53.542 19.76 53.442 19.701 53.3633 19.5093C53.3044 19.3339 53.3306 19.4109 53.1995 19.2209C53.0618 19.0259 52.1786 18.2066 51.8608 18.2328C51.5412 18.259 51.3528 18.1754 51.184 18.3164C51.0169 18.4606 50.6253 18.708 50.6072 18.921C50.5908 19.1209 50.5482 19.3847 50.5499 19.5863C50.5663 19.7682 50.604 19.8271 50.6302 19.973C50.6613 20.1368 51.0447 20.8267 51.1316 21.0708C51.225 21.3232 51.184 21.4166 51.2381 21.587C51.2938 21.723 51.4101 21.8229 51.4101 22.0278C51.4101 22.249 51.4265 22.1081 51.4101 22.4227C51.4101 22.7356 51.4527 23.065 51.4527 23.3239C51.4527 23.6057 51.456 23.5828 51.4527 23.8909C51.4396 24.2005 51.4527 24.2104 51.4331 24.4316C51.4101 24.643 51.302 24.9477 51.3118 25.1493C51.32 25.3574 51.2659 25.4885 51.2479 25.6048C51.2266 25.8342 51.2266 25.7277 51.0906 26.003C50.953 26.2947 50.9366 26.3143 50.8842 26.5437C50.8121 26.8502 50.5368 27.5777 50.5073 27.6645C50.4761 27.7628 50.3729 27.7891 50.3401 28.0889C50.309 28.3544 50.2648 28.3691 50.2025 28.5002C50.1353 28.6264 49.9321 29.1327 49.8781 29.3883C49.8355 29.6734 49.8289 29.6308 49.7945 29.8373C49.7502 30.047 49.7076 30.6042 49.6765 30.7041C49.6274 30.809 49.6241 30.8614 49.5962 31.1433C49.5831 31.4415 49.5536 31.4251 49.4995 31.6004C49.3521 32.2264 49.3947 33.5586 49.4045 33.3062C49.4045 33.1784 49.4455 33.6651 49.4504 33.9305C49.4504 34.1829 49.4815 34.4237 49.5536 34.5958C49.6126 34.7629 49.801 35.3954 49.8781 35.5527C49.9584 35.6904 49.9944 35.7035 50.0665 35.8919C50.1353 36.0836 50.2549 36.2082 50.3008 36.3524C50.3483 36.5031 50.3729 36.4933 50.5073 36.6784C50.6449 36.8554 50.6613 36.8423 50.7285 36.9963C50.7891 37.1635 50.8907 37.2585 50.9431 37.46C50.9972 37.6714 50.9972 37.5764 51.0546 37.7878C51.1037 37.9975 51.125 38.0368 51.1037 38.0647C51.0906 38.0811 51.0546 38.0844 50.9169 38.0844C50.7727 38.0844 50.7547 38.1384 50.6613 38.1384C50.5499 38.1483 50.486 38.1581 50.3893 38.1483C50.2844 38.1384 50.0829 38.1384 49.9633 38.1384C49.842 38.1483 49.4291 38.1384 49.4291 38.1384C49.4291 38.1384 49.2112 38.104 48.949 38.0647C48.6999 38.027 48.6196 38.0106 48.3591 38.0106C48.0985 38.0041 47.7676 37.9631 47.6791 37.9631C47.6021 37.9631 47.3612 37.95 47.1449 37.95C46.9335 37.9631 46.7205 37.9631 46.5615 37.9631C46.4042 37.9631 46.396 37.9696 46.3502 37.9631C46.2961 37.95 45.8701 37.3748 45.8225 37.1028C45.7701 36.8423 45.6144 36.7325 45.5718 36.6784C45.5407 36.6145 45.4063 36.3524 45.4063 36.3524C45.4063 36.3524 44.8689 35.7985 44.7706 35.6068C44.6821 35.4085 44.628 35.5281 44.5133 35.3102C44.4068 35.0857 44.3888 35.0562 44.2839 34.8678C44.1741 34.6564 44.0053 34.4516 43.9922 34.2599C43.9791 34.0665 43.8923 33.652 43.8923 33.4242C43.9021 33.203 44.0627 32.8605 44.0807 32.6754C44.1037 32.5131 44.12 32.3919 44.12 32.3919C44.12 32.3919 44.2069 32.1281 44.2233 32.0101C44.2478 31.9069 44.2741 31.8413 44.2741 31.8413L44.5412 31.3858C44.5412 31.3858 44.7591 30.5796 44.7853 30.4551C44.8132 30.3272 44.9361 29.8881 45.0295 29.6521C45.1311 29.3883 45.2048 29.3031 45.2113 29.1573C45.2277 29.0049 45.5653 28.0414 45.5718 27.8595C45.5866 27.6891 45.7554 27.0714 45.7947 26.8633C45.8406 26.642 45.8701 26.7453 45.8701 26.4929C45.8864 26.2291 46.0044 25.8621 46.0077 25.5065C46.0208 25.1591 46.0306 25.2869 46.0077 24.9953C45.9848 24.7069 45.9536 24.7741 45.9667 24.5561C45.9667 24.3415 45.9094 24.0891 45.9504 23.8532C45.9717 23.6401 45.8799 23.1191 45.8963 22.8635C45.9307 22.6078 45.9307 22.7799 45.9143 22.344C45.9045 21.9032 45.9307 21.9966 45.8701 21.7656C45.7947 21.5182 45.6685 21.1806 45.6325 20.9397C45.5948 20.689 45.6505 20.671 45.5128 20.4596C45.3588 20.2401 45.3588 19.855 45.2867 19.7616C45.2245 19.6616 45.0819 19.4994 44.9901 19.1701C44.882 18.8243 44.9262 18.9718 44.7378 18.6457C44.5412 18.3262 44.6641 18.472 44.4215 18.2066C44.1807 17.9542 44.0725 17.8297 44.0021 17.7855C43.9218 17.7461 43.9496 17.7232 43.812 17.7232C43.6645 17.7052 43.6104 17.6265 43.5138 17.6265C43.4122 17.6265 43.4122 17.6019 43.2811 17.6265C43.1565 17.6265 43.2401 17.579 42.9583 17.6019C42.6797 17.6527 42.5585 17.7232 42.5486 17.7461C42.5191 17.7674 42.1619 18.2328 42.1226 18.2869C42.0947 18.3442 41.9784 18.3737 41.9948 18.6719C42.0095 19.0095 41.9702 19.0357 42.0095 19.2438C42.0652 19.4601 42.0489 19.3847 42.1455 19.5961C42.234 19.814 42.3848 19.9681 42.4618 20.1909C42.5224 20.4318 42.5224 20.4383 42.6387 20.6251C42.7469 20.8021 42.9419 21.0561 43.0025 21.2953C43.0582 21.5264 43.1713 21.8262 43.2041 21.9966C43.2614 22.1556 43.3302 22.1687 43.3646 22.4702C43.3974 22.7438 43.5236 23.5599 43.5138 23.7827C43.499 24.0056 43.5383 24.6823 43.5138 24.8216C43.499 24.9477 43.3646 25.5196 43.3302 25.7277C43.2909 25.9456 43.304 25.9293 43.227 26.1308C43.1467 26.3143 43.1107 27.0238 43.0582 27.168C42.991 27.3106 42.914 27.4941 42.8337 27.658C42.7616 27.8366 42.7403 27.8595 42.6863 28.0119C42.6388 28.1758 42.1718 28.9836 42.1455 29.1884C42.1226 29.4146 41.6359 30.4927 41.5819 30.8385C41.5343 31.1777 41.2935 31.82 41.2656 31.9183C41.2361 32.074 41.2033 31.974 41.1935 32.269C41.1935 32.541 41.069 33.1145 41.1017 33.4242C41.1427 33.7667 41.2181 34.4811 41.2656 34.7908C41.3279 35.0857 41.5081 35.3545 41.5687 35.5527C41.6294 35.7297 42.0112 36.5539 42.2422 36.9341C42.3635 37.134 42.7469 37.5879 42.7846 37.7648C42.8108 37.95 42.7141 37.9123 42.6732 37.95C42.6158 37.95 42.606 38.027 42.3176 38.0106C42.0489 38.0106 41.9374 37.9696 41.7097 38.0041C41.4639 38.0106 41.4016 38.027 41.2525 38.0106C41.0952 38.0041 41.0444 37.9975 40.8363 37.9696C40.6315 37.9631 40.5676 37.9287 40.4365 37.95C40.3038 37.9795 40.443 38.0106 40.0875 37.9696C39.7221 37.9287 38.285 37.832 38.1801 37.8599C38.0671 37.8599 38.3079 37.8828 38.0097 37.8599C37.7099 37.8599 37.9081 37.832 37.6197 37.832C37.3313 37.832 36.8611 37.7353 36.7169 37.7386C36.576 37.7648 36.5022 37.7353 36.3613 37.7353C36.2237 37.7386 35.7632 37.8189 35.6616 37.6403C35.5715 37.4633 35.5551 37.1061 35.4781 36.9406C35.3962 36.7669 35.0947 36.1246 35.0308 35.9345C34.9751 35.7772 34.8407 35.3545 34.7981 35.2512C34.7653 35.166 34.7456 34.9645 34.7211 34.7138C34.6981 34.4713 34.7178 33.6356 34.7522 33.5323C34.8014 33.4045 34.8374 33.1555 34.8554 33.0424C34.88 32.9408 35.1487 32.3198 35.229 32.1068C35.3093 31.9183 35.6616 31.2645 35.7091 31.1236C35.7567 31.004 36.0647 29.875 36.1614 29.6734C36.2532 29.4719 36.8676 28.243 36.9135 27.9939C36.961 27.7465 36.9954 27.8595 37.0413 27.6449C37.0757 27.4269 37.3445 26.1079 37.3445 26.1079C37.3445 26.1079 37.3903 25.7916 37.3903 25.6048C37.3903 25.4213 37.3838 25.5589 37.4018 25.2869C37.4084 24.9953 37.4493 24.679 37.4362 24.3611C37.4084 24.0613 37.156 23.5599 37.1495 23.1961C37.1331 22.8225 36.9348 22.208 36.9004 21.9491C36.8742 21.7099 36.8332 21.7656 36.8267 21.587C36.8004 21.4166 36.2433 20.0287 36.1122 19.814C35.9713 19.5961 35.8664 19.4175 35.7567 19.3847C35.6485 19.3519 35.2766 19.1602 35.2766 19.1602C35.0668 19.134 34.8456 18.9718 34.703 18.9816C34.5605 18.9915 34.531 19.0259 34.454 19.0357C34.3639 19.0586 34.2426 19.1602 34.0673 19.1996C33.8936 19.2372 33.9034 19.1996 33.8084 19.3339C33.715 19.4601 33.4921 19.624 33.4921 19.624C33.3758 19.855 33.1578 20.0631 33.2103 20.3072C33.2709 20.6071 33.2775 20.7661 33.3479 20.9152C33.4249 21.1134 33.7953 21.7295 33.9034 21.8524C34.0099 21.9671 34.0837 22.249 34.1689 22.4702C34.295 22.8045 34.4278 23.7008 34.4327 23.804C34.4704 24.099 34.5605 24.3611 34.5441 24.7069C34.5441 24.7839 34.531 25.5442 34.5031 25.7916C34.4868 26.0636 34.3852 27.0599 34.2918 27.1959C34.2492 27.2451 33.9493 28.6936 33.8493 28.9836C33.7953 29.0917 33.479 29.7079 33.2775 30.0094C33.1382 30.2207 32.3713 31.6463 32.2763 31.8561C32.1567 32.1477 31.865 33.5586 31.865 33.9043C31.8879 34.3549 31.865 35.166 31.9355 35.402C31.9584 35.4724 32.1468 35.8919 32.2943 36.2868C32.3713 36.4785 32.7843 37.5469 32.7072 37.6337C32.6876 37.7386 32.291 37.7878 32.0649 37.7878C31.7847 37.7648 30.8196 37.8156 30.6967 37.8599C30.5623 37.8992 28.8828 37.8156 28.6042 37.7648C28.3125 37.6976 28.2912 37.7173 28.1552 37.7173C28.0176 37.7075 27.0426 37.7353 26.8476 37.6534C26.669 37.5879 26.4429 37.6501 26.4429 37.6501C26.22 37.7173 26.0332 37.7648 25.9218 37.7353C25.8202 37.7075 25.6629 37.2782 25.6056 37.2241C25.5318 37.1438 25.5515 36.9996 25.486 36.8554C25.4679 36.8275 25.4221 36.4326 25.4401 36.2032C25.4679 35.9755 25.4188 35.8739 25.4188 35.7543C25.4188 35.6199 25.4188 35.5183 25.4007 35.3856C25.3794 35.2627 25.2992 34.622 25.2992 34.5597C25.2729 34.3549 25.2205 34.1927 25.2287 33.9305C25.2353 33.7437 25.2156 33.3537 25.155 33.2112C25.0943 33.0588 25.0271 32.8294 24.978 32.7655C24.9206 32.7196 24.7355 32.2264 24.5782 32.1657C24.4045 32.1051 24.1308 31.9265 24.0522 31.9511C23.9703 31.9511 23.5704 31.974 23.3492 32.0297C23.2083 32.0609 22.7315 32.3558 22.6348 32.3919C22.5365 32.3952 22.4496 32.5688 22.3956 32.636C22.2891 32.7786 22.1301 33.3062 22.117 33.3767C22.0564 33.6274 22.0072 33.6814 22.0072 33.8617C22.0072 33.9551 21.9826 34.1894 22.0269 34.391C22.0842 34.5696 22.1612 36.1885 22.1875 36.2868C22.2104 36.4048 22.2956 36.6965 22.3284 36.9619C22.348 37.0864 22.3759 37.0602 22.4496 37.4502C22.4939 37.6878 22.489 37.8828 22.5299 37.95C22.6348 38.0844 22.6545 38.2859 22.6446 38.4399C22.6446 38.6038 22.6135 38.6038 22.6545 38.8332C22.6905 39.0478 22.6545 39.0741 22.6856 39.2592C22.7315 39.5083 22.6856 39.2592 22.738 39.5853C22.8085 39.9147 23.0199 40.7864 23.0199 40.7864C23.0199 40.7864 23.1723 41.119 23.228 41.2108C23.2689 41.3075 23.282 41.468 23.282 41.5926C23.3361 41.858 23.4902 42.4315 23.4902 42.4594C23.4902 42.4954 23.6409 42.6642 23.7294 42.9362C23.8769 43.3999 24.1308 43.8489 24.2079 43.9603C24.316 44.1177 24.4782 44.8763 24.5274 44.9714C24.5847 45.0975 24.8862 45.8464 24.978 46.0151C25.0681 46.2167 25.486 46.8787 25.5286 47.0425C25.5728 47.1933 25.7268 47.4997 25.7629 47.58C25.8104 47.6636 26.0332 48.1076 26.1693 48.2879C26.22 48.3583 26.6461 48.7778 26.6641 48.8253C26.687 48.8516 27.7144 49.82 27.8013 49.9478C27.8767 50.0887 28.7844 50.7703 29.0548 51.0079C29.1204 51.0653 29.8692 51.7502 30.0036 51.783C30.1494 51.824 30.2362 51.8944 30.3329 51.9714C30.4329 52.0452 30.659 52.0861 30.6967 52.1156C30.8114 52.1828 31.8584 52.7481 31.9174 52.7678C31.9781 52.794 32.3336 53.1742 32.4549 53.1742C32.5696 53.1873 32.7285 53.2954 32.7957 53.3413C32.9366 53.4216 32.8957 53.7509 32.8957 53.7509C32.8957 53.7509 33.0071 54.5162 33.1169 54.7177C33.1742 54.7882 33.2103 55.088 33.248 55.1454C33.325 55.2585 33.6232 56.5153 33.7101 56.6595C33.7822 56.8102 33.715 56.7938 33.8198 56.9773C33.9231 57.1494 33.8264 57.0855 33.9706 57.3034C34.1148 57.5328 34.6621 58.5324 34.7456 58.7175C34.8407 58.9092 35.1143 60.0939 35.1143 60.0939C35.1143 60.2054 35.152 60.266 35.1487 60.4299C35.1487 60.5904 35.152 60.8231 35.1815 60.9542C35.2159 61.1312 35.2159 61.2655 35.2159 61.3868C35.2159 61.5015 35.1995 61.7637 35.1815 61.8702C35.175 61.9652 35.0783 62.7534 35.0471 63.0156C35.0242 63.2908 34.9751 63.6628 34.9603 63.7365C34.9537 63.8086 34.8456 64.2822 34.8456 64.2822C34.8456 64.2822 34.8374 64.3346 34.7784 64.51C34.7211 64.6804 34.7751 64.7623 34.6981 64.9868C34.6244 65.1916 34.4704 65.8061 34.4163 65.87C34.3688 65.9536 34.3098 66.2387 34.3098 66.2387C34.3098 66.2387 34.0984 66.7155 34.0837 66.8023C34.064 66.863 33.8936 67.2726 33.8493 67.5151C33.8116 67.7396 33.7625 67.8838 33.7527 67.9248C33.751 68.0182 33.751 68.4114 33.8084 68.5081C33.869 68.6195 33.8936 68.9882 33.8969 69.0226C33.9034 69.0423 34.1279 69.3749 34.1689 69.4552C34.2115 69.529 34.3966 69.5437 34.4327 69.5765C34.4704 69.6142 34.6621 69.6306 34.7325 69.6306C34.8292 69.6306 34.8014 69.6142 35.0242 69.6142C35.2487 69.606 35.719 69.4454 35.7632 69.4126C35.8976 69.3143 36.3449 69.0226 36.4481 68.8539C36.553 68.6802 36.7431 68.2902 36.8037 68.0395C36.8611 67.8035 37.0626 67.189 37.0626 67.189C37.0626 67.189 37.1183 67.1153 37.1495 66.881C37.1757 66.6794 37.197 66.4877 37.2166 66.3927C37.2363 66.2796 37.3313 65.7897 37.4018 65.6373C37.4247 65.5881 37.4247 65.5472 37.4247 65.4571C37.4362 65.3555 37.4362 65.09 37.5362 64.8819C37.5558 64.8114 37.5968 64.3887 37.6394 64.2822C37.6804 64.1511 38.0097 62.4715 37.9491 61.7227C37.9262 61.4671 37.9294 61.0509 37.9311 60.9542C37.9311 60.869 37.8786 59.9727 37.8852 59.9121C37.8852 59.8596 37.7852 59.5139 37.7787 59.4533C37.7508 58.8814 37.2232 57.7671 37.2166 57.677C37.2101 57.5721 37.0544 57.092 36.9741 56.9773C36.9348 56.9036 36.8267 56.6463 36.6759 56.3809C36.535 56.1023 36.6153 56.1761 36.5481 55.9467C36.4645 55.7254 36.4776 55.6681 36.4006 55.5206C36.3203 55.3928 36.1155 54.7652 36.1155 54.6555C36.1155 54.5473 36.1221 54.6817 36.1155 54.5735L36.1434 54.2786C36.1434 54.2786 36.4187 54.3458 36.5153 54.372C36.6153 54.4031 36.8611 54.5063 36.9709 54.5571C37.1085 54.6243 37.7787 54.7652 37.9655 54.8226C38.1703 54.9406 38.752 55.0651 38.8978 55.088C39.1305 55.0979 39.3042 55.1241 39.4091 55.1782C39.4812 55.1978 40.5725 55.2093 40.7658 55.2257C40.9543 55.229 41.3541 55.3502 41.3951 55.3502C41.4246 55.3502 42.0095 55.4076 42.0095 55.4076C42.0095 55.4076 42.0685 55.5649 42.0865 55.6992C42.1013 55.8172 42.1718 56.0171 42.1931 56.2269C42.2062 56.3629 42.4618 57.0855 42.4618 57.0855C42.4618 57.0855 42.5798 57.3509 42.6207 57.4279C42.6535 57.4919 42.7076 57.7868 42.8108 57.949C42.914 58.1162 42.9321 58.0899 43.0091 58.3046C43.0664 58.4963 43.2336 58.9797 43.2614 59.1304C43.2909 59.2812 43.3515 59.3549 43.3974 59.5401C43.4351 59.7122 43.7006 60.2627 43.7448 60.7559C43.7645 60.9673 43.771 61.141 43.8251 61.3393C43.8792 61.5277 43.8415 61.5408 43.8792 61.7227C43.925 61.9079 43.925 61.7604 43.925 62.0586C43.9218 62.347 43.9021 62.5125 43.8792 62.7206C43.8726 62.9254 43.8579 62.9648 43.8579 63.1827C43.8579 63.3842 43.9021 63.2712 43.8415 63.5088C43.7825 63.7611 43.794 63.7103 43.7825 63.925C43.771 64.1429 43.7317 64.446 43.7104 64.6673C43.6842 64.8819 43.7448 64.913 43.6776 65.1146C43.5908 65.3194 43.6776 65.249 43.5908 65.4833C43.5138 65.7143 43.2811 66.3058 43.2614 66.5303C43.2336 66.7319 43.1467 66.8269 43.1254 66.9138C43.1107 66.958 42.8206 67.9576 42.7731 68.1624C42.7272 68.3672 42.7616 68.3279 42.6863 68.4917C42.6158 68.6802 42.6388 68.7703 42.6207 68.9358C42.5994 69.1062 42.5994 69.1259 42.606 69.3389C42.6207 69.5437 42.6273 69.5257 42.6535 69.6502C42.6928 69.7977 42.9878 70.0795 43.0222 70.1582C43.0615 70.2385 43.1467 70.3188 43.2745 70.3286C43.4122 70.3515 43.5383 70.3794 43.6399 70.3663C43.7448 70.363 43.7645 70.4122 43.9349 70.4023C44.12 70.3794 44.0365 70.4023 44.1921 70.3515C44.3413 70.2958 44.6821 70.1172 44.7411 70.0533C44.7951 69.9894 44.7755 69.9992 44.8558 69.8747C44.9262 69.7436 45.077 69.529 45.1114 69.3143C45.1442 69.1062 45.2277 68.8915 45.3113 68.7129C45.3719 68.5524 45.3719 68.5524 45.4309 68.3951C45.5128 68.2394 45.9192 67.5381 45.9536 67.3709C45.9815 67.189 45.9913 67.1727 46.0306 66.9973C46.0634 66.8023 46.2797 66.0207 46.3141 65.852C46.3666 65.6947 46.3354 65.6373 46.3698 65.5472C46.4042 65.4358 46.4485 65.4702 46.4714 65.3456C46.4911 65.208 46.4976 65.1375 46.5321 65.0195C46.5779 64.913 46.591 64.9229 46.6041 64.7377C46.6255 64.5771 46.614 64.4051 46.6418 64.1806C46.6566 63.9725 46.6713 63.9725 46.6779 63.7611C46.6861 63.5497 46.6861 63.4727 46.6566 63.3842C46.632 63.2908 46.6484 63.086 46.632 62.8976C46.614 62.696 46.6926 62.3814 46.6926 62.2503C46.6992 62.1455 46.6664 62.1455 46.6664 61.9242C46.6664 61.6965 46.6484 61.7604 46.6484 61.5654C46.6566 61.3868 46.6418 61.0918 46.6255 60.869C46.591 60.6347 46.6418 60.6576 46.5845 60.5609C46.5435 60.4462 46.5583 60.4462 46.5321 60.266C46.4911 60.0808 46.478 60.0808 46.4714 60.0071C46.4485 59.9432 46.4403 59.645 46.4042 59.486C46.3698 59.3418 46.3895 59.3418 46.3502 59.2353C46.3223 59.1304 46.1486 58.4078 46.1175 58.2735C46.0945 58.144 45.7127 57.233 45.6996 57.1658C45.6964 57.1133 45.5128 56.5349 45.4604 56.4382C45.3998 56.3334 44.9705 55.3797 45.0065 55.3502C45.0409 55.3158 45.1311 55.2994 45.2589 55.3158C45.3998 55.3256 45.3867 55.3256 45.5407 55.3404C45.6882 55.3502 45.8127 55.3256 46.0044 55.2896C46.1961 55.2584 46.5173 55.1241 46.6418 55.1241C46.7565 55.1454 47.7036 55.0651 47.9068 55.0372C48.0871 54.9979 48.4115 55.088 48.6737 55.088C48.9391 55.088 49.221 54.9979 49.3685 54.9668C49.493 54.9406 49.842 54.9029 49.9321 54.8603C50.0124 54.8226 50.1353 54.7652 50.2779 54.839C50.4352 54.9193 50.5073 55.1241 50.5908 55.2994C50.6613 55.478 50.7776 55.6419 50.8563 55.8696C50.9431 56.1023 50.8842 56.0171 51.0169 56.2334C51.1512 56.4645 51.2053 56.5677 51.2791 56.7299C51.3626 56.8807 51.3856 56.9036 51.4101 57.0691C51.4396 57.233 51.7936 58.8617 51.8263 59.1075C51.8657 59.3697 51.8968 59.4762 51.9197 59.6269C51.9509 59.7957 51.9197 60.0612 51.9197 60.1513C51.9148 60.2627 51.9296 60.2955 51.8968 60.3971C51.8771 60.4839 51.8427 60.81 51.8067 61.0034C51.7936 61.2082 51.8067 61.7063 51.7936 61.9079C51.7854 62.1094 51.7755 62.0881 51.7215 62.347C51.6723 62.5993 51.6723 62.6731 51.6723 62.8206C51.669 62.9844 51.7559 63.2433 51.692 63.4957C51.6346 63.7611 51.651 64.1298 51.6182 64.3756C51.5937 64.6066 51.5412 65.2375 51.4675 65.4358C51.3856 65.6176 51.3856 65.6946 51.3659 65.8356C51.3266 65.983 51.3561 65.9208 51.2938 66.1617C51.2381 66.4042 51.1988 66.7958 51.1709 66.958C51.1316 67.1153 51.1512 67.1727 51.0906 67.3939C51.0447 67.6118 50.9726 67.8035 50.953 67.992C50.9169 68.1902 50.9022 68.4459 50.9759 68.6998C51.0578 68.962 51.0775 68.962 51.1316 69.0702C51.1988 69.1636 51.225 69.4552 51.4101 69.506C51.5986 69.5437 51.6395 69.6306 51.7854 69.6502C51.9197 69.6666 51.7854 69.6568 51.9886 69.7141C52.1983 69.7584 52.4834 69.6502 52.585 69.5929C52.7063 69.5257 52.7866 69.5126 52.8603 69.4028C52.9684 69.2373 53.1798 69.0833 53.2781 68.8752C53.3486 68.731 53.3978 68.6703 53.4322 68.6195C53.5354 68.4622 53.5895 68.1394 53.6534 67.9444C53.6976 67.8101 53.6943 67.8232 53.6993 67.6855C53.7075 67.4545 53.6812 67.4807 53.7402 67.3545C53.8008 67.2333 53.8779 67.1153 53.9123 66.881C53.9352 66.6614 53.8811 66.7024 53.9549 66.4435C54.0221 66.1748 54.0499 66.2665 54.0499 65.9535C54.0401 65.6586 54.009 65.752 54.0794 65.5029C54.1433 65.249 54.2367 64.8967 54.2482 64.5165C54.2547 64.1298 54.2367 63.8185 54.2367 63.435C54.2482 63.0319 54.2646 62.9353 54.2646 62.7435C54.2842 62.5518 54.3318 61.9849 54.3481 61.7997C54.376 61.5982 54.3776 61.7637 54.3858 61.354C54.4022 60.9542 54.4628 60.9198 54.4317 60.5773C54.412 60.2185 54.453 59.9465 54.4317 59.645C54.412 59.3418 54.435 59.2009 54.3907 59.0026C54.3612 58.8584 54.3612 58.9322 54.3481 58.7339C54.3236 58.4111 54.2547 58.3046 54.2482 58.2145C54.2433 58.1293 54.1089 57.4919 54.1089 57.4116C54.1089 57.3509 54.0499 57.2674 54.0188 57.1396C53.9352 56.82 53.9811 57.0347 53.8779 56.7397C53.7501 56.4382 53.6861 55.9843 53.5698 55.7123C53.4617 55.4469 53.5829 55.5206 53.4322 55.2994C53.288 55.088 53.3633 55.0536 53.3633 54.9193C53.3633 54.7882 53.4551 54.6817 53.4551 54.6145C53.4551 54.5473 53.542 54.5162 53.596 54.4424C53.6534 54.3621 53.8779 54.3081 54.0991 54.3081C54.3023 54.3081 54.2875 54.2081 54.4317 54.1409C54.5726 54.0541 55.1216 53.8394 55.2559 53.7886C55.3985 53.7509 55.6262 53.7608 55.7606 53.6739C55.8966 53.5871 56.7683 53.0939 56.924 53.03C57.0748 52.9824 58.8641 51.8944 58.9673 51.8043C59.0837 51.7093 59.5015 51.5831 59.626 51.411C59.7604 51.2406 59.7375 51.2799 59.862 51.1898C60.0095 51.0784 59.9997 51.1652 60.1783 50.9309C60.352 50.7195 60.352 50.7867 60.4617 50.6393C60.4994 50.595 60.5977 50.5082 60.5977 50.5082C60.5977 50.5082 60.6944 50.3705 60.7681 50.3197C60.8697 50.2525 60.8992 50.2018 61.0303 50.0887C61.1368 49.9805 61.2007 49.9134 61.2581 49.8462C61.3892 49.661 61.7693 49.3956 61.8824 49.2792C62.0135 49.1547 62.6591 48.3485 62.7295 48.2305C62.8066 48.1076 63.3801 47.6636 63.5193 47.1933C63.5685 47.0229 63.7471 46.8983 63.8503 46.7099C63.9339 46.5329 63.9814 46.2036 64.0634 46.0758C64.1371 45.9381 64.296 45.5514 64.3206 45.4449C64.3272 45.3204 64.3649 45.2221 64.4239 45.0353C64.491 44.8468 64.5369 44.8927 64.5549 44.7895C64.5762 44.6879 64.6975 44.3995 64.745 44.2225C64.8007 43.9866 65.1366 42.9837 65.1366 42.8084C65.1366 42.5331 65.2038 42.0186 65.2284 41.8449C65.2743 41.6843 65.4971 40.9519 65.5709 40.7127C65.6495 40.4947 65.6839 40.5144 65.7167 40.3882C65.7478 40.2637 65.8216 40.2833 65.8576 40.1129C65.8822 39.9147 65.9756 39.9769 65.9723 39.7164C65.9723 39.4706 65.9854 39.1216 65.9985 38.8725C66.0198 38.6038 65.9051 38.258 65.8576 38.0647C65.7986 37.8599 65.6839 37.8599 65.6938 37.6108V37.2011C65.6938 37.0324 65.7577 36.6784 65.7577 36.4834C65.7691 36.2983 65.7773 36.3196 65.7986 36.2032C65.8117 36.0869 65.8216 36.118 65.8117 36.0296Z" fill="#9D1E23"/>
<path fill-rule="evenodd" clip-rule="evenodd" d="M21.7187 68.8595L19.2461 71.401C18.9233 71.7336 18.6808 71.9155 18.5235 71.9417C18.3776 71.9663 18.1679 71.8549 17.9123 71.6091C17.3191 71.029 17.0717 70.4047 17.1766 69.7493C17.265 69.1856 17.6173 68.5875 18.2187 67.9632C18.8233 67.3422 19.4313 66.9653 20.0195 66.8375C20.1637 66.808 20.3046 66.7916 20.4423 66.7916C20.9781 66.7916 21.4795 67.0161 21.9416 67.4634C22.1841 67.7043 22.2972 67.9124 22.2644 68.0812C22.2316 68.2582 22.0497 68.5203 21.7187 68.8595ZM19.8606 66.1362C18.9741 66.1001 18.1515 66.4754 17.4158 67.2308C17.0537 67.6011 16.7849 68.0173 16.6244 68.4663C16.4621 68.9136 16.4228 69.3806 16.5064 69.8574C16.5949 70.331 16.762 70.7537 17.0045 71.1159C17.1585 71.3469 17.4092 71.6337 17.7566 71.9663L19.5116 73.6754L19.7688 73.4099L19.741 73.3853C19.5017 73.1543 19.4001 72.9527 19.4313 72.784C19.4657 72.6103 19.6525 72.3448 19.9884 71.9991L22.3922 69.5281C22.7314 69.1791 22.9903 68.9808 23.1607 68.9464C23.3229 68.9071 23.5277 69.007 23.7703 69.2397L23.7981 69.2692L24.0554 69.007L22.2988 67.3012C21.5336 66.5557 20.7143 66.164 19.8606 66.1362Z" fill="#9D1E23"/>
<path fill-rule="evenodd" clip-rule="evenodd" d="M14.9971 63.9086C14.3695 64.292 13.755 64.5198 13.1733 64.587C12.4146 64.6705 11.8641 64.4428 11.5314 63.8988C11.2021 63.3613 11.2529 62.7632 11.6855 62.1258C12.0116 61.6391 12.4982 61.2016 13.1225 60.8166C13.7648 60.4233 14.3892 60.1873 14.9725 60.1136C15.0872 60.0972 15.1986 60.0907 15.3035 60.0907C15.8999 60.0907 16.3473 60.3299 16.6389 60.8034C16.965 61.3393 16.8995 61.9406 16.4439 62.5928C16.1015 63.0893 15.6148 63.5317 14.9971 63.9086ZM17.1764 62.9746C17.4877 62.1553 17.4107 61.3606 16.9535 60.6117C16.4931 59.8596 15.8262 59.4221 14.9692 59.3058C14.1745 59.2009 13.3781 59.3828 12.6129 59.8498C11.8444 60.3217 11.307 60.9444 11.0104 61.7063C10.6892 62.542 10.758 63.3449 11.2152 64.0905C11.6789 64.8426 12.354 65.2785 13.2307 65.38C13.365 65.3964 13.4994 65.403 13.6338 65.403C14.3007 65.403 14.961 65.208 15.5952 64.818C16.3604 64.3526 16.8913 63.73 17.1764 62.9746Z" fill="#9D1E23"/>
<path fill-rule="evenodd" clip-rule="evenodd" d="M13.7098 55.8182C13.8704 55.8625 14.0015 56.0493 14.0998 56.3721L14.1096 56.4065L14.4635 56.3016L13.8409 54.2697L13.4853 54.3648L13.4984 54.4041C13.5967 54.7236 13.5934 54.9547 13.4886 55.0792C13.3804 55.2136 13.0855 55.3545 12.6136 55.4987L9.03651 56.59L12.9708 51.4825L12.9839 51.4661L12.8774 51.1236L8.11398 52.5787C7.6519 52.7196 7.33074 52.7688 7.16196 52.7164C6.9981 52.6656 6.86374 52.4869 6.77198 52.1756L6.75887 52.1379L6.40657 52.2461L7.0276 54.273L7.37989 54.1632L7.36842 54.1255C7.27011 53.8044 7.27339 53.5783 7.38317 53.4537C7.49623 53.3226 7.78954 53.185 8.25818 53.0408L11.2994 52.1084L7.77807 56.6703L7.7666 56.685L8.23032 58.2056L8.58262 58.0975L8.57279 58.0614C8.47611 57.7452 8.48267 57.5174 8.59081 57.3863C8.70388 57.2487 8.99555 57.1078 9.45599 56.9669L12.7545 55.9591C13.2198 55.8182 13.5426 55.7674 13.7098 55.8182Z" fill="#9D1E23"/>
<path fill-rule="evenodd" clip-rule="evenodd" d="M9.01211 48.5819C9.08749 48.5819 9.16287 48.5787 9.23824 48.5754C10.1509 48.5344 10.8965 48.2428 11.4569 47.7184C12.0583 47.158 12.3401 46.4157 12.2975 45.5194C12.2877 45.2949 12.1926 44.9017 12.0075 44.3101C11.9304 44.0627 11.8895 43.8448 11.8813 43.6629C11.8797 43.6186 11.8846 43.5613 11.8977 43.4876C11.9124 43.4105 11.9206 43.3499 11.9304 43.3008L11.9419 43.25L10.5966 43.3171C10.2001 43.3368 9.933 43.3171 9.80192 43.2631C9.60365 43.1795 9.4955 42.9747 9.48075 42.6552L9.47911 42.6158L9.11207 42.6322L9.23496 45.1769L9.2366 45.2146L9.60365 45.1966L9.60037 45.1573C9.58562 44.7837 9.62003 44.5264 9.70688 44.3953C9.79372 44.2708 10.01 44.2003 10.3558 44.1807C10.8457 44.1594 11.2144 44.2266 11.4602 44.3822C11.7436 44.569 11.8977 44.8918 11.9206 45.349C11.9518 45.9766 11.6584 46.5009 11.0571 46.9089C10.536 47.2563 9.933 47.453 9.26446 47.4841C8.48449 47.5234 7.78153 47.4202 7.17853 47.1777C6.4002 46.8663 5.99055 46.3698 5.95778 45.7046C5.93811 45.3015 6.0692 44.9049 6.34776 44.5231C6.57061 44.2233 6.8803 43.9316 7.27357 43.6596L7.30142 43.6367L7.14248 43.327L5.44326 44.0283L5.46784 44.066C5.56779 44.2429 5.6317 44.3675 5.65464 44.4412C5.67758 44.5149 5.69396 44.6034 5.70052 44.7067C5.70052 44.7231 5.68741 44.8279 5.61695 45.3818C5.59565 45.5473 5.58909 45.721 5.59892 45.8996C5.63825 46.7582 6.05773 47.4497 6.84262 47.9544C7.48822 48.3706 8.2174 48.5819 9.01211 48.5819Z" fill="#9D1E23"/>
<path fill-rule="evenodd" clip-rule="evenodd" d="M6.14962 39.5633C6.21353 39.2405 6.32331 39.0455 6.48062 38.9832C6.6412 38.916 6.96564 38.9324 7.44575 39.0291L10.8262 39.7009C11.3063 39.7976 11.6111 39.9057 11.7356 40.027C11.8536 40.145 11.8831 40.3662 11.8175 40.6922L11.811 40.7316L12.1731 40.802L12.6761 38.2671L12.3156 38.1967L12.3075 38.2344C12.2436 38.5588 12.1321 38.7538 11.983 38.8177C11.8224 38.8816 11.4964 38.8652 11.0113 38.7702L9.46941 38.4621L9.99048 35.86L11.5308 36.1681C12.0076 36.2599 12.3156 36.3696 12.4385 36.4925C12.5582 36.6089 12.5877 36.8301 12.5237 37.1463L12.5172 37.1857L12.8777 37.2594L13.384 34.7163L13.0219 34.6442L13.0121 34.6819C12.9481 35.0194 12.8367 35.221 12.6827 35.2816C12.527 35.3488 12.1993 35.3324 11.7159 35.2357L8.33387 34.5623C7.86031 34.4689 7.55553 34.3574 7.431 34.2329C7.30974 34.1133 7.28025 33.8839 7.34416 33.5545L7.35071 33.5185L6.99186 33.4447L6.48553 35.9878L6.84766 36.0583L6.85422 36.0206C6.91976 35.6978 7.03119 35.5028 7.18357 35.4438C7.34416 35.3816 7.67024 35.398 8.14871 35.493L9.51693 35.765L8.99586 38.3687L7.62927 38.0967C7.15572 38.005 6.85258 37.8919 6.72804 37.7674C6.60515 37.6461 6.57566 37.4249 6.63792 37.1054L6.64612 37.071L6.28562 36.9972L5.7793 39.5305L6.14143 39.6009L6.14962 39.5633Z" fill="#9D1E23"/>
<path fill-rule="evenodd" clip-rule="evenodd" d="M8.41979 30.3478C8.55743 30.061 8.70818 29.9086 8.86876 29.8955C9.04082 29.8759 9.34723 29.9775 9.78965 30.1872L12.472 31.4702C12.8243 31.6357 13.1602 31.7193 13.4798 31.7193C13.7174 31.7193 13.95 31.675 14.168 31.5816C14.6546 31.3719 15.0545 30.9524 15.3494 30.333C15.6902 29.6235 15.764 29.0058 15.5772 28.5011C15.3904 27.9964 14.9332 27.5687 14.2155 27.2263L11.7642 26.0547C11.3267 25.8466 11.0596 25.6647 10.9711 25.5139C10.881 25.3665 10.9088 25.1436 11.0481 24.8519L11.0645 24.8159L10.7318 24.6553L9.82898 26.5446L10.1616 26.7019L10.178 26.6659C10.3156 26.3808 10.4713 26.2251 10.6384 26.2087C10.8105 26.189 11.1202 26.2824 11.5561 26.4905L13.7223 27.5245C14.363 27.8309 14.8037 28.1373 15.0233 28.4339C15.3232 28.8403 15.3396 29.3384 15.0643 29.9136C14.7988 30.469 14.4121 30.7689 13.9189 30.8017C13.5437 30.8263 13.0439 30.6886 12.4278 30.3969L10.1993 29.3319C9.7618 29.1238 9.49471 28.9419 9.40294 28.7911C9.3161 28.6437 9.34396 28.411 9.49307 28.1029L9.51109 28.0669L9.17846 27.9112L8.08715 30.1888L8.07077 30.2249L8.4034 30.3822L8.41979 30.3478Z" fill="#9D1E23"/>
<path fill-rule="evenodd" clip-rule="evenodd" d="M14.7815 20.5901L17.5376 21.6257L16.366 23.0759L14.7815 20.5901ZM17.1083 25.3732C17.2082 25.7009 17.1574 25.9827 16.9542 26.2351L16.9313 26.2662L17.2164 26.4956L18.6567 24.7177L18.6797 24.6849L18.3946 24.4523L18.3684 24.4834C18.2225 24.6653 18.0882 24.7898 17.9653 24.8488C17.7998 24.9324 17.6523 24.916 17.5081 24.7997C17.4442 24.7472 17.3508 24.6374 17.2361 24.4719C17.0952 24.2442 16.9526 24.0164 16.8068 23.7854L16.6347 23.5101L18.0079 21.8092L19.05 22.1959C19.145 22.2287 19.2466 22.2664 19.3466 22.3106C19.4482 22.3516 19.5252 22.3909 19.5694 22.4302C19.7071 22.5384 19.73 22.6777 19.6432 22.8481L19.3138 23.3184L19.5973 23.5494L21.2474 21.5077L21.2719 21.4766L20.9885 21.2472L20.9622 21.2734C20.8852 21.3537 20.7984 21.4209 20.7066 21.4684C20.6198 21.5175 20.5264 21.5438 20.4313 21.5454C20.2544 21.5585 19.9545 21.4913 19.5432 21.3504C19.3744 21.2898 19.2073 21.2292 19.0484 21.1653L14.3177 19.4054L14.2833 19.3923L13.9147 20.228L16.6577 24.5063C16.9002 24.8783 17.0509 25.1716 17.1083 25.3732Z" fill="#9D1E23"/>
<path fill-rule="evenodd" clip-rule="evenodd" d="M70.1194 24.8225C70.162 24.8258 70.2062 24.8291 70.2472 24.8291C70.7503 24.8291 71.2877 24.5931 71.8514 24.1294L73.9504 22.4023C74.3224 22.0959 74.601 21.9304 74.7763 21.914C74.9516 21.8944 75.1384 22.0124 75.3449 22.2631L75.3695 22.2926L75.6529 22.0582L74.3503 20.4737L74.324 20.4442L74.0422 20.6785L74.0635 20.708C74.2667 20.9538 74.3421 21.1586 74.2896 21.3176C74.2323 21.4847 74.0143 21.7223 73.6424 22.0287L71.7908 23.5559C71.2402 24.0065 70.7765 24.2753 70.4176 24.349C69.9211 24.4506 69.464 24.2507 69.0576 23.7607C68.6643 23.2839 68.5578 22.8087 68.7348 22.3483C68.8692 21.9992 69.2051 21.6027 69.7327 21.1701L71.64 19.5987C72.012 19.2923 72.2905 19.1268 72.4691 19.1104C72.6346 19.0875 72.8346 19.2153 73.0541 19.4791L73.0771 19.5102L73.3622 19.2759L71.7547 17.3243L71.7285 17.2948L71.4467 17.5292L71.4696 17.5587C71.6712 17.8044 71.7465 18.006 71.6941 18.16C71.6367 18.3173 71.4155 18.5566 71.0387 18.8663L68.7413 20.7556C68.2186 21.1849 67.9434 21.6863 67.9237 22.2434C67.9057 22.7743 68.1187 23.3118 68.5545 23.841C69.0576 24.4473 69.5819 24.7783 70.1194 24.8225Z" fill="#9D1E23"/>
<path fill-rule="evenodd" clip-rule="evenodd" d="M75.7323 25.1106L72.6664 26.6919C72.2322 26.9164 71.9242 27.018 71.7521 27.0016C71.585 26.9868 71.4228 26.8263 71.2687 26.5248L71.2523 26.4903L70.923 26.6591L71.8979 28.5484L72.2306 28.3911L72.2142 28.3534C72.0585 28.0552 72.0208 27.8307 72.1011 27.6865C72.1831 27.5358 72.4485 27.3457 72.8877 27.1212L76.2124 25.4056L73.2531 31.1374L73.2432 31.1538L73.4087 31.4733L77.8362 29.1875C78.2639 28.9679 78.5703 28.863 78.7473 28.8843C78.9177 28.9007 79.0799 29.0564 79.2307 29.3448L79.2487 29.3792L79.5764 29.2104L78.6031 27.3293L78.277 27.4981L78.2934 27.5341C78.4474 27.8307 78.4851 28.0552 78.3982 28.1994C78.3114 28.3469 78.0476 28.5353 77.6117 28.7598L74.7851 30.2181L77.4348 25.1025L77.4446 25.0844L76.717 23.6736L76.3877 23.844L76.4057 23.8768C76.5581 24.1701 76.5909 24.3946 76.5073 24.5437C76.4205 24.6994 76.1583 24.8894 75.7323 25.1106Z" fill="#9D1E23"/>
<path fill-rule="evenodd" clip-rule="evenodd" d="M79.7828 31.7479C79.673 31.8855 79.3829 32.033 78.9241 32.1838L75.6453 33.2488C75.1783 33.3996 74.8604 33.4537 74.6933 33.4094C74.5311 33.3635 74.3967 33.1817 74.2918 32.8621L74.2836 32.8228L73.9314 32.9392L74.7277 35.3839L74.7392 35.42L75.0898 35.3069L75.0767 35.2676C74.9702 34.9481 74.9735 34.7187 75.0816 34.5843C75.1914 34.445 75.4815 34.2992 75.937 34.1517L79.2175 33.0833C79.6795 32.9359 79.9974 32.8834 80.1678 32.9293C80.3317 32.9768 80.4693 33.1604 80.5709 33.4799L80.584 33.5176L80.9363 33.4029L80.14 30.9581L80.1269 30.922L79.7779 31.0351L79.7893 31.0728C79.8893 31.3858 79.8893 31.6135 79.7828 31.7479Z" fill="#9D1E23"/>
<path fill-rule="evenodd" clip-rule="evenodd" d="M81.0449 35.0923C81.0482 35.1923 81.0285 35.2889 80.9875 35.3873C80.9482 35.479 80.8663 35.5724 80.7385 35.6527C80.6483 35.7166 80.5009 35.8002 80.296 35.905L75.4409 38.5547L75.4163 38.5678L75.4753 38.9102L80.396 39.7869C80.6926 39.8328 80.9384 39.877 81.1186 39.9212C81.4267 39.9982 81.6348 40.0851 81.7396 40.1785C81.8429 40.2703 81.9101 40.3571 81.9379 40.4308C81.969 40.5079 81.9985 40.6291 82.0248 40.7864L82.033 40.8241L82.3951 40.7635L82.0182 38.5301L81.6594 38.5874L81.6626 38.6218C81.6659 38.7496 81.6692 38.8758 81.679 38.9938C81.679 39.2232 81.5889 39.3494 81.4005 39.3805C81.2874 39.4002 81.0957 39.3936 80.8286 39.3608C80.6385 39.3395 80.4435 39.31 80.2453 39.2724L77.05 38.7185L80.2928 36.9685C80.4615 36.8751 80.5779 36.8112 80.6418 36.7751C80.7991 36.6981 80.9171 36.6522 81.0006 36.6391C81.1186 36.6195 81.2087 36.6441 81.2661 36.7161C81.3267 36.7948 81.3841 36.98 81.4316 37.2651L81.4398 37.3044L81.8036 37.2421L81.3464 34.5221L80.981 34.5827L81.0056 34.7171C81.0285 34.8645 81.0449 34.9907 81.0449 35.0923Z" fill="#9D1E23"/>
<path fill-rule="evenodd" clip-rule="evenodd" d="M82.0723 42.1399V42.1776C82.0657 42.5086 81.9903 42.7216 81.8478 42.8084C81.7003 42.9018 81.3791 42.9395 80.8908 42.933L77.4449 42.8625C76.9549 42.8543 76.6354 42.7986 76.4912 42.7036C76.3536 42.6069 76.2864 42.3922 76.2929 42.0629V42.0252L75.9275 42.0154L75.8292 46.764L75.8276 46.7935L77.512 47.4883L77.5465 47.4997L77.6677 47.231L77.6431 47.213C77.1565 46.8066 76.8402 46.5215 76.7059 46.3707C76.3814 45.9971 76.2258 45.4171 76.2405 44.6453C76.2487 44.2619 76.3028 44.0177 76.4044 43.9325C76.5076 43.8391 76.7501 43.7982 77.109 43.808L79.1015 43.8489L79.0933 44.1685C79.0835 44.6322 79.0294 44.9599 78.9294 45.1385C78.7721 45.4269 78.4526 45.5678 77.9692 45.558H77.9315L77.925 45.8808L80.4861 45.9316H80.5271L80.5336 45.6088L80.4926 45.6055C80.0699 45.599 79.7815 45.4613 79.6308 45.1959C79.5095 44.9845 79.4521 44.6387 79.462 44.175L79.4669 43.8555L81.0743 43.8834C81.5069 43.8932 81.7789 43.9489 81.8805 44.0407C81.951 44.1046 82.0313 44.293 82.0182 44.8157C82.0083 45.4072 81.9018 45.8611 81.7068 46.1594C81.5545 46.3937 81.1956 46.7132 80.6418 47.113L80.6123 47.136L80.7761 47.4178L82.3475 46.8099L82.4409 42.1841V42.1465L82.0723 42.1399Z" fill="#9D1E23"/>
<path fill-rule="evenodd" clip-rule="evenodd" d="M81.2404 51.7215C81.1552 52.1312 80.975 52.4573 80.7062 52.6916C80.4097 52.9472 80.0623 53.0373 79.6756 52.957C79.2315 52.8636 78.9267 52.6015 78.7678 52.1754C78.6334 51.8084 78.6154 51.3758 78.7153 50.8924L78.8022 50.4828L80.4883 50.8318C80.8439 50.9088 81.0716 50.9891 81.1601 51.0743C81.2781 51.1874 81.3076 51.4053 81.2404 51.7215ZM81.7402 49.3308C81.6632 49.6962 81.5091 49.9076 81.2814 49.9551C81.1634 49.9814 80.8717 49.9453 80.4211 49.8519L77.062 49.1555C76.5835 49.0523 76.2804 48.9409 76.1559 48.8196C76.0379 48.7 76.0133 48.4771 76.0788 48.1527L76.087 48.1183L75.7266 48.0413L75.1989 50.5696L75.5611 50.6466L75.5692 50.6073C75.6364 50.2845 75.7479 50.0895 75.9002 50.0289C76.0592 49.965 76.3853 49.9814 76.8687 50.083L78.4433 50.409L78.3254 50.9596L74.9073 52.0771L74.8843 52.087L74.5746 53.5748L74.9351 53.6518L74.9433 53.6092C75.017 53.2569 75.1694 53.021 75.3988 52.9128C75.448 52.8866 75.6348 52.8227 75.9527 52.7129L78.2008 52.0099C78.1779 52.4376 78.2713 52.8391 78.4761 53.193C78.7088 53.5977 79.0447 53.8468 79.474 53.9369C79.5887 53.9615 79.7034 53.9713 79.8099 53.9713C80.2425 53.9713 80.6161 53.7862 80.9307 53.4077C81.2257 53.0521 81.4453 52.5605 81.5731 51.9362L82.1072 49.3669L81.7484 49.2931L81.7402 49.3308Z" fill="#9D1E23"/>
<path fill-rule="evenodd" clip-rule="evenodd" d="M78.8466 55.5847C78.2239 55.3389 77.634 55.4536 77.0933 55.9304C76.6918 56.3695 76.2773 56.83 75.8611 57.2937C75.3908 57.7542 74.8976 57.8885 74.3978 57.6902C74.0783 57.5657 73.8636 57.3445 73.7604 57.0414C73.6555 56.7366 73.6686 56.4171 73.7964 56.0959C73.9439 55.7256 74.2536 55.3995 74.719 55.1275C75.0647 54.9259 75.5088 54.749 76.0348 54.6015L76.0659 54.5949L76.0462 54.2377L74.1143 54.1984L74.1389 54.2558C74.1766 54.3426 74.2028 54.4426 74.2094 54.5474C74.2192 54.6539 74.2094 54.7424 74.1782 54.8194C74.1717 54.8358 74.1029 54.944 73.7293 55.4831C73.5949 55.6715 73.4966 55.8468 73.4327 56.0107C73.2246 56.5318 73.2147 57.0479 73.4032 57.5329C73.5916 58.0196 73.9505 58.3719 74.4715 58.58C74.8878 58.7439 75.2761 58.7717 75.6268 58.6701C75.9119 58.58 76.2035 58.3916 76.4985 58.0966C76.6443 57.9524 76.8967 57.6624 77.2408 57.2364C77.5128 56.8939 77.7553 56.6497 77.9667 56.5121C78.2764 56.3073 78.5877 56.2663 78.8892 56.3843C79.1891 56.5039 79.4004 56.7055 79.5217 56.984C79.6413 57.2577 79.643 57.5526 79.525 57.8541C79.3808 58.213 79.0957 58.5095 78.6762 58.7373C78.355 58.9061 77.9486 59.0405 77.4669 59.1306L77.4325 59.1371L77.4571 59.4894L79.2153 59.5206L79.1825 59.4599C79.1497 59.396 79.1317 59.3256 79.135 59.2518C79.135 59.1748 79.153 59.1011 79.1792 59.0323C79.2186 58.9356 79.2562 58.8651 79.2939 58.8209L79.4447 58.6374C79.5725 58.4964 79.6561 58.3948 79.7019 58.3309C79.7495 58.2638 79.8003 58.1605 79.8511 58.0294C80.0575 57.5051 80.0755 57.0119 79.8937 56.5678C79.7134 56.1188 79.3611 55.7895 78.8466 55.5847Z" fill="#9D1E23"/>
<path fill-rule="evenodd" clip-rule="evenodd" d="M77.7926 61.4861C77.6303 61.7745 77.4632 61.9252 77.2912 61.9367H77.2649C77.0831 61.9367 76.7898 61.8253 76.3932 61.6008L73.3831 59.9179C72.9571 59.6771 72.6998 59.4788 72.6195 59.3264C72.5425 59.1789 72.5868 58.9512 72.7506 58.6595L72.7703 58.6251L72.4458 58.4465L71.171 60.7209L71.4922 60.9044L71.5118 60.8683C71.6773 60.5734 71.8445 60.421 72.0182 60.4079C72.1951 60.3915 72.4983 60.5062 72.9161 60.7438L75.9246 62.4299C76.3473 62.6642 76.5997 62.8658 76.6833 63.0215C76.7603 63.1722 76.7193 63.4 76.5522 63.6949L76.5325 63.726L76.8569 63.9096L78.1334 61.6303L77.8122 61.4517L77.7926 61.4861Z" fill="#9D1E23"/>
<path fill-rule="evenodd" clip-rule="evenodd" d="M74.7954 63.9471L74.8102 63.9798C75.0035 64.3911 75.1051 64.804 75.1084 65.2137C75.1117 65.6725 74.9839 66.0723 74.7315 66.4017C74.6184 66.5491 74.5005 66.613 74.3694 66.6032C74.2743 66.5901 74.1514 66.5295 74.0056 66.4148L70.7956 63.9536C70.4007 63.6521 70.1795 63.4162 70.1287 63.249C70.0812 63.0868 70.1729 62.8492 70.4007 62.5477L70.4269 62.5198L70.132 62.2954L68.4721 64.4583L68.4475 64.4944L68.7408 64.7156L68.7621 64.6828C68.9932 64.3895 69.1947 64.2355 69.3668 64.2355H69.3766C69.5536 64.242 69.8403 64.3944 70.227 64.6926L73.4305 67.1472C73.5829 67.2652 73.6779 67.3684 73.7123 67.4586C73.7582 67.5798 73.7271 67.7109 73.6107 67.8617C73.3616 68.1877 73.0061 68.4155 72.5571 68.54C72.1524 68.6482 71.7231 68.6613 71.2806 68.5744L71.2446 68.5679L71.1708 68.8759L72.8717 69.3872L72.8979 69.3937L76.0014 65.3481L76.0211 65.33L75.0805 63.7799L74.7954 63.9471Z" fill="#9D1E23"/>
<path fill-rule="evenodd" clip-rule="evenodd" d="M71.7286 70.1718C71.5172 70.3602 71.242 70.4339 70.9126 70.393C70.7651 70.3733 70.4751 70.2897 70.0556 70.1455L67.3323 69.2443L66.6785 68.5201C66.3458 68.1563 66.1639 67.8843 66.141 67.7139C66.1164 67.55 66.2344 67.3485 66.4933 67.1158L66.5212 67.0896L66.2754 66.8143L64.3238 68.5774L64.5729 68.8527L64.6007 68.8281C64.8547 68.5971 65.0661 68.5004 65.2234 68.543C65.3922 68.5807 65.6429 68.7888 65.9739 69.1575L66.8227 70.0915L67.4371 72.6362C67.5387 73.0491 67.5879 73.3375 67.5846 73.4834C67.5781 73.7783 67.4617 74.0306 67.2356 74.2355L67.2061 74.2617L67.4535 74.537L69.1298 73.0164L68.884 72.7476L68.8545 72.7706C68.8005 72.8115 68.7005 72.8885 68.5645 72.9983C68.381 73.1294 68.2286 73.1261 68.1057 72.9918C68.0483 72.9279 67.9943 72.8083 67.9418 72.646C67.891 72.4756 67.8533 72.3314 67.8304 72.2102L67.3355 70.2324L69.623 70.9566C69.6673 70.9681 69.7705 71.0107 69.9114 71.0648C70.09 71.132 70.1572 71.1795 70.1834 71.2057C70.2703 71.304 70.2604 71.4269 70.1523 71.5728C70.1293 71.6055 70.0556 71.6858 69.8246 71.8939L69.7951 71.9185L70.0425 72.1905L71.9744 70.4438L72.0039 70.4143L71.7598 70.1423L71.7286 70.1718Z" fill="#9D1E23"/>
<path fill-rule="evenodd" clip-rule="evenodd" d="M32.4028 75.113C32.1915 75.2441 31.9391 75.3146 31.6573 75.3211H31.6442C31.3918 75.3211 31.1395 75.2736 30.8953 75.1802L30.8675 75.1704L30.7642 75.4424L30.7937 75.4555C31.0625 75.5571 31.2575 75.6472 31.3705 75.7177C31.4787 75.7881 31.5393 75.8618 31.5491 75.9421C31.559 76.0257 31.5491 76.1207 31.5196 76.2338C31.4901 76.3452 31.4459 76.4796 31.3885 76.6336L30.6463 78.5786C30.5627 78.7999 30.4824 78.9752 30.4103 79.1046C30.3398 79.2259 30.2481 79.3062 30.1317 79.3406C30.0613 79.3734 29.9712 79.3734 29.863 79.3504C29.75 79.3242 29.6287 79.2865 29.4992 79.239L29.3829 79.1931L29.2797 79.4651L31.69 80.3844L31.7949 80.1124L31.7671 80.0993C31.6032 80.0386 31.477 79.978 31.3918 79.9272C31.2575 79.8436 31.1657 79.7404 31.1264 79.6322C31.0838 79.5192 31.092 79.3701 31.1477 79.1833L32.6519 75.2277L32.6634 75.2031L32.4159 75.1065L32.4028 75.113Z" fill="#9D1E23"/>
<path fill-rule="evenodd" clip-rule="evenodd" d="M40.1036 79.1136C39.9332 79.3184 39.7775 79.4692 39.6431 79.5675C39.4367 79.7182 39.2384 79.7822 39.0565 79.7608C38.7747 79.7182 38.5862 79.5642 38.4814 79.284C38.3994 79.0628 38.3781 78.7908 38.424 78.4729C38.4715 78.1059 38.5699 77.8011 38.7141 77.5717C38.8812 77.2997 39.0909 77.1686 39.3515 77.1686C39.3875 77.1686 39.4252 77.1702 39.4629 77.1735C39.8332 77.2259 40.0528 77.4783 40.1364 77.9518C40.1806 78.2304 40.1708 78.6204 40.1036 79.1136ZM39.4793 76.8802C39.0385 76.8229 38.6321 76.9654 38.2766 77.3079C37.9439 77.629 37.7456 78.019 37.6834 78.4664C37.6293 78.8514 37.6998 79.2136 37.8915 79.5429C38.0848 79.8756 38.3716 80.0673 38.7501 80.1181C39.0106 80.1574 39.2581 80.1148 39.4924 80.0001C39.6562 79.9231 39.8381 79.792 40.0348 79.6134L40.0282 79.6773C39.9659 80.1344 39.8086 80.5949 39.5645 81.0471C39.2745 81.5813 38.9615 81.8304 38.6403 81.7894C38.506 81.7698 38.4175 81.7059 38.365 81.5944C38.3306 81.5174 38.3077 81.4076 38.3011 81.2733C38.2946 81.1291 38.27 81.0242 38.2274 80.957C38.1848 80.8866 38.1061 80.8456 38.0013 80.8292C37.8767 80.8095 37.7669 80.8358 37.6801 80.8997C37.5933 80.9603 37.5408 81.057 37.5228 81.1815C37.4917 81.4044 37.5965 81.6092 37.8341 81.7927C38.0258 81.9402 38.2438 82.0287 38.4765 82.0614C38.5371 82.0713 38.5994 82.0745 38.66 82.0745C38.9156 82.0745 39.1761 82.0008 39.4236 81.8566C39.6907 81.6993 39.9283 81.4715 40.1331 81.1848C40.2953 80.9439 40.4395 80.6621 40.5575 80.3524C40.6722 80.0378 40.7525 79.7281 40.7918 79.4299C40.8754 78.8252 40.8295 78.291 40.6542 77.8437C40.4362 77.28 40.0397 76.9572 39.4793 76.8802Z" fill="#9D1E23"/>
<path fill-rule="evenodd" clip-rule="evenodd" d="M47.3224 78.9122C47.1307 78.9286 46.9521 78.9728 46.7964 79.0465C46.6555 79.1105 46.5162 79.1973 46.3802 79.312L46.3507 77.757L48.2646 77.5866H48.2908L48.3596 77.0147L45.9673 77.2261L45.9378 77.2293L46.005 79.7544V79.7724L46.2983 79.8724L46.3114 79.8495C46.3999 79.6905 46.5097 79.5611 46.644 79.4628C46.7768 79.3693 46.9341 79.312 47.1094 79.2956C47.4322 79.2678 47.696 79.3792 47.891 79.6315C48.0631 79.8527 48.1646 80.1346 48.1941 80.477C48.2286 80.849 48.1761 81.1849 48.0401 81.47C47.8779 81.8092 47.6206 81.9944 47.2765 82.0255C47.1291 82.0386 46.9996 82.0108 46.8882 81.9436C46.7817 81.8764 46.7227 81.7764 46.7096 81.6388C46.7079 81.5946 46.7079 81.5241 46.7161 81.434C46.726 81.3357 46.7276 81.2734 46.7243 81.239C46.7145 81.1243 46.667 81.0276 46.585 80.9539C46.5015 80.8801 46.3999 80.849 46.2835 80.8572C46.1459 80.8703 46.0459 80.9309 45.9837 81.044C45.9247 81.1489 45.9001 81.2734 45.9116 81.411C45.9378 81.7125 46.1279 81.9518 46.4671 82.1255C46.7129 82.2533 46.9717 82.3205 47.2339 82.3205C47.2831 82.3205 47.3322 82.3172 47.3781 82.3139C47.8517 82.2697 48.2433 82.0583 48.5399 81.6798C48.8381 81.3029 48.9659 80.8736 48.925 80.3968C48.8856 79.9707 48.7201 79.6037 48.4285 79.312C48.1204 79.0089 47.7501 78.8745 47.3224 78.9122Z" fill="#9D1E23"/>
<path fill-rule="evenodd" clip-rule="evenodd" d="M57.2319 79.7633L57.2024 79.7732C57.0369 79.8272 56.9025 79.8633 56.8026 79.8747C56.6436 79.8944 56.5125 79.8715 56.4093 79.8108C56.3094 79.7502 56.2176 79.629 56.1438 79.4503L54.8264 75.4292L54.8166 75.3981L54.5659 75.4817L54.561 75.4964C54.4774 75.7307 54.3283 75.9421 54.112 76.124C53.917 76.2879 53.686 76.4124 53.4303 76.496L53.4041 76.5025L53.4942 76.7844L53.5221 76.7745C53.7974 76.6844 54.0055 76.6303 54.1382 76.6172C54.266 76.6008 54.3611 76.6205 54.4168 76.6778C54.4774 76.7352 54.5331 76.8155 54.579 76.922C54.6265 77.0301 54.6757 77.1645 54.7265 77.3153L55.3754 79.293C55.4491 79.5175 55.4966 79.706 55.5228 79.8502C55.5425 79.9878 55.5228 80.1091 55.4556 80.2107C55.4196 80.2778 55.3508 80.3368 55.2508 80.3843C55.1492 80.4351 55.028 80.4827 54.8953 80.5285L54.7805 80.5662L54.8723 80.8448L57.2958 80.0517L57.322 80.0419L57.2319 79.7633Z" fill="#9D1E23"/>
<path fill-rule="evenodd" clip-rule="evenodd" d="M43.9987 72.3191C28.3616 72.3191 15.6838 59.643 15.6838 44.0026C15.6838 28.3655 28.3616 15.6844 43.9987 15.6844C59.6423 15.6844 72.3185 28.3655 72.3185 44.0026C72.3185 59.643 59.6423 72.3191 43.9987 72.3191ZM43.9987 14.9602C27.9618 14.9602 14.9612 27.9657 14.9612 44.0026C14.9612 60.0395 27.9618 73.0385 43.9987 73.0385C60.0356 73.0385 73.0428 60.0395 73.0428 44.0026C73.0428 27.9657 60.0356 14.9602 43.9987 14.9602Z" fill="#9D1E23"/>
</svg>
