<?xml version="1.0" encoding="UTF-8"?>
<svg id="_图层_1" data-name="图层_1" xmlns="http://www.w3.org/2000/svg" version="1.1" viewBox="0 0 88 88">
  <defs>
    <style>
      .st0 {
        fill: #fff;
      }
    </style>
  </defs>
  <path class="st0" d="M68.04,63.3c8.02-9.95,9-24,2.42-34.96-1.7-2.81-4.48-6.01-7.03-8.06-8.85-7.11-20.62-8.86-31.16-4.62-5.9,2.37-11.16,6.81-14.53,12.24-6.73,10.84-6.1,24.59,1.61,34.73,1.2,1.59,3.65,4.12,5.09,5.27,5.19,4.17,11.59,6.61,18.11,6.9,9.84.43,19.3-3.85,25.49-11.52ZM58.19,70.58c-3.1,1.64-6.05,2.62-9.78,3.23-1.13.2-6.03.35-7.05.24-2.73-.32-4.95-.79-6.98-1.46-10.54-3.54-18.21-12.44-20.16-23.4-.41-2.3-.5-6.38-.21-8.66.47-3.58,1.33-6.42,2.9-9.64.53-1.08,1.38-2.58,1.88-3.35,5.26-7.87,14.02-12.9,23.29-13.36,5.65-.29,10.35.64,15.22,3.02,9.02,4.41,15.18,12.96,16.55,22.99.29,2.13.29,5.82,0,7.89-1.37,9.67-7.17,17.99-15.66,22.5Z"/>
  <path class="st0" d="M68.3,58.01c-3.6,1.21-8.46,1.84-12.11,1.55-4.51-.34-6.78-.96-12.32-3.34-2.41-1.04-5.48-2.07-6.86-2.31-.63-.12-1.99-.17-3.76-.17-2.42.01-2.99.05-4.57.37-3.07.58-5.95,1.65-8.56,3.18-.57.33-1.05.64-1.09.7-.05.09,1.22,2.26,1.5,2.55.05.05.8-.28,1.67-.75,3.82-2.09,7.24-2.97,11.45-2.98,2.58,0,5.41.45,7.57,1.19,1.67.58,2.73.98,2.85,1.1.13.13.86,2.47.79,2.53-.01.01-.71-.25-1.54-.6-2.81-1.18-5.1-1.89-6.9-2.13-1.65-.21-5.16-.08-6.84.26-2.36.49-5.34,1.63-7.09,2.72l-.63.39.94,1.04c1.34,1.51,1.21,1.46,2.5.83,1.71-.83,3.32-1.39,5.12-1.77,1.43-.3,1.95-.35,4.08-.35,2.58,0,3.58.13,6.05.79,1.32.35,2.56.81,4.23,1.57l1.03.47.34,1.19c.18.66.32,1.21.29,1.23-.01.03-.95-.37-2.07-.85-2.25-1-3.4-1.42-5.26-1.94-1.07-.3-1.58-.37-3.44-.42-3.17-.08-5.49.3-8.23,1.35q-1.79.7-.95,1.32c4.39,3.29,9.26,5.25,14.46,5.81,1.55.17,5.73.07,7.3-.17,1.59-.26,3.5-.74,5.01-1.25,1.38-.47,3.9-1.59,3.9-1.72,0-.05-.74-.13-1.63-.18-2.2-.12-6.22-.75-6.47-1.02-.08-.09-.61-2.1-.57-2.15.04-.03.47.07.98.22,2.15.62,4.57.93,7.92,1l3.2.08.69-.53c1.07-.81,3.03-2.56,2.95-2.62-.04-.04-.74.04-1.55.17-2.08.34-6.92.34-9.06.01-1.79-.28-3.62-.72-5.06-1.23l-1.04-.37-.36-1.25c-.2-.68-.34-1.26-.33-1.28.03-.03.21.04.42.14.73.37,2.92,1.14,4.2,1.47,3.94,1.02,8.41,1.1,12.7.25,2.46-.49,2.4-.46,3.2-1.6.7-1,1.67-2.56,1.67-2.68,0-.04-.33.04-.72.18Z"/>
  <path class="st0" d="M57.83,54.7c-5.1,0-7.55-.55-12.58-2.82-3.35-1.5-5.49-2.19-8.63-2.78-1.59-.29-6.9-.33-8.43-.07-2.28.41-4.77,1.18-6.72,2.09-1.13.53-3.27,1.77-4.04,2.35l-.42.32.37.89c.21.49.45,1.04.54,1.22l.16.34.83-.5c3.1-1.88,6.51-3.14,10.14-3.75,1.83-.3,5.95-.3,7.84,0,3.03.5,4.94,1.13,9.16,3.02,3.4,1.51,5.32,2.11,7.84,2.44.62.08,1.3.17,1.52.2.22.03,1.7.04,3.29.01,3.85-.05,5.65-.35,9.52-1.6,1.4-.45,1.95-.68,2.08-.91.16-.22,1.24-3.21,1.24-3.41,0-.01-.58.2-1.28.49-4.16,1.69-8.14,2.48-12.42,2.48Z"/>
  <path class="st0" d="M64.25,24.27c-4.37-4.46-9.85-7.22-16.3-8.23-2.11-.33-6.18-.3-8.3.05-6.02,1.01-10.97,3.44-15.27,7.45-4.97,4.66-8.06,10.83-8.84,17.57-.26,2.31-.13,6.04.28,8.06.08.38.18.64.24.59.05-.07,1.05-1.47,2.21-3.14,1.16-1.65,3.25-4.65,4.65-6.63,1.41-1.98,4.08-5.79,5.97-8.46,1.87-2.66,3.49-4.93,3.57-5.03.13-.14.71.38,3.04,2.78,1.59,1.63,2.95,2.97,3.03,2.97.07-.01.75-1.06,1.5-2.34,3.86-6.53,4.43-7.49,4.49-7.51.05,0,.63.93,1.3,2.06,3.77,6.33,4.53,7.6,4.64,7.72.08.08,1.26-1.01,3.12-2.85l2.99-2.98,7.71,11.53c5.74,8.61,7.73,11.47,7.8,11.3.43-1.17.54-6.48.17-8.87-.93-6.26-3.57-11.53-8.01-16.06Z"/>
  <path class="st0" d="M87.4,37.32c-.01-.07-.07-.42-.13-.79-.05-.35-.24-1.27-.42-2.03-2.03-8.75-6.6-16.61-13.1-22.54-1.91-1.74-2.82-2.45-4.99-3.98-2.87-2.01-7.31-4.22-10.62-5.3-1.34-.43-3.71-1.13-4.14-1.21-.19-.03-.86-.17-1.52-.3-.65-.13-1.69-.32-2.31-.39-.62-.08-1.52-.2-2-.28-1.15-.16-7.36-.16-8.51,0-.49.08-1.38.2-2,.28-3.11.42-7.8,1.72-10.87,3.02-3.57,1.5-7.65,3.96-10.74,6.48-1.57,1.27-5.16,4.89-6.35,6.38C5.28,22.25,2.53,27.96,1,34.8c-.2.84-.38,1.78-.42,2.1-.04.3-.09.63-.12.72-.04.09-.09.54-.13.98-.04.45-.13,1.25-.2,1.77-.17,1.3-.17,6.17.01,7.74.4,3.53,1.01,6.49,1.99,9.47,4.56,13.95,15.79,24.71,29.94,28.67,2.74.76,5.82,1.31,8.5,1.51,1.37.1,6.69.05,7.71-.07,3.83-.47,6.6-1.09,9.81-2.15,6.1-2.02,11.7-5.46,16.53-10.14,6.56-6.34,10.87-14.34,12.55-23.33.46-2.43.82-5.96.82-7.99,0-1.4-.37-5.64-.59-6.77ZM72.91,75.73c-6.96,6.26-15.57,10.06-24.82,10.98-1.24.12-6.82.16-7.92.04-5.73-.58-10.55-1.94-15.48-4.41C11.51,75.77,2.87,63.31,1.17,48.4c-.26-2.27-.19-7.19.13-9.63.83-6.27,2.95-12.2,6.21-17.36C13.8,11.44,23.95,4.45,35.46,2.16c12.22-2.43,24.45.37,34.56,7.91,2.11,1.57,5.85,5.21,7.46,7.23,5.95,7.51,9.12,16.07,9.42,25.52.41,12.4-4.8,24.65-13.98,32.91Z"/>
  <path class="st0" d="M46.32,82.95c-.65.03-1.19.03-1.19,0,0-.21.36-.59.92-.95,1.22-.79,1.54-1.42,1.12-2.23-.25-.49-.57-.66-1.24-.66-.72,0-1.15.22-1.4.72-.3.66-.26.98.13.98.26,0,.33-.07.33-.33,0-.18.12-.45.26-.59.15-.14.41-.26.59-.26.4,0,.86.42.86.8,0,.3-.46.77-1.32,1.35-.54.37-.92.98-.92,1.52,0,.24.08.26.71.26.38,0,1.07-.04,1.51-.08.68-.08.8-.13.8-.35,0-.24-.08-.25-1.19-.2Z"/>
  <path class="st0" d="M51.8,80.62c-.32-.2-.32-.24-.15-.49.34-.48-.04-1.3-.72-1.56-.41-.16-1.34.09-1.65.42-.12.13-.25.48-.29.79-.08.53-.07.55.24.5.23-.03.33-.13.36-.37.08-.5.41-.79.91-.79.36,0,.46.07.58.35.17.47.08.67-.47.89-.61.26-.5.59.21.59.5,0,.91.34.91.76,0,.3-.63.81-1,.81-.4,0-.84-.33-.84-.62,0-.12-.11-.17-.29-.14-.38.05-.36.55.05.98.38.41,1.4.42,2.03.03.82-.5.88-1.67.13-2.17Z"/>
  <path class="st0" d="M36.53,78.82c-.17.21-.38.3-.69.3-.26,0-.46.08-.5.2-.09.22-.04.26.54.39.22.04.42.1.42.13,0,.01-.12.62-.26,1.31s-.26,1.39-.26,1.52c0,.17.09.25.3.25.28,0,.32-.13.67-2.01.21-1.09.41-2.06.43-2.15.11-.29-.42-.25-.66.05Z"/>
  <path class="st0" d="M27.5,77.17c-.44.8-.82,1.4-.86,1.35-.04-.07-.11-.96-.16-1.99-.09-1.8-.12-1.89-.42-2.09-.19-.12-.36-.16-.42-.09-.07.07-.57.97-1.13,2.01-1,1.86-1.05,2.1-.51,2.11.07,0,.49-.66.91-1.47.76-1.42.79-1.44.87-1.04.05.24.13,1.14.18,1.99.08,1.39.13,1.59.37,1.76.16.11.32.2.35.2.15,0,2.12-3.84,2.06-4.02-.17-.45-.5-.1-1.24,1.27Z"/>
  <path class="st0" d="M61.35,74.25c-.26.14-.25.18.51,1.64.44.81.79,1.63.79,1.81,0,.43-.67,1.02-1.17,1.02s-.82-.34-1.61-1.82c-.38-.74-.77-1.32-.84-1.32-.07,0-.23.07-.33.13-.16.11-.12.26.32,1.08.86,1.6,1.25,2.16,1.7,2.39.57.28.82.26,1.51-.07.66-.33,1.08-.91,1.08-1.53,0-.37-1.24-2.99-1.58-3.35-.05-.07-.22-.05-.38.03Z"/>
  <path class="st0" d="M66.66,70.49c-.2.2-.13.32.86,1.52.58.74,1.07,1.34,1.07,1.37,0,.03-.88-.25-1.98-.6-1.96-.67-1.98-.67-2.23-.41-.25.26-.25.28,1.15,1.99.78.96,1.45,1.74,1.49,1.74.05,0,.16-.09.25-.2.19-.22.2-.18-.72-1.31-.3-.35-.71-.88-.91-1.14l-.37-.49,2,.67c1.96.66,2,.66,2.25.41.25-.24.22-.28-1.08-1.88-1.67-2.06-1.53-1.93-1.78-1.68Z"/>
  <path class="st0" d="M18.53,71.25l-.93-.85.46-.49.45-.49,1,.93c.91.85,1.01.91,1.17.7.14-.21.04-.35-.95-1.3-.61-.58-1.17-1.08-1.25-1.09-.09-.01-.83.7-1.65,1.58l-1.49,1.6,1.21,1.16c1.12,1.07,1.22,1.15,1.42.94.2-.2.13-.28-.78-1.1l-.98-.89.44-.54c.24-.3.46-.55.5-.55.03,0,.47.37.98.8.79.71.93.79,1.12.63.2-.16.12-.26-.73-1.04Z"/>
  <path class="st0" d="M71.86,69.97c-2.46-2.3-2.34-2.2-2.6-1.95-.21.21-.13.32,1.42,1.78,1.59,1.51,1.66,1.55,1.9,1.31.24-.22.21-.26-.72-1.14Z"/>
  <path class="st0" d="M16.94,67.72c.45.51.53.55.71.38.19-.18.08-.34-.99-1.61-.98-1.16-1.22-1.39-1.38-1.26-.26.21-.24.26.28.87l.46.54-1.53,1.27c-1.45,1.23-1.5,1.29-1.29,1.52.22.25.24.25.5.01.16-.13.83-.71,1.5-1.27l1.24-1.02.5.58Z"/>
  <path class="st0" d="M73.22,62.99c-.16.25-.07.41.96,1.78.63.83,1.12,1.53,1.09,1.56-.04.03-.87-.2-1.87-.49-1.74-.5-1.82-.53-2-.29-.09.13-.18.26-.18.3s1.03.35,2.28.68c1.24.34,2.29.62,2.32.62.07.01.4-.42.41-.53,0-.11-2.64-3.86-2.74-3.9-.05-.01-.17.09-.26.25Z"/>
  <path class="st0" d="M12.67,62.85c.4-.16.72-.01,1.03.42.24.33.28,1.1.08,1.22-.16.11-.17.33,0,.59.09.16.17.14.45-.13.49-.45.47-1.23-.05-1.94-.61-.84-1.19-1.02-1.96-.62-.63.32-.7.83-.26,1.97.3.81.29,1.35-.04,1.56-.62.38-1.7-.84-1.41-1.6.08-.2.2-.38.28-.43.09-.05.08-.18-.03-.39l-.17-.3-.37.42c-.28.3-.38.56-.38.91,0,.6.55,1.55,1.09,1.89.51.3.92.32,1.42.03.66-.39.73-.81.33-1.98-.42-1.26-.42-1.44,0-1.6Z"/>
  <path class="st0" d="M80.03,59.18c-.24-.13-.32-.04-.84,1.1l-.58,1.26-.63-.28c-.34-.14-.65-.29-.67-.3-.01-.03.2-.55.49-1.17.5-1.08.51-1.13.26-1.21-.14-.05-.29-.07-.32-.04-.03.01-.25.5-.51,1.06-.25.55-.49,1.01-.53,1.01-.05,0-.87-.35-1.11-.47-.01-.01.21-.56.51-1.23.46-1,.53-1.22.37-1.32-.11-.07-.22-.12-.28-.12-.12,0-1.44,2.78-1.38,2.94.03.08.9.54,1.95,1.02,1.04.49,1.94.88,1.99.89.1,0,.67-1.08,1.21-2.3.32-.71.33-.72.07-.85Z"/>
  <path class="st0" d="M6.27,55.5c0-.11,1.05-.46,1.32-.43.04,0,.22.5.41,1.09.34,1.1.45,1.26.74,1.08.13-.08.09-.34-.16-1.14-.18-.58-.33-1.11-.33-1.19,0-.12.8-.45,1.09-.45.04,0,.26.56.49,1.25.22.68.46,1.25.5,1.25.05,0,.17-.05.28-.12.16-.1.1-.37-.3-1.64-.26-.84-.55-1.52-.65-1.52-.2,0-4.03,1.26-4.12,1.35-.07.07.8,2.89.95,3.14.04.07.17.05.32-.03.22-.12.22-.18-.15-1.31-.21-.64-.38-1.23-.38-1.31Z"/>
  <path class="st0" d="M9.43,52.13c0-.35-.01-.37-1.53-.09l-.42.08-.2-1.1c-.11-.59-.18-1.1-.16-1.13.01-.03.42-.11.91-.18.86-.14.99-.25.75-.62-.11-.16-.36-.14-1.69.1-2.73.51-2.81.54-2.81.8,0,.38.17.41,1.2.2.51-.12.96-.18.97-.17.13.18.41,2.15.3,2.22-.07.04-.54.16-1.04.25-.72.12-.91.2-.86.35.04.11.08.25.08.31,0,.16-.12.17,2.32-.29,2.11-.41,2.16-.42,2.16-.74Z"/>
  <path class="st0" d="M82.13,45.46c-.71-.13-1.21.35-1.58,1.52-.33,1.06-.62,1.3-1.12.97-.65-.42-.28-1.9.47-1.9.2,0,.26-.09.26-.33,0-.5-.57-.45-1.12.11-.92.92-.7,2.45.41,2.83.5.17.58.17.91-.04.34-.22.43-.39.91-1.69.29-.76.62-.98,1.07-.7.4.26.51.81.3,1.47-.13.41-.26.54-.63.65-.3.11-.47.25-.5.43-.04.22.03.28.34.28,1.08,0,1.82-1.56,1.3-2.79-.24-.54-.44-.71-1.03-.81Z"/>
  <path class="st0" d="M7.94,46.67l.08.31c.05.17.09.51.09.75,0,.38.04.43.3.39.16-.03.29-.07.28-.11-.01-.04-.05-.85-.11-1.8l-.11-1.75h-.33c-.33,0-.33.01-.25.71.12.86.22.81-2.12.93l-1.75.09v.39c0,.28.05.38.18.33.09-.04.97-.1,1.95-.16l1.78-.1Z"/>
  <path class="st0" d="M81.73,41.51c-2.85.17-3,.2-3,.58v.33l1.23-.09c3.43-.25,3.25-.21,3.25-.58v-.33l-1.48.09Z"/>
  <path class="st0" d="M78.76,37c-.09,0-.2-.28-.25-.67-.09-.67-.33-.95-.61-.67-.11.11.13,1.64.51,3.28.04.18.17.29.33.29.24,0,.25-.05.17-.77l-.09-.77,1.92-.35c1.88-.35,2.05-.43,1.8-.84-.1-.16-.4-.13-1.88.16-.96.2-1.82.35-1.91.35Z"/>
  <path class="st0" d="M6.4,38.69c1.07.32,2.29-.13,2.7-1,.62-1.29.24-2.49-.94-3.07-.82-.38-1.92-.41-2.54-.05-.92.54-1.34,2.03-.82,2.9.32.52,1,1.04,1.59,1.22ZM5.89,35.15c.4-.21,1.48-.17,1.94.07.58.29.95.83.95,1.35,0,.58-.33,1.21-.7,1.34-.51.2-.82.25-1.08.18-.14-.03-.39-.08-.55-.12-.17-.03-.5-.24-.76-.46-.38-.34-.46-.5-.46-.93,0-.6.29-1.22.67-1.43Z"/>
  <path class="st0" d="M77.58,30.85c1.01.17,1.01.04-.03,1.35-.45.58-.55.8-.49,1.06.05.18.13.33.18.33s.49-.55.98-1.22c.82-1.13.93-1.25,1.7-1.56.88-.35.98-.45.78-.76-.09-.16-.24-.14-.96.12l-.86.29-1.46-.29c-.8-.16-1.49-.26-1.53-.24-.03.04-.03.2.01.34.08.3.14.31,1.67.58Z"/>
  <path class="st0" d="M40.98,79.12c-.53,0-.67.07-1,.41-.32.34-.38.53-.38,1.06s.07.71.38,1.04c.41.41,1.09.51,1.61.25.32-.17.33-.03.03.59-.33.68-1.16.81-1.42.22-.13-.29-.54-.51-.68-.37-.13.13.09.74.36.97.14.12.44.26.63.3,1.24.25,2-.79,2-2.7,0-.83-.03-.9-.45-1.32-.38-.38-.54-.45-1.07-.45ZM41.78,80.91c-.02.08-.05.14-.09.2,0,0,0,.01-.01.02-.03.05-.05.1-.08.14-.08.08-.18.13-.27.16-.24.1-.52.08-.77-.08-.06-.04-.12-.08-.16-.12,0,0,0,0-.01,0-.02-.02-.03-.05-.05-.07-.03-.04-.06-.08-.09-.13-.01-.03-.02-.06-.03-.09-.02-.05-.04-.11-.04-.16-.05-.43.22-.93.63-1.07.39-.15.83.03.98.51.04.12.06.25.06.39,0,.12-.02.22-.05.32Z"/>
  <path class="st0" d="M23.99,73.2c-.29-.32-2.17-1.73-2.23-1.67-1.07,1.43-2.48,3.44-2.53,3.58-.04.09.04.24.17.32.22.11.33.01.82-.64l.57-.77.49.34c.78.58,1.07.87,1.07,1.06,0,.12-.18.5-.42.85l-.42.64.32.24c.32.24.33.24.49-.14.09-.22.29-.58.45-.79.17-.25.25-.51.21-.72-.04-.24,0-.32.19-.32.13,0,.43-.17.67-.38.5-.45.58-1.14.17-1.6ZM23.29,74.44c-.07.07-.15.12-.23.16,0,0-.02,0-.03,0-.07.03-.13.05-.18.05-.05,0-.17-.05-.32-.13-.15-.07-.32-.17-.55-.33-.04-.03-.08-.05-.12-.08-.3-.2-.57-.4-.63-.49,0,0,0,0,0,0-.07-.1.65-1.19.78-1.19.02,0,.1.05.2.12.15.1.36.25.59.41.79.59.95,1.06.49,1.47Z"/>
  <path class="st0" d="M12.06,59.5c0-.08-.08-.25-.16-.37-.16-.2-.34-.2-2.48-.03-1.26.1-2.34.2-2.4.2s-.04.14.04.32c.15.29.21.32.84.25l.7-.08.4.79.41.79-.54.53c-.47.47-.51.56-.37.83.16.29.22.24,1.86-1.39.93-.93,1.7-1.76,1.7-1.82ZM9.82,60.88s-.13-.17-.23-.4c-.14-.3-.29-.67-.26-.71,0,0,0,0,0,0h0s.43-.07.93-.11l.92-.09h0s0,0,0,0l-.62.63-.02.02c-.17.17-.32.32-.45.44-.15.13-.25.22-.27.22Z"/>
  <path class="st0" d="M81.56,52.3c-.51-.05-1.04-.05-1.15-.01-.12.05-.34-.05-.54-.25-.65-.63-1.54-.56-1.96.16-.22.37-.82,2.51-.72,2.6.03.03,1,.32,2.15.63,1.15.31,2.15.52,2.2.47.3-.28,0-.58-.77-.79-.45-.12-.8-.3-.83-.41-.01-.1.08-.54.21-.97.26-.87.25-.87,1.66-.71.46.05.53.01.61-.29.11-.34.09-.34-.86-.43ZM79.18,54.66c-.08.01-.41-.07-.75-.16l-.61-.2h0s0,0,0,0l.25-.88c.26-.94.54-1.26.96-1.13.09.03.17.06.24.09.04.02.07.04.11.07.02.01.04.03.06.05.14.12.2.27.2.49,0,.5-.32,1.63-.46,1.67Z"/>
  <path class="st0" d="M5.02,43.43c.45,0,.87-.07.95-.14.12-.12.25-.08.51.13.21.17.54.28.84.28.92,0,1.28-.76,1.3-2.78.01-.68-.01-.76-.26-.76-.14,0-1.13-.07-2.19-.14-1.04-.08-1.92-.12-1.95-.09-.01.03-.08.17-.12.34-.09.25-.05.29.29.29.21,0,.67.04,1.01.08l.62.09-.09.87c-.05.47-.16.95-.22,1.04-.08.09-.46.16-.98.16h-.84v.49c0,.38.04.45.16.33.09-.09.51-.16.96-.16ZM6.93,40.71c.13,0,.29.03.51.07l.59.09-.04.79s0,0,0,.01c0,.13-.02.26-.04.39,0,0,0,.02,0,.02-.04.29-.11.55-.18.66-.06.09-.14.15-.24.2-.2.13-.46.13-.76-.05,0,0,0,0,0,0-.2-.11-.24-.32-.24-1.11s.02-1.07.4-1.07Z"/>
  <path class="st0" d="M7.92,33.25c1.75.62,1.99.68,2.15.5.08-.12.16-.25.16-.3s-.75-.34-1.66-.64c-.91-.3-1.63-.58-1.61-.6.03-.03.92-.25,1.99-.49,1.08-.25,1.98-.47,2-.5.03-.03.08-.2.13-.38.08-.32.03-.34-2.04-1.05-1.8-.62-2.13-.7-2.24-.53-.07.11-.11.25-.09.32.03.08.74.35,1.59.64.86.29,1.5.56,1.44.62-.05.05-.95.29-1.99.53-1.74.41-1.88.47-1.96.77-.04.18-.03.35.04.38.07.03,1.01.35,2.1.73Z"/>
  <path class="st0" d="M64.34,19.02c-.04.08.03.25.16.39.12.13.25.25.29.25.16,0,.95-.64,1.41-1.14.5-.55.55-.58.94-.43.33.12.43.26.59.76.2.66.55.84.62.34.08-.55-.33-1.23-.86-1.44-.46-.2-.47-.22-.25-.39.17-.12.22-.28.18-.51-.07-.33.07-.45.22-.2.17.26.47-.13.33-.41-.13-.24-1.38-.91-1.69-.91-.21,0-.2.43.01.64.13.13.11.18-.08.29-.3.17-.17.38.25.38.35,0,.39.11.14.45-.16.21-.24.21-.76.08-.32-.09-.66-.22-.75-.3-.33-.26-.45.1-.16.47.21.26.4.35.74.35.25,0,.45.05.45.12,0,.13-1.04,1.06-1.19,1.06-.05,0-.2-.12-.33-.26-.3-.34-.51-.34-.33,0,.08.14.11.33.05.41Z"/>
  <path class="st0" d="M65.47,13.6q0-.28-.29-.03c-.76.62-1.01.89-.95,1,.24.38,1.24-.39,1.24-.97Z"/>
  <path class="st0" d="M53.83,9.37c.05.11.13.2.2.2.25,0,1.04,1.23,1.04,1.64,0,.22.04.46.09.5.34.34.61-.35.4-1.04-.21-.67-1-1.49-1.45-1.49-.25,0-.33.05-.28.2Z"/>
  <path class="st0" d="M33.94,11.05c.05.05.32.09.59.09.45,0,.55-.07,1.03-.68.38-.51.49-.74.38-.85-.08-.09-.23-.17-.32-.17-.12,0-.18-.17-.2-.49-.04-.96-.09-1.14-.38-1.38-.33-.26-.86-.32-1-.09-.04.08.07.29.25.46.53.49.58.84.2,1.15-.37.3-.35.6.03.6.46,0,.42.28-.12.76-.3.28-.5.54-.46.59Z"/>
  <path class="st0" d="M38.27,9.35c.25.25.44.26.92.08.38-.14.67-.04,1.29.47.61.51.9.33.55-.33-.24-.47-.94-.71-2.02-.71-.82,0-1.07.17-.75.49Z"/>
  <path class="st0" d="M37.28,7.99c.09.83.22,1.64.28,1.81.15.39.46.3.42-.12-.01-.17-.05-1.01-.09-1.88-.04-1.34-.08-1.59-.32-1.81-.36-.37-.72-.24-.57.18.07.17.18.98.28,1.81Z"/>
  <path class="st0" d="M52.88,9.73c.2-.1.62-.42.92-.68.29-.28.62-.53.72-.55.26-.09.34-1.48.08-1.69-.3-.25-.59-.07-.59.38,0,.33-.07.39-.4.47-.21.05-.58.07-.82.04-.37-.03-.45.01-.47.25-.03.2.08.42.3.62l.34.33-.3.2c-.17.11-.58.32-.92.47-.36.14-.63.33-.63.41,0,.17,1.28,0,1.77-.24Z"/>
  <path class="st0" d="M39.43,7.31c.5-.24.37-.42-.38-.53-.47-.07-.7-.04-.83.09-.16.14-.16.22-.01.38.2.25.74.28,1.22.05Z"/>
  <path class="st0" d="M19.18,12.14l.36.59-.47.68c-.26.37-.43.72-.38.77.05.05.3.12.55.13.4.04.46,0,.57-.38.16-.53.24-.54.53-.05.21.35.21.39-.04.71-.57.71-.87,1.93-.49,1.93.32,0,.49-.32.49-.92,0-.43.08-.68.25-.84.37-.34.45-.04.13.5-.25.42-.25.49-.07.55.13.05.33-.01.47-.14.14-.13.3-.2.36-.16.09.1-.46,1.93-.59,1.93-.12,0-1.24-.79-1.53-1.09-.13-.13-.37-.22-.53-.2-.33.05-.46.5-.15.5.12,0,.86.39,1.63.88l1.42.88-.11.47c-.07.25-.12.54-.12.63,0,.08.05.16.12.16.14,0,.51-.98.62-1.71.17-1.1.26-1.14.87-.38.54.7.53.89-.05.9-.41,0-.25.24.2.3.22.04.54.11.68.14.15.04.34.03.45-.04.18-.12.05-.32-1.53-2.27-.35-.42-.41-.56-.3-.77.13-.24.54-.29,2.11-.28.04,0,.2.04.36.08.22.08.38.01.63-.26.18-.2.33-.41.33-.47,0-.24-.45-.28-.84-.05-.45.24-.57.26-1.69.39l-.76.09v-.48c0-.26-.07-.87-.16-1.33-.12-.68-.22-.88-.46-1-.41-.18-.74.08-.4.33.2.16.62,1.56.62,2.11,0,.39-.46.25-.9-.29-.34-.42-.41-.6-.34-.96.07-.39.05-.41-.12-.2-.26.32-.28.3-.55-.32l-.25-.54.3-.24c.37-.28.19-.45-.35-.34-.32.08-.4.01-.71-.55-.47-.83-.62-.95-1.03-.79l-.32.12.42.33c.24.18.58.6.76.92ZM21.74,16.69c0-.26.05-.43.14-.41h0c.16.05.16-.01.04.87-.09.75-.13.8-.49.71-.05,0-.08-.02-.11-.03-.09-.04-.05-.11.15-.35.14-.2.26-.54.26-.79Z"/>
  <path class="st0" d="M66.2,14.37c.12.05.2.25.2.46,0,.43.09.47.33.16.14-.18.22-.2.47-.08.17.08.54.18.8.24.28.04.54.17.61.28.07.13.46.26,1.04.34.61.09.92.2.88.3-.04.09-.28.12-.68.07-.34-.04-.79-.04-1.01,0l-.39.08.5.17c.26.09.49.21.49.28,0,.05.2.22.44.37.22.14.45.28.47.28.16.03.8-.72.8-.92,0-.34-.51-.91-.83-.92-.17,0,.14-.22.83-.56.62-.3,1.12-.63,1.12-.74s-.25-.35-.57-.56c-.45-.3-.61-.35-.72-.24-.12.13-.08.24.2.47.33.29.34.32.12.51-.16.14-.37.18-.73.12-.46-.08-.5-.05-.42.2.08.24.03.29-.38.37-.61.11-.71,0-.37-.38.26-.28.51-.84.46-1.04-.01-.04.07-.16.17-.24.22-.18.26-.87.05-.98-.08-.05-.21.01-.3.14-.12.16-.2.18-.26.07-.13-.21-.49.07-.4.3.04.09-.09.24-.28.32-.47.21-.5.2-.26-.14.17-.26.17-.34.01-.55-.18-.25-.47-.17-.47.13,0,.33-.71,1.64-.88,1.64-.24,0-.21-.47.04-.92.24-.38.17-.85-.1-.76-.08.03-.24.37-.34.74-.17.62-.22.67-.5.6-.24-.07-.32-.03-.32.13,0,.12.09.25.2.29ZM68.23,13.76s.33-.07.63-.12c.16-.03.3-.04.4-.04.3.02.32.22.05.56l-.24.3h0s0,0,0,0l-.16-.29c-.11-.22-.25-.31-.35-.29-.11.02-.19.16-.19.39,0,.29-.16.45-.31.4-.05-.02-.1-.06-.15-.13-.08-.13.19-.8.32-.8Z"/>
</svg>