<svg width="88" height="88" viewBox="0 0 88 88" fill="none" xmlns="http://www.w3.org/2000/svg">
<path d="M40.5748 87.3889C37.9011 87.1911 34.8183 86.64 32.0779 85.8788C17.9295 81.9162 6.69219 71.1576 2.13477 57.2098C1.15945 54.2307 0.540156 51.2651 0.144571 47.7362C-0.0395808 46.1607 -0.0395808 41.2936 0.132294 39.9937C0.19777 39.4685 0.289164 38.6691 0.328723 38.2231C0.368281 37.777 0.421481 37.331 0.461039 37.2382C0.486957 37.1468 0.540156 36.8181 0.579715 36.5166C0.619273 36.2015 0.803425 35.2576 1.00122 34.4173C2.529 27.5805 5.28309 21.8731 9.72183 16.2708C10.9072 14.7881 14.5043 11.1664 16.0717 9.89372C19.1545 7.37426 23.2386 4.90799 26.8084 3.41158C29.8776 2.11297 34.5673 0.812996 37.6761 0.394221C38.2954 0.315104 39.1916 0.196428 39.6785 0.118676C40.8257 -0.0395585 47.0433 -0.0395585 48.1891 0.118676C48.6761 0.196428 49.5723 0.315104 50.1916 0.394221C50.8109 0.471974 51.8517 0.656126 52.4969 0.787078C53.1557 0.918031 53.8269 1.06262 54.0124 1.08854C54.4339 1.16766 56.8047 1.86334 58.1483 2.29576C61.4548 3.37202 65.8949 5.59003 68.7663 7.5966C70.9407 9.11892 71.8492 9.82825 73.7589 11.5729C80.2533 17.504 84.8257 25.3638 86.8541 34.1158C87.0383 34.877 87.2224 35.795 87.2756 36.1497C87.3411 36.5166 87.3943 36.8713 87.4066 36.9368C87.6317 38.0649 88 42.3031 88 43.7067C88 45.7406 87.6439 49.2708 87.1829 51.6975C85.4969 60.6869 81.1891 68.69 74.6292 75.0275C69.7935 79.7118 64.1953 83.1507 58.0965 85.1709C54.8813 86.2335 52.1149 86.8501 48.2818 87.3234C47.267 87.4407 41.9443 87.4939 40.5748 87.3889ZM48.0963 86.3385C57.3448 85.4205 65.9604 81.6147 72.9159 75.3563C82.0976 67.1022 87.3016 54.8472 86.8937 42.4477C86.5909 33 83.4289 24.4322 77.4747 16.927C75.8664 14.9054 72.1261 11.2715 70.0186 9.6973C59.9134 2.15253 47.6885 -0.642485 35.4635 1.78423C23.9493 4.06771 13.8059 11.0614 7.50928 21.0342C4.25457 26.1905 2.13477 32.1215 1.30404 38.3936C0.987577 40.834 0.90846 45.7542 1.17309 48.0241C2.87138 62.9294 11.5142 75.3958 24.7009 81.9694C29.628 84.4356 34.4486 85.8011 40.1792 86.3781C41.2732 86.4968 46.8591 86.4572 48.0963 86.3385Z" fill="#29448A"/>
<path d="M40.9431 83.0716C40.7467 83.0321 40.4562 82.8875 40.3116 82.7702C40.0483 82.5342 39.8246 81.9299 39.9555 81.7989C40.1001 81.6543 40.5094 81.878 40.6403 82.1659C40.9036 82.7565 41.7343 82.6256 42.063 81.9435C42.3659 81.327 42.3536 81.1824 42.0371 81.3529C41.5229 81.6148 40.8381 81.5097 40.4302 81.1032C40.1138 80.7759 40.0483 80.6053 40.0483 80.0665C40.0483 79.5291 40.1138 79.3449 40.4302 79.0039C40.759 78.6629 40.9036 78.5974 41.4315 78.5974C41.958 78.5974 42.1162 78.6629 42.4982 79.0435C42.9197 79.4636 42.9456 79.5414 42.9456 80.368C42.9456 82.2845 42.1817 83.3212 40.9431 83.0716ZM42.0508 80.7363C42.1954 80.6053 42.2881 80.3421 42.2881 80.0665C42.2881 78.8334 40.8777 78.7802 40.628 80.0011C40.4698 80.7622 41.4574 81.2738 42.0508 80.7363Z" fill="#29448A"/>
<path d="M44.9218 82.7961C44.9218 82.2586 45.3038 81.6407 45.844 81.2738C46.7006 80.6967 47.1617 80.2248 47.1617 79.9219C47.1617 79.5414 46.7006 79.1226 46.305 79.1226C46.1209 79.1226 45.8576 79.2399 45.7116 79.3845C45.567 79.5291 45.4484 79.791 45.4484 79.9751C45.4484 80.237 45.3829 80.3025 45.1196 80.3025C44.724 80.3025 44.6845 79.9751 44.9873 79.319C45.2383 78.8198 45.6598 78.5974 46.3841 78.5974C47.0566 78.5974 47.3717 78.7679 47.6227 79.2535C48.0442 80.0665 47.7278 80.6967 46.5028 81.4838C45.9367 81.8385 45.5807 82.2191 45.5807 82.4291C45.5807 82.4551 46.1209 82.4551 46.7661 82.4291C47.8723 82.3759 47.9515 82.3896 47.9515 82.6256C47.9515 82.8479 47.8328 82.9011 47.148 82.9802C46.7006 83.0184 46.0158 83.058 45.6339 83.058C45.001 83.058 44.9218 83.0321 44.9218 82.7961Z" fill="#29448A"/>
<path d="M50.0865 82.2314C49.6772 81.7989 49.6513 81.2997 50.0333 81.2479C50.2174 81.2219 50.3238 81.2738 50.3238 81.3924C50.3238 81.6803 50.7712 82.009 51.1668 82.009C51.5351 82.009 52.1681 81.4975 52.1681 81.1947C52.1681 80.7759 51.7588 80.4335 51.2582 80.4335C50.5475 80.4335 50.4425 80.1061 51.0481 79.8442C51.6006 79.6205 51.6934 79.4241 51.5215 78.9507C51.4042 78.6629 51.2978 78.5974 50.9418 78.5974C50.4425 78.5974 50.1124 78.8853 50.0333 79.3845C50.0073 79.6205 49.9023 79.7255 49.6772 79.7514C49.3744 79.8046 49.3621 79.7787 49.4413 79.2536C49.4808 78.9507 49.6118 78.5974 49.7304 78.4665C50.0333 78.1377 50.969 77.8881 51.3769 78.0463C52.0617 78.3082 52.4436 79.1226 52.1012 79.6069C51.9307 79.8565 51.9307 79.896 52.2472 80.0925C52.9974 80.5917 52.932 81.7594 52.1149 82.2586C51.4819 82.6515 50.4684 82.6379 50.0865 82.2314Z" fill="#29448A"/>
<path d="M36.2277 82.1535C36.2277 82.0212 36.3464 81.3269 36.491 80.6312C36.6356 79.9355 36.7543 79.3312 36.7543 79.3189C36.7543 79.293 36.5578 79.2262 36.3328 79.188C35.753 79.0557 35.7012 79.0175 35.7926 78.7938C35.8321 78.6751 36.0299 78.5973 36.2932 78.5973C36.596 78.5973 36.8075 78.5046 36.9793 78.2959C37.2153 77.993 37.7432 77.9535 37.6368 78.2427C37.6109 78.3341 37.4131 79.3053 37.203 80.3952C36.847 82.2708 36.8075 82.4018 36.5305 82.4018C36.3205 82.4018 36.2277 82.324 36.2277 82.1535Z" fill="#29448A"/>
<path d="M26.7827 79.1879C26.5454 79.0174 26.4922 78.8196 26.4131 77.4296C26.3612 76.5757 26.2821 75.6713 26.2289 75.4353C26.1498 75.0275 26.1239 75.0548 25.36 76.4707C24.9385 77.285 24.517 77.9412 24.4501 77.9412C23.91 77.9275 23.9632 77.6915 24.9644 75.8282C25.5305 74.7915 26.0311 73.8857 26.0966 73.8203C26.1634 73.7548 26.334 73.7943 26.5195 73.913C26.8223 74.1095 26.8482 74.2008 26.941 75.9987C26.9928 77.0354 27.0583 77.9275 27.0978 77.993C27.1374 78.0462 27.5193 77.4419 27.9545 76.6426C28.6925 75.2648 29.0212 74.9224 29.1931 75.3685C29.2586 75.5404 27.2834 79.3844 27.1374 79.3844C27.0978 79.3844 26.941 79.293 26.7827 79.1879Z" fill="#29448A"/>
<path d="M61.1656 78.6493C60.7168 78.4269 60.3226 77.8622 59.466 76.2621C59.0308 75.4478 58.9913 75.2909 59.1495 75.1859C59.2545 75.1204 59.4128 75.0549 59.4796 75.0549C59.5573 75.0549 59.9407 75.6442 60.3226 76.3794C61.1124 77.8622 61.4152 78.2032 61.9295 78.2032C62.4301 78.2032 63.1012 77.6126 63.1012 77.1802C63.1012 76.996 62.7466 76.183 62.3114 75.3686C61.5475 73.9132 61.5339 73.8736 61.7972 73.729C61.9554 73.6499 62.1273 73.6376 62.1791 73.7031C62.5215 74.0578 63.7601 76.6809 63.7601 77.0492C63.7601 77.678 63.3386 78.2564 62.6797 78.5838C61.9813 78.9125 61.7317 78.9248 61.1656 78.6493Z" fill="#29448A"/>
<path d="M22.2633 76.6289L21.9469 76.3929L22.3684 75.749C22.6057 75.3957 22.7899 75.0152 22.7899 74.8965C22.7899 74.7001 22.5007 74.4109 21.7232 73.8339L21.2362 73.4928L20.6701 74.2663C20.1817 74.9224 20.0767 75.0152 19.853 74.9101C19.7207 74.831 19.6416 74.6864 19.6811 74.595C19.7343 74.4504 21.1434 72.4425 22.2115 71.0129C22.2633 70.9475 24.1471 72.3647 24.4377 72.6799C24.8455 73.1382 24.7664 73.8339 24.2658 74.2799C24.0285 74.49 23.7256 74.6605 23.5947 74.6605C23.4092 74.6605 23.3696 74.7396 23.4092 74.9756C23.4487 75.1857 23.3696 75.4476 23.1991 75.6972C23.0409 75.9073 22.8431 76.2619 22.7503 76.4843C22.5934 76.8649 22.5798 76.8649 22.2633 76.6289ZM23.7393 73.913C24.2003 73.5065 24.0421 73.0332 23.2509 72.4425C22.8567 72.1547 22.5007 71.9051 22.4611 71.9051C22.3288 71.9051 21.6181 72.9936 21.6836 73.0986C21.8159 73.3087 23.1063 74.1353 23.3041 74.1353C23.4092 74.1353 23.607 74.0439 23.7393 73.913Z" fill="#29448A"/>
<path d="M65.9742 73.8338C64.5774 72.1151 64.5774 72.1014 64.827 71.8395C65.078 71.5776 65.0916 71.5776 67.0545 72.246C68.1472 72.6007 69.0297 72.8762 69.0297 72.8503C69.0297 72.823 68.5428 72.2201 67.963 71.4848C66.9754 70.2776 66.9086 70.1603 67.1064 69.9625C67.3574 69.7143 67.2114 69.5819 68.8852 71.6431C70.1892 73.2432 70.2151 73.2827 69.9655 73.5187C69.7145 73.7683 69.675 73.7683 67.712 73.1122L65.7109 72.4424L66.0792 72.9281C66.277 73.1913 66.6849 73.7151 66.9877 74.0698C67.9098 75.1979 67.8976 75.1597 67.712 75.382C67.6206 75.4871 67.5156 75.5785 67.4624 75.5785C67.4228 75.5785 66.7504 74.7914 65.9742 73.8338Z" fill="#29448A"/>
<path d="M42.5516 74.4381C36.0299 74.1489 29.6283 71.7086 24.4379 67.5358C23.0015 66.3805 20.5516 63.8487 19.3526 62.2609C11.6455 52.1176 11.0139 38.3662 17.7457 27.5285C21.1177 22.0967 26.3735 17.6607 32.276 15.2859C42.8149 11.0476 54.5788 12.7937 63.4317 19.9047C65.9866 21.9521 68.7667 25.1537 70.4663 27.961C77.0398 38.9173 76.0645 52.9715 68.0423 62.917C61.8507 70.5928 52.3921 74.8705 42.5516 74.4381ZM48.4131 73.4273C52.1412 72.823 55.093 71.8395 58.1882 70.1999C66.6851 65.6861 72.4811 57.3666 73.852 47.6966C74.1412 45.6354 74.1412 41.936 73.852 39.8108C72.4811 29.7847 66.329 21.2305 57.3056 16.8218C52.444 14.4469 47.742 13.5153 42.0906 13.8031C32.8161 14.2628 24.056 19.2881 18.7988 27.1616C18.2982 27.9228 17.4429 29.4314 16.915 30.5077C15.3476 33.7351 14.491 36.5697 14.0176 40.1518C13.7271 42.4339 13.8199 46.5153 14.2277 48.811C16.177 59.7674 23.8445 68.6639 34.3835 72.2065C36.4119 72.8762 38.6381 73.3482 41.3662 73.6633C42.3797 73.782 47.2809 73.6238 48.4131 73.4273Z" fill="#29448A"/>
<path d="M40.9703 72.1549C35.7663 71.5902 30.8924 69.6354 26.5055 66.3411C25.6625 65.7123 25.6625 65.7123 27.4536 65.0166C30.194 63.9663 32.513 63.5857 35.6872 63.6648C37.5451 63.718 38.058 63.7835 39.1261 64.0849C40.9826 64.6101 42.1298 65.0303 44.3819 66.0274C45.5018 66.513 46.4376 66.9059 46.4499 66.88C46.4771 66.854 46.3448 66.3029 46.1607 65.6468L45.8183 64.4519L44.7898 63.9799C43.1174 63.2187 41.8788 62.759 40.5611 62.4057C38.0976 61.7496 37.0963 61.6187 34.5155 61.6187C32.3807 61.6187 31.8664 61.6705 30.4314 61.972C28.6267 62.3525 27.0198 62.9173 25.3065 63.7439C24.0161 64.3741 24.147 64.426 22.8034 62.9173L21.8676 61.8806L22.5006 61.4864C24.2521 60.3978 27.2299 59.2561 29.5884 58.7705C31.2607 58.4294 34.7787 58.2985 36.4252 58.5085C38.2299 58.7445 40.5215 59.4525 43.3275 60.6338C44.1582 60.9885 44.8566 61.2504 44.8689 61.2381C44.9357 61.1726 44.2114 58.8359 44.0791 58.705C43.9604 58.5877 42.906 58.1798 41.2336 57.6028C39.0729 56.8553 36.241 56.4092 33.6588 56.4092C29.4561 56.4215 26.0308 57.3013 22.2114 59.387C21.3411 59.8604 20.5909 60.1877 20.5377 60.1359C20.2607 59.8467 18.9826 57.6819 19.0358 57.5905C19.0754 57.5373 19.5623 57.2222 20.1298 56.8948C22.7379 55.3725 25.623 54.2962 28.6922 53.7192C30.2731 53.4041 30.8392 53.3646 33.2632 53.3523C35.0284 53.3523 36.3856 53.4041 37.0186 53.5228C38.4017 53.7588 41.4709 54.7955 43.8813 55.8322C49.414 58.2194 51.6934 58.8359 56.199 59.177C59.8479 59.4661 64.7095 58.8359 68.3053 57.6287C68.7009 57.4855 69.0296 57.4064 69.0296 57.4459C69.0296 57.5632 68.0556 59.1251 67.3572 60.1223C66.5538 61.264 66.6193 61.2381 64.1557 61.7237C59.8616 62.5763 55.3955 62.4971 51.4561 61.4741C50.1779 61.1453 47.979 60.3719 47.2533 60.0036C47.0432 59.8986 46.8591 59.8331 46.8318 59.8604C46.8195 59.8863 46.9641 60.4633 47.1619 61.1453L47.5179 62.3921L48.5574 62.759C49.9938 63.2719 51.8257 63.718 53.6168 63.9935C55.7639 64.3209 60.5982 64.3209 62.6798 63.9799C63.4969 63.849 64.1953 63.7698 64.2348 63.8094C64.314 63.8749 62.351 65.6195 61.2843 66.4339L60.5982 66.9591L57.398 66.88C54.0519 66.8145 51.6279 66.4994 49.4809 65.8828C48.9802 65.7246 48.5451 65.6332 48.5055 65.6591C48.466 65.7123 48.9925 67.7189 49.0716 67.8116C49.3226 68.0872 53.3399 68.7174 55.5401 68.8347C56.4363 68.8879 57.173 68.9656 57.173 69.0188C57.173 69.1498 54.6576 70.2656 53.2744 70.7376C51.7725 71.2491 49.8628 71.7211 48.2682 71.9844C46.7009 72.2204 42.524 72.3254 40.9703 72.1549Z" fill="#29448A"/>
<path d="M55.3955 57.2617C55.184 57.2358 54.4993 57.143 53.88 57.0653C51.3646 56.7365 49.4412 56.1336 46.0419 54.6249C41.8269 52.7343 39.9158 52.1055 36.8862 51.6062C35.0024 51.3047 30.8787 51.3047 29.0481 51.6062C25.4115 52.2228 21.9999 53.4832 18.9034 55.3588L18.074 55.8581L17.9158 55.5171C17.8244 55.3329 17.5871 54.7818 17.3756 54.2962L17.0073 53.4041L17.4288 53.089C18.2064 52.512 20.3398 51.2652 21.4733 50.74C23.4226 49.8356 25.9121 49.0608 28.1915 48.6543C29.7193 48.3911 35.0283 48.4306 36.6229 48.7198C39.7576 49.3105 41.9046 50.0061 45.2508 51.5012C50.2842 53.771 52.7341 54.3221 57.8317 54.3221C62.1136 54.3221 66.0927 53.535 70.2545 51.8422C70.9529 51.5544 71.5326 51.3443 71.5326 51.3566C71.5326 51.5544 70.4523 54.5458 70.294 54.7682C70.1631 54.9919 69.6093 55.2279 68.2124 55.6739C64.3398 56.9207 62.5351 57.2222 58.6884 57.2754C57.0951 57.3013 55.6192 57.2876 55.3955 57.2617Z" fill="#29448A"/>
<path d="M15.8221 48.7989C15.4129 46.7773 15.282 43.0506 15.5452 40.7412C16.3228 33.9972 19.4179 27.8301 24.3845 23.1718C28.6787 19.1572 33.633 16.7292 39.6527 15.7197C41.7739 15.3651 45.8443 15.3392 47.9518 15.6665C54.3944 16.6773 59.874 19.4328 64.2486 23.8934C68.6873 28.4208 71.3228 33.6957 72.2572 39.9541C72.6268 42.3426 72.5204 47.6571 72.0866 48.8248C72.0198 48.9953 70.031 46.1348 64.2882 37.5274L56.5811 25.9941L53.591 28.9719C51.7331 30.8093 50.5477 31.8978 50.4686 31.8187C50.3636 31.7014 49.5983 30.4287 45.8307 24.1034C45.1596 22.9753 44.5798 22.0437 44.5266 22.0437C44.4611 22.0573 43.8951 23.0149 40.0347 29.5489C39.2844 30.8216 38.5983 31.8719 38.5328 31.8855C38.4537 31.8855 37.0964 30.546 35.5032 28.92C33.172 26.5179 32.5922 25.9941 32.4599 26.1373C32.3808 26.23 30.7603 28.4999 28.8901 31.1639C27.0063 33.8403 24.3313 37.6447 22.9222 39.6267C21.5254 41.6074 19.4315 44.6002 18.272 46.2535C17.1126 47.919 16.1113 49.3227 16.0581 49.3895C16.0063 49.4414 15.9013 49.1794 15.8221 48.7989Z" fill="#29448A"/>
<path d="M17.0076 72.4698L15.7949 71.3144L17.2845 69.7143C18.1002 68.8345 18.8382 68.1266 18.931 68.1388C19.0101 68.1525 19.5762 68.6504 20.1818 69.2287C21.1708 70.1727 21.2758 70.3173 21.1312 70.5273C20.973 70.7374 20.8666 70.6842 19.9581 69.8317L18.9569 68.9L18.5095 69.3856L18.0484 69.8712L18.9828 70.7238C19.8272 71.4986 19.9049 71.6036 19.7085 71.7605C19.523 71.9187 19.3784 71.8396 18.5886 71.1303C18.088 70.6979 17.6392 70.3309 17.6132 70.3309C17.5737 70.3309 17.35 70.5792 17.1126 70.882L16.6775 71.4195L17.6528 72.3116C18.5613 73.1382 18.6281 73.2173 18.4303 73.4137C18.2325 73.6238 18.1275 73.5447 17.0076 72.4698Z" fill="#29448A"/>
<path d="M71.137 69.2805C69.5833 67.8114 69.5042 67.7064 69.7143 67.4963C69.9653 67.2467 69.8466 67.1553 72.3102 69.451C73.2459 70.3309 73.2718 70.3704 73.0345 70.5928C72.7971 70.8287 72.7317 70.7892 71.137 69.2805Z" fill="#29448A"/>
<path d="M13.6474 68.9C13.4374 68.664 13.4892 68.6122 14.9392 67.3777L16.467 66.105L16.0059 65.5676C15.4917 64.9633 15.4657 64.9114 15.729 64.7014C15.8873 64.5704 16.1369 64.8064 17.1122 65.9618C18.1789 67.2345 18.2853 67.3913 18.0998 67.5755C17.9156 67.746 17.8365 67.7064 17.3891 67.1949L16.8885 66.6165L15.6499 67.641C14.9788 68.2043 14.3063 68.7827 14.148 68.9137C13.8848 69.1496 13.8711 69.1496 13.6474 68.9Z" fill="#29448A"/>
<path d="M73.9431 66.0272C72.6922 65.6985 71.665 65.3834 71.665 65.3438C71.665 65.3056 71.7564 65.1733 71.8492 65.0423C72.0333 64.8063 72.1125 64.8323 73.8517 65.3315C74.8529 65.6193 75.6823 65.843 75.7218 65.8171C75.7491 65.7899 75.2608 65.0819 74.6292 64.2553C73.6007 62.8775 73.5093 62.7207 73.6675 62.471C73.7589 62.3128 73.8776 62.2078 73.9308 62.2214C74.0358 62.261 76.6712 66.0136 76.6712 66.1186C76.6576 66.2236 76.3275 66.656 76.262 66.6438C76.2361 66.6438 75.1817 66.3682 73.9431 66.0272Z" fill="#29448A"/>
<path d="M11.3685 65.8826C10.8283 65.5415 10.2759 64.5962 10.2759 63.9933C10.2759 63.6523 10.3809 63.389 10.6578 63.0876L11.0261 62.6674L11.198 62.9689C11.303 63.179 11.3167 63.3099 11.2239 63.3631C11.1448 63.4149 11.0261 63.5991 10.947 63.7955C10.6578 64.5567 11.7382 65.7775 12.3575 65.397C12.6862 65.1869 12.6999 64.6494 12.397 63.8351C11.9619 62.6933 12.0274 62.1818 12.6603 61.8667C13.4378 61.4602 14.0176 61.6444 14.6232 62.4833C15.1498 63.1926 15.1634 63.9797 14.6751 64.4257C14.3995 64.7013 14.3204 64.7149 14.2276 64.5567C14.0571 64.2948 14.0694 64.0711 14.2276 63.966C14.4254 63.8487 14.3859 63.0739 14.1485 62.7465C13.8457 62.3128 13.517 62.1695 13.1214 62.3264C12.6999 62.4833 12.6999 62.6674 13.1214 63.9278C13.517 65.0955 13.4501 65.5143 12.7913 65.9085C12.2906 66.1977 11.8828 66.184 11.3685 65.8826Z" fill="#29448A"/>
<path d="M8.95788 62.1955C8.81329 61.9322 8.85285 61.8408 9.32618 61.3688L9.86636 60.8437L9.4585 60.0566L9.06292 59.2695L8.36587 59.3473C7.73293 59.4141 7.66745 59.3868 7.5215 59.099C7.44238 58.9285 7.4301 58.7839 7.48194 58.7839C7.53514 58.7839 8.61549 58.6925 9.88 58.5875C12.0148 58.417 12.199 58.417 12.3572 58.6134C12.4363 58.7307 12.5154 58.9012 12.5154 58.9803C12.5154 59.0458 11.7502 59.8724 10.8158 60.8041C9.18159 62.4315 9.11611 62.4833 8.95788 62.1955ZM10.9999 59.7019L11.6451 59.0458L10.723 59.1386C10.2224 59.1767 9.80089 59.2299 9.78861 59.2436C9.72177 59.2818 10.2101 60.358 10.2756 60.358C10.3151 60.358 10.6439 60.0702 10.9999 59.7019Z" fill="#29448A"/>
<path d="M77.2114 60.9092C76.157 60.4236 75.288 59.9653 75.2608 59.8861C75.2089 59.7279 76.5253 56.9465 76.644 56.9465C76.6972 56.9465 76.8158 56.9997 76.9209 57.0652C77.0791 57.1702 77.0136 57.3926 76.5526 58.3897C76.2497 59.0595 76.0247 59.6106 76.0383 59.6229C76.2756 59.7415 77.0927 60.0962 77.1446 60.0962C77.1841 60.0962 77.4215 59.6365 77.6725 59.0854C77.9357 58.5207 78.1595 58.0364 78.1854 58.0228C78.2113 57.9969 78.3572 58.0092 78.5018 58.0624C78.7515 58.1415 78.7392 58.1933 78.2386 59.2696C77.948 59.8861 77.7379 60.4113 77.7502 60.4372C77.7775 60.4495 78.0803 60.5941 78.4227 60.7387L79.0557 61.0142L79.634 59.7552C80.1619 58.6134 80.241 58.5207 80.4784 58.653C80.7417 58.784 80.728 58.7962 80.4116 59.5056C79.8714 60.7251 79.3053 61.8013 79.2003 61.8013C79.1471 61.789 78.2508 61.3948 77.2114 60.9092Z" fill="#29448A"/>
<path d="M6.92948 57.6286C6.78488 57.3803 5.9146 54.558 5.98007 54.4925C6.07283 54.4011 9.90592 53.1421 10.1037 53.1421C10.1965 53.1421 10.4857 53.8241 10.7503 54.663C11.1581 55.9357 11.2113 56.199 11.0531 56.304C10.9467 56.3695 10.828 56.4214 10.7762 56.4214C10.7366 56.4214 10.4993 55.858 10.2756 55.1759C10.0519 54.4925 9.8268 53.9292 9.78861 53.9292C9.49805 53.9292 8.69461 54.2565 8.69461 54.3752C8.69461 54.4543 8.8392 54.9918 9.02335 55.5688C9.27434 56.3695 9.3139 56.6314 9.18159 56.7105C8.8924 56.8947 8.78736 56.7365 8.44362 55.6343C8.25946 55.0436 8.07531 54.5457 8.03575 54.5457C7.77248 54.5198 6.71804 54.8731 6.71804 54.9782C6.71804 55.0573 6.88992 55.6479 7.09999 56.2904C7.46966 57.4185 7.46966 57.4853 7.24595 57.6027C7.09999 57.6818 6.96904 57.694 6.92948 57.6286Z" fill="#29448A"/>
<path d="M79.7799 54.9003C78.634 54.5852 77.6587 54.2961 77.6328 54.2701C77.54 54.1787 78.1334 52.0399 78.3571 51.6716C78.7786 50.95 79.6735 50.8845 80.3201 51.5147C80.5179 51.7111 80.7416 51.8161 80.8602 51.7643C80.9653 51.7248 81.4918 51.7248 82.0061 51.7766C82.9541 51.8693 82.9678 51.8693 82.8627 52.2104C82.7836 52.5118 82.7168 52.5514 82.2557 52.4982C80.8466 52.3413 80.8602 52.3413 80.5956 53.2075C80.4647 53.6399 80.3719 54.0737 80.3855 54.1787C80.4115 54.2824 80.7675 54.4666 81.2149 54.5852C81.9802 54.7953 82.283 55.0968 81.9802 55.3723C81.927 55.4242 80.9257 55.2141 79.7799 54.9003ZM79.9245 53.4558C80.2273 52.3018 80.1345 51.973 79.4893 51.7766C79.0678 51.6456 78.7909 51.9607 78.5276 52.9047L78.278 53.7845L78.8837 53.981C79.2261 54.0737 79.5562 54.1515 79.6339 54.1392C79.7008 54.1255 79.8317 53.8104 79.9245 53.4558Z" fill="#29448A"/>
<path d="M5.40202 52.6294C5.40202 52.5639 5.36246 52.4207 5.3229 52.3156C5.2697 52.1574 5.45385 52.0783 6.17818 51.961C6.6788 51.8696 7.15351 51.7509 7.21898 51.7113C7.32538 51.6459 7.04847 49.6775 6.91616 49.4933C6.90388 49.4811 6.45509 49.5465 5.9422 49.6652C4.91367 49.8739 4.74316 49.848 4.74316 49.4674C4.74316 49.2055 4.82228 49.1796 7.54909 48.6667C8.87908 48.4184 9.13007 48.4048 9.2351 48.563C9.47245 48.93 9.34014 49.035 8.48349 49.1796C7.99651 49.2573 7.58865 49.3365 7.57501 49.3624C7.54909 49.3897 7.62821 49.9012 7.73324 50.4918L7.93104 51.594L8.35254 51.5149C9.86668 51.2394 9.88032 51.2516 9.88032 51.6063C9.88032 51.9214 9.82712 51.935 7.7196 52.3415C5.28334 52.8012 5.40202 52.7876 5.40202 52.6294Z" fill="#29448A"/>
<path d="M81.9663 48.2735C81.9922 48.0894 82.1641 47.9448 82.4669 47.8397C82.8352 47.7224 82.9675 47.5915 83.0985 47.185C83.3099 46.5289 83.1913 45.9778 82.7957 45.7145C82.3483 45.4267 82.0195 45.649 81.729 46.4102C81.2543 47.7088 81.1629 47.8793 80.8205 48.103C80.4904 48.3131 80.4112 48.3131 79.9106 48.1426C78.8044 47.762 78.5806 46.226 79.5028 45.308C80.0566 44.7569 80.6227 44.7037 80.6227 45.203C80.6227 45.439 80.5572 45.5303 80.3594 45.5303C79.6078 45.5303 79.2395 47.0131 79.8847 47.4332C80.3853 47.762 80.6745 47.526 81.0046 46.462C81.3729 45.2944 81.8735 44.8087 82.5856 44.9411C83.1776 45.0461 83.3754 45.2166 83.6128 45.7541C84.127 46.9872 83.3891 48.5491 82.3087 48.5491C81.9922 48.5491 81.9267 48.4959 81.9663 48.2735Z" fill="#29448A"/>
<path d="M8.56221 47.211C8.56221 46.975 8.52265 46.634 8.47081 46.4621L8.39169 46.1484L6.61292 46.2534C5.6376 46.3053 4.75504 46.3707 4.66364 46.4103C4.53133 46.4621 4.47949 46.3571 4.47949 46.0815V45.6887L6.23098 45.5973C8.57585 45.4786 8.47081 45.5305 8.35214 44.6656C8.27302 43.9699 8.27302 43.9563 8.60176 43.9563H8.93187L9.03691 45.7023C9.09011 46.6463 9.12967 47.4606 9.14194 47.4988C9.15558 47.5384 9.02327 47.5779 8.86503 47.6039C8.60176 47.6434 8.56221 47.5916 8.56221 47.211Z" fill="#29448A"/>
<path d="M4.34717 42.7368V42.2512H5.19017C5.70444 42.2512 6.08638 42.1857 6.1655 42.0929C6.23097 42.0015 6.33601 41.5296 6.38921 41.0562L6.4806 40.19L5.86267 40.0986C5.51892 40.0591 5.05786 40.0195 4.84779 40.0195C4.5054 40.0195 4.46584 39.9813 4.55724 39.7317C4.5968 39.5612 4.66364 39.4166 4.67591 39.3907C4.70319 39.3634 5.58576 39.403 6.62656 39.4821C7.67963 39.5612 8.6686 39.6267 8.81319 39.6267C9.06282 39.6267 9.0901 39.7058 9.07646 40.3878C9.05054 42.408 8.69452 43.1692 7.77239 43.1692C7.46956 43.1692 7.13946 43.0642 6.92939 42.8936C6.66612 42.6836 6.5338 42.644 6.41512 42.7627C6.33601 42.8418 5.9145 42.9073 5.46708 42.9073C5.01966 42.9073 4.5968 42.9728 4.5054 43.0642C4.38673 43.1828 4.34717 43.1174 4.34717 42.7368ZM8.21981 42.2239C8.32621 42.0534 8.43125 41.5691 8.44352 41.1353L8.48308 40.3483L7.89107 40.2569C7.02078 40.0986 6.98122 40.1382 6.98122 41.254C6.98122 42.0534 7.02078 42.2634 7.21857 42.3685C7.60052 42.5922 8.02202 42.5267 8.21981 42.2239Z" fill="#29448A"/>
<path d="M79.1729 41.5692C79.1729 41.1886 79.3311 41.1613 82.1766 40.9908L83.6525 40.8994V41.2268C83.6525 41.5951 83.8244 41.5555 80.3992 41.8052L79.1729 41.8966V41.5692Z" fill="#29448A"/>
<path d="M78.8704 38.4195C78.4885 36.7799 78.2511 35.2439 78.3575 35.1389C78.6344 34.8633 78.8704 35.1389 78.9632 35.8086C79.0164 36.2015 79.1214 36.477 79.2128 36.477C79.3056 36.477 80.1622 36.3202 81.1239 36.1238C82.6121 35.8346 82.9027 35.8086 83.0077 35.9655C83.2573 36.372 83.0868 36.4511 81.203 36.8058L79.2796 37.1591L79.371 37.9339C79.4502 38.6555 79.4379 38.7087 79.2005 38.7087C79.0423 38.7087 78.91 38.6037 78.8704 38.4195Z" fill="#29448A"/>
<path d="M6.85049 38.1699C6.25712 37.9858 5.57234 37.4742 5.25588 36.9504C4.72934 36.0842 5.15084 34.5878 6.07296 34.0504C6.69226 33.6957 7.79853 33.7216 8.61562 34.1022C9.78874 34.6792 10.1707 35.8864 9.55139 37.1728C9.14216 38.039 7.91721 38.485 6.85049 38.1699ZM8.52286 37.3828C8.89253 37.2519 9.22128 36.6217 9.22128 36.0447C9.22128 35.5195 8.85297 34.982 8.27324 34.6929C7.81218 34.4569 6.73182 34.4173 6.33623 34.6274C5.95429 34.8375 5.6651 35.454 5.6651 36.0569C5.6651 36.4907 5.74422 36.6476 6.12616 36.9886C6.38943 37.2123 6.71818 37.4224 6.89005 37.4483C7.04829 37.4879 7.29791 37.5397 7.44251 37.567C7.70714 37.6325 8.00997 37.5793 8.52286 37.3828Z" fill="#29448A"/>
<path d="M8.36591 32.7244C7.28556 32.3438 6.33615 32.0164 6.27067 31.9905C6.2052 31.9632 6.19156 31.7927 6.23112 31.6099C6.31023 31.3071 6.45483 31.2416 8.19404 30.8351C9.23484 30.5992 10.131 30.3632 10.1829 30.31C10.2497 30.2581 9.60314 29.9826 8.74786 29.6934C7.89121 29.4056 7.17916 29.13 7.15324 29.0509C7.1396 28.9854 7.17916 28.8409 7.246 28.7358C7.35103 28.5653 7.67978 28.6444 9.48446 29.261C11.5538 29.969 11.6056 29.9949 11.5265 30.31C11.4747 30.4941 11.4215 30.6646 11.3956 30.6906C11.3683 30.7165 10.4734 30.9402 9.39307 31.1898C8.32635 31.4258 7.43015 31.6481 7.40423 31.6754C7.37695 31.7013 8.10128 31.9769 9.01113 32.2784C9.91961 32.5798 10.6712 32.869 10.6712 32.9208C10.6712 32.974 10.5921 33.105 10.513 33.2237C10.3548 33.4065 10.1174 33.341 8.36591 32.7244Z" fill="#29448A"/>
<path d="M77.5144 32.7381C77.4475 32.4749 77.5539 32.2525 78.0013 31.6755C79.0421 30.3633 79.0421 30.4942 78.0273 30.3237C76.4995 30.0604 76.434 30.0482 76.3549 29.7467C76.3153 29.6021 76.3153 29.4439 76.3412 29.4057C76.3808 29.3784 77.0656 29.4834 77.869 29.6417L79.3313 29.9295L80.188 29.6417C80.9123 29.3784 81.0583 29.3661 81.1496 29.523C81.3474 29.8381 81.2547 29.9295 80.3721 30.2841C79.6082 30.5993 79.4896 30.7166 78.6738 31.846C78.1855 32.5144 77.7503 33.0655 77.6985 33.0655C77.6453 33.0655 77.5662 32.9209 77.5144 32.7381Z" fill="#29448A"/>
<path d="M21.4735 19.1313C21.4735 19.0386 21.5254 18.7508 21.5922 18.5011L21.6973 18.0292L20.2745 17.1493C19.497 16.6637 18.759 16.2708 18.6403 16.2708C18.3252 16.2708 18.4562 15.8248 18.7863 15.7716C18.9432 15.7457 19.1805 15.8371 19.3128 15.9694C19.602 16.2708 20.7219 17.0579 20.8406 17.0579C20.9729 17.0579 21.5254 15.2341 21.434 15.1291C21.3808 15.0895 21.2225 15.155 21.078 15.286C20.9334 15.4183 20.7356 15.4838 20.6033 15.4306C20.4191 15.3651 20.4191 15.2996 20.6701 14.8795C20.9852 14.342 20.9061 14.0406 20.5378 14.3816C20.3659 14.5385 20.2881 14.7881 20.2881 15.2205C20.2881 15.8248 20.1163 16.1399 19.7998 16.1399C19.4179 16.1399 19.7207 14.919 20.2881 14.2111C20.5378 13.896 20.5378 13.8564 20.3263 13.5017C20.0372 13.0161 19.958 13.0298 19.7998 13.5549C19.6948 13.9355 19.6293 13.9737 19.2337 13.9355C18.9827 13.9219 18.7331 13.8564 18.6799 13.8032C18.6281 13.7514 18.7986 13.3967 19.0618 13.0298L19.5365 12.3477L19.1805 11.7571C18.9964 11.442 18.654 11.0218 18.4166 10.8377L17.9951 10.5103L18.3116 10.3916C18.7194 10.2348 18.8654 10.3534 19.3387 11.1801C19.6552 11.7434 19.7343 11.8089 20.0508 11.7312C20.591 11.6261 20.7751 11.7966 20.4055 12.0722L20.1026 12.3082L20.3536 12.8456C20.6305 13.4622 20.6428 13.4758 20.9061 13.1607C21.078 12.9507 21.0916 12.9643 21.0248 13.3572C20.9593 13.7118 21.0248 13.896 21.3671 14.3161C21.8023 14.8536 22.2633 14.9982 22.2633 14.6039C22.2633 14.0528 21.8418 12.6492 21.6441 12.491C21.3017 12.2427 21.6318 11.9794 22.0396 12.1636C22.277 12.2823 22.382 12.4787 22.5007 13.1607C22.5935 13.6204 22.6589 14.2234 22.6589 14.4866V14.9709L23.4228 14.8795C24.5427 14.7485 24.6614 14.7226 25.1088 14.4866C25.5044 14.2629 25.9518 14.3025 25.9518 14.5385C25.9518 14.6039 25.8072 14.814 25.6231 15.0104C25.3721 15.286 25.2139 15.3515 24.9902 15.2737C24.8319 15.2341 24.6737 15.1946 24.6341 15.1946C23.0668 15.1809 22.6589 15.2341 22.5266 15.4701C22.4216 15.6802 22.4748 15.8248 22.8294 16.2449C24.4104 18.1997 24.5427 18.3961 24.3586 18.5148C24.2522 18.5802 24.0558 18.5925 23.9098 18.553C23.7652 18.5148 23.4487 18.4493 23.225 18.4097C22.7776 18.3443 22.6194 18.1069 23.0272 18.1069C23.607 18.0946 23.6206 17.8982 23.0804 17.2025C22.4748 16.4414 22.382 16.4809 22.2115 17.5831C22.1051 18.3047 21.7368 19.2882 21.5922 19.2882C21.5254 19.2882 21.4735 19.2091 21.4735 19.1313ZM21.921 16.7687C22.0396 15.8903 22.0396 15.9557 21.8814 15.9025C21.7886 15.8766 21.7368 16.0471 21.7368 16.3104C21.7368 16.5587 21.6181 16.8997 21.4735 17.0975C21.2225 17.4126 21.2225 17.4385 21.434 17.4781C21.7886 17.5695 21.8282 17.5176 21.921 16.7687Z" fill="#29448A"/>
<path d="M64.4979 19.0385C64.3656 18.8953 64.3001 18.7247 64.3397 18.6456C64.3929 18.5665 64.3656 18.3824 64.2878 18.2391C64.1023 17.8981 64.3138 17.8981 64.6166 18.2391C64.7489 18.3824 64.8935 18.501 64.9453 18.501C65.0913 18.501 66.1321 17.5694 66.1321 17.4384C66.1321 17.3729 65.9343 17.3197 65.6833 17.3197C65.3409 17.3197 65.1568 17.2283 64.9453 16.9664C64.6561 16.5981 64.7748 16.2312 65.1036 16.4931C65.1963 16.5722 65.5387 16.7032 65.8552 16.7959C66.3817 16.9269 66.4608 16.9269 66.6191 16.7168C66.8687 16.3758 66.8291 16.2707 66.4745 16.2707C66.053 16.2707 65.9206 16.0607 66.2235 15.8902C66.4076 15.7851 66.4349 15.7319 66.3026 15.601C66.0925 15.3909 66.0789 14.9585 66.2889 14.9585C66.5931 14.9585 67.844 15.6269 67.9763 15.8643C68.1209 16.1398 67.8181 16.5327 67.6462 16.2707C67.488 16.0211 67.357 16.1398 67.4225 16.4672C67.4621 16.7032 67.4089 16.8614 67.2383 16.9787C67.0146 17.1492 67.0269 17.1751 67.488 17.3729C68.0159 17.583 68.4237 18.265 68.3446 18.8161C68.2791 19.314 67.9231 19.1312 67.7253 18.4751C67.5671 17.9759 67.4621 17.8313 67.1333 17.714C66.75 17.5694 66.6982 17.5953 66.1975 18.1464C65.7365 18.6456 64.9453 19.2881 64.7885 19.2881C64.7489 19.2881 64.6166 19.1708 64.4979 19.0385Z" fill="#29448A"/>
<path d="M69.8604 16.6376C69.623 16.4931 69.4252 16.3225 69.4252 16.2707C69.4252 16.2052 69.2015 16.0866 68.9382 15.9952L68.4376 15.8247L68.8318 15.7455C69.0569 15.706 69.5043 15.706 69.8467 15.7455C70.2546 15.7974 70.4919 15.7715 70.5315 15.6801C70.5711 15.575 70.2546 15.47 69.6489 15.3786C69.0692 15.2995 68.6736 15.1685 68.6081 15.0376C68.5427 14.9325 68.2794 14.8002 68.0025 14.762C67.7392 14.7088 67.3695 14.6038 67.199 14.5247C66.948 14.4074 66.8689 14.4196 66.7243 14.6038C66.487 14.9189 66.3956 14.8793 66.3956 14.4469C66.3956 14.2369 66.3165 14.0404 66.1978 13.9872C66.0928 13.9477 66 13.8167 66 13.698C66 13.5412 66.0791 13.5016 66.3165 13.5671C66.5934 13.6326 66.6452 13.5807 66.8171 12.9642C66.9221 12.5959 67.0804 12.2548 67.1595 12.2289C67.4364 12.1375 67.5019 12.6095 67.2645 12.9901C67.0149 13.4361 66.9876 13.9081 67.2249 13.9081C67.3968 13.9081 68.1075 12.5959 68.1075 12.2685C68.1075 11.967 68.3981 11.8879 68.5822 12.1375C68.7404 12.3476 68.7404 12.4253 68.5686 12.6886C68.3312 13.0296 68.3585 13.0419 68.8318 12.8332C69.0174 12.7541 69.1483 12.6095 69.1088 12.5181C69.0174 12.2821 69.372 12.0066 69.5043 12.2153C69.5698 12.334 69.6489 12.308 69.7676 12.1498C69.8604 12.0188 69.9913 11.9534 70.0704 12.0066C70.2819 12.1239 70.2423 12.8059 70.0186 12.9901C69.9122 13.0692 69.8331 13.1865 69.8467 13.2261C69.8999 13.4225 69.6489 13.9872 69.3857 14.2628C69.0433 14.6434 69.1483 14.7484 69.754 14.6434C70.1632 14.5642 70.215 14.5124 70.1359 14.2764C70.0582 14.0268 70.0964 14.0009 70.5574 14.0786C70.9134 14.1441 71.1249 14.1059 71.2831 13.9613C71.5068 13.7649 71.4932 13.7376 71.1644 13.4498C70.8875 13.2124 70.848 13.1088 70.9666 12.9764C71.0853 12.8591 71.2435 12.911 71.691 13.2124C72.0074 13.4225 72.2571 13.6721 72.2571 13.7772C72.2571 13.8822 71.7564 14.2109 71.1371 14.5124C70.4524 14.8534 70.1359 15.0758 70.3078 15.0758C70.6243 15.0894 71.1371 15.6541 71.1371 15.9952C71.1371 16.1916 70.4919 16.9391 70.3337 16.9132C70.3078 16.9132 70.0841 16.7822 69.8604 16.6376ZM68.3708 13.9081C68.3708 13.4361 68.6873 13.3707 68.911 13.8031L69.0692 14.0923L69.3065 13.7908C69.6748 13.3311 69.518 13.1347 68.8591 13.2656C68.5563 13.3175 68.2657 13.3707 68.2262 13.3843C68.0952 13.3843 67.8306 14.0527 67.9097 14.1837C68.0952 14.4592 68.3708 14.2887 68.3708 13.9081Z" fill="#29448A"/>
<path d="M64.2351 14.1974C64.1696 14.0923 64.4192 13.8168 65.1831 13.2002C65.4737 12.9506 65.4737 12.9506 65.4737 13.2261C65.4737 13.8031 64.4724 14.5779 64.2351 14.1974Z" fill="#29448A"/>
<path d="M70.7036 13.8169C70.6504 13.7774 70.6108 13.6601 70.6108 13.555C70.6108 13.4104 70.664 13.4104 70.8741 13.5414C71.0201 13.6328 71.1374 13.7515 71.1374 13.8033C71.1374 13.9356 70.8223 13.9356 70.7036 13.8169Z" fill="#29448A"/>
<path d="M55.1585 11.3232C55.1053 11.2837 55.0657 11.0477 55.0657 10.8254C55.0657 10.4189 54.2759 9.18436 54.0249 9.18436C53.9594 9.18436 53.8803 9.09297 53.8271 8.98793C53.7753 8.84334 53.8544 8.7915 54.104 8.7915C54.5528 8.7915 55.3426 9.61814 55.554 10.2865C55.7641 10.9699 55.5008 11.6643 55.1585 11.3232Z" fill="#29448A"/>
<path d="M33.9357 10.6671C33.8961 10.6153 34.0939 10.3534 34.3967 10.0778C34.9369 9.59222 34.9765 9.31667 34.5154 9.31667C34.1335 9.31667 34.1198 9.01385 34.4881 8.71238C34.8701 8.39728 34.8183 8.04398 34.2904 7.55837C34.1062 7.38786 34.0012 7.17779 34.0407 7.09867C34.1853 6.87496 34.7119 6.92816 35.042 7.19006C35.3311 7.42605 35.3843 7.6102 35.4239 8.56779C35.4375 8.8829 35.503 9.05341 35.6217 9.05341C35.7131 9.05341 35.8591 9.13252 35.9382 9.22392C36.0432 9.34259 35.9382 9.56494 35.5562 10.0778C35.0815 10.6944 34.9765 10.7599 34.5277 10.7599C34.2508 10.7599 33.9875 10.7203 33.9357 10.6671Z" fill="#29448A"/>
<path d="M40.4822 9.5267C39.8643 9.0138 39.5737 8.90877 39.1918 9.05336C38.7048 9.23751 38.5193 9.22387 38.2696 8.97561C37.9532 8.6605 38.2042 8.48999 39.0199 8.48999C40.1002 8.48999 40.7987 8.72598 41.036 9.19795C41.3784 9.85408 41.0892 10.0382 40.4822 9.5267Z" fill="#29448A"/>
<path d="M37.5575 9.42163C37.5056 9.25112 37.3733 8.43676 37.2819 7.61012C37.1892 6.78349 37.0705 5.97049 37.005 5.79998C36.8468 5.37984 37.2151 5.24889 37.5711 5.61583C37.8085 5.83954 37.848 6.0878 37.8876 7.42597C37.9272 8.29217 37.9667 9.13244 37.9804 9.30295C38.0199 9.72309 37.7034 9.81449 37.5575 9.42163Z" fill="#29448A"/>
<path d="M51.1138 9.59233C51.1138 9.51321 51.3907 9.32906 51.7467 9.18447C52.0891 9.0276 52.497 8.81753 52.6688 8.71249L52.9717 8.51606L52.6293 8.18732C52.4042 7.99089 52.2992 7.76854 52.3264 7.57075C52.3524 7.33476 52.4315 7.29521 52.7998 7.32112C53.0371 7.34841 53.4054 7.33476 53.6169 7.28293C53.9456 7.20381 54.0125 7.13834 54.0125 6.80959C54.0125 6.36353 54.3017 6.18075 54.6045 6.42901C54.8677 6.63908 54.7886 8.03045 54.5254 8.12184C54.4203 8.14776 54.0916 8.39739 53.801 8.67293C53.4982 8.9362 53.0767 9.25131 52.8789 9.35498C52.3919 9.59233 51.1138 9.76284 51.1138 9.59233Z" fill="#29448A"/>
<path d="M38.2037 6.87496C38.0577 6.71809 38.0577 6.63897 38.216 6.49438C38.3483 6.36343 38.572 6.33751 39.0467 6.40299C39.7969 6.50802 39.9293 6.69217 39.4286 6.92816C38.9417 7.15051 38.4015 7.12459 38.2037 6.87496Z" fill="#29448A"/>
<path d="M40.5747 87.5321C40.5747 87.4544 41.4573 87.4271 42.8541 87.4666C44.0927 87.5062 45.7787 87.4939 46.5821 87.4271C47.7416 87.3357 48.0445 87.3493 47.9913 87.4803C47.9121 87.6903 40.5747 87.7299 40.5747 87.5321Z" fill="#FEFEFE"/>
<path d="M37.4129 87.2566C37.4129 87.1789 37.0583 87.1257 36.6231 87.1257C36.188 87.1257 35.8319 87.0738 35.8319 86.9947C35.8319 86.9292 35.5428 86.8638 35.1731 86.8638C34.8184 86.8638 34.5156 86.8106 34.5156 86.7328C34.5156 86.6673 34.3437 86.6005 34.12 86.6005C33.9086 86.6005 33.7244 86.5487 33.7244 86.4695C33.7244 86.3127 33.5266 86.2868 35.3709 86.6537C36.2412 86.8242 37.5316 87.0479 38.2437 87.1257C38.9421 87.2184 39.5204 87.3098 39.5204 87.3357C39.5204 87.3617 39.0471 87.3889 38.4674 87.3889C37.8481 87.3889 37.4129 87.3357 37.4129 87.2566Z" fill="#FEFEFE"/>
<path d="M49.8095 87.1257C52.9837 86.6401 55.2891 86.1026 58.0963 85.171C66.3818 82.4155 73.8379 76.996 79.2915 69.7527C83.0864 64.7274 85.6414 58.9805 87.0777 52.2883C87.4065 50.7796 87.446 50.6623 87.4597 51.2788C87.4733 51.6458 87.4201 51.9609 87.341 51.9609C87.2755 51.9609 87.2101 52.2624 87.2101 52.617C87.2101 52.984 87.1569 53.2731 87.0777 53.2731C87.0123 53.2731 86.9454 53.5746 86.9454 53.9293C86.9454 54.2962 86.8936 54.5854 86.8145 54.5854C86.749 54.5854 86.6822 54.7682 86.6822 54.9783C86.6822 55.202 86.6303 55.3725 86.5512 55.3725C86.4844 55.3725 86.4189 55.6085 86.4189 55.8976C86.4189 56.1855 86.3657 56.4215 86.2879 56.4215C86.2211 56.4215 86.1556 56.6056 86.1556 56.8157C86.1556 57.038 86.1024 57.2099 86.0233 57.2099C85.9578 57.2099 85.8923 57.3927 85.8923 57.6028C85.8923 57.8265 85.8392 57.997 85.76 57.997C85.6946 57.997 85.6291 58.1798 85.6291 58.3898C85.6291 58.6135 85.5759 58.7841 85.4968 58.7841C85.4313 58.7841 85.3658 58.9682 85.3658 59.1769C85.3658 59.4006 85.3126 59.5711 85.2335 59.5711C85.168 59.5711 85.1012 59.6898 85.1012 59.833C85.1012 59.9776 85.0493 60.0963 84.9702 60.0963C84.9034 60.0963 84.8379 60.2791 84.8379 60.4892C84.8379 60.7129 84.7861 60.8834 84.707 60.8834C84.6401 60.8834 84.5746 61.0007 84.5746 61.1453C84.5746 61.2899 84.5214 61.4086 84.4423 61.4086C84.3769 61.4086 84.3114 61.5913 84.3114 61.8014C84.3114 62.0251 84.2582 62.1956 84.1791 62.1956C84.1136 62.1956 84.0481 62.3129 84.0481 62.4575C84.0481 62.6021 83.9949 62.7208 83.9158 62.7208C83.8503 62.7208 83.7848 62.8381 83.7848 62.9827C83.7848 63.1273 83.7316 63.2446 83.6525 63.2446C83.587 63.2446 83.5202 63.3633 83.5202 63.5079C83.5202 63.6525 83.4684 63.7698 83.3893 63.7698C83.3238 63.7698 83.2569 63.8885 83.2569 64.0331C83.2569 64.1763 83.2051 64.295 83.126 64.295C83.0591 64.295 82.9937 64.4123 82.9937 64.5569C82.9937 64.7015 82.9418 64.8201 82.8627 64.8201C82.7959 64.8201 82.7304 64.9252 82.7304 65.0561C82.7304 65.1871 82.6117 65.3712 82.4671 65.4763C82.3225 65.5813 82.2039 65.7641 82.2039 65.895C82.2039 66.0274 82.1507 66.1324 82.0715 66.1324C82.0061 66.1324 81.9406 66.2497 81.9406 66.3943C81.9406 66.5389 81.8874 66.6562 81.8083 66.6562C81.7428 66.6562 81.676 66.7612 81.676 66.8922C81.676 67.0245 81.5573 67.2073 81.4127 67.3123C81.2681 67.4174 81.1494 67.5879 81.1494 67.7066C81.1494 67.8239 81.0307 67.9944 80.8862 68.0994C80.7416 68.2044 80.6229 68.375 80.6229 68.4936C80.6229 68.6123 80.5042 68.7828 80.3596 68.8878C80.2137 68.9929 80.0963 69.1634 80.0963 69.2548C80.0963 69.3462 79.859 69.6613 79.5684 69.9368C79.2793 70.2124 79.0419 70.5275 79.0419 70.6189C79.0419 70.7116 78.9232 70.8821 78.7786 70.9872C78.634 71.0922 78.5154 71.2491 78.5154 71.3541C78.5154 71.4455 78.2248 71.8138 77.8565 72.1671C77.5005 72.5218 77.1977 72.8764 77.1977 72.9419C77.1977 73.1261 73.9429 76.3671 73.7588 76.3671C73.6933 76.3671 73.3373 76.6686 72.9813 77.0219C72.6266 77.3902 72.2706 77.678 72.1915 77.678C72.1123 77.678 71.7563 77.9809 71.4017 78.3342C71.0456 78.7025 70.676 78.9903 70.5846 78.9903C70.4795 78.9903 70.3213 79.109 70.2149 79.2535C70.1099 79.3981 69.9394 79.5155 69.8466 79.5155C69.7416 79.5155 69.4906 79.6996 69.2928 79.9097C69.0963 80.132 68.8317 80.3025 68.713 80.3025C68.5957 80.3025 68.503 80.368 68.503 80.4335C68.503 80.5126 68.3979 80.5658 68.2656 80.5658C68.1347 80.5658 67.9491 80.6831 67.8441 80.8277C67.7391 80.9723 67.5672 81.0896 67.4485 81.0896C67.3299 81.0896 67.1593 81.2083 67.0543 81.3529C66.9479 81.4975 66.7638 81.6148 66.6328 81.6148C66.5005 81.6148 66.3955 81.6803 66.3955 81.7457C66.3955 81.8249 66.2768 81.8781 66.1322 81.8781C65.9862 81.8781 65.8675 81.9435 65.8675 82.009C65.8675 82.0868 65.7502 82.14 65.6043 82.14C65.4597 82.14 65.341 82.2054 65.341 82.2709C65.341 82.35 65.236 82.4019 65.1037 82.4019C64.9727 82.4019 64.7886 82.5205 64.6822 82.6651C64.5771 82.8097 64.393 82.927 64.2607 82.927C64.1297 82.927 64.0233 82.9925 64.0233 83.058C64.0233 83.1371 63.9046 83.1889 63.76 83.1889C63.6154 83.1889 63.4968 83.2558 63.4968 83.3213C63.4968 83.399 63.3781 83.4522 63.2335 83.4522C63.0889 83.4522 62.9702 83.5177 62.9702 83.5832C62.9702 83.6623 62.7984 83.7141 62.5746 83.7141C62.3646 83.7141 62.1791 83.7796 62.1791 83.8451C62.1791 83.9242 62.0604 83.9774 61.9158 83.9774C61.7712 83.9774 61.6525 84.0429 61.6525 84.1083C61.6525 84.1875 61.5338 84.2393 61.3893 84.2393C61.2447 84.2393 61.126 84.3048 61.126 84.3702C61.126 84.4494 60.9541 84.5012 60.7304 84.5012C60.519 84.5012 60.3348 84.5667 60.3348 84.6335C60.3348 84.7113 60.1643 84.7645 59.9406 84.7645C59.7292 84.7645 59.545 84.8299 59.545 84.8954C59.545 84.9745 59.4263 85.0264 59.2817 85.0264C59.1358 85.0264 59.0185 85.0918 59.0185 85.1573C59.0185 85.2364 58.8466 85.2896 58.6229 85.2896C58.4114 85.2896 58.2273 85.3551 58.2273 85.4206C58.2273 85.4983 58.0568 85.5515 57.8317 85.5515C57.6216 85.5515 57.4375 85.617 57.4375 85.6825C57.4375 85.7616 57.2656 85.8134 57.0419 85.8134C56.8305 85.8134 56.6463 85.8789 56.6463 85.9458C56.6463 86.0235 56.409 86.0767 56.1198 86.0767C55.8292 86.0767 55.5932 86.1422 55.5932 86.2077C55.5932 86.2868 55.3027 86.3386 54.9344 86.3386C54.5784 86.3386 54.2755 86.4041 54.2755 86.4696C54.2755 86.5487 54.1037 86.6005 53.88 86.6005C53.6699 86.6005 53.4844 86.6674 53.4844 86.7328C53.4844 86.8106 53.1297 86.8638 52.6946 86.8638C52.2594 86.8638 51.9034 86.9156 51.9034 86.9947C51.9034 87.0739 51.6142 87.1257 51.2459 87.1257C50.8899 87.1257 50.587 87.1912 50.587 87.2566C50.587 87.3358 50.126 87.389 49.4412 87.3753L48.2817 87.3617L49.8095 87.1257Z" fill="#FEFEFE"/>
<path d="M40.1792 86.378C33.3956 85.6959 27.4018 83.7398 21.8023 80.3951C11.0792 73.9907 3.66263 63.153 1.58103 50.9103C1.13361 48.234 1.01493 46.7117 1.02721 43.5634C1.02721 40.0863 1.29048 37.6719 1.98889 34.4567C2.44995 32.3178 3.66263 28.6307 4.54519 26.6364C12.3969 8.88281 30.9717 -1.3915 50.1916 1.39124C57.3708 2.42795 63.9976 5.20932 70.0187 9.69717C72.1262 11.2713 75.8665 14.9053 77.4748 16.9268C86.3659 28.1314 89.1459 42.3166 85.1546 55.9629C83.0471 63.1271 78.5019 70.3308 72.916 75.3561C65.9605 81.6146 57.3449 85.4204 48.0964 86.3384C46.8592 86.4571 41.2732 86.4966 40.1792 86.378ZM42.3659 82.5858C42.7615 82.1002 42.9456 81.4045 42.9456 80.3678C42.9456 79.5412 42.9197 79.4634 42.4982 79.0433C42.1162 78.6627 41.958 78.5972 41.4315 78.5972C40.9036 78.5972 40.759 78.6627 40.4302 79.0037C40.1138 79.3447 40.0483 79.5289 40.0483 80.0663C40.0483 80.6051 40.1138 80.7757 40.4302 81.103C40.8381 81.5095 41.5229 81.6146 42.0371 81.3527C42.3536 81.1822 42.3659 81.3268 42.063 81.9433C41.7343 82.6254 40.9036 82.7563 40.6403 82.1657C40.5094 81.8778 40.1001 81.6541 39.9555 81.7987C39.916 81.8383 39.9296 82.0211 39.9692 82.2052C40.2188 83.1765 41.6947 83.4124 42.3659 82.5858ZM47.1484 82.98C47.8331 82.9009 47.9518 82.8477 47.9518 82.6254C47.9518 82.3894 47.8727 82.3757 46.7664 82.4289C46.1212 82.4548 45.581 82.4548 45.581 82.4289C45.581 82.2189 45.9371 81.8383 46.5032 81.4836C47.7281 80.6965 48.0446 80.0663 47.6231 79.2533C47.3721 78.7677 47.057 78.5972 46.3845 78.5972C45.6601 78.5972 45.2386 78.8196 44.9877 79.3188C44.6848 79.9749 44.7244 80.3023 45.12 80.3023C45.3832 80.3023 45.4487 80.2368 45.4487 79.9749C45.4487 79.5548 45.8839 79.1224 46.3054 79.1224C46.7009 79.1224 47.162 79.5412 47.162 79.9217C47.162 80.2246 46.7009 80.6965 45.8443 81.2736C45.3041 81.6405 44.9222 82.2584 44.9222 82.7959C44.9222 83.0319 45.0013 83.0578 45.6342 83.0578C46.0162 83.0578 46.7009 83.0182 47.1484 82.98ZM52.115 82.2584C52.9321 81.7592 52.9976 80.5915 52.2473 80.0922C51.9309 79.8958 51.9309 79.8563 52.1014 79.6066C52.4438 79.1224 52.0618 78.308 51.377 78.0461C50.9692 77.8879 50.0334 78.1375 49.7306 78.4663C49.6119 78.5972 49.481 78.9505 49.4414 79.2533C49.3623 79.7785 49.3746 79.8044 49.6774 79.7512C49.9025 79.7253 50.0075 79.6203 50.0334 79.3843C50.1125 78.885 50.4426 78.5972 50.9419 78.5972C51.2979 78.5972 51.4043 78.6627 51.5216 78.9505C51.6935 79.4238 51.6007 79.6203 51.0483 79.844C50.4426 80.1059 50.5477 80.4333 51.2584 80.4333C51.759 80.4333 52.1682 80.7757 52.1682 81.1944C52.1682 81.4973 51.5353 82.0088 51.167 82.0088C50.7714 82.0088 50.324 81.68 50.324 81.3922C50.324 81.2736 50.2176 81.2217 50.0334 81.2476C49.6515 81.2995 49.6774 81.7987 50.0866 82.2311C50.4686 82.6376 51.4821 82.6513 52.115 82.2584ZM37.2028 80.3951C37.4129 79.3052 37.6107 78.3339 37.6366 78.2425C37.743 77.9534 37.2151 77.9929 36.9791 78.2957C36.8072 78.5045 36.5958 78.5972 36.293 78.5972C36.0297 78.5972 35.8319 78.675 35.7923 78.7936C35.7009 79.0173 35.7528 79.0555 36.3325 79.1879C36.5576 79.2261 36.754 79.2929 36.754 79.3188C36.754 79.3311 36.6353 79.9354 36.4908 80.6311C36.1484 82.2707 36.1484 82.4016 36.5303 82.4016C36.8072 82.4016 36.8468 82.2707 37.2028 80.3951ZM28.2312 77.4691C28.7973 76.4188 29.2324 75.4734 29.1929 75.3684C29.021 74.9224 28.6923 75.2647 27.9543 76.6425C27.5192 77.4418 27.1372 78.0461 27.0976 77.9929C27.0581 77.9274 26.9926 77.0353 26.9408 75.9986C26.848 74.2008 26.8221 74.1094 26.5193 73.9129C26.3338 73.7943 26.1632 73.7547 26.0964 73.8202C26.0309 73.8857 25.5303 74.7914 24.9642 75.8281C23.963 77.6915 23.9098 77.9274 24.45 77.9411C24.5168 77.9411 24.9383 77.285 25.3598 76.4706C26.1237 75.0547 26.1496 75.0274 26.2287 75.4353C26.2819 75.6712 26.361 76.5756 26.4129 77.4296C26.492 78.8196 26.5452 79.0173 26.7825 79.1879C26.9408 79.2929 27.0976 79.3843 27.1372 79.3843C27.1768 79.3843 27.6651 78.5181 28.2312 77.4691ZM62.6799 78.5836C63.3387 78.2562 63.7602 77.6778 63.7602 77.049C63.7602 76.6807 62.5216 74.0575 62.1792 73.7029C62.1274 73.6374 61.9555 73.6497 61.7973 73.7288C61.534 73.8734 61.5477 73.9129 62.3116 75.3684C62.7467 76.1828 63.1014 76.9958 63.1014 77.1799C63.1014 77.6123 62.4302 78.203 61.9296 78.203C61.4154 78.203 61.1125 77.862 60.3227 76.3792C59.9408 75.644 59.5575 75.0547 59.4797 75.0547C59.4129 75.0547 59.2546 75.1202 59.1496 75.1856C58.9914 75.2907 59.0309 75.4475 59.4661 76.2619C60.3227 77.862 60.7169 78.4267 61.1657 78.649C61.7318 78.9246 61.9815 78.9123 62.6799 78.5836ZM23.1991 75.6972C23.3696 75.4475 23.4487 75.1856 23.4092 74.9756C23.3696 74.7396 23.4092 74.6605 23.5947 74.6605C23.7256 74.6605 24.0285 74.4899 24.2658 74.2799C24.7664 73.8338 24.8455 73.1381 24.4377 72.6798C24.1471 72.3647 22.2633 70.9474 22.2115 71.0129C21.1434 72.4425 19.7343 74.4504 19.6811 74.595C19.6415 74.6864 19.7207 74.831 19.853 74.9101C20.0767 75.0151 20.1817 74.9224 20.6701 74.2662L21.2362 73.4928L21.7231 73.8338C22.5007 74.4108 22.7899 74.7 22.7899 74.8964C22.7899 75.0151 22.6057 75.3957 22.3684 75.749L21.9469 76.3928L22.2633 76.6288C22.5798 76.8648 22.5934 76.8648 22.7503 76.4842C22.8431 76.2619 23.0409 75.9072 23.1991 75.6972ZM67.712 75.3821C67.8975 75.1597 67.9098 75.1979 66.9877 74.0698C66.6848 73.7151 66.277 73.1913 66.0792 72.9281L65.7109 72.4425L67.712 73.1122C69.6749 73.7683 69.7145 73.7683 69.9655 73.5187C70.2151 73.2827 70.1892 73.2432 68.8851 71.6431C67.2114 69.582 67.3573 69.7143 67.1063 69.9625C66.9085 70.1603 66.9754 70.2776 67.963 71.4849C68.5427 72.2201 69.0297 72.823 69.0297 72.8503C69.0297 72.8762 68.1471 72.6007 67.0545 72.246C65.0916 71.5776 65.0779 71.5776 64.8269 71.8395C64.5773 72.1014 64.5773 72.1151 65.9741 73.8338C66.7503 74.7914 67.4228 75.5785 67.4624 75.5785C67.5156 75.5785 67.6206 75.4871 67.712 75.3821ZM47.8727 74.1885C55.8035 73.2036 62.9827 69.1891 68.0421 62.917C72.1916 57.7731 74.5106 51.5665 74.7739 44.9015C75.2608 32.7775 68.4895 21.4924 57.5032 16.1398C47.2534 11.1404 35.0025 12.203 25.8209 18.8816C16.1768 25.9012 11.4611 37.6719 13.6218 49.3498C14.754 55.3982 17.4808 60.6335 21.8677 65.135C23.6069 66.9193 24.8851 67.9819 26.9408 69.346C33.0655 73.4137 40.4302 75.1202 47.8727 74.1885ZM17.6527 72.3115L16.6774 71.4194L17.1125 70.8819C17.3499 70.5791 17.5736 70.3308 17.6131 70.3308C17.6391 70.3308 18.0879 70.6978 18.5885 71.1302C19.3783 71.8395 19.5229 71.9186 19.7084 71.7604C19.9048 71.6035 19.8271 71.4985 18.9827 70.7237L18.0483 69.8711L18.5094 69.3855L18.9568 68.8999L19.958 69.8316C20.8665 70.6841 20.9729 70.7373 21.1311 70.5273C21.2757 70.3172 21.1707 70.1726 20.1817 69.2287C19.5761 68.6503 19.01 68.1524 18.9309 68.1388C18.8381 68.1265 18.1001 68.8344 17.2844 69.7143L15.7948 71.3143L17.0075 72.4697C18.1274 73.5446 18.2324 73.6237 18.4302 73.4137C18.628 73.2172 18.5612 73.1381 17.6527 72.3115ZM72.3103 69.451C69.8468 67.1553 69.9655 67.2466 69.7145 67.4963C69.5044 67.7063 69.5835 67.8114 71.1372 69.2805C72.7318 70.7892 72.7973 70.8287 73.0347 70.5927C73.272 70.3704 73.2461 70.3308 72.3103 69.451ZM15.6502 67.6409L16.8888 66.6164L17.3894 67.1948C17.8369 67.7063 17.916 67.7459 18.1001 67.5754C18.2856 67.3912 18.1792 67.2344 17.1125 65.9617C16.1372 64.8063 15.8876 64.5703 15.7293 64.7013C15.4661 64.9113 15.492 64.9632 16.0063 65.5675L16.4673 66.1049L14.9395 67.3776C13.4895 68.6121 13.4377 68.6639 13.6477 68.8999C13.8715 69.1495 13.8851 69.1495 14.1484 68.9136C14.3066 68.7826 14.9791 68.2042 15.6502 67.6409ZM76.4858 66.4336C76.5786 66.3027 76.6713 66.1581 76.6713 66.1185C76.6713 66.0135 74.0359 62.2609 73.9309 62.2213C73.8777 62.2077 73.759 62.3127 73.6676 62.471C73.5094 62.7206 73.6007 62.8775 74.6293 64.2552C75.2608 65.0818 75.7492 65.7898 75.7219 65.8171C75.6823 65.843 74.853 65.6193 73.8517 65.3315C72.1125 64.8322 72.0334 64.8063 71.8493 65.0423C71.7565 65.1732 71.6651 65.3055 71.6651 65.3437C71.6651 65.3969 75.6701 66.525 76.2621 66.6437C76.288 66.656 76.3944 66.551 76.4858 66.4336ZM12.7911 65.9085C13.45 65.5143 13.5168 65.0955 13.1212 63.9278C12.6997 62.6674 12.6997 62.4832 13.1212 62.3264C13.5168 62.1695 13.8455 62.3127 14.1484 62.7465C14.3857 63.0739 14.4253 63.8487 14.2275 63.966C14.0693 64.071 14.057 64.2948 14.2275 64.5567C14.3202 64.7149 14.3994 64.7013 14.6749 64.4257C15.1632 63.9797 15.1496 63.1926 14.6231 62.4832C14.0174 61.6443 13.4377 61.4602 12.6601 61.8667C12.0272 62.1818 11.9617 62.6933 12.3969 63.8351C12.6997 64.6494 12.6861 65.1869 12.3573 65.3969C11.738 65.7775 10.6577 64.5567 10.9469 63.7955C11.026 63.5991 11.1446 63.4149 11.2238 63.3631C11.3165 63.3099 11.3029 63.1789 11.1978 62.9689L11.026 62.6674L10.6577 63.0875C10.1707 63.6386 10.157 64.2688 10.6181 65.0423C11.1978 66.0271 12.0272 66.3545 12.7911 65.9085ZM12.5156 58.9803C12.5156 58.9012 12.4364 58.7306 12.3573 58.6133C12.1991 58.4169 12.0149 58.4169 9.88014 58.5874C8.61563 58.6924 7.53527 58.7838 7.48207 58.7838C7.43024 58.7838 7.44251 58.9284 7.52163 59.0989C7.66759 59.3868 7.73306 59.4141 8.366 59.3472L9.06305 59.2695L9.45864 60.0565L9.8665 60.8436L9.32632 61.3688C8.85298 61.8408 8.81342 61.9322 8.95801 62.1954C9.11625 62.4832 9.18173 62.4314 10.8159 60.8041C11.7503 59.8724 12.5156 59.0457 12.5156 58.9803ZM79.7009 61.0141C79.911 60.5817 80.2411 59.9119 80.4116 59.5054C80.7281 58.7961 80.7417 58.7838 80.4785 58.6529C80.2411 58.5206 80.162 58.6133 79.6341 59.7551L79.0557 61.0141L78.4228 60.7386C78.0804 60.594 77.7776 60.4494 77.7503 60.4371C77.738 60.4112 77.9481 59.886 78.2386 59.2695C78.7393 58.1932 78.7515 58.1414 78.5019 58.0622C78.3573 58.009 78.2114 57.9968 78.1854 58.0227C78.1595 58.0363 77.9358 58.5206 77.6725 59.0853C77.4216 59.6364 77.1842 60.0961 77.1446 60.0961C77.0928 60.0961 76.2757 59.7414 76.0384 59.6228C76.0247 59.6105 76.2498 59.0594 76.5526 58.3896C77.0137 57.3925 77.0792 57.1701 76.9209 57.0651C76.8159 56.9996 76.6972 56.9464 76.644 56.9464C76.5254 56.9464 75.209 59.7278 75.2608 59.886C75.3004 60.0033 78.9766 61.7889 79.2003 61.8012C79.2522 61.8012 79.4772 61.4479 79.7009 61.0141ZM7.10013 56.2903C6.89006 55.6478 6.71818 55.0572 6.71818 54.978C6.71818 54.873 7.77262 54.5197 8.03589 54.5456C8.07545 54.5456 8.2596 55.0435 8.44375 55.6342C8.7875 56.7363 8.89254 56.8946 9.18173 56.7104C9.31404 56.6313 9.27448 56.3694 9.02349 55.5687C8.83934 54.9917 8.69475 54.4542 8.69475 54.3751C8.69475 54.2564 9.49819 53.9291 9.78874 53.9291C9.82694 53.9291 10.052 54.4924 10.2757 55.1758C10.4994 55.8579 10.7368 56.4212 10.7763 56.4212C10.8282 56.4212 10.9469 56.3694 11.0533 56.3039C11.2115 56.1989 11.1583 55.9356 10.7504 54.6629C10.4858 53.824 10.1966 53.142 10.1038 53.142C9.90606 53.142 6.07297 54.401 5.98021 54.4924C5.91474 54.5579 6.78502 57.3802 6.92962 57.6285C6.96918 57.6939 7.10013 57.6817 7.24609 57.6025C7.4698 57.4852 7.4698 57.4184 7.10013 56.2903ZM82.0458 55.0312C82.0199 54.873 81.7553 54.7298 81.2151 54.5852C80.7677 54.4665 80.4116 54.2824 80.3857 54.1787C80.3721 54.0737 80.4648 53.6399 80.5958 53.2075C80.8604 52.3413 80.8468 52.3413 82.2559 52.4981C82.7169 52.5513 82.7838 52.5118 82.8629 52.2103C82.9679 51.8693 82.9543 51.8693 82.0063 51.7765C81.492 51.7247 80.9655 51.7247 80.8604 51.7643C80.7417 51.8161 80.518 51.7111 80.3202 51.5146C79.6737 50.8844 78.7788 50.9499 78.3573 51.6715C78.1336 52.0398 77.5402 54.1787 77.633 54.2701C77.7776 54.4269 81.8876 55.4514 81.9803 55.3723C82.0458 55.3191 82.0717 55.1622 82.0458 55.0312ZM7.71942 52.3413C9.82694 51.9348 9.88014 51.9211 9.88014 51.606C9.88014 51.2514 9.8665 51.2391 8.35236 51.5146L7.93086 51.5937L7.73306 50.4916C7.62803 49.9009 7.54891 49.3894 7.57483 49.3621C7.58847 49.3362 7.99633 49.2571 8.48331 49.1793C9.33996 49.0347 9.47228 48.9297 9.23492 48.5627C9.12989 48.4045 8.8789 48.4181 7.54891 48.6664C4.8221 49.1793 4.74299 49.2052 4.74299 49.4671C4.74299 49.8477 4.9135 49.8736 5.94202 49.6649C6.45491 49.5462 6.9037 49.4808 6.91598 49.493C7.04829 49.6772 7.3252 51.6456 7.2188 51.7111C7.15333 51.7506 6.67863 51.8693 6.178 51.9607C5.45367 52.078 5.26952 52.1571 5.32272 52.3153C5.36228 52.4204 5.40184 52.5636 5.40184 52.6291C5.40184 52.7873 5.28316 52.801 7.71942 52.3413ZM83.0593 48.2599C83.7318 47.7361 83.9692 46.6339 83.6132 45.7541C83.3758 45.2166 83.178 45.0461 82.586 44.9411C81.8739 44.8088 81.3733 45.2944 81.005 46.462C80.6749 47.526 80.3857 47.762 79.8851 47.4333C79.2399 47.0131 79.6082 45.5304 80.3598 45.5304C80.5576 45.5304 80.6231 45.439 80.6231 45.203C80.6231 44.7037 80.057 44.7569 79.5032 45.308C78.581 46.2261 78.8047 47.762 79.911 48.1426C80.4116 48.3131 80.4908 48.3131 80.8209 48.103C81.1632 47.8793 81.2546 47.7088 81.7293 46.4102C82.0199 45.649 82.3486 45.4267 82.7961 45.7145C83.1916 45.9778 83.3103 46.5289 83.0989 47.185C82.9679 47.5915 82.8356 47.7225 82.4673 47.8398C81.848 48.0376 81.7293 48.5491 82.3091 48.5491C82.5191 48.5491 82.8629 48.4181 83.0593 48.2599ZM9.14217 47.4987C9.12989 47.4606 9.09033 46.6462 9.03713 45.7022L8.9321 43.9562H8.60199C8.27324 43.9562 8.27324 43.9699 8.35236 44.6655C8.47104 45.5304 8.57607 45.4785 6.2312 45.5972L4.47972 45.6886V46.0815C4.47972 46.357 4.53155 46.462 4.66387 46.4102C4.75526 46.3707 5.63783 46.3052 6.61315 46.2533L8.39192 46.1483L8.47104 46.462C8.52287 46.6339 8.56243 46.9749 8.56243 47.2109C8.56243 47.5915 8.60199 47.6433 8.86526 47.6038C9.02349 47.5779 9.15581 47.5383 9.14217 47.4987ZM5.46732 42.9072C5.91474 42.9072 6.33624 42.8418 6.41536 42.7626C6.53403 42.644 6.66635 42.6835 6.92962 42.8936C7.13969 43.0641 7.4698 43.1691 7.77262 43.1691C8.69475 43.1691 9.05077 42.408 9.07669 40.3878C9.09033 39.7057 9.06305 39.6266 8.81342 39.6266C8.66883 39.6266 7.67987 39.5611 6.62679 39.482C5.58599 39.4029 4.70343 39.3633 4.67614 39.3906C4.66387 39.4165 4.59703 39.5611 4.55747 39.7316C4.46608 39.9813 4.50563 40.0195 4.84802 40.0195C5.05809 40.0195 5.51915 40.059 5.8629 40.0986L6.48083 40.19L6.38944 41.0562C6.33624 41.5295 6.2312 42.0015 6.16573 42.0929C6.08661 42.1856 5.70467 42.2511 5.19041 42.2511H4.3474V42.7367C4.3474 43.1173 4.38696 43.1828 4.50563 43.0641C4.59703 42.9727 5.01989 42.9072 5.46732 42.9072ZM82.6378 41.6345C83.6132 41.5554 83.6527 41.5418 83.6527 41.2267V40.8993L82.1768 40.9907C79.3313 41.1612 79.173 41.1885 79.173 41.5691V41.8964L80.3994 41.8051C81.0582 41.7519 82.0717 41.6864 82.6378 41.6345ZM79.3708 37.9338L79.2794 37.159L81.2028 36.8057C83.0866 36.451 83.2571 36.3719 83.0075 35.9654C82.9025 35.8085 82.6119 35.8344 81.1237 36.1236C80.162 36.3201 79.3054 36.4769 79.2126 36.4769C79.1212 36.4769 79.0162 36.2014 78.963 35.8085C78.8702 35.1388 78.6342 34.8632 78.3573 35.1388C78.2782 35.2179 78.3178 35.7294 78.5156 36.687C78.9234 38.7604 78.9098 38.7086 79.2003 38.7086C79.4377 38.7086 79.45 38.6554 79.3708 37.9338ZM8.89254 37.9201C9.39316 37.6187 9.76146 36.923 9.85422 36.1236C9.94561 35.3352 9.43272 34.5085 8.61563 34.1021C7.79854 33.7215 6.69227 33.6956 6.07297 34.0502C5.50687 34.3776 5.00625 35.297 5.00625 36.005C5.00625 37.7101 7.36476 38.8654 8.89254 37.9201ZM10.6713 32.9208C10.6713 32.8689 9.9197 32.5797 9.01121 32.2783C8.10137 31.9768 7.37704 31.7013 7.40432 31.6753C7.43024 31.6481 8.32644 31.4257 9.39316 31.1897C10.4735 30.9401 11.3684 30.7164 11.3956 30.6905C11.4216 30.6646 11.4748 30.494 11.5266 30.3099C11.6057 29.9948 11.5539 29.9689 9.48455 29.2609C7.67987 28.6443 7.35112 28.5652 7.24609 28.7357C7.17924 28.8408 7.13969 28.9854 7.15333 29.0508C7.17924 29.13 7.8913 29.4055 8.74795 29.6933C9.60323 29.9825 10.2498 30.2581 10.183 30.3099C10.1311 30.3631 9.23492 30.5991 8.19413 30.8351C6.45491 31.2416 6.31032 31.307 6.2312 31.6099C6.19165 31.7927 6.20529 31.9632 6.27076 31.9904C6.33624 32.0164 7.28564 32.3437 8.366 32.7243C10.1175 33.3409 10.3548 33.4064 10.5131 33.2236C10.5922 33.1049 10.6713 32.974 10.6713 32.9208ZM78.6738 31.8459C79.4895 30.7164 79.6082 30.5991 80.3721 30.284C81.2546 29.9293 81.3474 29.8379 81.1496 29.5228C81.0582 29.3659 80.9123 29.3782 80.1879 29.6415L79.3313 29.9293L77.869 29.6415C77.0655 29.4833 76.3808 29.3782 76.3412 29.4055C76.3153 29.4437 76.3153 29.6019 76.3548 29.7465C76.434 30.048 76.4994 30.0603 78.0272 30.3235C79.0421 30.494 79.0421 30.3631 78.0013 31.6753C77.5539 32.2523 77.4475 32.4747 77.5143 32.738C77.5661 32.9208 77.6453 33.0653 77.6985 33.0653C77.7503 33.0653 78.1854 32.5143 78.6738 31.8459ZM21.9073 18.737C22.026 18.4219 22.1583 17.9103 22.2115 17.583C22.382 16.4808 22.4748 16.4412 23.0804 17.2024C23.6206 17.8981 23.6069 18.0945 23.0272 18.1068C22.6194 18.1068 22.7776 18.3441 23.225 18.4096C23.4487 18.4492 23.7652 18.5146 23.9098 18.5528C24.0557 18.5924 24.2522 18.5801 24.3586 18.5146C24.5427 18.396 24.4104 18.1995 22.8294 16.2448C22.4748 15.8246 22.4216 15.6801 22.5266 15.47C22.6589 15.234 23.0668 15.1808 24.6341 15.1944C24.6737 15.1944 24.8319 15.234 24.9901 15.2736C25.2138 15.3513 25.3721 15.2858 25.6231 15.0103C25.8072 14.8139 25.9518 14.6038 25.9518 14.5383C25.9518 14.3023 25.5044 14.2628 25.1088 14.4865C24.6614 14.7225 24.5427 14.7484 23.4228 14.8793L22.6589 14.9707V14.4865C22.6589 14.2232 22.5934 13.6203 22.5007 13.1606C22.382 12.4785 22.277 12.2821 22.0396 12.1634C21.6318 11.9793 21.3016 12.2426 21.644 12.4908C21.8418 12.6491 22.2633 14.0527 22.2633 14.6038C22.2633 14.998 21.8023 14.8534 21.3671 14.316C21.0247 13.8958 20.9593 13.7117 21.0247 13.357C21.0916 12.9642 21.0779 12.9505 20.9061 13.1606C20.6428 13.4757 20.6305 13.462 20.3536 12.8455L20.1026 12.308L20.4054 12.072C20.7751 11.7965 20.591 11.626 20.0508 11.731C19.7343 11.8088 19.6552 11.7433 19.3387 11.1799C18.8654 10.3533 18.7194 10.2346 18.3116 10.3915L17.9951 10.5102L18.4166 10.8375C18.6539 11.0217 18.9963 11.4418 19.1805 11.7569L19.5365 12.3476L19.0618 13.0296C18.7985 13.3966 18.628 13.7512 18.6799 13.8031C18.7331 13.8563 18.9827 13.9217 19.2337 13.9354C19.6293 13.9736 19.6947 13.9354 19.7998 13.5548C19.958 13.0296 20.0371 13.016 20.3263 13.5016C20.5378 13.8563 20.5378 13.8958 20.2881 14.2109C19.7207 14.9189 19.4178 16.1398 19.7998 16.1398C20.1162 16.1398 20.2881 15.8246 20.2881 15.2204C20.2881 14.7879 20.3659 14.5383 20.5378 14.3814C20.9061 14.0404 20.9852 14.3419 20.6701 14.8793C20.4191 15.2995 20.4191 15.365 20.6032 15.4304C20.7355 15.4836 20.9333 15.4181 21.0779 15.2858C21.2225 15.1549 21.3808 15.0894 21.434 15.129C21.5254 15.234 20.9729 17.0578 20.8406 17.0578C20.7219 17.0578 19.602 16.2707 19.3128 15.9692C19.1805 15.8369 18.9431 15.7455 18.7863 15.7714C18.4562 15.8246 18.3252 16.2707 18.6403 16.2707C18.759 16.2707 19.497 16.6636 20.2745 17.1492L21.6972 18.029L21.5922 18.501C21.3671 19.4586 21.5786 19.6168 21.9073 18.737ZM65.2498 19.0002C65.4858 18.842 65.9073 18.4614 66.1978 18.1463C66.6985 17.5952 66.7503 17.5693 67.1336 17.7139C67.4624 17.8312 67.5674 17.9758 67.7256 18.4751C67.9234 19.1312 68.2794 19.314 68.3449 18.8161C68.424 18.265 68.0162 17.583 67.4883 17.3729C67.0272 17.1751 67.0149 17.1492 67.2386 16.9787C67.4092 16.8614 67.4624 16.7031 67.4228 16.4671C67.3573 16.1398 67.4883 16.0211 67.6465 16.2707C67.8184 16.5326 68.1212 16.1398 67.9766 15.8642C67.8443 15.6269 66.5934 14.9585 66.2892 14.9585C66.0792 14.9585 66.0928 15.3909 66.3029 15.6009C66.4352 15.7319 66.4079 15.7851 66.2238 15.8901C65.9209 16.0606 66.0533 16.2707 66.4748 16.2707C66.8294 16.2707 66.869 16.3757 66.6193 16.7168C66.4611 16.9268 66.382 16.9268 65.8555 16.7959C65.539 16.7031 65.1966 16.5722 65.1039 16.493C64.7751 16.2311 64.6564 16.5981 64.9456 16.9664C65.157 17.2283 65.3412 17.3197 65.6836 17.3197C65.9346 17.3197 66.1324 17.3729 66.1324 17.4384C66.1324 17.5693 65.0916 18.501 64.9456 18.501C64.8938 18.501 64.7492 18.3823 64.6169 18.2391C64.314 17.8981 64.1026 17.8981 64.2881 18.2391C64.3659 18.3823 64.3932 18.5665 64.34 18.6456C64.2745 18.7629 64.6305 19.2881 64.7887 19.2881C64.8147 19.2881 65.0247 19.1571 65.2498 19.0002ZM70.7689 16.5722C70.9667 16.3757 71.1372 16.1261 71.1372 15.9952C71.1372 15.6541 70.6243 15.0894 70.3078 15.0758C70.136 15.0758 70.4524 14.8534 71.1372 14.5124C71.7565 14.2109 72.2571 13.8822 72.2571 13.7772C72.2571 13.6721 72.0075 13.4225 71.691 13.2124C71.2436 12.911 71.0854 12.8591 70.9667 12.9764C70.848 13.1087 70.8876 13.2124 71.1645 13.4498C71.4932 13.7376 71.5069 13.7649 71.2832 13.9613C71.1249 14.1059 70.9135 14.1441 70.5575 14.0786C70.0964 14.0009 70.0582 14.0268 70.136 14.2764C70.2151 14.5124 70.1632 14.5642 69.754 14.6433C69.1484 14.7484 69.0433 14.6433 69.3857 14.2628C69.649 13.9872 69.9 13.4225 69.8468 13.2261C69.8331 13.1865 69.9123 13.0692 70.0187 12.9901C70.2424 12.8059 70.2819 12.1239 70.0705 12.0066C69.9914 11.9534 69.8604 12.0188 69.7677 12.1498C69.649 12.308 69.5699 12.3339 69.5044 12.2153C69.3721 12.0066 69.0174 12.2821 69.1088 12.5181C69.1484 12.6095 69.0174 12.7541 68.8319 12.8332C68.3586 13.0419 68.3313 13.0296 68.5686 12.6886C68.7405 12.4253 68.7405 12.3476 68.5823 12.1375C68.3981 11.8879 68.1076 11.967 68.1076 12.2685C68.1076 12.5959 67.3969 13.9081 67.225 13.9081C66.9877 13.9081 67.0149 13.4361 67.2646 12.9901C67.5019 12.6095 67.4364 12.1375 67.1595 12.2289C67.0804 12.2548 66.9222 12.5959 66.8171 12.9642C66.6453 13.5807 66.5934 13.6326 66.3165 13.5671C66.0792 13.5016 66.0001 13.5412 66.0001 13.698C66.0001 13.8167 66.0928 13.9477 66.1978 13.9872C66.3165 14.0404 66.3956 14.2368 66.3956 14.4469C66.3956 14.8793 66.487 14.9189 66.7244 14.6038C66.869 14.4196 66.9481 14.4074 67.1991 14.5247C67.3696 14.6038 67.7393 14.7088 68.0025 14.762C68.2794 14.8002 68.5427 14.9325 68.6082 15.0376C68.6737 15.1685 69.0693 15.2995 69.649 15.3786C70.2546 15.47 70.5711 15.575 70.5315 15.6801C70.492 15.7714 70.2546 15.7974 69.8468 15.7455C69.5044 15.706 69.057 15.706 68.8319 15.7455L68.4377 15.8246L68.9383 15.9952C69.2016 16.0866 69.4253 16.2052 69.4253 16.2707C69.4253 16.3621 70.1632 16.8873 70.3338 16.9132C70.3733 16.9268 70.5711 16.7686 70.7689 16.5722ZM65.1311 13.8958C65.3153 13.6721 65.4735 13.3707 65.4735 13.2261C65.4735 12.9505 65.4735 12.9505 65.183 13.2001C64.4191 13.8167 64.1694 14.0923 64.2349 14.1973C64.3795 14.4196 64.801 14.2887 65.1311 13.8958ZM71.1372 13.8031C71.1372 13.7512 71.0199 13.6326 70.8739 13.5412C70.6639 13.4102 70.6107 13.4102 70.6107 13.5548C70.6107 13.6598 70.6502 13.7772 70.7034 13.8167C70.8221 13.9354 71.1372 13.9354 71.1372 13.8031ZM55.5934 11.1008C55.869 10.3656 54.8555 8.79141 54.1038 8.79141C53.8542 8.79141 53.7751 8.84325 53.8269 8.98784C53.8801 9.09288 53.9593 9.18427 54.0247 9.18427C54.2757 9.18427 55.0655 10.4188 55.0655 10.8253C55.0655 11.4814 55.382 11.6519 55.5934 11.1008ZM35.5564 10.0777C35.9383 9.56485 36.0433 9.3425 35.9383 9.22383C35.8592 9.13243 35.7132 9.05332 35.6218 9.05332C35.5032 9.05332 35.4377 8.88281 35.424 8.5677C35.3845 7.61011 35.3313 7.42596 35.0421 7.18997C34.712 6.92807 34.1854 6.87487 34.0409 7.09858C34.0013 7.1777 34.1063 7.38777 34.2905 7.55828C34.8184 8.04389 34.8702 8.39719 34.4883 8.7123C34.12 9.01376 34.1336 9.31659 34.5156 9.31659C34.9766 9.31659 34.9371 9.59213 34.3969 10.0777C34.0941 10.3533 33.8963 10.6152 33.9358 10.667C33.9877 10.7202 34.2509 10.7598 34.5278 10.7598C34.9766 10.7598 35.0817 10.6943 35.5564 10.0777ZM41.1682 9.70944C41.2078 9.64397 41.1546 9.40798 41.0359 9.19791C40.7985 8.72594 40.1001 8.48995 39.0198 8.48995C38.204 8.48995 37.9531 8.66046 38.2695 8.97556C38.5192 9.22383 38.7047 9.23747 39.1916 9.05332C39.5736 8.90872 39.8641 9.01376 40.4821 9.52666C40.8913 9.86768 41.0495 9.90587 41.1682 9.70944ZM37.9803 9.30295C37.9667 9.13243 37.9271 8.29216 37.8876 7.42596C37.848 6.08779 37.8085 5.83953 37.5711 5.61582C37.2151 5.24888 36.8468 5.37983 37.005 5.79997C37.0705 5.97048 37.1892 6.78348 37.2819 7.61011C37.3733 8.43675 37.5056 9.25111 37.5575 9.42162C37.7034 9.81448 38.0199 9.72308 37.9803 9.30295ZM52.8789 9.35478C53.0767 9.25111 53.4982 8.93601 53.801 8.67274C54.0916 8.39719 54.4203 8.14756 54.5253 8.12165C54.7886 8.03025 54.8677 6.63888 54.6045 6.42881C54.3016 6.18055 54.0125 6.36334 54.0125 6.80939C54.0125 7.13814 53.9456 7.20362 53.6169 7.28273C53.4054 7.33457 53.0371 7.34821 52.7998 7.32093C52.4315 7.29501 52.3524 7.33457 52.3264 7.57055C52.2992 7.76835 52.4042 7.99069 52.6293 8.18712L52.9717 8.51587L52.6688 8.7123C52.497 8.81733 52.0891 9.0274 51.7467 9.18427C51.3907 9.32886 51.1138 9.51301 51.1138 9.59213C51.1138 9.76264 52.3919 9.59213 52.8789 9.35478ZM39.429 6.92807C39.9296 6.69208 39.7973 6.50793 39.0471 6.4029C38.5724 6.33742 38.3486 6.36334 38.2163 6.49429C38.0581 6.63888 38.0581 6.718 38.204 6.87487C38.4018 7.1245 38.942 7.15042 39.429 6.92807Z" fill="#FEFEFE"/>
<path d="M40.826 80.6831C40.3254 80.1852 40.7729 79.1226 41.4972 79.1226C41.9719 79.1226 42.2883 79.5031 42.2883 80.0665C42.2883 80.8931 41.4044 81.2601 40.826 80.6831Z" fill="#FEFEFE"/>
<path d="M22.4351 73.677C22.0654 73.4274 21.723 73.1641 21.6834 73.0986C21.618 72.9936 22.3287 71.905 22.461 71.905C22.5005 71.905 22.8566 72.1547 23.2508 72.4425C24.042 73.0331 24.2002 73.5065 23.7391 73.913C23.3967 74.2281 23.1989 74.1885 22.4351 73.677Z" fill="#FEFEFE"/>
<path d="M41.3658 73.6635C38.6376 73.3484 36.4115 72.8764 34.3831 72.2066C23.8441 68.6641 16.1766 59.7675 14.2273 48.8112C13.8194 46.5154 13.7267 42.4341 14.0172 40.152C14.4906 36.5699 15.3472 33.7353 16.9146 30.5079C19.7873 24.6286 24.5166 19.853 30.3658 16.9393C35.3052 14.4867 40.0345 13.5154 45.7786 13.791C53.6031 14.1715 61.4547 17.976 66.566 23.8552C70.5969 28.4999 73.0345 33.8403 73.8516 39.8109C74.1408 41.9362 74.1408 45.6356 73.8516 47.6967C72.1383 59.7552 63.7082 69.3857 51.9702 72.68C49.4808 73.3743 47.6093 73.6239 44.5264 73.6771C43.0382 73.703 41.6155 73.6894 41.3658 73.6635ZM48.2681 71.9843C49.8627 71.721 51.7724 71.2491 53.2743 70.7375C54.6575 70.2655 57.1729 69.1497 57.1729 69.0188C57.1729 68.9656 56.4363 68.8878 55.5401 68.8346C53.3398 68.7173 49.3225 68.0871 49.0716 67.8116C48.9924 67.7188 48.4659 65.7122 48.5055 65.659C48.545 65.6331 48.9802 65.7245 49.4808 65.8827C51.6279 66.4993 54.0518 66.8144 57.3979 66.8799L60.5981 66.959L61.2842 66.4338C62.3509 65.6195 64.3139 63.8748 64.2347 63.8093C64.1952 63.7698 63.4968 63.8489 62.6797 63.9798C60.5981 64.3209 55.7638 64.3209 53.6167 63.9935C51.8256 63.7179 49.9937 63.2719 48.5573 62.759L47.5179 62.392L47.1618 61.1453C46.964 60.4632 46.8194 59.8862 46.8317 59.8603C46.859 59.833 47.0432 59.8985 47.2532 60.0035C47.9789 60.3718 50.1778 61.1453 51.456 61.474C55.3955 62.4971 59.8615 62.5762 64.1556 61.7236C66.6192 61.238 66.5537 61.2639 67.3571 60.1222C68.0556 59.125 69.0295 57.5632 69.0295 57.4459C69.0295 57.4063 68.7008 57.4854 68.3052 57.6286C64.7095 58.8359 59.8478 59.4661 56.1989 59.1769C51.6933 58.8359 49.4139 58.2193 43.8812 55.8321C41.4709 54.7954 38.4017 53.7587 37.0185 53.5227C36.3855 53.4041 35.0283 53.3522 33.2631 53.3522C30.8392 53.3645 30.2731 53.4041 28.6921 53.7192C25.6229 54.2962 22.7378 55.3724 20.1297 56.8948C19.5623 57.2221 19.0753 57.5372 19.0357 57.5904C18.9825 57.6818 20.2607 59.8466 20.5376 60.1358C20.5908 60.1877 21.341 59.8603 22.2113 59.3869C26.0308 57.3013 29.456 56.4214 33.6587 56.4091C36.2409 56.4091 39.0728 56.8552 41.2335 57.6027C42.9059 58.1797 43.9603 58.5876 44.079 58.7049C44.2113 58.8359 44.9356 61.1725 44.8688 61.238C44.8565 61.2503 44.1581 60.9884 43.3274 60.6337C40.5215 59.4524 38.2298 58.7445 36.4251 58.5085C34.7786 58.2984 31.2607 58.4294 29.5883 58.7704C27.2298 59.256 24.252 60.3977 22.5005 61.4863L21.8676 61.8805L22.8033 62.9172C24.147 64.4259 24.016 64.3741 25.3064 63.7438C27.0197 62.9172 28.6266 62.3525 30.4313 61.9719C31.8663 61.6704 32.3806 61.6186 34.5154 61.6186C38.283 61.6186 40.943 62.2352 44.7897 63.9798L45.8182 64.4518L46.1606 65.6467C46.3447 66.3029 46.4771 66.854 46.4498 66.8799C46.4375 66.9058 45.5017 66.5129 44.3818 66.0273C42.1297 65.0302 40.9825 64.61 39.126 64.0849C38.0579 63.7834 37.545 63.7179 35.6871 63.6647C32.5129 63.5856 30.194 63.9662 27.4535 65.0165C25.6625 65.7122 25.6625 65.7122 26.5055 66.3411C30.8924 69.6353 35.7662 71.5901 40.9702 72.1548C42.5239 72.3253 46.7008 72.2203 48.2681 71.9843ZM63.1544 56.9602C65.1828 56.6056 65.9344 56.4091 68.2124 55.6739C69.6093 55.2278 70.1631 54.9919 70.294 54.7681C70.4523 54.5458 71.5326 51.5544 71.5326 51.3566C71.5326 51.3443 70.9529 51.5544 70.2545 51.8422C66.0926 53.535 62.1136 54.3221 57.8317 54.3221C52.7341 54.3221 50.2842 53.771 45.2507 51.5012C41.9046 50.0061 39.7576 49.3104 36.6229 48.7198C35.0283 48.4306 29.7192 48.391 28.1915 48.6543C25.9121 49.0608 23.4226 49.8356 21.4733 50.74C20.3398 51.2652 18.2064 52.5119 17.4288 53.089L17.0073 53.4041L17.3756 54.2962C17.5871 54.7818 17.8244 55.3329 17.9158 55.517L18.074 55.8581L18.9034 55.3588C21.9999 53.4832 25.4115 52.2228 29.0481 51.6062C30.8787 51.3047 35.0024 51.3047 36.8862 51.6062C39.9158 52.1054 41.8269 52.7343 46.0419 54.6249C49.4412 56.1336 51.3646 56.7365 53.88 57.0653C54.4993 57.143 55.184 57.2358 55.3955 57.2617C55.6192 57.2876 57.0951 57.3013 58.6884 57.2753C60.9146 57.2481 61.9417 57.1703 63.1544 56.9602ZM18.2718 46.2535C19.4313 44.6002 21.5252 41.6074 22.922 39.6268C24.3311 37.6448 27.0061 33.8403 28.8899 31.164C30.76 28.4999 32.3806 26.2301 32.4597 26.1373C32.592 25.9941 33.1718 26.5179 35.503 28.9201C37.0962 30.546 38.4535 31.8856 38.5326 31.8856C38.5981 31.8719 39.2842 30.8216 40.0345 29.5489C43.8948 23.0149 44.4609 22.0573 44.5264 22.0437C44.5796 22.0437 45.1594 22.9754 45.8305 24.1035C49.5981 30.4287 50.3633 31.7014 50.4684 31.8187C50.5475 31.8979 51.7329 30.8093 53.5908 28.9719L56.5809 25.9941L64.2879 37.5274C70.0308 46.1348 72.0196 48.9953 72.0864 48.8248C72.2965 48.2342 72.4943 45.7938 72.4943 43.6945C72.4684 39.2462 71.5585 35.3749 69.5956 31.3727C65.828 23.7106 58.7934 18.1069 50.4547 16.1522C48.2149 15.6148 46.6612 15.4565 43.9344 15.4442C41.0889 15.4442 39.2965 15.6666 36.7538 16.3227C26.3609 19.0127 18.1532 27.5805 16.0061 37.9735C15.5573 40.152 15.4127 41.5952 15.4127 43.8254C15.4127 46.3967 15.7946 49.6774 16.0579 49.3895C16.1111 49.3227 17.1124 47.9191 18.2718 46.2535Z" fill="#FEFEFE"/>
<path d="M9.9849 59.8071C9.85395 59.5056 9.76119 59.256 9.78847 59.2437C9.80075 59.2301 10.2222 59.1769 10.7229 59.1387L11.645 59.0459L10.9998 59.702C10.6438 60.0703 10.315 60.3582 10.2754 60.3582C10.2359 60.3582 10.1036 60.1085 9.9849 59.8071Z" fill="#FEFEFE"/>
<path d="M78.884 53.9812L78.2783 53.7848L78.5279 52.9049C78.7912 51.961 79.0681 51.6459 79.4896 51.7768C79.9384 51.9078 80.0966 52.1056 80.0966 52.4725C80.0966 52.9718 79.7802 54.0999 79.6342 54.1394C79.5565 54.1517 79.2264 54.0739 78.884 53.9812Z" fill="#FEFEFE"/>
<path d="M7.2188 42.3685C7.021 42.2634 6.98145 42.0534 6.98145 41.254C6.98145 40.1382 7.021 40.0986 7.89129 40.2569L8.4833 40.3483L8.44375 41.1353C8.39191 42.3289 7.93085 42.7886 7.2188 42.3685Z" fill="#FEFEFE"/>
<path d="M7.44244 37.5669C7.29785 37.5396 7.04822 37.4878 6.88999 37.4483C6.71811 37.4223 6.38937 37.2123 6.1261 36.9886C5.74416 36.6475 5.66504 36.4907 5.66504 36.0569C5.66504 35.454 5.95423 34.8374 6.33617 34.6273C6.73176 34.4173 7.81211 34.4568 8.27317 34.6928C9.15574 35.1525 9.45857 36.0446 9.02342 36.8835C8.77379 37.3691 8.02218 37.6842 7.44244 37.5669Z" fill="#FEFEFE"/>
<path d="M21.4337 17.478C21.2223 17.4385 21.2223 17.4125 21.4733 17.0974C21.6179 16.8996 21.7366 16.5586 21.7366 16.3104C21.7366 16.0471 21.7884 15.8766 21.8812 15.9025C22.0394 15.9557 22.0394 15.8902 21.9207 16.7687C21.828 17.5176 21.7884 17.5694 21.4337 17.478Z" fill="#FEFEFE"/>
<path d="M67.9095 14.1837C67.8304 14.0527 68.095 13.3843 68.226 13.3843C68.2655 13.3707 68.5561 13.3175 68.8589 13.2656C69.5178 13.1347 69.6746 13.3311 69.3063 13.7908L69.069 14.0923L68.9108 13.8031C68.687 13.3707 68.3706 13.4362 68.3706 13.9081C68.3706 14.2887 68.095 14.4592 67.9095 14.1837Z" fill="#FEFEFE"/>
<path d="M32.4068 86.2076C32.4068 86.1422 32.1708 86.0767 31.8803 86.0767C31.5911 86.0767 31.3538 86.0235 31.3538 85.9457C31.3538 85.8789 31.1819 85.8134 30.9582 85.8134C30.7481 85.8134 30.5626 85.7616 30.5626 85.6825C30.5626 85.617 30.3921 85.5515 30.1684 85.5515C29.9569 85.5515 29.7728 85.4983 29.7728 85.4206C29.7728 85.3551 29.6009 85.2896 29.3772 85.2896C29.1671 85.2896 28.9816 85.2364 28.9816 85.1573C28.9816 85.0918 28.8111 85.0263 28.5874 85.0263C28.376 85.0263 28.1918 84.9745 28.1918 84.8954C28.1918 84.8299 28.0731 84.7644 27.9285 84.7644C27.7839 84.7644 27.6653 84.7112 27.6653 84.6335C27.6653 84.5666 27.4934 84.5012 27.2697 84.5012C27.0582 84.5012 26.8741 84.4493 26.8741 84.3702C26.8741 84.3047 26.7554 84.2393 26.6108 84.2393C26.4662 84.2393 26.3476 84.1874 26.3476 84.1083C26.3476 84.0428 26.1757 83.9773 25.952 83.9773C25.7419 83.9773 25.5577 83.9241 25.5577 83.845C25.5577 83.7796 25.4391 83.7141 25.2931 83.7141C25.1485 83.7141 25.0298 83.6622 25.0298 83.5831C25.0298 83.5177 24.9112 83.4522 24.7666 83.4522C24.622 83.4522 24.5033 83.399 24.5033 83.3212C24.5033 83.2557 24.3846 83.1889 24.24 83.1889C24.0954 83.1889 23.9768 83.1371 23.9768 83.058C23.9768 82.9925 23.8581 82.927 23.7121 82.927C23.5675 82.927 23.4489 82.8752 23.4489 82.796C23.4489 82.7306 23.3302 82.6651 23.1856 82.6651C23.041 82.6651 22.9223 82.6119 22.9223 82.5341C22.9223 82.4673 22.8037 82.4018 22.6591 82.4018C22.5145 82.4018 22.3958 82.35 22.3958 82.2709C22.3958 82.2054 22.2894 82.1399 22.1584 82.1399C22.0261 82.1399 21.842 82.0212 21.7369 81.878C21.6319 81.7334 21.4464 81.6147 21.3154 81.6147C21.1831 81.6147 21.0781 81.5629 21.0781 81.4838C21.0781 81.4183 20.9731 81.3528 20.8407 81.3528C20.7098 81.3528 20.5243 81.2342 20.4192 81.0896C20.3142 80.9463 20.1423 80.8277 20.0236 80.8277C19.905 80.8277 19.7345 80.709 19.6294 80.5658C19.523 80.4212 19.3525 80.3025 19.2338 80.3025C19.1152 80.3025 18.9433 80.1852 18.8383 80.0406C18.7332 79.896 18.5613 79.7787 18.4699 79.7787C18.3649 79.7787 18.1139 79.6068 17.9161 79.3845C17.7183 79.1744 17.4687 78.9902 17.3637 78.9902C17.2709 78.9902 17.099 78.8729 16.994 78.7283C16.889 78.5837 16.7307 78.4664 16.6257 78.4664C16.5329 78.4664 16.1646 78.1772 15.8086 77.8103C15.4526 77.4556 15.0966 77.1542 15.0311 77.1542C14.8469 77.1542 10.2759 72.6009 10.2759 72.4167C10.2759 72.3512 9.98533 71.9966 9.61702 71.6433C9.261 71.2886 8.95817 70.9217 8.95817 70.8289C8.95817 70.7239 8.83949 70.567 8.6949 70.462C8.55031 70.3569 8.43163 70.1864 8.43163 70.095C8.43163 69.99 8.25976 69.7404 8.03605 69.5439C7.82598 69.3462 7.64046 69.0979 7.64046 68.9929C7.64046 68.9001 7.52179 68.7296 7.37719 68.6245C7.2326 68.5195 7.11392 68.349 7.11392 68.2317C7.11392 68.113 6.99525 67.9425 6.85065 67.8375C6.70606 67.7324 6.58739 67.5483 6.58739 67.4173C6.58739 67.2864 6.53419 67.1813 6.45507 67.1813C6.38959 67.1813 6.32412 67.0763 6.32412 66.9454C6.32412 66.8144 6.20544 66.6303 6.05948 66.5252C5.91489 66.4202 5.79621 66.2374 5.79621 66.1051C5.79621 65.9741 5.74438 65.8691 5.66526 65.8691C5.59842 65.8691 5.53295 65.7518 5.53295 65.6072C5.53295 65.4626 5.48111 65.3439 5.40199 65.3439C5.33515 65.3439 5.26968 65.2389 5.26968 65.1079C5.26968 64.977 5.151 64.7928 5.00641 64.6878C4.86182 64.5841 4.74314 64.4 4.74314 64.269C4.74314 64.1367 4.68994 64.033 4.61082 64.033C4.54535 64.033 4.47987 63.9144 4.47987 63.7698C4.47987 63.6252 4.42667 63.5079 4.34755 63.5079C4.28208 63.5079 4.21524 63.3892 4.21524 63.2446C4.21524 63.1014 4.1634 62.9827 4.08428 62.9827C4.01881 62.9827 3.95197 62.8122 3.95197 62.5885C3.95197 62.3784 3.90013 62.1956 3.82102 62.1956C3.75418 62.1956 3.6887 62.0769 3.6887 61.9323C3.6887 61.7891 3.6355 61.6704 3.55775 61.6704C3.49091 61.6704 3.42543 61.5518 3.42543 61.4085C3.42543 61.2639 3.37223 61.1453 3.29312 61.1453C3.22764 61.1453 3.16216 60.9747 3.16216 60.7524C3.16216 60.5423 3.10896 60.3582 3.02985 60.3582C2.96437 60.3582 2.89889 60.2409 2.89889 60.0963C2.89889 59.9517 2.84569 59.833 2.76658 59.833C2.7011 59.833 2.63426 59.6625 2.63426 59.4401C2.63426 59.2301 2.58243 59.0459 2.50331 59.0459C2.43783 59.0459 2.37099 58.8754 2.37099 58.6531C2.37099 58.443 2.31916 58.2589 2.24004 58.2589C2.1732 58.2589 2.10772 58.0883 2.10772 57.866C2.10772 57.6559 2.05589 57.4718 1.97677 57.4718C1.90993 57.4718 1.84445 57.3013 1.84445 57.0776C1.84445 56.8675 1.79125 56.6847 1.71214 56.6847C1.64666 56.6847 1.58119 56.5142 1.58119 56.2905C1.58119 56.0804 1.52799 55.8976 1.44887 55.8976C1.38339 55.8976 1.31792 55.6603 1.31792 55.3724C1.31792 55.0833 1.26472 54.8473 1.1856 54.8473C1.12012 54.8473 1.05465 54.5976 1.06692 54.2962L1.08057 53.7314L1.27836 54.3876C2.91117 60.0431 4.53171 63.6784 7.21896 67.7584C12.8308 76.2743 21.6578 82.8356 31.2214 85.617C33.6727 86.3386 33.6195 86.3127 32.9743 86.3249C32.6578 86.3386 32.4068 86.2867 32.4068 86.2076Z" fill="#FEFEFE"/>
<path d="M0.789778 53.0099C0.789778 52.722 0.737943 52.4861 0.658826 52.4861C0.59335 52.4861 0.526509 52.1969 0.526509 51.8422C0.526509 51.4889 0.461033 51.1738 0.381916 51.1465C0.302799 51.1206 0.26324 50.7673 0.289158 50.2544L0.328717 49.4019L0.632908 51.1083C0.789778 52.0523 0.961653 52.9717 1.00121 53.1804C1.05441 53.4041 1.02713 53.535 0.935736 53.535C0.856618 53.535 0.789778 53.3127 0.789778 53.0099Z" fill="#FEFEFE"/>
<path d="M87.4858 49.8355C87.4995 49.665 87.5527 49.3621 87.6045 49.1398C87.6973 48.7988 87.7109 48.8506 87.7232 49.4413C87.7232 49.8218 87.6836 50.1233 87.6045 50.1233C87.539 50.1233 87.4858 49.9924 87.4858 49.8355Z" fill="#FEFEFE"/>
<path d="M0 47.7362C0 46.765 0.0654762 46.7772 0.184152 47.8017C0.237351 48.2736 0.211434 48.5492 0.132316 48.5492C0.0531995 48.5492 0 48.1945 0 47.7362Z" fill="#FEFEFE"/>
<path d="M87.8156 46.6859C87.8551 46.0817 87.9206 45.5701 87.9465 45.5442C87.9738 45.5183 87.9997 46.0039 87.9997 46.6205C87.9997 47.3421 87.9465 47.7622 87.8551 47.7622C87.7624 47.7622 87.7501 47.4212 87.8156 46.6859Z" fill="#FEFEFE"/>
<path d="M87.8283 40.7684C87.7233 39.5734 87.7629 39.2065 87.9347 39.3906C87.9743 39.4302 87.9866 40.0468 87.9743 40.7547L87.9347 42.0533L87.8283 40.7684Z" fill="#FEFEFE"/>
<path d="M0.0133198 39.4821C-0.000321065 38.6555 0.0528784 38.3281 0.171554 38.2749C0.316147 38.2231 0.328424 38.3936 0.23703 39.1547C0.0651551 40.6375 0.0392374 40.6757 0.0133198 39.4821Z" fill="#FEFEFE"/>
<path d="M87.5134 37.803C87.4206 37.0814 87.4343 36.9109 87.5652 36.9627C87.6839 37.0159 87.7371 37.3037 87.7371 37.8685C87.7371 38.3282 87.7112 38.7087 87.6839 38.7087C87.658 38.7087 87.5925 38.3009 87.5134 37.803Z" fill="#FEFEFE"/>
<path d="M0.276992 37.2519C0.263351 36.7404 0.31655 36.4908 0.435226 36.4376C0.579819 36.3857 0.59346 36.5044 0.500702 37.0419C0.328827 38.039 0.289268 38.0786 0.276992 37.2519Z" fill="#FEFEFE"/>
<path d="M87.3014 36.2944C87.236 36.0189 87.2223 35.7556 87.2619 35.7161C87.4201 35.5728 87.4856 35.8088 87.446 36.2944L87.4065 36.806L87.3014 36.2944Z" fill="#FEFEFE"/>
<path d="M0.539873 35.5988C0.526232 35.2182 0.593073 34.9031 0.658549 34.9031C0.737666 34.9031 0.789501 34.6671 0.789501 34.3779C0.789501 34.0901 0.856342 33.8527 0.921818 33.8527C1.00094 33.8527 1.05413 33.6167 1.05413 33.3289C1.05413 33.0397 1.11961 32.8037 1.18509 32.8037C1.2642 32.8037 1.3174 32.5678 1.3174 32.2786C1.3174 31.9908 1.38288 31.7534 1.44836 31.7534C1.52747 31.7534 1.58067 31.5174 1.58067 31.2296C1.58067 30.9404 1.64615 30.7044 1.71162 30.7044C1.79074 30.7044 1.84394 30.5339 1.84394 30.3102C1.84394 30.1001 1.90942 29.9173 1.97626 29.9173C2.05537 29.9173 2.10721 29.7468 2.10721 29.5231C2.10721 29.313 2.17269 29.1303 2.23953 29.1303C2.31864 29.1303 2.37048 28.9584 2.37048 28.736C2.37048 28.526 2.43732 28.3418 2.50279 28.3418C2.58191 28.3418 2.63375 28.1713 2.63375 27.949C2.63375 27.7389 2.70059 27.5547 2.76606 27.5547C2.84518 27.5547 2.89838 27.4374 2.89838 27.2928C2.89838 27.1482 2.96386 27.0296 3.02933 27.0296C3.10845 27.0296 3.16165 26.8591 3.16165 26.6367C3.16165 26.4266 3.22713 26.2425 3.2926 26.2425C3.37172 26.2425 3.42492 26.1252 3.42492 25.9806C3.42492 25.836 3.49039 25.7187 3.55723 25.7187C3.63499 25.7187 3.68819 25.6 3.68819 25.4554C3.68819 25.3108 3.75366 25.1935 3.8205 25.1935C3.89962 25.1935 3.95146 25.0748 3.95146 24.9302C3.95146 24.787 4.0183 24.6683 4.08377 24.6683C4.16289 24.6683 4.21472 24.5497 4.21472 24.4064C4.21472 24.2618 4.28156 24.1432 4.34704 24.1432C4.42616 24.1432 4.47936 24.0258 4.47936 23.8813C4.47936 23.7367 4.54483 23.618 4.61031 23.618C4.68943 23.618 4.74263 23.5007 4.74263 23.3561C4.74263 23.2115 4.8081 23.0942 4.87358 23.0942C4.9527 23.0942 5.0059 22.9755 5.0059 22.8309C5.0059 22.6877 5.07137 22.569 5.13685 22.569C5.21596 22.569 5.26916 22.4503 5.26916 22.3071C5.26916 22.1625 5.33464 22.0438 5.40148 22.0438C5.4806 22.0438 5.53243 21.9265 5.53243 21.7819C5.53243 21.6373 5.59791 21.5187 5.66475 21.5187C5.74387 21.5187 5.7957 21.4136 5.7957 21.2827C5.7957 21.1517 5.91438 20.9676 6.05897 20.8625C6.20493 20.7589 6.3236 20.587 6.3236 20.4697C6.3236 20.351 6.44228 20.1805 6.58687 20.0754C6.73147 19.9704 6.85014 19.7999 6.85014 19.6826C6.85014 19.5639 6.96882 19.3934 7.11341 19.2884C7.258 19.1833 7.37668 19.0128 7.37668 18.8955C7.37668 18.7768 7.49535 18.6063 7.63995 18.5013C7.7859 18.3963 7.90322 18.2257 7.90322 18.1344C7.90322 18.0293 8.07509 17.7797 8.2988 17.5833C8.51024 17.3855 8.69439 17.1495 8.69439 17.0581C8.69439 16.9667 8.8649 16.7293 9.08997 16.5329C9.30004 16.3365 9.48419 16.1005 9.48419 16.0077C9.48419 15.9163 9.66971 15.6804 9.87978 15.4839C10.0912 15.2861 10.2754 15.0502 10.2754 14.971C10.2754 14.7746 14.5695 10.4968 14.7673 10.4968C14.8464 10.4968 15.0838 10.3263 15.2816 10.104C15.4794 9.8939 15.7153 9.70975 15.8081 9.70975C15.8872 9.70975 16.19 9.47376 16.467 9.18458C16.7439 8.89675 17.0467 8.66077 17.1258 8.66077C17.2172 8.66077 17.4546 8.49026 17.6523 8.26655C17.8501 8.05648 18.0998 7.87232 18.2062 7.87232C18.2976 7.87232 18.4694 7.75501 18.5745 7.61042C18.6795 7.46583 18.8514 7.34852 18.9701 7.34852C19.0887 7.34852 19.2592 7.22984 19.3656 7.08525C19.4707 6.94202 19.6412 6.82334 19.7599 6.82334C19.8785 6.82334 20.0504 6.70467 20.1554 6.56144C20.2605 6.41684 20.4324 6.29817 20.551 6.29817C20.6697 6.29817 20.8402 6.18086 20.9453 6.03626C21.0517 5.89167 21.2358 5.77299 21.3668 5.77299C21.4991 5.77299 21.6041 5.72116 21.6041 5.64204C21.6041 5.57657 21.7228 5.51109 21.8674 5.51109C22.0133 5.51109 22.132 5.45925 22.132 5.38014C22.132 5.31466 22.2493 5.24918 22.3953 5.24918C22.5399 5.24918 22.6585 5.19599 22.6585 5.11687C22.6585 5.05139 22.7772 4.98592 22.9218 4.98592C23.0664 4.98592 23.1851 4.93408 23.1851 4.85496C23.1851 4.78949 23.3038 4.72401 23.4484 4.72401C23.5943 4.72401 23.7116 4.67081 23.7116 4.59306C23.7116 4.52758 23.8303 4.46211 23.9763 4.46211C24.1208 4.46211 24.2395 4.40891 24.2395 4.32979C24.2395 4.26431 24.3582 4.19884 24.5028 4.19884C24.6474 4.19884 24.7661 4.147 24.7661 4.06789C24.7661 4.00241 24.8847 3.93693 25.0293 3.93693C25.1739 3.93693 25.2926 3.88373 25.2926 3.80598C25.2926 3.73914 25.4113 3.67366 25.5572 3.67366C25.7018 3.67366 25.8205 3.62183 25.8205 3.54271C25.8205 3.47724 25.9392 3.41176 26.0838 3.41176C26.2284 3.41176 26.347 3.35992 26.347 3.28081C26.347 3.21533 26.5312 3.14985 26.7426 3.14985C26.9663 3.14985 27.1368 3.09666 27.1368 3.01754C27.1368 2.95206 27.2555 2.88659 27.4015 2.88659C27.5461 2.88659 27.6647 2.83475 27.6647 2.75563C27.6647 2.69016 27.8489 2.62468 28.059 2.62468C28.284 2.62468 28.4546 2.57148 28.4546 2.49373C28.4546 2.42825 28.6387 2.36141 28.8501 2.36141C29.0739 2.36141 29.2457 2.30958 29.2457 2.23046C29.2457 2.16498 29.4299 2.09951 29.6399 2.09951C29.865 2.09951 30.0355 2.04767 30.0355 1.96856C30.0355 1.90308 30.2197 1.8376 30.4311 1.8376C30.6548 1.8376 30.8267 1.7844 30.8267 1.70529C30.8267 1.63981 31.0109 1.57433 31.2209 1.57433C31.4446 1.57433 31.6165 1.5225 31.6165 1.44338C31.6165 1.37791 31.8539 1.31243 32.143 1.31243C32.4336 1.31243 32.6709 1.25923 32.6709 1.18148C32.6709 1.116 32.9069 1.05052 33.1975 1.05052C33.4867 1.05052 33.724 0.997325 33.724 0.918208C33.724 0.852732 34.0269 0.787255 34.3829 0.787255C34.7512 0.787255 35.0417 0.73542 35.0417 0.656303C35.0417 0.590827 35.3582 0.525351 35.7401 0.537627C36.3322 0.537627 36.1344 0.603104 34.3829 0.997325C30.7203 1.8376 27.0059 3.17577 23.9094 4.78949C19.3916 7.13845 16.4929 9.26369 12.8303 12.9113C9.14181 16.5861 6.73147 19.9445 4.47936 24.4719C2.9243 27.6202 1.77846 30.8749 1.00093 34.4434C0.565791 36.3995 0.553514 36.4377 0.539873 35.5988Z" fill="#FEFEFE"/>
<path d="M86.8938 34.2469C84.9964 25.705 80.2534 17.5041 73.759 11.5731C72.0989 10.0644 71.9148 9.90615 70.6762 8.97584C68.1472 7.08522 66.2374 5.89164 63.6416 4.60531C60.9803 3.26714 59.4525 2.69013 55.2634 1.4038C54.2498 1.08869 54.2362 1.07641 54.7764 1.06277C55.0792 1.0505 55.3288 1.11597 55.3288 1.18145C55.3288 1.2592 55.5144 1.3124 55.7244 1.3124C55.9481 1.3124 56.12 1.37788 56.12 1.44335C56.12 1.52247 56.3574 1.57431 56.6465 1.57431C56.9371 1.57431 57.1731 1.63978 57.1731 1.70526C57.1731 1.78438 57.3586 1.83758 57.5687 1.83758C57.7924 1.83758 57.9643 1.90305 57.9643 1.96853C57.9643 2.04764 58.1484 2.09948 58.3598 2.09948C58.5836 2.09948 58.7541 2.16496 58.7541 2.23043C58.7541 2.30955 58.9396 2.36138 59.1496 2.36138C59.3734 2.36138 59.5452 2.42822 59.5452 2.4937C59.5452 2.57145 59.6639 2.62465 59.8085 2.62465C59.9531 2.62465 60.0718 2.69013 60.0718 2.75561C60.0718 2.83472 60.2559 2.88656 60.4674 2.88656C60.6911 2.88656 60.8629 2.95203 60.8629 3.01751C60.8629 3.09663 61.0471 3.14983 61.2572 3.14983C61.4809 3.14983 61.6527 3.2153 61.6527 3.28078C61.6527 3.3599 61.7714 3.41173 61.916 3.41173C62.0606 3.41173 62.1793 3.47721 62.1793 3.54268C62.1793 3.6218 62.298 3.67364 62.4426 3.67364C62.5885 3.67364 62.7072 3.73911 62.7072 3.80595C62.7072 3.88371 62.8259 3.93691 62.9705 3.93691C63.1151 3.93691 63.2337 4.00238 63.2337 4.06786C63.2337 4.14698 63.3524 4.19881 63.497 4.19881C63.6416 4.19881 63.7603 4.26429 63.7603 4.32976C63.7603 4.40888 63.8789 4.46208 64.0235 4.46208C64.1695 4.46208 64.2882 4.52756 64.2882 4.59303C64.2882 4.67078 64.4055 4.72398 64.5514 4.72398C64.696 4.72398 64.8147 4.78946 64.8147 4.85494C64.8147 4.93405 64.9334 4.98589 65.078 4.98589C65.2226 4.98589 65.3412 5.05136 65.3412 5.11684C65.3412 5.19596 65.4463 5.24916 65.5786 5.24916C65.7109 5.24916 65.8951 5.36647 66.0001 5.51106C66.1051 5.65565 66.2893 5.77297 66.4216 5.77297C66.5539 5.77297 66.6589 5.83981 66.6589 5.90528C66.6589 5.98304 66.764 6.03624 66.8963 6.03624C67.0273 6.03624 67.2114 6.15355 67.3178 6.29814C67.4228 6.44273 67.607 6.56141 67.7393 6.56141C67.8703 6.56141 67.9767 6.62689 67.9767 6.69236C67.9767 6.77011 68.0817 6.82331 68.2126 6.82331C68.345 6.82331 68.5291 6.94199 68.6341 7.08522C68.7405 7.22981 68.9111 7.34849 69.0038 7.34849C69.1089 7.34849 69.3598 7.53127 69.5576 7.74134C69.7541 7.96505 70.0051 8.13557 70.1101 8.13557C70.2028 8.13557 70.3734 8.25288 70.4798 8.39747C70.5848 8.54206 70.7553 8.66074 70.8481 8.66074C70.9531 8.66074 71.2041 8.84353 71.4019 9.0536C71.5983 9.27731 71.8357 9.44782 71.9148 9.44782C72.0989 9.44782 77.7244 15.0378 77.7244 15.2343C77.7244 15.3134 77.9618 15.6012 78.251 15.8768C78.5415 16.1523 78.7789 16.4538 78.7789 16.5329C78.7789 16.612 79.0162 16.9135 79.3054 17.189C79.596 17.4646 79.8319 17.7797 79.8319 17.8711C79.8319 17.9638 79.9506 18.1343 80.0966 18.2394C80.2412 18.3444 80.3598 18.5149 80.3598 18.6063C80.3598 18.7113 80.544 18.961 80.7541 19.1574C80.9791 19.3538 81.1496 19.6171 81.1496 19.7344C81.1496 19.8531 81.2151 19.9445 81.282 19.9445C81.3611 19.9445 81.4129 20.0631 81.4129 20.2077C81.4129 20.351 81.4798 20.4696 81.5452 20.4696C81.6244 20.4696 81.6762 20.5747 81.6762 20.7056C81.6762 20.8366 81.7949 21.0207 81.9408 21.1258C82.0854 21.2308 82.2041 21.4136 82.2041 21.5459C82.2041 21.6769 82.2696 21.7819 82.335 21.7819C82.4142 21.7819 82.4674 21.8869 82.4674 22.0179C82.4674 22.1488 82.586 22.333 82.7306 22.438C82.8752 22.5431 82.9939 22.7258 82.9939 22.8582C82.9939 22.9891 83.0594 23.0941 83.1262 23.0941C83.2053 23.0941 83.2572 23.2115 83.2572 23.356C83.2572 23.5006 83.324 23.618 83.3895 23.618C83.4686 23.618 83.5204 23.7366 83.5204 23.8812C83.5204 24.0258 83.5873 24.1431 83.6527 24.1431C83.7319 24.1431 83.7851 24.2618 83.7851 24.4064C83.7851 24.5496 83.8505 24.6683 83.916 24.6683C83.9951 24.6683 84.0483 24.8525 84.0483 25.0625C84.0483 25.2849 84.1138 25.4554 84.1793 25.4554C84.2584 25.4554 84.3116 25.5741 84.3116 25.7186C84.3116 25.8619 84.3771 25.9806 84.4426 25.9806C84.5217 25.9806 84.5749 26.0992 84.5749 26.2425C84.5749 26.3871 84.6403 26.5057 84.7072 26.5057C84.7863 26.5057 84.8381 26.6885 84.8381 26.8986C84.8381 27.1223 84.9036 27.2928 84.9705 27.2928C85.0496 27.2928 85.1014 27.4101 85.1014 27.5547C85.1014 27.6993 85.1682 27.818 85.2337 27.818C85.3128 27.818 85.366 28.0008 85.366 28.2108C85.366 28.4345 85.4315 28.6051 85.497 28.6051C85.5761 28.6051 85.6293 28.7878 85.6293 28.9979C85.6293 29.2216 85.6948 29.3921 85.7603 29.3921C85.8394 29.3921 85.8926 29.5763 85.8926 29.785C85.8926 30.0087 85.9581 30.1792 86.0235 30.1792C86.1026 30.1792 86.1558 30.3634 86.1558 30.5734C86.1558 30.7958 86.2213 30.9663 86.2882 30.9663C86.3659 30.9663 86.4191 31.2023 86.4191 31.4915C86.4191 31.7807 86.4846 32.0166 86.5514 32.0166C86.6306 32.0166 86.6824 32.2526 86.6824 32.5418C86.6824 32.8296 86.7492 33.0656 86.8147 33.0656C86.8938 33.0656 86.9457 33.3016 86.9457 33.5772C86.9457 33.8663 87.0125 34.116 87.0916 34.1419C87.1707 34.1678 87.2103 34.4433 87.183 34.7721C87.1434 35.3355 87.1312 35.3232 86.8938 34.2469Z" fill="#FEFEFE"/>
<path d="M52.827 0.866237C51.5884 0.590691 51.5748 0.590691 52.2336 0.551133C52.6156 0.525215 52.9048 0.564774 52.9321 0.642527C52.958 0.721644 53.209 0.78712 53.4845 0.78712C53.801 0.78712 54.0124 0.852596 54.0642 0.983549C54.1038 1.08858 54.1174 1.1677 54.1038 1.1677C54.0915 1.15406 53.5118 1.02311 52.827 0.866237Z" fill="#FEFEFE"/>
<path d="M36.8862 0.394279C36.8862 0.327439 37.1359 0.261963 37.4401 0.261963C38.0853 0.261963 38.058 0.327439 37.3869 0.446115C37.0704 0.499314 36.8862 0.485673 36.8862 0.394279Z" fill="#FEFEFE"/>
<path d="M50.2572 0.39431C49.9025 0.301553 49.9284 0.289276 50.4945 0.275635C50.8369 0.275635 51.1138 0.32747 51.1138 0.39431C51.1138 0.537539 50.8369 0.537539 50.2572 0.39431Z" fill="#FEFEFE"/>
<path d="M38.4673 0.130963C38.4673 0.0518459 38.8356 1.03842e-05 39.3635 0.0136513C40.1792 0.0259281 40.2065 0.0395688 39.7182 0.144603C38.9802 0.289197 38.4673 0.289197 38.4673 0.130963Z" fill="#FEFEFE"/>
<path d="M48.0842 0.130983C47.7145 0.0518665 47.8073 0.0259487 48.5848 0.0136719C49.1372 0.0136719 49.5328 0.0518665 49.5328 0.130983C49.5328 0.275576 48.7826 0.275576 48.0842 0.130983Z" fill="#FEFEFE"/>
</svg>
