<?xml version="1.0" encoding="UTF-8"?>
<svg id="_图层_1" data-name="图层_1" xmlns="http://www.w3.org/2000/svg" version="1.1" viewBox="0 0 694 695">
  <defs>
    <style>
      .st0 {
        fill: #fff;
        fill-rule: evenodd;
      }
    </style>
  </defs>
  <path class="st0" d="M0,347.53c.02,191.92,155.53,347.49,347.36,347.47,191.82-.02,347.31-155.61,347.29-347.53C694.63,155.55,539.11-.02,347.29,0,155.55.21.18,155.69,0,347.53ZM10.69,347.53C10.71,161.52,161.44,10.74,347.36,10.76c185.92.02,336.62,150.83,336.6,336.84s-150.75,336.79-336.67,336.77c-185.82-.25-336.39-150.92-336.6-336.84Z"/>
  <path class="st0" d="M95.09,347.53c0,139.36,112.91,252.33,252.2,252.33s252.2-112.97,252.2-252.33-112.91-252.33-252.2-252.33c-139.23.12-252.07,113.02-252.2,252.33ZM102.35,347.53c0-135.37,109.68-245.1,244.97-245.1s244.97,109.74,244.97,245.1-109.68,245.1-244.97,245.1c-135.22-.18-244.8-109.81-244.97-245.1Z"/>
  <path class="st0" d="M84.88,330.66l-9.7-1.02v-.8c2.33-.07,4.56-.91,6.36-2.39,1.6-1.24,2.66-3.06,2.96-5.06.23-1.27-.06-2.57-.8-3.63-.57-.87-1.49-1.44-2.51-1.56-.59-.1-1.2-.03-1.75.22-.86.42-1.63,1-2.26,1.72-.54.64-1.62,2.1-3.18,4.36-1.39,2.49-3.29,4.66-5.57,6.37-3.86,2.26-8.81,1.1-11.26-2.64-1.56-2.18-2.18-4.9-1.72-7.54.09-.88.28-1.74.54-2.58.42-1.01.92-1.99,1.5-2.93.32-.5.53-1.07.64-1.65.05-.42-.04-.85-.25-1.21-.29-.52-.73-.95-1.27-1.21l.16-.76,10.98,1.34-.16.83c-2.71.08-5.32,1.05-7.41,2.77-1.71,1.39-2.85,3.36-3.18,5.54-.23,1.38.05,2.79.8,3.98.65,1.04,1.74,1.73,2.96,1.88.67.06,1.35-.04,1.97-.32.76-.35,1.45-.84,2.04-1.43,1.04-1.11,1.96-2.32,2.74-3.63,1.18-1.91,2.55-3.69,4.1-5.32.96-.99,2.1-1.77,3.37-2.29,1.24-.5,2.59-.66,3.91-.48,2.2.24,4.2,1.39,5.5,3.18,1.43,1.91,2.04,4.32,1.69,6.68-.13.93-.37,1.83-.7,2.71-.33.83-.76,1.62-1.27,2.36-.43.58-.76,1.24-.95,1.94-.04.34.05.68.25.95.46.36.99.61,1.56.73l-.06.89Z"/>
  <path class="st0" d="M83.29,346.26l-11.68-.19c.99.9,1.79,1.98,2.39,3.18.45.91.69,1.91.7,2.93.02,1.17-.4,2.31-1.18,3.18-.65.88-1.56,1.53-2.61,1.85-1.61.29-3.24.37-4.87.22l-7.99-.19c-.96-.1-1.93.04-2.83.38-.5.46-.82,1.08-.89,1.75h-.7l.19-10.22h.83c0,.66.29,1.28.8,1.69.88.35,1.83.49,2.77.41l9,.19c1.06.1,2.12.1,3.18,0,.42-.1.81-.32,1.11-.64.2-.33.31-.7.32-1.08.05-.59-.15-1.18-.54-1.62-.55-.75-1.24-1.39-2.04-1.88l-10.85-.29c-.92-.07-1.85.02-2.74.29-.54.38-.89.97-.95,1.62h-.76l.13-10.44h.73c.03.71.33,1.38.83,1.88.89.32,1.83.44,2.77.35l20.55.48c.98.14,1.97.03,2.9-.32.51-.43.82-1.05.86-1.72h.73l-.16,8.18Z"/>
  <path class="st0" d="M59.4,377.93l6.65-.51c-.93-1.43-2.13-2.68-3.53-3.66-.71-.5-1.58-.74-2.45-.67-.66.02-1.28.31-1.72.8-.35.45-.52,1.02-.48,1.59.22.96.76,1.83,1.53,2.45ZM57.81,377.93c-1.99-1.59-3.35-3.86-3.82-6.37-.13-1.06.19-2.12.89-2.93.69-.84,1.71-1.34,2.8-1.37,1.6-.1,3.16.52,4.26,1.69,2.21,2.55,4.09,5.37,5.57,8.4l2.04-.22c.97-.01,1.93-.14,2.86-.38.38-.28.7-.62.95-1.02.28-.49.41-1.06.38-1.62-.06-.84-.34-1.64-.83-2.32-.29-.35-.64-.51-.89-.41-.46.04-.88.27-1.15.64-.44.52-1.05.87-1.72.99-.7.04-1.38-.21-1.88-.7-.57-.53-.89-1.26-.89-2.04-.07-.8.14-1.6.6-2.26.39-.66,1.08-1.07,1.85-1.11,1.15-.08,2.29.29,3.18,1.02,1.02.87,1.82,1.95,2.35,3.18.62,1.43.99,2.96,1.08,4.52.26,1.6-.04,3.24-.86,4.65-.58,1.05-1.47,1.89-2.55,2.42-1.36.33-2.74.54-4.14.64l-7.83.54h-1.75c-.19.19-.38.29-.48.41-.06.19-.06.39,0,.57,0,.32.29.7.89.99l-.48.73c-.98-.46-1.82-1.16-2.45-2.04-.58-.74-.92-1.64-.99-2.58-.12-.97.11-1.96.67-2.77.61-.64,1.42-1.05,2.29-1.18v-.06Z"/>
  <path class="st0" d="M77.57,399l-2.7.41c1.13.69,2.15,1.55,3.02,2.55.69.84,1.14,1.85,1.3,2.93.52,2.32-.74,4.68-2.96,5.54-1.47.6-3.01.98-4.58,1.15l-7.79,1.31c-1,.11-1.95.45-2.8.99-.36.52-.5,1.16-.41,1.78h-.8l-1.69-10.15h.8c.14.65.56,1.19,1.15,1.5.93.12,1.87.06,2.77-.19l8.84-1.5c1.08-.13,2.14-.36,3.18-.67.36-.2.65-.49.83-.86.2-.33.28-.71.22-1.08-.22-1.18-1.37-2.23-3.34-2.96l-10.59,1.85c-.98.03-1.94.33-2.77.86-.4.47-.57,1.08-.48,1.69h-.8l-1.72-10.06.8-.16c.12.67.51,1.25,1.08,1.62.93.23,1.9.23,2.83,0l11.26-1.91c1.02-.03,2.01-.38,2.83-.99.38-.32.48-.89.48-1.81h.7l1.34,8.18Z"/>
  <path class="st0" d="M82.72,427.08c-.19-.86-.86-1.54-1.72-1.75-1.8-.21-3.63,0-5.34.57-1.5.26-2.89.94-4.01,1.97-.6.6-.86,1.46-.7,2.29.29.82.93,1.46,1.75,1.75,1.58.33,3.23.2,4.74-.38,1.79-.29,3.45-1.09,4.8-2.29.53-.59.71-1.41.48-2.17ZM60.74,431.79c-.25-.98-.65-1.91-1.18-2.77-.51-.6-1.31-.86-2.07-.67-.8.26-1.42.91-1.65,1.72-.28,1.64-.16,3.32.35,4.9.42,1.62,1.13,3.15,2.1,4.52.63.81,1.66,1.2,2.67,1.02.3-.14.57-.33.8-.57.28-.6.4-1.25.35-1.91-.32-2.15-.78-4.27-1.37-6.37v.13ZM84.28,430.61l1.78,6.68-2.39.64-.95-3.85c-.44.7-.95,1.35-1.53,1.94-1.73,1.4-4.08,1.76-6.14.92-1.28-.54-2.38-1.42-3.18-2.55-.83-.92-1.45-2.01-1.85-3.18-.13-.62-.32-1.46-.57-2.55-.31-1.2-1.53-1.94-2.74-1.66-.46.12-.84.45-1.02.89-.26.66-.26,1.38,0,2.04l.99,3.6c.72,2.04.96,4.22.7,6.37-.4,1.73-1.74,3.09-3.47,3.5-1.17.28-2.4.2-3.53-.22-1.14-.52-2.15-1.3-2.93-2.29-1.23-1.8-2.15-3.81-2.7-5.92-.43-1.64-.71-3.31-.83-5-.07-1.21.14-2.42.6-3.53.36-.69.96-1.22,1.69-1.5.65-.15,1.34-.01,1.88.38.67.19,1.37,1.05,2.04,2.26.14-1.76,1.34-3.25,3.02-3.76,1.06-.26,2.18-.16,3.18.29,1.29.71,2.38,1.72,3.18,2.96.1-1.73.66-3.4,1.62-4.84,2.29-2.73,6.28-3.28,9.23-1.27,1.87,1.28,3.18,3.21,3.69,5.41.38,1.38.48,2.82.29,4.23h-.06Z"/>
  <path class="st0" d="M99.45,446.97l-10.98,4.17c1.25.45,2.41,1.11,3.44,1.94.77.65,1.34,1.5,1.65,2.45.5,1.07.57,2.29.19,3.41-.33,1.02-.97,1.92-1.81,2.58-1.35.93-2.83,1.67-4.39,2.2l-7.44,2.8c-.96.26-1.84.74-2.58,1.4-.21.6-.21,1.25,0,1.85l-.76.35-3.53-9.55.64-.25c.33.53.82.95,1.4,1.18.94,0,1.88-.22,2.74-.6l8.4-3.18c1-.37,1.97-.81,2.9-1.34.32-.24.58-.56.76-.92.13-.38.13-.8,0-1.18-.16-.58-.57-1.06-1.11-1.3-.76-.51-1.63-.83-2.55-.92l-10.21,3.82c-1.3.51-2.13.86-2.32,1.21-.44.52-.57,1.23-.35,1.88l-.73.29-3.63-9.55.8-.32c.25.64.74,1.15,1.37,1.43.94-.07,1.87-.3,2.74-.67l19.28-7.26c.95-.28,1.82-.78,2.55-1.46.25-.6.25-1.28,0-1.88l.8-.26,2.77,7.7Z"/>
  <path class="st0" d="M89.08,485.2l6.04-2.9c-1.4-1.05-3.02-1.78-4.74-2.13-.82-.13-1.66-.02-2.42.32-.63.27-1.13.79-1.37,1.43-.12.54-.06,1.11.16,1.62.58.79,1.39,1.37,2.32,1.65ZM87.71,485.93c-2.5-.71-4.65-2.34-6.01-4.55-.5-.93-.61-2.02-.29-3.02.33-1.05,1.08-1.91,2.07-2.39,1.49-.59,3.15-.59,4.65,0,2.96,1.58,5.74,3.49,8.27,5.7l1.85-.89c.91-.34,1.74-.86,2.45-1.53.33-.34.53-.8.57-1.27.03-.56-.09-1.12-.35-1.62-.33-.74-.88-1.37-1.56-1.81-.48-.22-.8-.25-1.05,0-.25.26-.57.45-.83,1.02-.2.63-.63,1.15-1.21,1.46-.62.27-1.32.27-1.94,0-.72-.24-1.31-.77-1.62-1.46-.4-.74-.51-1.6-.32-2.42.19-.74.69-1.37,1.37-1.72,1.02-.41,2.16-.41,3.18,0,1.35.35,2.57,1.09,3.5,2.13,1.11,1.08,2.01,2.36,2.67,3.76.84,1.39,1.17,3.03.95,4.65-.11,1.18-.6,2.3-1.4,3.18-1.13.81-2.33,1.51-3.6,2.1l-7.13,3.5c-.52.24-1.02.53-1.5.86-.15.1-.26.26-.29.45-.07.2-.07.41,0,.61,0,.38.51.51,1.18.64v.83c-1.12-.15-2.2-.5-3.18-1.05-.78-.49-1.4-1.18-1.81-2.01-.43-.86-.55-1.83-.35-2.77.19-1.01.84-1.88,1.75-2.36h-.03Z"/>
  <path class="st0" d="M120.58,489.98c.52.73.65,1.67.35,2.52-.18.85-.7,1.58-1.43,2.04-1.46.97-3.44.58-4.41-.89-.06-.1-.12-.19-.17-.29-.95-1.48-.53-3.45.94-4.4.07-.04.13-.08.2-.12.75-.5,1.67-.67,2.54-.45.85.24,1.56.81,1.97,1.59ZM113.74,497.55l-13.81,8.12c-1.24.73-2,1.37-2.16,1.91-.12.72.02,1.45.41,2.07l-.67.38-5.6-9.55.64-.35c.39.63.99,1.1,1.69,1.34.51,0,1.3-.26,2.58-.99l10.18-5.92c1.21-.8,1.97-1.4,2.1-1.94.1-.71-.02-1.43-.35-2.07l.64-.38,4.36,7.38Z"/>
  <path class="st0" d="M132.22,509.68l9.54,11.94-.64.48-.48-.57c-.44-.69-1.05-1.25-1.78-1.62-.42-.17-.89-.17-1.3,0-.99.44-1.89,1.04-2.67,1.78l-11.2,8.98c-1.44,1.02-2.68,2.29-3.66,3.76-.42.88-.59,1.86-.48,2.83.17,1.19.69,2.3,1.5,3.18.8,1.11,1.91,1.96,3.18,2.45,1.27.33,2.61.33,3.88,0,2.06-.87,3.96-2.08,5.63-3.56l9.42-7.48c.78-.57,1.43-1.29,1.91-2.13.27-.46.39-1,.32-1.53-.26-.91-.71-1.74-1.34-2.45l.57-.45,6.36,7.99-.64.45-.35-.45c-.43-.59-1.01-1.05-1.69-1.34-.63-.19-1.31-.19-1.94,0-.79.33-1.53.79-2.16,1.37l-8.72,7c-1.87,1.65-3.95,3.07-6.17,4.2-1.74.62-3.64.62-5.38,0-2.4-.8-4.49-2.31-6.01-4.33-1.34-1.52-2.33-3.31-2.93-5.25-.47-1.77-.38-3.63.25-5.35.9-1.81,2.22-3.38,3.85-4.58l11.33-8.98c.87-.6,1.63-1.34,2.26-2.2.16-.45.16-.95,0-1.4-.22-.87-.68-1.65-1.34-2.26l.86-.48Z"/>
  <path class="st0" d="M153.63,548.61l-1.88,1.97c1.31-.12,2.63-.03,3.91.26,1.07.25,2.03.81,2.77,1.62.89.83,1.43,1.97,1.5,3.18.14,1.1-.08,2.22-.64,3.18-.9,1.34-1.97,2.56-3.18,3.63l-5.57,5.63c-1.11,1.11-1.69,1.88-1.75,2.39-.06.51,0,1.02.76,1.72l-.6.57-7.25-7.23.54-.54c.49.41,1.15.58,1.78.45.86-.33,1.61-.89,2.16-1.62l6.36-6.37c.76-.75,1.47-1.56,2.1-2.42.22-.37.3-.81.22-1.24-.04-.36-.21-.68-.48-.92-.86-.86-2.32-1.08-4.45-.41l-7.51,7.58c-.77.65-1.37,1.48-1.75,2.42-.04.59.18,1.16.6,1.56l-.54.6-7.13-7.35.48-.57c.5.48,1.18.72,1.88.67.44,0,1.14-.64,2.29-1.72l8.08-8.15c1.02-1.02,1.65-1.85,1.65-2.26s-.19-1.11-.67-1.85l.48-.54,5.82,5.76Z"/>
  <path class="st0" d="M177.91,557.65c.71.52,1.15,1.32,1.21,2.2.07.89-.2,1.78-.76,2.48-.59.69-1.42,1.13-2.32,1.21-.88.04-1.74-.24-2.42-.8-.69-.57-1.13-1.37-1.24-2.26-.04-.91.28-1.8.89-2.48.59-.63,1.37-1.03,2.23-1.15.89-.15,1.79.15,2.42.8ZM173.93,567.2l-6.55-5.6-.54.64c.57.46.96,1.12,1.08,1.85-.22.91-.68,1.74-1.34,2.42l-7.7,9.01c-.92,1.15-1.62,1.69-2.04,1.75-.75.07-1.49-.18-2.04-.7l-.54.54,8.46,7.13.54-.51c-.76-.73-1.15-1.3-1.15-1.81.21-.96.71-1.84,1.43-2.51l10.37-12.19Z"/>
  <path class="st0" d="M174.6,594l3.75-16.71c.39-1.36.56-2.76.51-4.17-.09-.54-.35-1.04-.73-1.43l.44-.57,8.78,6.37-.44.64c-.61-.38-.99-.64-1.37-.51-.43,0-.82.21-1.05.57-.51.93-.86,1.94-1.02,2.99l-1.75,8.18,5.98-3.66c1.19-.68,2.26-1.53,3.18-2.55.24-.33.34-.75.25-1.15-.23-.56-.62-1.05-1.11-1.4l.45-.67,5.34,3.92-.41.67c-.52-.32-1.14-.46-1.75-.38-1.22.43-2.38.99-3.47,1.69l-14.86,8.91-.73-.73Z"/>
  <path class="st0" d="M206.29,599.32c.88-1.34,1.58-2.78,2.1-4.3.19-.74.19-1.52,0-2.26-.13-.44-.45-.79-.86-.99-.67-.38-1.49-.38-2.16,0-1.63.85-2.97,2.17-3.85,3.79l-.38.64,5.15,3.18v-.06ZM210.17,603.26l-9.54-5.79c-1.19,1.98-1.69,4.29-1.43,6.59.12,1.45.94,2.74,2.2,3.47.72.46,1.57.68,2.42.64,1.11-.2,2.19-.57,3.18-1.11l.35.83c-1.66,1.17-3.58,1.92-5.6,2.2-4.53.19-8.41-3.22-8.81-7.73-.03-2.44.66-4.85,1.97-6.91,1.33-2.58,3.62-4.54,6.36-5.47,2.36-.85,4.98-.59,7.13.7,1.71,1.1,2.87,2.89,3.18,4.9.44,2.65-.06,5.38-1.4,7.7Z"/>
  <path class="st0" d="M227.45,601.61l-2.04,4.2c1.49-1.04,3.16-1.81,4.93-2.26,1.07-.22,2.19-.09,3.18.38.66.28,1.18.82,1.43,1.5.2.75.1,1.55-.29,2.23-.29.77-.88,1.4-1.62,1.75-.59.26-1.26.26-1.85,0-.66-.27-1.18-.8-1.43-1.46-.1-.41-.27-.8-.51-1.15-.1-.15-.2-.28-.32-.41-.44-.06-.89-.06-1.34,0-.82.24-1.57.69-2.16,1.3-1.13,1.11-2.06,2.42-2.74,3.85l-1.97,4.17-.57,1.11c-.26.46-.44.95-.54,1.46-.04.4.08.8.32,1.11.39.45.87.81,1.4,1.08l-.32.7-9.86-4.81.35-.7c.62.23,1.29.23,1.91,0,.83-.77,1.46-1.73,1.85-2.8l4.9-9.93c.38-.65.66-1.35.86-2.07.14-.38.14-.8,0-1.18-.26-.45-.65-.82-1.11-1.05l.38-.64,7.16,3.6Z"/>
  <path class="st0" d="M252.48,611.89l-2.23,6.62-.76-.25c.02-1.72-.31-3.43-.96-5.03-.5-.92-1.28-1.67-2.23-2.13-.54-.23-1.15-.23-1.69,0-.48.21-.87.6-1.08,1.08-.16.39-.16.82,0,1.21.66,1.51,1.48,2.96,2.45,4.3,1.17,1.47,2.07,3.14,2.64,4.93.3,1.15.19,2.37-.32,3.44-.4,1.11-1.09,2.09-2.01,2.83-.9.79-2,1.29-3.18,1.46-1.2.14-2.41-.03-3.53-.48-1.2-.53-2.29-1.3-3.18-2.26-.24-.21-.49-.39-.76-.54-.53-.16-1.11.02-1.46.45l-.76-.19,2.39-6.94.73.29c-.15,1.72.16,3.46.89,5.03.49,1.1,1.38,1.99,2.48,2.48.58.25,1.23.25,1.81,0,.56-.23.99-.69,1.18-1.27.29-.58.29-1.26,0-1.85-.47-1.14-1.09-2.21-1.85-3.18-1.14-1.49-2.06-3.13-2.74-4.87-.51-1.36-.51-2.85,0-4.2.64-1.41,1.77-2.55,3.18-3.18,1.59-.77,3.44-.77,5.03,0,1.04.42,1.95,1.09,2.67,1.94.22.25.48.47.76.64.23.04.47.04.7,0,.19,0,.48-.19,1.02-.54l.8.22Z"/>
  <path class="st0" d="M267.25,607.12c.83.29,1.49.92,1.85,1.72.43.77.52,1.68.25,2.52-.28.87-.91,1.58-1.75,1.94-.78.36-1.65.45-2.48.25-.83-.31-1.51-.92-1.91-1.72-.81-1.63-.19-3.61,1.4-4.49.82-.41,1.76-.49,2.64-.22ZM266.93,617.52l-4.96,15.28c-.36.9-.49,1.87-.38,2.83.45.58,1.06,1.02,1.75,1.27l-.25.73-10.5-3.47.22-.7c.68.36,1.49.36,2.16,0,.45-.22.79-1.05,1.27-2.39l3.6-11.24c.48-1.37.64-2.29.35-2.8-.29-.51-.7-.92-1.69-1.27l.25-.73,8.18,2.48Z"/>
  <path class="st0" d="M283.76,614.34l-1.88,7.19,4.77,1.21-.64,2.1-4.61-1.24-3.18,12.1c-.19.73-.33,1.48-.41,2.23.02.33.15.65.38.89.19.26.41.51.64.51.96.29,1.97-.25,3.18-1.4l.51.57c-1.3,2.2-3.89,3.28-6.36,2.67-2.29-.37-4.03-2.24-4.23-4.55.14-1.33.41-2.64.8-3.91l2.86-10.6-2.74-.7v-.76c1.99-.67,3.88-1.59,5.63-2.74,1.7-1.06,3.27-2.32,4.68-3.76l.61.19Z"/>
  <path class="st0" d="M296.9,646.4l-3.85-15.92c-.25-1.59-.73-3.14-1.43-4.58-.37-.57-.87-1.05-1.46-1.4v-.76l10.63,1.94v.7c-.52-.07-1.04,0-1.53.19-.31.17-.53.47-.57.83-.04,1.15.12,2.31.48,3.41l2.1,8.37,3.18-5.51c.9-1.34,1.58-2.81,2.04-4.36.09-.48-.01-.97-.29-1.37-.48-.47-1.09-.79-1.75-.89l.22-.7,6.36,1.11v.8c-.61-.02-1.22.13-1.75.45-1.1,1.28-2.06,2.68-2.86,4.17l-8.27,13.85c-1.23,2.27-2.7,4.41-4.39,6.37-1.09.96-2.54,1.39-3.98,1.18-1.08-.12-2.07-.67-2.74-1.53-.57-.74-.81-1.68-.67-2.61.1-.76.52-1.44,1.15-1.88.53-.46,1.26-.63,1.94-.45.66.02,1.27.37,1.62.92.39.62.51,1.39.32,2.1-.02.34-.02.68,0,1.02.15.15.36.25.57.26.29,0,.7,0,1.14-.32,1.1-1.04,2-2.27,2.67-3.63l1.11-1.75Z"/>
  <path class="st0" d="M340.04,630.45c-.73-.04-1.44.23-1.97.73-.7.92-1.11,2.03-1.18,3.18-.19,1.59-.29,3.95-.38,6.91-.11,1.43-.11,2.87,0,4.3.04.88.36,1.72.92,2.39.42.52,1.05.82,1.72.83.62.12,1.26-.07,1.72-.51.61-.5,1.03-1.2,1.18-1.97.46-2.76.7-5.55.73-8.34.14-1.72.02-3.44-.35-5.12-.11-.78-.51-1.5-1.11-2.01-.39-.36-.9-.54-1.43-.51l.16.13ZM340.04,628.89c1.74.11,3.42.64,4.9,1.56,1.43,1,2.53,2.39,3.18,4.01.75,1.73,1.1,3.62,1.02,5.51.02,2.59-.82,5.11-2.39,7.16-1.8,2.2-4.55,3.38-7.38,3.18-2.74.05-5.33-1.2-7-3.37-1.61-2.19-2.4-4.87-2.23-7.58.03-2.72.98-5.35,2.7-7.45,1.74-2.09,4.38-3.22,7.1-3.02h.1Z"/>
  <path class="st0" d="M364.6,631.34l.83,14.01c-.05.9.12,1.8.51,2.61.79.48,1.72.68,2.64.57v.83l-12.06.67v-.8c.69.02,1.38-.12,2.01-.41.34-.22.61-.53.79-.89.09-.73.09-1.47,0-2.2l-.67-13.91h-2.96v-2.2h2.83v-2.48c-.12-1.99.65-3.92,2.1-5.28,1.63-1.57,3.81-2.44,6.08-2.42,1.41-.19,2.84.11,4.07.83.74.45,1.23,1.21,1.34,2.07.06.69-.21,1.36-.73,1.81-.56.51-1.28.8-2.04.83-.65.07-1.3-.13-1.81-.54-.44-.29-.73-.77-.76-1.31-.04-.26-.04-.53,0-.8.02-.24.02-.49,0-.73-.03-.27-.14-.53-.32-.73-.22-.19-.51-.28-.8-.26-.42,0-.82.22-1.05.57-.33.5-.45,1.1-.35,1.69v3.95l.19,2.51,2.99-.16v2.2l-2.83-.03Z"/>
  <path class="st0" d="M396.54,617.84l2.23,11.71h.57c1.57-.19,2.94-1.12,3.69-2.51.63-1.72.84-3.57.6-5.38l.7-.19,2.9,15.15h-.8c-.36-1.42-1-2.75-1.88-3.92-.6-.8-1.4-1.41-2.32-1.78-1.04-.26-2.14-.26-3.18,0l1.56,8.12c.16.97.4,1.93.73,2.86.23.34.56.6.95.73.61.13,1.24.13,1.85,0l1.72-.38c2.36-.28,4.53-1.42,6.11-3.18,1.43-1.83,2.26-4.05,2.39-6.37h.8l.48,9.55-25.04,4.81v-.73l.92-.19c.72-.09,1.41-.39,1.97-.86.37-.3.59-.74.64-1.21.07-.91-.02-1.82-.26-2.71l-3.72-19.1c-.08-.81-.26-1.6-.54-2.36-.24-.41-.58-.75-.99-.99-.78-.27-1.61-.33-2.42-.19l-.89.19v-.76l24.15-4.68,1.65,8.53-.76.19c-.51-1.58-1.42-3.01-2.64-4.14-.99-.84-2.24-1.31-3.53-1.34-1.54-.1-3.09.04-4.58.41l-3.05.7Z"/>
  <path class="st0" d="M427.37,617.97l.86,2.71c.5-1.24,1.18-2.38,2.04-3.41.77-.76,1.71-1.33,2.74-1.65,1.13-.48,2.4-.48,3.53,0,.98.41,1.82,1.11,2.39,2,.75,1.42,1.33,2.93,1.72,4.49l2.32,7.54c.25.95.68,1.83,1.27,2.61.57.37,1.27.45,1.91.22l.25.76-9.8,3.18-.22-.76c.63-.24,1.11-.76,1.3-1.4.04-.91-.1-1.82-.41-2.67l-2.74-8.59c-.21-1.03-.59-2.02-1.11-2.93-.21-.35-.52-.62-.89-.8-.37-.11-.77-.11-1.14,0-1.18.38-1.97,1.62-2.48,3.63l3.18,10.35c.19.96.64,1.85,1.3,2.58.5.35,1.13.45,1.72.29l.22.73-9.74,3.02-.29-.73c.65-.22,1.17-.69,1.46-1.3.09-.94-.05-1.89-.41-2.77l-3.44-10.95c-.18-1-.62-1.93-1.27-2.71-.61-.2-1.27-.2-1.88,0l-.25-.73,7.86-2.71Z"/>
  <path class="st0" d="M462.11,630.26c-.92.32-1.77.8-2.51,1.43-.58.57-.76,1.43-.48,2.2.37.79,1.14,1.31,2.01,1.37,1.68.11,3.36-.26,4.84-1.08,1.53-.51,2.93-1.37,4.07-2.51.8-.69,1.08-1.81.7-2.8-.12-.31-.34-.56-.64-.7-.62-.26-1.31-.32-1.97-.16-2.05.64-4.05,1.39-6.01,2.26ZM454.51,608.99c-.77.4-1.29,1.15-1.4,2-.04,1.79.35,3.56,1.15,5.16.54,1.44,1.41,2.74,2.55,3.79.68.47,1.56.56,2.32.25.82-.31,1.42-1.02,1.59-1.88.05-1.6-.31-3.19-1.05-4.62-.53-1.74-1.54-3.3-2.89-4.52-.67-.46-1.52-.53-2.26-.19ZM457.69,607.05l6.36-2.71.92,2.23-3.72,1.56c.78.29,1.51.69,2.16,1.21.61.58,1.09,1.29,1.4,2.07.54,1.25.67,2.65.38,3.98-.41,1.32-1.13,2.52-2.1,3.5-.83.97-1.85,1.76-2.99,2.32-.86.21-1.7.48-2.51.83-.55.25-.99.69-1.24,1.24-.26.53-.26,1.16,0,1.69.15.49.55.87,1.05.99.67.09,1.35-.03,1.94-.35l3.5-1.46c1.91-.97,4-1.5,6.14-1.56,1.8.18,3.35,1.34,4.01,3.02.9,2.37.21,5.05-1.72,6.68-1.57,1.52-3.45,2.71-5.5,3.47-1.51.7-3.1,1.2-4.74,1.5-1.19.32-2.44.32-3.63,0-.73-.23-1.33-.76-1.65-1.46-.25-.63-.25-1.34,0-1.97.5-.91,1.19-1.69,2.04-2.29-2.28.15-4.25-1.57-4.41-3.85-.04-.57.04-1.15.24-1.69.49-1.38,1.29-2.62,2.35-3.63-1.7.11-3.41-.25-4.93-1.02-1.25-.72-2.21-1.84-2.74-3.18-.76-1.85-.7-3.94.19-5.73,1.06-2.02,2.81-3.59,4.93-4.43,1.38-.58,2.86-.87,4.36-.86l-.1-.1Z"/>
  <path class="st0" d="M475.95,598.11l7.32,14.26c.39.89.99,1.68,1.75,2.29.72.14,1.47.04,2.13-.29l.35.64-9.86,5.12-.45-.76c.73-.29,1.3-.88,1.56-1.62-.06-.92-.36-1.8-.86-2.58l-5.31-10.38c-.7-1.37-1.27-2.07-1.78-2.29-.72-.19-1.48-.06-2.1.35l-.32-.73,7.57-3.92v-.1ZM468.86,590.85c.76-.52,1.72-.62,2.58-.29.82.26,1.49.85,1.88,1.62.43.78.51,1.7.22,2.55-.34,1.73-2.01,2.85-3.74,2.51-1.09-.22-1.99-.98-2.37-2.03-.38-.77-.38-1.68,0-2.45.16-.82.68-1.53,1.43-1.91Z"/>
  <path class="st0" d="M489.66,590.37l1.46,2.42c.22-1.31.61-2.59,1.18-3.79.54-.96,1.32-1.76,2.26-2.32.94-.62,2.06-.91,3.18-.8,1.1.15,2.12.64,2.93,1.4,1.09,1.2,2.05,2.51,2.86,3.91l4.07,6.68c.83,1.37,1.46,2.13,1.91,2.26.63.15,1.29.05,1.85-.29l.41.67-8.68,5.35-.38-.61c.53-.43.83-1.07.83-1.75-.16-.87-.53-1.69-1.08-2.39l-4.77-7.73c-.47-.93-1.07-1.79-1.78-2.55-.27-.34-.68-.55-1.11-.57-.37-.04-.75.06-1.05.29-1.18,1.03-1.75,2.59-1.49,4.14l5.66,9.17c.43.89,1.06,1.66,1.85,2.26.57.18,1.18.18,1.75,0l.41.61-8.75,5.38-.41-.64c.58-.36.97-.95,1.08-1.62-.14-.95-.51-1.84-1.08-2.61l-5.98-9.9c-.86-1.34-1.43-2.13-1.91-2.2-.48-.06-1.02,0-1.88.26l-.45-.7,7.13-4.33Z"/>
  <path class="st0" d="M520.33,579.14c-.92-1.32-1.99-2.54-3.18-3.63-.61-.48-1.35-.75-2.13-.8-.47.02-.92.18-1.3.45-.59.48-.89,1.22-.79,1.97.2,1.84.94,3.58,2.13,5l.41.6,4.87-3.6ZM525.46,576.97l-9,6.78c1.36,1.88,3.32,3.24,5.57,3.85,1.41.39,2.92.1,4.07-.8.65-.51,1.15-1.21,1.4-2.01.32-1.15.4-2.35.22-3.53h.99c.44,1.98.44,4.04,0,6.02-.53,1.6-1.57,2.99-2.96,3.95-2.1,1.78-4.99,2.3-7.57,1.34-2.24-.92-4.17-2.44-5.6-4.39-1.9-2.27-2.86-5.19-2.67-8.15.09-2.53,1.35-4.88,3.4-6.37,1.63-1.3,3.77-1.77,5.79-1.27,2.59.75,4.83,2.37,6.36,4.58Z"/>
  <path class="st0" d="M538.21,564.05c-.99-1.23-2.16-2.3-3.47-3.18-.66-.44-1.44-.66-2.23-.64-.42.05-.82.21-1.15.48-.57.53-.81,1.31-.64,2.07.32,1.85,1.22,3.54,2.58,4.84l.44.57,4.45-4.01v-.13ZM543.15,561.47l-8.4,7.58c1.57,1.68,3.65,2.8,5.92,3.18,1.39.25,2.82-.12,3.91-1.02.65-.57,1.1-1.32,1.3-2.16.19-1.18.19-2.38,0-3.57h.83c.69,1.89.85,3.94.45,5.92-.39,1.63-1.27,3.11-2.51,4.23-1.98,1.88-4.79,2.63-7.45,1.97-2.34-.72-4.43-2.08-6.04-3.91-2.03-2.14-3.17-4.98-3.18-7.93-.05-2.52,1.02-4.94,2.93-6.59,1.54-1.37,3.6-1.98,5.63-1.69,2.59.54,4.92,1.95,6.62,3.98Z"/>
  <path class="st0" d="M546.64,544.57l3.37,3.18c-.54-1.75-.76-3.58-.64-5.41.15-1.02.59-1.99,1.27-2.77.49-.54,1.18-.86,1.91-.89.76.04,1.49.36,2.04.89.62.51,1.01,1.24,1.08,2.04.11.67-.11,1.35-.57,1.85-.48.52-1.14.83-1.84.86-.4-.05-.81-.05-1.21,0-.14.02-.28.09-.38.19-.33.34-.51.8-.51,1.27-.06.84.12,1.68.54,2.42.74,1.38,1.71,2.63,2.86,3.69l3.47,3.18.86.89c.35.38.76.71,1.21.95.45,0,.76.22,1.15,0,.56-.22,1.06-.57,1.46-1.02l.57.51-7.6,7.96-.51-.45c.41-.51.65-1.13.7-1.78-.47-1.04-1.16-1.95-2.04-2.67l-8.11-7.61c-.51-.47-1.08-.86-1.69-1.18-.33-.2-.73-.27-1.11-.19-.48.16-.91.42-1.27.76l-.54-.51,5.53-6.18Z"/>
  <path class="st0" d="M561.41,527.86l12.34,10.19c1.15.92,1.94,1.46,2.48,1.43.54-.03,1.08-.35,1.75-1.11l.7.51-7.13,8.63-.64-.45c.52-.6.79-1.37.76-2.17,0-.41-.67-1.11-1.75-2.04l-9.13-7.51c-1.15-.92-1.91-1.43-2.48-1.43s-1.05.38-1.81,1.15l-.64-.54,5.54-6.56v-.1ZM551.86,523.85c-.59.71-.87,1.63-.76,2.55.1.86.53,1.64,1.21,2.16.65.63,1.56.91,2.45.76.87-.06,1.67-.47,2.23-1.15.55-.71.82-1.59.76-2.48-.09-.87-.52-1.66-1.21-2.2-.65-.59-1.51-.89-2.39-.83-.88.1-1.7.52-2.29,1.18Z"/>
  <path class="st0" d="M570.92,515.31l2.32,1.62c-.39-1.28-.52-2.62-.38-3.95.06-1.07.43-2.1,1.05-2.96.64-1.04,1.67-1.77,2.86-2.04,1.03-.36,2.15-.36,3.18,0,1.47.62,2.84,1.44,4.07,2.45l6.36,4.52c.77.66,1.68,1.12,2.67,1.34.63-.11,1.19-.47,1.56-.99l.64.45-5.89,8.4-.67-.45c.35-.58.43-1.27.22-1.91-.55-.76-1.26-1.4-2.07-1.88l-7.35-5.19c-.85-.63-1.74-1.2-2.67-1.69-.41-.08-.83-.08-1.24,0-.33.14-.62.37-.83.67-.73,1.05-.64,2.48.22,4.46l8.78,6.18c.77.63,1.69,1.07,2.67,1.27.58-.03,1.11-.31,1.46-.76l.67.48-5.92,8.28-.57-.45c.36-.57.46-1.26.29-1.91,0-.38-.76-1.05-2.01-1.88l-9.39-6.59c-.76-.68-1.68-1.15-2.67-1.37-.64.12-1.22.48-1.59,1.02l-.41-.41,4.61-6.72Z"/>
  <path class="st0" d="M606.01,503.95c-.57.8-.94,1.73-1.08,2.71-.14.77.22,1.54.89,1.94.75.37,1.63.37,2.39,0,1.39-.95,2.49-2.26,3.18-3.79.85-1.4,1.4-2.96,1.62-4.58.18-1-.23-2.02-1.05-2.61-.29-.2-.65-.26-.99-.16-.69.12-1.31.51-1.72,1.08-1.18,1.75-2.25,3.58-3.18,5.47l-.06-.06ZM586.92,491.66c-.43.76-.43,1.69,0,2.45,1.06,1.47,2.48,2.64,4.14,3.37,1.24.88,2.71,1.38,4.23,1.43.85.02,1.64-.42,2.07-1.15.48-.74.48-1.71,0-2.45-.85-1.33-2.08-2.37-3.53-2.99-1.51-1.04-3.26-1.66-5.09-1.81-.77.04-1.47.47-1.85,1.15h.03ZM588.29,488.13l3.44-6.02,2.13,1.24-2.04,3.44c.78-.28,1.62-.39,2.45-.32.84.03,1.65.26,2.39.67,1.2.67,2.15,1.71,2.71,2.96.55,1.28.74,2.69.57,4.07-.13,1.25-.48,2.47-1.05,3.6l-1.4,2.32c-.35.5-.45,1.13-.29,1.72.11.58.49,1.07,1.02,1.34.45.22.98.22,1.43,0,.61-.31,1.1-.83,1.37-1.46l1.84-3.18c.91-1.97,2.27-3.69,3.98-5.03,1.49-1.02,3.45-1.02,4.93,0,1.04.62,1.87,1.54,2.39,2.64.44,1.16.58,2.4.41,3.63-.37,2.16-1.12,4.25-2.23,6.14-.84,1.47-1.85,2.85-2.99,4.11-.77.94-1.76,1.66-2.9,2.1-.69.29-1.47.29-2.16,0-.6-.32-1.03-.87-1.21-1.53-.21-1.06-.14-2.16.22-3.18-1.33,1.14-3.19,1.38-4.77.64-.93-.59-1.62-1.49-1.94-2.55-.46-1.4-.57-2.9-.32-4.36-1.26,1.2-2.84,1.99-4.55,2.29-1.44.17-2.9-.15-4.14-.89-1.68-1.04-2.84-2.76-3.18-4.71-.37-2.2.07-4.46,1.24-6.37.75-1.29,1.74-2.41,2.93-3.31h-.29Z"/>
  <path class="st0" d="M598.12,442.71l9.19,3.18-.32.83c-2.22-.51-4.56-.26-6.62.73-1.83.81-3.27,2.31-4.01,4.17-.52,1.21-.52,2.58,0,3.79.29.99,1.02,1.8,1.97,2.2.6.18,1.24.18,1.85,0,.9-.22,1.76-.61,2.51-1.15,1.43-1.07,2.79-2.23,4.07-3.47,2-2.02,4.36-3.64,6.97-4.77,1.8-.54,3.73-.44,5.47.29,2.26.86,4.03,2.66,4.87,4.93.98,2.66.79,5.6-.51,8.12-.29.83-.67,1.62-1.15,2.36-.66.89-1.38,1.73-2.16,2.51-.43.4-.77.89-.99,1.43-.19.41-.19.89,0,1.3.15.53.44,1.01.83,1.4l-.22.83-10.4-4.07.29-.73c2.68.52,5.46.21,7.95-.89,2.01-.95,3.59-2.64,4.39-4.71.54-1.29.54-2.75,0-4.04-.3-1.14-1.15-2.06-2.26-2.45-.66-.24-1.37-.31-2.07-.22-.83.15-1.62.47-2.32.92-1.26.87-2.45,1.84-3.56,2.9-1.59,1.56-3.33,2.95-5.22,4.14-1.17.71-2.47,1.18-3.82,1.4-1.31.16-2.64,0-3.88-.45-2.15-.75-3.82-2.46-4.55-4.62-1.02-2.19-1.02-4.72,0-6.91.32-.86.76-1.68,1.3-2.42.5-.72,1.09-1.37,1.75-1.94.58-.44,1.05-.99,1.4-1.62.09-.31.09-.64,0-.95,0-.35-.57-.73-1.34-1.18l.57-.83Z"/>
  <path class="st0" d="M628.73,426.54l.67-.45c1.36,1.2,2.36,2.75,2.89,4.49.46,1.56.46,3.22,0,4.77-.63,2.48-2.42,4.49-4.8,5.41-2.42,1.01-5.14,1.13-7.64.32-2.48-.71-4.7-2.14-6.36-4.11-3.1-3.89-2.53-9.54,1.27-12.73,1.11-.85,2.55-1.15,3.91-.8.72.13,1.35.59,1.69,1.24.29.68.29,1.45,0,2.13-.18.8-.71,1.47-1.43,1.85-1.01.39-2.12.45-3.18.19-.65-.19-1.35-.19-2,0-.4.23-.72.57-.92.99-.19.75.06,1.53.64,2.04,1.23,1.31,2.85,2.19,4.61,2.52,1.79.51,3.65.72,5.5.64,1.57-.05,3.11-.51,4.45-1.34.83-.62,1.43-1.49,1.72-2.48.21-.7.21-1.44,0-2.13-.22-.89-.56-1.75-1.02-2.55Z"/>
  <path class="st0" d="M617.21,408.55l15.91,3.18c.9.27,1.86.27,2.77,0,.61-.46,1-1.15,1.08-1.91l.83.19-2.32,10.89-.73-.16c.14-.74.02-1.51-.35-2.16-.75-.53-1.63-.86-2.55-.96l-11.55-2.48c-.93-.25-1.9-.25-2.83,0-.56.42-.93,1.05-1.02,1.75h-.83l1.72-8.34h-.13ZM607.09,409.38c.16-.87.68-1.63,1.43-2.1.74-.49,1.65-.66,2.51-.45.86.17,1.6.69,2.07,1.43,1.03,1.42.72,3.41-.7,4.45-.08.06-.17.12-.26.17-.71.53-1.62.71-2.48.48-.86-.16-1.62-.67-2.1-1.4-.52-.75-.7-1.69-.48-2.58Z"/>
  <path class="st0" d="M628.15,390.57c-1.56-.32-3.16-.4-4.74-.22-.76.04-1.48.34-2.04.86-.36.32-.57.79-.57,1.27-.06.74.26,1.46.86,1.91,1.41,1.2,3.17,1.91,5.03,2.01h.67l.79-5.92v.1ZM630.35,385.38l-1.59,11.2c2.3.33,4.64-.12,6.65-1.27,1.23-.65,2.1-1.82,2.39-3.18.05-.87-.1-1.74-.45-2.55-.59-1.02-1.38-1.92-2.32-2.64l.67-.64c1.68,1.11,3.1,2.56,4.17,4.27.76,1.49,1.03,3.18.8,4.84-.28,2.74-1.95,5.15-4.42,6.37-2.26.98-4.75,1.3-7.19.92-2.91-.27-5.61-1.65-7.54-3.85-1.69-1.86-2.47-4.38-2.1-6.88.28-2.06,1.44-3.9,3.18-5.03,2.33-1.41,5.07-1.96,7.76-1.56Z"/>
  <path class="st0" d="M622.01,370.32h2.77c-1.03-.88-1.87-1.96-2.45-3.18-.49-.99-.72-2.08-.67-3.18.04-1.16.46-2.27,1.18-3.18.77-.82,1.77-1.38,2.86-1.62,1.59-.23,3.2-.3,4.8-.19l7.89.45c.98.1,1.97-.03,2.89-.38.48-.42.77-1.02.8-1.66h.83l-.51,10.22h-.76c-.01-.69-.36-1.33-.92-1.72-.81-.38-1.71-.54-2.61-.45l-9.07-.45c-1.06-.14-2.12-.14-3.18,0-.82.12-1.43.8-1.46,1.62,0,1.24.83,2.45,2.64,3.6l10.72.48c.96.11,1.94.01,2.86-.29.5-.37.83-.94.89-1.56h.73l-.41,10.31h-.76c.01-.68-.26-1.35-.76-1.81-.87-.4-1.81-.59-2.77-.54l-11.55-.51c-.94-.14-1.91-.04-2.8.29-.51.44-.83,1.07-.86,1.75h-.76l.45-7.99Z"/>
  <path class="st0" d="M636.68,333.65l.51-.73c1.65.69,3.11,1.78,4.23,3.18.9,1.34,1.41,2.91,1.49,4.52.21,2.53-.82,5.01-2.77,6.65-2.01,1.74-4.57,2.71-7.22,2.74-2.6.23-5.2-.4-7.41-1.78-2.51-1.59-4.05-4.32-4.1-7.29-.15-1.8.31-3.61,1.3-5.12.79-1.11,2.02-1.85,3.37-2.04.76-.1,1.52.16,2.07.7.56.49.86,1.2.83,1.94.03.79-.22,1.57-.7,2.2-.84.71-1.89,1.12-2.99,1.18-.69,0-1.36.26-1.88.73-.36.3-.56.74-.57,1.21.11.75.56,1.42,1.21,1.81,1.63.75,3.44,1.04,5.22.83,1.88-.03,3.74-.42,5.47-1.15,1.47-.53,2.77-1.47,3.72-2.71.59-.85.89-1.86.83-2.9-.02-.71-.23-1.4-.6-2.01-.55-.77-1.23-1.44-2-1.97Z"/>
  <path class="st0" d="M627.49,315.41c-1.58.15-3.15.49-4.65,1.02-.72.28-1.34.77-1.78,1.4-.2.4-.27.86-.19,1.31.08.77.58,1.42,1.3,1.69,1.69.75,3.57.95,5.38.57h.73l-.79-5.92v-.06ZM628.15,309.91l1.53,11.17c2.29-.3,4.42-1.32,6.08-2.93,1.02-1.03,1.5-2.48,1.3-3.91-.08-.85-.44-1.65-1.05-2.26-.85-.82-1.83-1.49-2.9-2.01l.45-.73c1.94.54,3.7,1.57,5.12,2.99,1.13,1.23,1.84,2.79,2.04,4.46.48,2.71-.51,5.47-2.61,7.26-1.86,1.57-4.16,2.54-6.59,2.77-2.9.56-5.9-.05-8.34-1.72-2.11-1.33-3.52-3.54-3.85-6.02-.33-2.08.36-4.18,1.85-5.67,1.84-1.93,4.31-3.14,6.97-3.41Z"/>
  <path class="st0" d="M509.04,72.89c1.53.76,1.72,1.05,1.94,2.04-2.04,2.58-6.68,6.56-5.12,9.33l2.45,2.01c-.08,1.03-.48,2.01-1.15,2.8-.37.12-.76.2-1.14.25-1.34-.8-2.64-1.43-3.98-2.16l-.35.32c-2.32,3.98-4.71,8.05-7.03,12.1,5.8,2.04,9.05,8.19,7.48,14.13-1.1,1.11-2.55,1.8-4.1,1.97-1.09,0-2.13-.44-2.9-1.21-1.34-1.94-.86-10.31-1.08-13.18h-.19c-1.33,5.37-3.48,10.5-6.36,15.22-2.12.98-4.63.59-6.36-.99-.33-3.12.03-6.27,1.05-9.23-3.69.99-20.14,3.18-23.61.7,0-.29.22-.57.29-.83,8.65-3.18,24.12-4.46,30.13-13.11-1.37.19-2.8.41-4.23.57-4.23-.48-9.35-4.39-9.99-7.29,0-.16,0-.25.35-.35,4.36-3.18,16.8.67,21.6-2.23,4.8-2.9,6.84-9.23,12.31-10.85Z"/>
  <path class="st0" d="M514.45,87.15l.67.32c1.33,2.47,1.96,5.25,1.81,8.05-2,2.23-3.91,2.23-6.36,0-.81-3,.07-6.2,2.29-8.37h1.59Z"/>
  <path class="st0" d="M70.79,215.34c3.66-3.44,9.54-3.18,13.46-2.36,7,10.35-12.31,11.05-12.73,13.97,4.04,2.5,8.3,4.63,12.73,6.37,3.18-3.6,5.5-7.32,9.89-8.09l1.88,1.69c1.5,5.41-2,6.81-4.99,12.25-4.71,8.34.19,13.69-13.81,18.78-.29-.35-.54-.51-.73-.76v-5.76c1.18-2.96,2.35-5.92,3.5-8.85-.22-.26-.41-.45-.57-.67-2.47.54-5.05.29-7.38-.7-4.04-2.2-9.96-10.57-8.72-13.78,2-3.44,4.07-1.62,6.55-1.34,0-.22.19-.41.25-.61-2.74-4.58-.13-5.86.67-10.15Z"/>
  <path class="st0" d="M201.9,80.76c1.36-.46,2.82-.56,4.23-.29.54.73,1.15,1.37,1.78,2.13-2.77,5.57-3.66,10.89.73,16.97,2.4-1.48,4.99-2.63,7.7-3.41,1.64.75,2.93,2.09,3.63,3.76-.45,4.77-6.04,5.73-9.96,8.88-4.58,3.66-10.4,16.11-18.36,7.93-1.13-1.72-.86-4,.64-5.41,3.78,0,7.19-2.29,8.62-5.79-1.3-3.18-.83-6.11-2.8-8.31-5.09,2.36-9.04,3.34-11.1-1.31,1.75-3.6,11.8-11.11,14.89-15.15Z"/>
  <path class="st0" d="M637.98,221.93v1.27c-5.63,1.69-14.41.22-16.8-4.14.39.22.81.39,1.24.51l15.56,2.36Z"/>
  <path class="st0" d="M628.73,210.98c.25,1.53,0,1.62-.57,2.74-.9.91-1.6,1.99-2.07,3.18l-1.18-.38c-.51-.76-.92-1.53-1.43-2.16.13-.68.3-1.35.51-2.01.98-.96,2.29-1.52,3.66-1.56.36.05.73.11,1.08.19Z"/>
  <path class="st0" d="M621.66,205.53c-1.08,2.1-2.83,2.61-2.51,5.67-1.35.32-2.76.32-4.1,0-.32-.48-.6-.92-.92-1.34.13-2.84,2.54-5.04,5.39-4.91.75.04,1.49.23,2.15.58Z"/>
  <path class="st0" d="M625.54,229.18c0,2.16,1.08,5.12.51,6.84-.22.14-.43.32-.61.51l-2.23-.48c-.29-.99-.64-2.01-.89-3.18h1.59l.35-.35c-3.88-13.94-12.18-19.1-17.66-28.93-3.18-1.11-8.72.76-12.22-.32-.6-1.37-.96-1.85.19-2.9,12.57-7.26,24.75,21.55,30.96,28.81Z"/>
  <path class="st0" d="M615.97,223.07c0,.61.26,1.27.35,1.91-.6,4.01-6.84-2.26-9.86-1.69-1.62,2.45-3.18,4.9-4.8,7.38,1.11,1.4,2.13,3.37.96,4.84-.79.89-1.53.8-2.89.89-.92-1.34-1.81-2.74-2.8-4.11-8.02,2.58-11.07-.83-16.13-3.79-.33-.9-.33-1.89,0-2.8.73-.48,1.4-.99,2.13-1.43,1.15.16,1.15,2.1,1.91,2.8.76.7,8.46,2.1,9.54.86,1.08-1.24-7.51-11.3-7.32-15.02.26-.73,0-.51.92-1.02l4.71,3.18c2.35,2.93,3.18,9.33,6.65,10.47,8.21-5.82,5.19-2.77,13.04-2.55,0-.41,0-.83-.19-1.24-3.69-5.19-8.4-5.41-12.28-9.33v-1.05c0-.38.19,0,.22,0,5.85-.22,11.9,7.51,15.84,11.68Z"/>
  <path class="st0" d="M412.86,38.58c.32.32.7.51,1.08.89-1.81,3.57-7.03,9.55-6.97,13.85,1.68-.47,3.41-.75,5.15-.83.23.35.49.68.76.99-.02.06-.02.13,0,.19-2.13.7-6.78.19-7.03,2.1-1.27.64-3.79,5.7-3.18,7.26.6,1.56,2.13,2.48,2.55,4.11,1.49,5-3.69,8.82-5.12,12.1.26.09.52.21.76.35,3.18,2.93,11.71,3.18,14.38,5.98,0,.08,0,.17,0,.25l-.26.73c-2,0-3.18,1.62-4.9,1.88-5.31.7-10.34-6.02-13.9-7.42-3.56-1.4-8.91,2.01-11.26-3.6.16.04.32.04.48,0,2.45,0,4.84.8,6.74.45,0-.19.19-.45.26-.6-1.88-2.58-3.69-4.97-5.6-7.42,0-.11,0-.18,0-.22.57-.34,1.28-.34,1.85,0,3.18,1.05,4.26,4.71,7.86,6.18,8.97-6.97,2.1-7.8,2.1-13.18.8-2.16,1.56-4.3,2.42-6.37-.86-.38-.67-.32-.99-.86l.64-.25c4.96-1.72,6.3-13.94,12.19-16.55Z"/>
  <path class="st0" d="M390.91,39.09c.57.38,1.11.92,1.72,1.27-.6,3.34-4.58,4.84-5.15,8.69l.29.16c1.53-.29,2.26-.48,3.44.29-1.27,1.66-2.9,1.5-4.68,1.94-3.27,6.3-5.67,13.01-7.13,19.96-.45,2.74,1.46,8.47-1.3,10.7-6.62,4.55-1.02-14.2-.83-15.66l-.73-.22c-.15.21-3.45,4.22-9.89,12.03h-.25l-.96-1.05c.92-6.37,9.77-9.2,12.73-13.21.51-1.78,1.21-3.53,1.85-5.35.64-1.81,2.29-3.76,1.81-6.11l-6.4,1.59c-.29-.16-.57-.38-.89-.54-.32-.16,0,0,0-.19,2.16-2.45,6.36-1.02,8.84-2.9,3.18-2.26,4.1-8.66,6.9-11.27l.64-.13Z"/>
  <path class="st0" d="M396.35,56.56c.13.12.26.25.38.38-2.8,1.46-10.08,5.22-13.2,4.01l.41-.57c3.82-1.62,8.56-2.13,12.41-3.82Z"/>
  <path class="st0" d="M286.49,37.37h1.62c.2.13.37.29.51.48-.19,3.79-2.96,6.97-3.18,12.45.6-.45,1.27-.76,1.91-1.18.73.48,1.46.92,2.2,1.46,0,.67-.26,1.37-.29,2.16-.89,1.62-2.55,1.21-3.82,2.45-1.27,1.24-1.4,7.26-.86,8.75,2.32,0,5.92,1.5,4.1,4.2-.6,1.02-2.96.67-4.1.76.54,5.3.44,10.64-.29,15.92-.18.11-.37.2-.57.25-1.88,0-1.94-.6-2.99-1.4-.7-2.29-1.24-4.52-1.88-6.88-.13-.07-.24-.17-.32-.29-5.25.57-6.36,4.52-11.55,5v-.25c3.95-6.88,12.38-11.94,13.46-21.49,0-.13-.1-.22-.29-.29-.86.83-1.85,1.62-2.67,2.45-.67,1.53-7.22,6.88-9.54,5.51-.54-.41-1.11-.92-1.69-1.4l.57-3.02c5.99-1.56,11.31-5.03,15.14-9.9,0-1.37.19-2.67.25-4.11l-.54-.25c-2.9,1.75-5.7,3.53-8.56,5.25v-.35c3.24-5.92,9.32-10.82,13.36-16.3Z"/>
  <path class="st0" d="M302.4,49.94c-.48.48-.99.92-1.4,1.4h-.25c0-1.24-.19-2.39-.26-3.57-.67-2.83,5.15-3.79,7.16-4.97h1.37c-1.38,3.03-3.7,5.53-6.62,7.13ZM313.95,40.9c-1.67-.78-3.5-1.16-5.35-1.11-3.08,1.5-6.55,1.99-9.93,1.4-3.18,2.99-7.95,12.22-1.34,15.15,2.26-.89,2.64-2.67,4.1-3.37,1.27,0,2.58.19,3.85.35,1.31-.57,2.61-1.11,3.88-1.72,1.02-1.5.48-3.5,1.34-4.93.86-1.43,2.61-3.18,3.85-4.93-.12-.29-.26-.56-.41-.83Z"/>
  <path class="st0" d="M306.28,53.51c.92.16,1.81.16,2.74.35.67,2.39-1.08,5.79-1.97,8.5l4.99,3.18c-.7,2.01-1.49,4.07-2.19,6.11,3.85.7,9.54,1.91,6.36,6.56h-7.19c-3.44.95-13.58,6.97-15.91,5.57-1.48-.71-2.37-2.25-2.26-3.88,1.82-2.57,4.62-4.27,7.73-4.71-.6-1.66-1.81-1.91-2.7-3.18,1.46-2.83,8.14-7.73,5.47-11.55-1.91.8-2.51,1.91-4.93,2.2-.22-.16-.41-.19-.54-.29v-.29c0-.29,0-.54.26-.83,1.59-3.66,7.38-4.9,10.15-7.74Z"/>
  <path class="st0" d="M116.79,129.62l1.5-1.02c.24.17.48.35.7.54.44,2.26-.64,3.82,0,6.08l.76-.54c1.53-3.14,4.02-5.71,7.1-7.35.26.3.49.62.7.95-.76,3.26-2.06,6.37-3.85,9.2v-3.18c-3.98-1.88-6.04,9.55-8.14,11.65-.27-.28-.5-.6-.67-.96-.86-4.93,1.4-10.47,1.91-15.37Z"/>
  <path class="st0" d="M142.75,158.81c-1.24,2.71-4.96,8.91-8.69,8.82-.94.13-1.89-.06-2.7-.54-.51-.99-1.08-1.91-1.65-2.83.77-1.58,1.79-3.03,3.02-4.3l2.61,2.1c2.96-2.74,1.4-5.51,1.75-8.53l1.34-1.02c2.06,1.62,3.58,3.85,4.33,6.37v-.06ZM127.58,150.31c-.59,3.23-.19,6.56,1.15,9.55l1.46-.99c.8-1.21,1.78-2.23,1.78-3.53-.4-2.15-1.52-4.09-3.18-5.51l-1.14.38-.06.1ZM147.69,141.81v-1.69c-2,0-4.29,3.41-5.47,4.97-.34.23-.71.39-1.11.48-4.45-2.58-2.96-8.05-6.84-10.47-.28-.17-.54-.36-.79-.57-4.17,2.13-4.96,5.98-5.69,9.55l.57.76c.21.05.4.14.57.26,1.37-2.39,2.83-4.71,4.26-7,1.6,3.49,2.91,7.11,3.91,10.82,0,1.15,0,1.02-.73,1.94l-.7.54c-2.35-.26-3.18-2.93-4.61-5.32-1.11.17-2.11.77-2.8,1.65l-.99-1.3c-1.11-1.18-1.11-2.1-2.93-1.53-2.96,6.37,2.51,13.08,2.1,19.7,0,2.58-4.26,8.69-5.47,10.89h-.64c-7.25-7.26-3.94-8.82-5.28-15.66-1.34-4.46-5.98-1.62-7.54-5-1.24-2.48.51-6.18-.22-9.23-2.26-.73-3.37,0-5.54,1.85v.41c1.43,1.11,2.96,2.17,4.45,3.18,1.59,2.71-.22,6.37,1.46,9.55,1.53,1.69,2.96,3.37,4.42,5.13,4.61,6.81,8.81,14.58,14.67,18.91h3.18c.22-.38.35-.8.54-1.11-.92-2.05-2.14-3.95-3.63-5.63-.24.02-.47.07-.7.16-.35.67-.6,1.4-.99,2.07-1.08-.92-2.19-1.75-3.18-2.58,1.54-3.3,3.31-6.49,5.28-9.55.13-.04.28-.04.41,0,.29,1.15.73,2.29,1.08,3.47.64.54,1.24,1.02,1.85,1.59,8.49,0,6.74-6.37,13.08-11.33,1.72,1.68,2.91,3.82,3.4,6.18-.26,1.03-.91,1.91-1.81,2.45,1.05,8.37,7.95-4.97,2.93-13.34.92-1.81,2.61-3.18,2.77-5.22-1.46,0-3.47,1.97-4.45,2.42l-3.56-4.9c1.08-2.78,2.69-5.32,4.74-7.48Z"/>
  <path class="st0" d="M584.22,138.08c.51.8,1.02,1.53,1.53,2.29l-1.37,1.43c-2.32,0-10.82.7-12.03,5,2.74.83,7.83.83,8.81,4.52-3.91,4.11-10.72-2.48-15.08-1.94-3.18,1.4-6.14,2.8-9.26,4.17-8.43,2.77-16.83-1.46-22.91-10.03l.19-.16c.31-.02.61-.02.92,0,3.69,2.64,23.61,10.66,24.85,2.29-3.18-2.01-6.36-2.04-8.56-5.06-.09-.65,0-1.31.26-1.91,0-.29.35-.45.48-.73l13.17,6.59c6.33-.29,12.92-5.82,18.99-6.46Z"/>
  <path class="st0" d="M562.01,152.22c0,3.76,0,7.51.32,11.3.86,4.55,5.5,9.87,7.25,14.07-.39.39-.74.81-1.05,1.27-2.1-.35-4.39-.89-6.36-1.37-4.61-5.6-6.3-22.47-.16-25.27Z"/>
  <path class="st0" d="M334.98,408.2c-33.94,8.49-62.23,1.94-84.88-19.64,20.38,18.21,48.54,22.89,84.47,14.04,36.43-10.5,40.91-24.86,102.57-62.64l5.19-3.18c-68.62,42.08-64.23,58.12-107.34,71.37v.06ZM312.46,315.41c-2.25,52.71,28.73,65.88,92.93,39.5-92.26,28.17-93.06-33.96-92.93-39.5v-.38c-.03.13-.03.26,0,.38ZM507.04,394.42l19.09-29.83c-13.62-16.53-33.64-26.46-55.04-27.28,22.65-1.38,42,6.14,58.03,22.57l16.96-26.32c-13.46-14.32-32-22.77-51.64-23.52,20.51-1.23,38.66,5.13,54.43,19.1l13.97-21.71c-9.36-7.88-20.17-13.86-31.82-17.6-17.5-4.65-37.67-4.49-54.82,10.22-1.65,1.75-17.37,14.13-25.26,20.37-16.97,13.71-39.24,18.05-66.81,13.02-30.03-4.73-40.55-18.36-31.56-40.87,4.05-9.55,18.33-20.35,42.82-32.4,10.33-4.24,16.21-10.74,17.66-19.48.37-7.15-2.01-14.16-6.65-19.61-20.66-24.49-43.99-36.82-69.99-36.99l-40.15,20.4c25.2,8.49,42.41,21.38,51.64,38.67-17.02-21.68-40.69-30.59-60.99-33.96l-53.1,26.99c32.6,6.54,54.69,20.7,66.27,42.49-22.94-28.65-56.92-35.01-79.54-35.68l-69.29,35.01c27.57,4.56,56.38,14.57,86.41,30.02,1.05,1.18,32.8,19.1,30.19,39.5-1.74,13.6-11.54,25.43-29.4,35.49-36.21,19.33-55.02,33.65-56.44,42.94-10.6,27.37,3.26,45.48,41.58,54.3,36.31,6.83,65.71,1.15,88.19-17.06,24.65-19.57,39.73-33.67,45.24-42.3,24.41-25.47,42.06-39.26,52.94-41.38,9.21-3.51,18.83-5.81,28.63-6.84,18.45-2.04,37.09,1.28,53.7,9.55,5.43,3.39,10.38,7.49,14.73,12.19Z"/>
</svg>