<?xml version="1.0" encoding="UTF-8"?>
<svg id="_图层_1" data-name="图层_1" xmlns="http://www.w3.org/2000/svg" version="1.1" viewBox="0 0 88 89">
  <defs>
    <style>
      .st0 {
        fill: #fff;
        fill-rule: evenodd;
      }
    </style>
  </defs>
  <path class="st0" d="M60.86,19.75c.39.2.92-.07,1.14-.33,0,0,1.05.07,1.3-.05.25-.11.51-.35.38-.6-.13-.24-.31-.11-.54-.13-.22-.02-.49-.09-.65-.16-.15-.07-.27-.31-.36-.33-.09-.02-.72-.14-.83-.08-.11.06-.62.49-.69.69-.06.2-.15.77.24.98ZM64.14,16.32s.39-.06.52,0c.13.06.56.49,1,.41.43-.09.61-.3.65-.73.04-.43-.45-.47-.45-.47,0,0-.76-.41-.89-.45-.13-.04-.18-.23-.5-.17-.33.06-.35.09-.43.32-.09.24-.3.77.1,1.09ZM62.96,17.9c.15,0,.67-.06.86-.11.2-.04.24.06.32.11.09.04.18.09.5-.08.32-.17.39-.47.04-.69-.35-.21-.24.11-.67-.15-.44-.26-.46-.39-.95-.47,0,0-.24-.19-.39.08-.15.28-.26.77-.15.98.11.22.28.32.43.32ZM73.33,30.82c.47,0,.85-.38.85-.84s-.38-.84-.85-.84-.85.38-.85.84.38.84.85.84ZM68.58,22.33c.04.25-.1.34-.27.37-.17.02-.41-.25-.45-.35-.04-.09-.1-.26-.17-.32-.07-.06-.32-.19-.48-.23-.15-.03-.19-.03-.3-.17-.11-.14-.2-.32-.2-.51,0-.19.21-.26.21-.26.14-.09.32,0,.42.03.1.04.64.68.8.81.16.13.41.38.44.63ZM67.38,24.21c-.11.08-.26.11-.29.02-.03-.09-.23-.31-.31-.38-.07-.07-.27-.15-.24-.42.04-.27.32-.42.32-.42.46-.22.79.12.88.5.1.38-.25.62-.37.7ZM66.2,22.49c-.14.28-.58.29-.77.29s-.21-.34-.16-.47c.04-.14.44-.34.44-.34.53-.12.64.25.49.53ZM67.89,20.48c-.2-.11-.93-.68-1.2-.82-.27-.14-.52-.36-.68-.49-.16-.13-.54-.3-.7-.29-.16.01-.32.11-.31.47.01.36.16.67.27.7.11.04.53.26.59.35.06.09.23.29-.06.47s-.56.35-.96.43c-.39.07-.83.21-1.18.23-.35.01-.93-.16-1.06-.29-.13-.13-.28,0-.42.1-.14.09-.36.19-.3.55.05.37.53.98.96,1.04.43.06,1.19-.13,1.49-.03.31.1.98.65,1.48,1.31.5.66.58.77.52.87-.06.1-.6.66-.43,1.06.17.4.38.59.58.48.2-.11.3-.26.57-.73.27-.47,1.65-2.25,1.95-2.31.3-.06.48-.02.77.38.29.41.72,1.12.93,1.21.2.08.72.21.8.24.08.04.39-.42.41-.58.02-.16.04-.6-.08-.64-.12-.04-.26-.12-.35-.11-.03,0-1.77-1.83-2.1-2.24-.34-.41-.4-.45-.2-.52.12-.08.38.26.41.27.03.02.44.42.48.53.04.12.17.32.46.27.28-.05.42-.24.41-.53,0-.29-.18-.55-.32-.57-.13-.02-.6-.48-.79-.67-.18-.19-.24-.28-.09-.4.15-.12.28-.07.34.03.06.1.73,1.23,1.26,1.37.53.14.67-.02.78-.15.11-.13.18-.38.05-.46-.14-.08-.67-.5-.94-.85-.27-.35-.62-.82-.64-.95,0,0,.1-.38.08-.53-.02-.15-.25-.26-.48-.23-.23.04-.37.16-.44.18-.07.01-.21-.18-.37-.28-.17-.09-.33-.1-.44-.25-.1-.15-.02-.41-.1-.43-.08-.02-.71-.25-.86-.13-.15.12-.3.43-.22.76.08.33.15.44.42.53.28.09,1.01.47.97.79-.04.32-.46.11-.65.05-.19-.06-.49-.39-.65-.77-.17-.38-.39-.27-.51-.26-.12.01-.42.02-.39.32.03.3.23.28.24.43.01.16-.02.25.11.29.13.04.34.05.48.18.14.13.57.5.52.58-.06.07-.22.13-.42.02ZM22.34,21.69c.04-.29.41-.35.41-.35.25-.06.47-.04.47.2s-.35.49-.57.49-.35-.06-.31-.34ZM20.17,17.8c.28-.03.41-.06.35.04-.06.1-.16.58.09.58s.6-.01.65.02c.05.03.16.2.24.49.07.29.12.61,0,.78-.12.17-3.25,3.98-3.25,3.98,0,0-.21.1-.35.16-.15.06-.25.16-.25.43s-.02.64.32.7c.34.06.66.07.85.04,0,0,1.12.6,1.34.93.22.33.35.55.56.52.21-.03.34-.07.29-.64-.04-.57-.54-.87-.73-1-.19-.13-.93-.56-1.01-.61-.09-.04-.03-.38.1-.51.13-.13,1-1.48,1.16-1.47.16.01.21.13.17.24-.03.12-.06.77.32.73.38-.04.37-.12.58-.47.2-.35.51-.55.61-.36.1.19.22.49.1.65-.12.16-.69.84-.84.92-.15.07-.47.36-.34.52.13.16.4.41.72.32.32-.09.44-.32.65-.6.2-.27.69-1.23.94-1.32.25-.09.63-.13.69.29.08.26-1.45,1.68-1.45,1.68,0,0-.19.36.57.54,0,0,.56-.45.78-.55.22-.1.41-.22.59-.36.17-.14.66-1.25.41-1.6-.25-.35-.47-.83-.43-1.14.05-.32.35-.36.44-.38.09-.01.5-.48.5-.81s-.25-.61-.5-.6c-.25.02-.45.41-.53.52-.07.12-.12.55-.35.52-.23-.03-.26-.27-.34-.52-.07-.25-.1-.52-.42-.52s-.77.25-1.14.74c-.38.49-.59.78-.68.93-.09.15-.35.32-.5.29-.15-.03-.05-.25.04-.39.09-.14,1.97-2.41,2.03-2.45.06-.04.5-.36.84-.25.34.12.43.29.57.45.15.16.49.46.63.44.15-.03.6-.41.5-.71s-.45-.64-.66-.8c-.21-.16-.45-.44-.51-.64-.06-.2-.09-.3-.31-.29-.22.01-.75.13-.84.25-.09.11-.79,1-.79,1,0,0-.07.19-.27-.29-.19-.48-.54-.99-.7-1.06-.16-.07-.29-.07-.46-.13-.16-.06-.19-.2-.16-.33.03-.13-.24-.35-.37-.38-.13-.03-.49-.1-.78.35-.29.45-.5.8-.29.95.2.14.34.2.62.17ZM16.38,21.65c.19.1.74.52,1.02.74.28.21.64.57.84.62.2.05.47-.1.6-.39.13-.29.28-.95.25-1.24-.03-.28-.19-.32-.36-.31-.17.01-.26.29-.31.41-.05.12-.22.22-.32.17-.11-.05-.08-.29-.03-.43.05-.13.2-.35.14-.43-.23-.27-.38-.25-.58-.22-.2.03-.35.44-.48.5-.13.06-.09-.13-.03-.32.06-.19.12-.45.1-.61-.01-.16-.38-.26-.38-.26,0,0-.32-.05-.46.11-.14.16-.37.89-.39,1.14-.02.26.22.41.41.52ZM13.21,37.84l.84.29.97-3.33-.82-.21-.37,1.04-3.41-.99-.35,1.12,3.43,1.02-.29,1.07ZM14.66,30.59c.47,0,.85-.38.85-.84s-.38-.84-.85-.84-.85.38-.85.84.38.84.85.84ZM31.14,14.46c.37-.06.74-.64,1.15-.94.41-.3,1.17-.81,1.3-.62.13.19.35,1.32-.09,2.27-.43.94-1,1.39-1.36,1.45-.37.06-.84.43-.8.64.05.21.24.86.3,1.03.06.17.17.36.82.24.65-.13,1.25-.41,1.45-.94.19-.53.6-1.18.71-3.06-.11-1.28.67-.55.67-.55,0,0,2.62,1.88,3.72,1.9,1.1.02,1.73-.23,2.27-1.54.17-.41-.11-.43-.28-.38-.17.04-2.97-.3-4.68-.94-1.71-.64-.99-.98-.74-1.05.3-.11,1.93-.43,2.08-.53.15-.11.59-.58.35-1.16-.24-.58-.28-.51-.69-.43-.41.08-1.69.38-1.91.55-.22.17-.52.47-.76.49-.24.02-.59.15-.71-.17-.13-.32-.15-1.3-.41-1.3s-.72.11-.95.55c0,0,.26,1.11.32,1.41,0,0,.02.21-.58.51-.61.3-1.47.71-1.71.79-.24.08-.61.51-.54.85.06.34.69.98,1.06.92ZM73.23,35.89l2.05.49-1.6,1.42.33,1.26,2.32-2.21,1.67-.41-.31-1.2-1.62.45-3.1-.91.27,1.12ZM19.02,19.32c.22-.19.67-.02.72.1.05.12-.03.31-.11.35-.08.04-.28.05-.41-.02-.13-.07-.23-.39-.19-.42ZM17.82,19.55c.16,0,.56.06.61.09.06.03.1.3.16.39.05.09.15.31.3.3.15,0,.36-.03.42.03.06.06.33.48.46.59.14.11.41.04.43-.12.02-.16-.07-.63.08-.72.15-.09.39-.16.56-.19.17-.03.25-.13.22-.34-.03-.2-.13-.26-.29-.24-.16.02-.32.09-.37.04-.05-.05-.14-.19-.22-.32-.07-.14-.23-.22-.37-.22s-.3-.01-.39-.16c-.09-.15-.13-.22-.15-.36-.02-.14.02-.41-.24-.42-.26,0-.51.07-.59.2-.08.13.09.32.03.44-.06.11-.15.27-.27.31-.12.03-.39.07-.47.05,0,0-.23.21-.22.34.02.13.14.31.3.31ZM49.55,12.96c.11-.13.23-.17.39-.2.16-.03.57-.16.67-.42.09-.26.09-.46-.05-.55-.13-.09-.36-.27-.26-.45.1-.19.28-.19.8-.1,0,0,.37.02.35.21-.02.19-.15,1.49-.57,1.72-.31.13-1,0-1,0,0,0-.44-.06-.33-.2ZM51.07,10.12c.22-.26,1.21.09,1.58.26.37.17.2.3.04.3s-.28-.06-.69-.11c-.41-.04-.91-.34-.91-.34-.05-.04-.02-.11-.02-.11ZM53.43,11.64c.14.04.35.21.32.38-.03.17-.32.3-.48.37-.16.07-.35.1-.41.21-.06.11-.02.32.11.38.13.06.21.26.17.4-.04.14-.37.28-.64.28s-.47-.17-.53-.28c-.06-.11.09-.61.17-.85.08-.24.43-.95.43-.95.18-.14.72.01.86.05ZM46.64,13.77c.34.11,1.97.19,2.18.19s1.97.21,2.04.47c.06.26-.35.47-.71.43-.37-.04-.95-.34-1.73-.43-.78-.09-1.63,0-1.65.34-.02.34.41.56.61.6.2.04,1.43-.19,2.81.53,0,0-.28,1.3-.19,1.5.09.19.47.19.59.07.11-.13.28-.45.39-.94.11-.49.29-.34.41-.3.13.04.56.4,1.49.49.93.08,1.25.24,1.43-.17.17-.41-.39-.56-.56-.6-.17-.04-.8-.13-1.28-.34-.48-.21-.91-.43-.91-.58s.13-.3.28-.28c.15.02,1.34.26,2.1.79.76.53,1.69.86,1.97.83.28-.02.82-.3.95-.68.13-.39-.48-.73-.74-.86-.26-.13-.45-.15-.75-.17-.3-.02-1.15-.26-1.39-.39-.24-.13-.32-.19-.24-.45.09-.26.45-.06.59-.06s.41.32.76.09c.35-.24.3-.49.13-.64-.17-.15-.26-.28-.3-.45-.04-.17-.2-.51-.41-.62,0,0,.48-.3.5-.75,0,0-.06-.11-.39-.19-.33-.08-.39-.41-.24-.36.15.04,1.08.51,1.26.3.17-.22.3-.6.08-.77-.21-.17-.73-.51-1.21-.6,0,0,.13-.71-.09-.83-.21-.13-.32-.22-.47-.05-.15.17-.33.56-.65.6-.32.04-.76-.3-1.06-.34-.3-.04-.65-.08-.84-.21-.19-.13-.11-.47-.26-.53-.15-.06-.43-.19-.71.08-.28.28-.47.13-.65.13s-1.06-.15-1.25.15c-.2.3-.33.6-.02,1.02,0,0,.35.09.54.09s.95,0,.8.19c-.15.19-.98.11-.98.11,0,0-.19.19-.04.56.15.36.17.3.41.32.24.02.37.04.15.28s-.61.09-.82.09-.78-.11-.89.32c-.11.43.22.86.43.9.22.04.69-.17.69-.04s.06.32-.28.3c-.35-.02-1.6-.34-1.84-.36-.24-.02-.65.04-.74.45-.09.41.37.68.72.79ZM74.98,39.42l-.84.1.29,3.33.89-.06-.06-1.12,3.56-.37-.08-1.16-3.6.38-.14-1.12ZM64.74,66.7l-.85.68,1.74,2.23c.62.84.05,1.32-.55,1.26-.29-.03-.51-.26-.51-.26l-1.85-2.18-.84.71,2.14,2.56c.36.41.62.44,1.03.39.78-.1,1.73-.74,1.94-1.53.23-.84-.48-1.73-.48-1.73l-1.77-2.12ZM49.71,74.4l-1.23,1.24.6.63.74-.67.6,3.05,1.05-.14-.89-4.26-.86.16ZM41.81,76.48c-.09.22-.32.43-.73.32-.8-.36-.29-1.38.22-1.36.26,0,.5.2.56.66,0,.02.03.17-.05.38ZM42.48,75.3c-.35-.39-.8-.47-1.16-.49-.84-.05-1.38.66-1.39,1.37,0,.25,0,.48.15.7.32.46.67.57.95.58.67.02,1.1-.69.8.23-.16.48-.42.62-.79.63-.32.02-.66-.03-1.04-.23l-.08.72s1.33.53,2.27-.14c.35-.25.74-1.11.7-1.98-.01-.35.04-.88-.41-1.38ZM45.91,74.87l-1.4,1.08.53.71.8-.61.2,3.19,1.01-.08-.23-4.35-.92.06ZM53.13,75.31l.41,1.01,3.33-1.2-.37-1.04-3.37,1.22ZM74.4,44.86h4.46v-1.22h-4.44l-.02,1.22ZM77.18,45.64c-.3.05-.73.38-.87.99-.4,1.77-1.07,1.25-1.2.57-.12-.63.15-1.21.15-1.21l-.86-.03c-.05.3-.13.77-.12,1.32.04.4.09,1.01.7,1.47.4.3,1.67.6,2.01-.92.35-1.53,1.07-1.17,1.2-.53.11.58-.1,1.31-.1,1.31l.83.09c.06,0,.08-.36.04-1.69-.04-1.45-1.46-1.42-1.77-1.37ZM75.57,51.64c-.19.53-.21.46-.21.46l-1.12-.28s.1-.85.55-1.06c.45-.21.96.35.77.88ZM76.31,50.57s0,.04,0,.04c0,0,0-.02,0-.04,0-.14-.12-.64-.54-.91-.52-.35-1.41-.31-1.83.73-.38.96-.51,1.52-.56,1.84-.05.31-.02.41.03.42l4.29,1.13.36-1.14-1.71-.52s0-.45.37-.68c.13-.08.33-.09.57-.1,1.09-.04,1.12-.03,1.12-.03l.25-1.2s-1.23.07-1.92.22c-.27.06-.4.19-.44.25ZM71.15,58.09l2.55,2.56-3.5-.71-.59,1.06,4.6.81.74-1.28-3.23-3.49-.58,1.06ZM75.76,56.73l-.97-.43.66-1.67-.74-.28-.68,1.69-.88-.37.66-1.73-.72-.32-1.13,2.88,4.17,1.63,1.15-2.97-.74-.3-.78,1.87ZM68.63,62.33l3.64,2.58.68-.93-3.64-2.58-.68.94ZM67.43,63.9l2.51,2.23-3.6-1.06-1.01,1.12,3.37,2.96.7-.79-2.51-2.21,3.58,1.03.95-1.09-3.29-3.01-.7.81ZM60.14,53.97s-.07.02-.14.27c-.07.25-.14.6-.09.82.05.21.22.34.34.33.11,0,.34-.07.37-.35.03-.28.02-.83-.06-.9-.08-.08-.18-.21-.42-.17ZM62.06,50.68c.13,0,.17,0,.25-.07.09-.08.14-.19.28-.24.13-.05.37-.16.49-.32.12-.16.08-.26,0-.41-.07-.14-.02-.31-.09-.4-.07-.09-.2-.13-.36-.09-.16.04-.21-.04-.35.26,0,0-.14.31-.21.42-.06.11-.28.37-.29.52,0,.15.15.32.28.33ZM64.25,39.19c-.09.13-.26.08-.33.06-.07-.02-.08-.07-.11-.07-.04,0-.15,0-.25-.08-.1-.08-.17-.16-.23-.27-.07-.11-.22-.31-.27-.41-.06-.1-.21-.25-.25-.3-.04-.05,0-.2.07-.33.07-.13.35-.42.35-.42.11-.09.2.02.34.05.15.03.33.14.47.25.14.11.18.26.21.4.02.14.02.43.05.64.03.22.05.34-.04.48ZM62.14,41.33c-.04.14-.16.28-.29.32-.13.04-.45-.04-.49-.05-.03,0-.19-.22-.2-.3,0-.07-.1-.29-.15-.39-.05-.1-.29-.26-.36-.41-.08-.15-.15-.31-.02-.5.13-.2.38-.26.38-.26.55,0,.63.3.67.36.04.06.03.17.12.26.09.09.11.25.18.31.07.06.07.02.16.2.09.18.05.32,0,.46ZM60.2,39.26c-.23,0-.32-.21-.34-.35-.03-.14.03-.29.12-.36.08-.07.26-.17.26-.17.04-.01.26-.08.45-.03.19.06.23.26.27.35.04.08.07.26-.11.39-.18.14-.41.17-.64.16ZM59.58,40.36s-.23.17-.4.35c-.17.18-.33.3-.43.31-.1,0-.5.05-.57,0-.08-.06-.19-.19-.21-.36-.03-.17-.04-.37.15-.4.2-.03.65-.07.8-.08.15-.02.63.08.67.14.04.06,0,.05,0,.05ZM65.14,39.48c-.01-.05-.14-.51-.21-.58-.06-.07-.14-.31-.15-.44-.02-.13,0-.23-.07-.36-.06-.13-.39-.88-.43-.98-.04-.1-.04-.3-.1-.36-.06-.06-.08-.04-.12-.16-.04-.12,0-.31-.09-.36-.1-.05-.52-.1-.76-.05-.24.05-.25,0-.31.11-.06.1-.21.3-.32.4-.11.1-.16.17-.22.28-.06.11-.21.15-.28.22-.08.07-.2.23-.15.35.02.19.41.58.4.74-.02.16-.01.48-.17.55-.16.06-.35.07-.47-.2-.12-.13-.35-.29-.47-.51-.06-.19-.17-.67-.17-.86s-.06-.3-.14-.34c-.08-.04-.26-.18-.32-.14-.06.04-.22.07-.2.12,0,0-.25.4-.51.62-.27.22-.76.9-.75,1.03.01.13.07.31.07.49s-.04.33-.21.47c-.17.14-.62.15-.79.07-.17-.09-.34-.21-.52-.15-.17.06-.37.22-.39.42-.03.2.02.55.06.63.03.08.08.24.08.33s-.03.32.03.4c.06.07.15.12.13.21-.02.09.05.3.12.41.07.11.2.29.24.37.03.09.19.36.25.4.06.04.27.08.41.05.15-.03.24-.1.3-.3.06-.19.09-.45.21-.52.12-.07.55-.26.57-.4.01-.14.02-.44.12-.62.1-.18.18-.26.27-.23.08.03.25.17.26.26,0,.08.17.47.19.56.02.08.02.14.09.23.07.09.21.34.23.39.02.05.11.11.17.08.06-.02.14.1.21.1s1.01.06,1.25,0c.24-.05.46-.14.46-.35,0-.2.1-.47,0-.59-.11-.12-.23-.32-.38-.54-.14-.23-.25-.49-.25-.74s.09-.52.19-.59c.1-.08.29-.09.4-.04.1.05.76.65.86.74.1.09.24.2.53.16.28-.04.78-.26.94-.48.16-.22-.03-.26-.04-.31ZM57.44,38.2c.47-.23,1.31-.51,1.4-.65.15-.25.23-.77.19-1.1-.03-.24-.14-.3-.16-.52-.01-.18-.02-.44.08-.55.17-.19.4-.18.58-.17.29.02.52.23.69.47.33.44.69.46.86.38.33-.14.29-.42.6-.39.29.02.47-.07.58-.31.11-.23.13-.61,0-.76-.07-.08-.22-.22-.35-.42-.07-.1-.15-.21-.22-.31-.09-.14-.18-.24-.25-.34-.2-.34-.02-.36-.13-.39-.42-.13-.53.2-.5.17.02-.03.04.13.07.34.02.15.03.32.09.46.09.22.37.28.45.38.47.64-.63.86-.95.64-.63-.44-.58-1.8-1.97-.57-.19.17-.3.16-.55.53,0,0-.12.44,0,.73.21.5.29.23.44.51.06.1.05.19.04.26,0,.19-.2.37-.39.43-.45.12-.91.27-1.38.27-.28,0-.52-.13-.78-.14-.66-.04-.62.63-.35.92.25.26.38.39.72.44.19.02.76.11.93-.04.07-.06.07-.15.25-.24ZM39.2,29.19c-.23.02-.27-.06-.31-.15-.04-.08.4-.29.43-.31.21-.09.25.07.25.21s-.14.21-.37.24ZM38.64,28.29c-.15-.04-.19-.14-.15-.21.05-.07.27-.23.27-.23.48-.18.61.04.59.16-.03.12-.17.28-.31.32-.14.04-.25,0-.4-.04ZM37.27,28.12c-.14.09-.28.05-.5.05s-.24-.05-.24-.12.03-.19.17-.23c.14-.04.4-.19.4-.19.13-.07.31-.21.46-.29.15-.08.59-.38.69-.43.1-.04.44-.03.57-.04.13-.02.16.06.19.13.02.07-.14.18-.21.22-.08.05-1.39.81-1.53.89ZM36.32,27.35c-.15-.02-.22-.17-.21-.31.02-.14.28-.34.28-.34.1-.12.42-.24.51-.29.09-.05.22-.19.32-.19s.15-.05.27-.08c.13-.02.34-.14.47-.14s.22,0,.28-.02c.07-.02.2-.12.34-.08.15.03.2.2.14.3-.06.1-.26.1-.35.1-.08,0-.29.14-.38.22-.09.08-.31.19-.39.25-.08.06-.69.35-.85.44-.15.09-.28.16-.43.14ZM41.41,28.95c-.14.02-.99.02-1.05.02-.06,0-.2-.1-.23-.2-.03-.1,0-.47-.01-.66-.01-.19.03-.34-.11-.36-.15-.02-.26.06-.28-.13-.03-.19,0-2.67,0-2.67,0,0-.16-.17-.26-.14-.1.03-.15.08-.19.14-.05.06-.16.11-.24.11s-.26.07-.31.12c-.04.05-.3.09-.38.08-.08,0-.18.12-.26.17-.08.05-.34.04-.48.12-.14.08-.55.26-.61.29-.06.03-.15.06-.22,0-.07-.07-.13-.18.08-.4,0,0,.87-.46,1.1-.55.22-.09.48-.22.58-.24.1-.02.35.02.54-.1.2-.13.48-.27.53-.5.05-.23-.1-.35-.2-.39-.09-.04-.44-.04-.8.08-.36.12-1.74.73-2.4,1.01-.65.28-1.93.95-2.19,1.04-.27.09-1,.58-1.09.82-.1.25-.03.38.2.68.22.3.59.95.71,1.15.11.2.49.84.6,1.05.11.21.53.93.59,1.12.05.19.21.54.23.89.02.35.02.7,0,.86-.03.15-.14.43.02.68.16.25.26.3.33.29.07-.02.27-.07.37-.49.09-.42.13-.8.07-1.31-.06-.52-.22-1.19-.45-1.66-.23-.47-.54-1.12-.72-1.38-.18-.26-.48-.59-.58-.68-.1-.09-.18-.37-.16-.6.01-.24.14-.38.33-.54.2-.15.64-.47.76-.5.12-.04.36-.05.41.06.05.11.07.26-.04.34-.1.08-.39.3-.39.4s-.09.59.03.73c.12.14.4.59.49.67.09.08.13.26.23.45.1.19.38.34.52.35.13.01.22.03.32-.05.1-.07.19-.23.32-.19.13.03.21.07.2.19,0,.12-.03.41.04.47.08.06.17.1.31.09.14,0,.59,0,.62.17.02.18-.05.28-.2.35-.14.07-.37.08-.47.18-.1.1-.4.31-.33.53.08.22.35.37.47.37.12,0,.29-.2.45-.37.18-.17.52-.29.64-.32.12-.03.42-.06.45.05.02.11.04.46-.02.65-.07.19-.15.28-.29.41-.14.13-.35.19-.47.19s-.23.13-.34.25c-.11.12-.22.31-.1.51.11.2.3.26.37.3.07.04.17.16.39.09.21-.07.5-.23.71-.52.2-.29.36-.55.41-.65.05-.09.22-.33.2-.58-.01-.26-.07-.61-.03-.81.04-.2.15-.27.27-.37.12-.1.27-.23.39-.26.12-.03.31-.04.42-.04s.15,0,.25-.09c.1-.08.15-.19.19-.28.04-.08.08-.3.02-.38-.05-.08-.09-.14-.23-.12ZM52.48,58.25c.21-.02.35-.25.3-.35-.05-.1-.21-.26-.23-.34,0-.08-.08-.53-.1-.69-.02-.16-.08-.24-.33-.22-.25.02-.23.14-.23.22,0,0-.02.41.09.77.11.37.3.63.5.61ZM48.87,59.55c.05.06.16.2.29.2s.37.07.45-.13c.08-.2.11-.44.02-.57-.1-.13-.39-.48-.57-.34,0,0-.2.18-.19.29,0,.1-.05.49,0,.55ZM46.93,59.26c.14.03.39-.33.39-.33.47-.5.81-.67.96-.67s.35,0,.52-.13c.17-.13.95-.11,1.08-.1.13.01.36.38.61.52.25.13.34.03.45-.08.11-.11.06-.44.07-.57,0-.13.02-.28.1-.36.08-.07.04-.35.04-.5s-.14-.13-.24-.13-.15.06-.2.15c-.05.09-.23.25-.31.27-.08.02-.45-.1-.59-.17-.14-.07-.8-.14-.91-.14s-.54.14-.82.22c-.29.08-.42.25-.52.3-.1.06-.28.3-.37.37-.09.07-.15.14-.22.27-.06.13-.15.32-.21.37-.06.05-.13.13-.12.36,0,.23.17.32.29.35ZM11.63,41.54c.51-1.49,1.19-1.04,1.25-.39.05.59-.25,1.29-.25,1.29l.83.18c.06.01.12-.35.23-1.68.12-1.44-1.3-1.58-1.61-1.56-.3.01-.77.3-.98.89-.6,1.72-1.21,1.13-1.26.44-.05-.64.28-1.18.28-1.18l-.86-.13c-.08.29-.21.76-.27,1.3,0,.4-.02,1.02.54,1.55.36.34,1.59.78,2.1-.69ZM52.31,59.55c.36-.02.28.39.29.48.01.09-.44.33-.66.48-.22.14-1.22.73-1.48.86-.26.13-1.35.65-1.51.65-.17,0-.28-.18-.16-.44.12-.27.47-.55.71-.61.24-.06.99-.52,1.35-.67.36-.15.63-.21.82-.37.2-.16.64-.37.64-.37ZM53.29,61.05c.05.31-.11.42-.17.48-.05.06-.24.07-.37.13-.14.06-.29.22-.34.29-.05.07-.23.11-.52.24-.34.24-.61.35-.72.38-.11.03-.17.09-.4.16-.23.07-.43.14-.57.17-.13.03-.25.09-.38.25-.14.15-.4.31-.49.31s-.17-.05-.2-.29c-.03-.24.18-.52.28-.61.1-.09.31-.1.39-.1.08,0,.16-.16.3-.25.15-.09.32-.17.44-.19.13-.02,1.06-.54,1.19-.6.13-.06.26-.24.36-.32.09-.08.48-.33.48-.33.46-.14.66-.02.71.29ZM53.93,62.63c.01.37-.42.58-.71.69-.29.11-.84.37-1.06.47-.22.1-.68.3-.87.41-.2.1-.55.41-.91.52-.36.11-.73.13-.81-.24-.08-.36.31-.53.42-.53s.42-.19.63-.22c.2-.02.34-.17.39-.24.05-.07.27-.17.42-.27.15-.1.61-.35.8-.45.19-.1.73-.34.73-.34.42,0,.51-.19.73-.24.21-.05.23.07.24.45ZM50.15,59.96c-.17.08-.57.08-.66.08,0,0-.13.19-.34.44-.2.25-.74.81-.81.84-.07.03-.22.05-.26.16-.04.11-.06.32,0,.49.05.16.15.23.16.39,0,.15.03.46.03.57s-.05.4,0,.43c.05.03.24.26.29.38.05.11.1.32.13.45.03.12.09.51.22.74.12.24.48.91.79.92.31.01.78-.22.94-.28.17-.06,1.5-.54,1.54-.54.04,0,.64.36.74.39.1.03.21.09.22-.07,0-.16-.13-.71.06-.87.19-.16,1.63-1.45,1.75-1.58.12-.13.07-.21-.02-.35-.09-.13-.56-.86-.67-1.13-.11-.26-.33-.65-.46-.82-.13-.17-.42-.49-.58-.76-.15-.28-.36-.83-.49-.93-.13-.09-.31-.21-.39-.17-.08.04-.14.13-.26.24-.12.11-.61.32-.98.53-.36.2-.79.4-.95.48ZM61.89,52.25c.03-.26-.49-.66-.49-.66-.1-.11-.26-.27-.38-.27s-.19-.21-.21-.31c-.03-.09-.1-.34-.19-.49-.09-.15-.42-.75-.64-1.36-.22-.61-.25-1.03-.24-1.38.01-.35-.08-.47-.08-.47,0,0-.52-.2-.75.07-.29.49-.06,1.13.1,1.51.16.38.56.73.71.93.16.2.26.53.15.74-.11.21-.6.2-.83.1-.22-.09-1.12-.7-1.16-.75-.05-.06-.41-.04-.47-.04s-.13-.09-.24-.14c-.11-.05-.22-.12-.29-.14-.07-.02-.18.04-.26.15-.08.11-.28.27.02.73.29.46.56.54.96.65.41.11.93.3,1.19.37.27.07.59.1.74.05.15-.05.21-.09.41-.03.2.05.18.36.16.54-.01.18-.26.32-.35.3-.1-.01-.29-.15-.4-.15s-.31.06-.45.12c-.14.06-.57.01-.83-.02-.26-.03-.71.11-1.11.29-.4.18-.56.5-.63.9-.08.4.03.61.18.7.16.09.22-.06.35-.15.14-.09.3-.37.53-.41.23-.05.91-.3,1.1-.38.19-.08.63-.21.93-.21s.8-.11.91-.15c.11-.05.32-.2.43-.23.11-.03.63.06.83.09.2.03.26-.24.29-.5ZM22.97,40.96s.22.32.29.43c.07.1.13.2.27.2s.22,0,.28-.16c.06-.16.1-.43.14-.63.03-.2.15-.4.15-.61s.06-.45-.11-.6c-.17-.15-.37-.26-.7-.12,0,0-.14.08-.13.16.02.08-.02.36-.09.5-.07.15-.1.22-.2.25-.1.03-.17.12-.13.2.04.09.22.34.23.38ZM64.41,49.01c-.13-.06-.44,0-.44.14s-.08,1.09-.13,1.49c-.05.4-.14.7-.33,1-.2.31-.89,1.47-.99,1.67-.09.2-.37.69-.45.8-.08.11-.13.27-.13.27,0,0-.15.32-.17.44-.02.12-.08.36-.16.44-.08.08-.29.48-.31.55-.02.07,0,.23.07.47.07.24.27.6.41.57.15-.04.39-.35.49-.55.09-.2.2-.55.28-.7.08-.14.3-.46.41-.68.11-.22.29-.53.34-.74.04-.2.12-.34.24-.56.12-.22.48-1.08.62-1.36.14-.28.23-.5.28-.86.05-.35.12-.75.19-.97.07-.21.16-.37.1-.68-.06-.31-.18-.69-.31-.75ZM13.25,55.25l-.69.24.24.65-.97.37s-.29-.4-.33-.93c-.02-.2.03-.39.13-.65.38-.9,1.58-1.13,2.42-.62.84.55.72,2.01.74,2.01l.84-.14s-.12-1.25-.53-1.96c-.55-.95-1.31-1.36-2.06-1.37-.41,0-.86.13-1.28.32-.27.12-.48.31-.79.68-.05.05-.83.97,0,2.75.47,1.01.62,1.12.62,1.12l2.39-.88-.71-1.6ZM47.29,61.19c.33-.31.37-.62.52-.97.15-.34.15-.61.15-.61-.1-.19-.33-.1-.41-.06-.08.04-.26.23-.29.36-.03.12-.15.18-.2.18-.04,0-.1.1-.19.18-.09.08-.08.2-.1.3-.02.09-.14.24-.25.42-.1.17.07.39.12.45.05.06.31.06.64-.24ZM13.93,50.09l-3.37.59,3.15-2.15-.21-1.44-4.42.69.14,1,3.29-.49-3.08,2.05.2,1.46,4.44-.63-.15-1.08ZM13.44,44.3l-4.46-.02-.02,1.22,4.46.02.02-1.22h0ZM21.43,65.13l-.69-.85-1.95,1.59c-1.19.97-1.98-.22-1.57-.75.62-.8,1.71-1.35,2.49-2.06l-.66-.93s-2.3,1.84-2.38,1.97c-.08.12-1.05.76-.34,2.08.87,1.6,2.32,1.06,2.89.65.57-.41,2.2-1.7,2.2-1.7ZM17.63,59.88l-1.46.79-.72-1.16,1.48-.93-.56-1.02-3.86,2.22.55.99,1.62-.85.66,1.24-1.56.89.53,1.06,3.84-2.24-.53-.99ZM29.92,38.06c0,.11.04.26.08.32.04.06.01.22-.05.3-.06.08-.06.2-.24.24-.18.03-.33.04-.35.16-.03.12-.12.49-.2.6-.08.11-.2.24-.21.32,0,.08.04.47,0,.54-.04.08-.11.17-.38.19-.27.02-.47-.14-.63-.11-.15.03-.58-.12-.64-.1-.06.02-.35.03-.53.02-.18-.02-.34-.04-.4-.11-.06-.07-.28-.32-.35-.33-.07-.02-.61-.2-.7.18,0,0,.02.11-.07.16-.09.05-.15.14-.18.28-.03.15-.12.57-.06.8.06.23.29.63.3.7,0,.07.16.1.33.08.17-.03.43-.03.42-.23,0-.2-.04-.64.04-.71.08-.08.1-.14.33-.17.22-.03,1.15,0,1.24.04.1.02.43.27.53.41.1.14.5.71.72.82.22.11.47.19.67.08.2-.11.22-.42.22-.59s-.05-.44-.11-.58c-.06-.14-.15-.29-.07-.37.08-.08.21-.04.28-.05.08,0,.26-.14.28-.24,0-.1-.02-.31-.12-.43-.11-.12-.26-.15-.21-.26.04-.11.23-.47.39-.49.15-.02.81.05.98-.02.16-.07.25-.23.34-.3.09-.07.17-.04.39-.26.23-.22.64-.66.72-.98.08-.32.02-.83-.1-1-.13-.17-.18-.26-.35-.37-.17-.12-.4-.31-.45-.39-.04-.08.01-.24-.09-.3-.1-.06-.21-.14-.44-.04-.23.1-.54.24-.53.53,0,.29.24.52.36.54.12.02.5-.03.58.05.08.08.27.18.17.71-.1.53-.24.63-.39.75-.15.12-.42.18-.63.11-.21-.07-.3-.2-.21-.32.09-.12.39-.33.4-.45,0-.12-.06-.24-.24-.23-.18,0-.48-.07-.68.08-.2.14-.18.31-.17.42ZM22.07,69.48l-.78-.77,1.5-.83-.72,1.6ZM18.72,68.81l.82.77.91-.47,1.25,1.2-.43.89.9.85,1.87-4.39-1.03-1.02-4.29,2.16ZM23.9,52.1c.27-.14.31-.35.08-.51-.23-.16-.52-.55-.74-.57-.23-.02-.53.12-.55.3,0,0-.1.31.31.61.41.3.64.3.9.16ZM53.63,28.33c-.06.05-.26.03-.32,0-.07-.04-.22-.06-.28-.09-.06-.02-.32,0-.44-.02-.12-.03-.22.02-.34.02-.12.01-.43-.35-.5-.41-.07-.07-.26-.12-.4-.1-.14.02-.25-.08-.35-.13-.09-.05-.33-.02-.46,0-.14.02-.34-.03-.43-.09-.09-.06-.55-.12-.75-.17-.21-.05-.37-.25-.43-.37-.06-.12-.05-.34.06-.41.11-.07.45-.26.48-.29.12-.1.49-.02.77,0,.28.02.6.21.74.26.14.04.28.06.4-.02.11-.08.2-.06.31-.02.11.04.35.19.5.3.14.11.64.34.86.51.22.17.45.29.51.37.07.09.18.17.23.35.04.18-.1.26-.16.32ZM53.18,29.68c-.04.1-.34.42-.46.48-.12.06-.34-.03-.34-.03,0,0-.08-.1-.32-.16-.4-.03-.92-.41-1.01-.45-.1-.04-.49,0-.7,0s-.75-.04-.89-.05c-.14,0-.44-.27-.55-.35-.11-.08-.41-.33-.41-.33,0,0-.08-.12.08-.29.17-.17.58-.26.63-.26.1,0,.68.09.74.13.06.03.24.18.35.25.1.07.2.1.29.14.08.03.27.04.47.05.19,0,.46.03.6.08.14.04.43.18.57.24.15.06.43-.02.56,0,.13,0,.23.05.34.22.11.17.11.26.07.36ZM52.26,31.55c-.08,0-.12.11-.11.2,0,.09-.13.18-.23.25-.09.07-.27.1-.45.11-.17.02-.32.07-.49.07s-.43-.08-.59-.16c-.15-.08-1.47-.66-1.71-.76-.24-.1-.32-.25-.37-.38-.05-.13-.15-.35-.13-.53.03-.18.31-.34.31-.34.23-.07.45.07.54.1.09.03.11.08.16.08.05,0,.14.07.27.08.13,0,.52,0,.6,0s.56.07.63.08c.07,0,.21.15.29.15s.23.05.3.06c.07.01.13.06.3.05.17,0,.46.07.62.16.15.09.19.21.2.43.02.22-.08.33-.16.33ZM53.95,26.82c-.24-.2-.35-.42-.59-.52-.23-.1-.32-.14-.64-.14-.33,0-.46-.25-.54-.4-.09-.15-.2-.31-.15-.4.05-.09.13-.29.17-.37.03-.08.22-.15.14-.31-.09-.16-.22-.19-.28-.11,0,0-.11.12-.27.16-.15.04-.27.15-.31.21-.04.06-.18.31-.37.43-.19.12-.31.19-.6.14-.29-.05-.34-.02-.47-.1-.14-.08-.23-.18-.37-.18s-.74.08-1.11.25c-.37.18-.49.27-.51.44-.02.17-.08.7-.11.93-.03.23-.09.69-.14.91-.04.22-.09.58-.17.73-.08.15-.12.32-.1.5.02.19.04.35.06.48.02.13,0,.41-.12.57-.12.16-.2.6-.17.82.02.22.2.43.24.53.04.1.16.27.26.37.09.1.23.34.29.44.06.1.11.13.19.13s.28-.03.44.02c.16.04.36.09.47.09s.52.19.6.26c.08.07.14.08.23.07.08,0,.24-.02.27.03.03.05.07.18.31.14.24-.03.59-.08.61,0,.02.08.12.2.34.11.22-.08,1.04-.62,1.17-.81.14-.19.23-.53.21-.75-.01-.22-.07-.32.05-.4.12-.08.4-.29.5-.66.09-.36.12-.53.3-.61.18-.08.45-.15.45-.32s.03-.46.09-.65c.06-.2.28-.41.28-.54s.08-.53-.14-.86c-.23-.32-.29-.44-.53-.64ZM44.04,48.37l4.74,3.4-1.77-5.54,4.83-3.58h-5.9l-1.83-5.6-1.92,5.57h-5.85l4.7,3.55-1.8,5.57,4.8-3.38ZM29.1,51.73c.1.08.23.16.18.33-.04.16-.25.24-.47.12-.23-.12-.23-.43-.23-.43.27-.31.41-.1.51-.02ZM29.39,51c.19-.08.25,0,.43.14.19.14.25.41.14.53-.1.12-.37.1-.58-.2-.2-.31,0-.47,0-.47ZM30.25,53.05c-.04.17-.14.25-.29.25s-.37-.2-.35-.41c.02-.2.25-.26.25-.26.17-.04.43.26.39.43ZM30.54,52.02c.68.04.49.57.33.61-.17.04-.37,0-.47-.3-.1-.3.14-.3.14-.3ZM24.7,51.26c.21.42.29.55.19.89,0,0-.45.65-.62.77-.16.12-.14.59.06.65.21.06.29,0,.41-.22.12-.22.41-.63.58-.63s.43.04.58.22c.14.18,1.01.89.74,1.2-.27.3-.45.12-.56.12s-.29-.28-.47-.32c-.19-.04-.91.18-.86.69.04.51.25.49.25.65s.08.47.31.47.66-.24.8-.24.45,0,.76.33c.31.32.82.17.65,0-.06-.06.03-.28-.14-.4-.53-.36-.43-.78-.41-.63-.03-.23.66-.02,1.16.66.48.66.29.42.71.79.44.39.89-.17.7-.66-.2-.51-.18-.12-.68-.49-.84-.6-1.3-.98-1.13-1.33.14-.29.57.05.93.54.38.5.9.08.73-.16-.15-.22-.41-.85.04-.4.15.15.21.35.3.44.28.26.4.17.48.07.1-.12.86-1.16,1.15-1.34.29-.18.24-.53.22-.63-.02-.1-.37-.43-.37-.43,0,0,.14-.24.29-.14.14.1.68.59.68.59,0,0,.51-.25.41-.41-.1-.16-.37-.45-.51-.59-.15-.14-.23-.24-.08-.36.14-.12.41-.22.41-.59s-.08-.49-.33-.47c-.25.02-.41.35-.64.35s-.47.02-.58-.14c-.1-.16-.27-.36-.43-.28-.16.08-.43.25-.31.37.12.12.5.45.31.59-.19.14-.58.04-.66-.1-.08-.14-.25-.22-.64-.14-.39.08-.86.32-1.13.53-.27.2-.6.33-.45.59.14.26.51.63.51.79s-.1.26-.31.16c-.21-.1-.45-.42-.53-.41-.08.02-.35.32-.25.39.1.06.51.47.41.69-.1.22-.39.1-.56-.18-.16-.29-.47-.81-.64-.91-.16-.1.2-.39.37-.55.17-.16,1.26-1.26,1.52-1.79,0,0,.99.06,1.73-.41.74-.47.47-.77.35-.77s-.39.02-.6.2c-.21.18-.49.2-.49-.02s.08-.61.31-.95c.23-.35.66-.69.27-.79-.39-.1-1.01.2-1.01.2,0,0-.15.02-.15.32s-.04.96-.47,1.26c-.43.3-.68.22-.89.2-.2-.02-.66-.26-.9-.18-.25.08-.64.24-.56.49.08.24.27.24.57.26.31.02,1.03-.02.7.49-.33.51-1,1.1-1.19,1.14-.19.04-.29-.21-.47-.49-.18-.28-.6-1.42-1.03-1.38-.43.04-.59.3-.45.57.14.26.68.85.88,1.28ZM25.67,37.5c0-.12.21-.15.21-.15.16,0,.27.02.33.12.06.1.05.45,0,.57-.04.12-.18.19-.35.08-.16-.1-.21-.5-.2-.62ZM26.45,36.01c.16-.07.29.08.34.15.05.07.3,0,.39,0,.09,0,.11-.19.18-.21.07-.02.26-.2.32-.23.06-.03.12-.16.23-.12.11.04.13.11.13.19s-.12.49-.21.71c-.08.22-.33.52-.4.64-.07.13-.16.25-.16.42s-.05.27-.18.43c-.13.15-.23.21-.29.2-.05,0-.07-.25-.02-.37.05-.13,0-.6,0-.7.02-.09-.12-.18-.23-.32-.11-.14-.29-.46-.31-.54-.02-.08.22-.24.22-.24ZM26.97,34.86c.03-.18.22-.25.22-.25.2-.03.33.03.41.12.08.08.04.38-.02.47-.07.08-.35.08-.47.04-.11-.04-.16-.2-.14-.37ZM23.88,38.65c.35.11.42-.11.45-.19.04-.08.23-.32.21-.44-.01-.13.05-.35.1-.45.05-.1.22-.42.26-.56.04-.14.02-.28.04-.44.02-.16-.07-.4.1-.42.17-.03.26.05.26.14s.05.46,0,.54c-.05.08-.13.15-.13.24s-.04.36-.08.48c-.03.13-.13.57-.13.65s-.02.31.08.37c.1.06.17.12.26.12s.27.03.4.03.23.08.36.06c.13-.03.19-.05.23.02.04.07.18.21.38.22.2,0,.25.02.29-.06.04-.08.06-.14.17-.15.1,0,.2,0,.26-.07.05-.07,0-.22.14-.38.15-.16.15-.19.29-.16.14.02.16.13.16.21s-.04.14,0,.18c.03.03.15.13.14.22,0,.09,0,.31.08.36.1.05.32.07.36.07s.09.02.11-.15c.02-.17.06-.33.16-.42.09-.09.26-.27.26-.41s.14-.33.19-.48c.05-.14.22-.41.32-.57.1-.16.26-.36.34-.59.09-.24.07-.45.13-.54.06-.08.27-.24.25-.39-.02-.15-.12-.32-.29-.3-.17.02-.48.13-.55.23-.07.1-.1.2-.14.33-.04.13-.19.48-.33.69-.14.21-.43.68-.44.77,0,.08-.08.43-.03.47.04.04-.16.17-.23.21-.08.04-.21.14-.32-.05-.11-.19-.05-.26.01-.42.07-.15.28-.65.4-.88.12-.23.44-.54.5-.87.06-.33.07-.64.08-.8,0-.16.02-.24-.1-.32-.12-.08-.28-.43-.53-.6-.25-.18-.5-.37-.66-.39-.17-.03-.48-.11-.69.17-.21.28-.39.6-.58.86-.2.26-.24.43-.35.52-.11.09-.1.13-.33.13s-.32-.04-.35-.22c-.03-.18.03-.25.11-.35.09-.1.31-.28.36-.42.04-.14.08-.38.14-.5.05-.12,0-.25-.05-.37-.05-.12-.19-.12-.35-.09-.16.03-.36.18-.36.27s-.02.04-.02.04c0,0-.12.5-.29.84-.17.34-.46.7-.6.82-.14.11-.29.25-.31.33-.02.08-.02.57-.06.75-.04.18-.13.39-.16.58-.04.19-.08.38-.12.57-.04.19-.17.5-.15.58.03.08.03.29.39.4ZM34.01,61.68c.64.08,1.31.43,1.31.43,0,0,.58.3.66.55.02.41-.31.69-.39.81-.08.12-.22.2-.26.45s-.45.51-.54.65c-.08.14.14.47.39.71.25.25.27.25.41.1.14-.14.29-.73.47-1.16.19-.43.84-1.71.84-1.71.1-.24-.33-.75-.33-.92s.17-.45.51-.75c.35-.3,1.01-.63,1.17-.81.17-.19.15-.24-.14-.37-.29-.12-.88.21-1.09.37-.2.16-.55.67-.82.95-.27.29-.41.26-.58.12-.16-.14-.18-.32.02-.55.21-.22.72-.69.91-.81.19-.12.7-.69.86-.75.16-.06.31-.14.48-.37.16-.22.02-.37-.21-.43-.23-.06-.62.2-.78.35-.16.14-.39.38-.58.55-.18.16-1.07,1.08-1.25,1.24-.19.17-.45.29-.64.14-.18-.14-.16-.35-.02-.79.14-.44,1.01-1.3,1.29-1.54.29-.24,1.09-.47,1.71-.63.62-.16.56-.34.48-.61-.08-.26-.54-.26-1.61.12-1.07.39-2.45,1.75-2.45,1.75,0,0-.5.41-.51.63-.02.47-.33.73-.62,1-.29.26-.2.35.04.65.25.31.62.55,1.25.63ZM37.73,63.9c.02.26-.2.75-.31.77-.1.02-.23.22-.23.41s.04.47.04.47c0,0,.06.49.14.51.08.02.37.1.6-.28.23-.39.08-.75.45-1.28.29-.21.45-.16.59-.06.15.1.21.1.21.3s0,.67-.02.83c-.02.16.1.36.23.42.12.06.16.24.29.14.12-.1.14-.36.27-.77.12-.41.37-.83.53-1.02.16-.18.25-.57-.02-.65-.27-.08-.9-.2-1.07-.27-.17-.06-.35-.47-.21-.91.14-.45.37-.77.56-.83.18-.06.54-.06.73-.02.19.03.48.08.76-.18.28-.26.31-.51.14-.63-.17-.13-.28-.13-.52-.13s-.7-.04-.8-.1c-.11-.07-.19-.32-.09-.54.1-.22.67-.85.78-.99.11-.14.35-.43.16-.71-.19-.29-.31-.31-.68-.28,0,0-.49.63-.58.83-.08.21-.31.55-.39.98-.08.42-.14,1.05-.29,1.3-.15.24-.23.71-.33.85-.1.14-.53.87-.66,1.04-.12.16-.31.55-.29.81ZM28.5,62.79s-.07-.21-.26-.47c.39-.24.55-.52.63-.8.51-.19.75-.43,1.01-1.02.5-.12.95-.6,1.05-.98.65-.18.96-.94.98-.97.75-.32.98-.98,1.01-1,.73-.28,1.04-.98,1.07-.99.73-.32.64-.72,1.07-.97.5-.28.73-.71.93-.95.12-.15.51-.27.73-.53.02,0,.04.02.06.02.11.44.62.82,1.21.86.17.33.84.67,1.3.67.28.25.72.53,1.36.48.19.21.95.59,1.4.29.29.22.64.3.96.28-.16.54-.11.98.02,1.23-.07.23-.27.87.01,1.42-.22.56-.18.86.04,1.38-.13.3-.3.74-.01,1.48-.11.27-.26.81-.04,1.45-.09.29-.28.8.05,1.38-.06.2-.3.6,0,1.4-.1.18-.27.75-.02,1.42-.07.15-.09.32-.09.51-.35-.08-.87-.11-1.52.06,0,0-.61-.52-2.03-.29,0,0-.5-.58-2-.5,0,0-.59-.69-1.95-.65,0,0-.53-.73-1.82-.83,0,0-.61-.82-1.82-1.01,0,0-.64-.9-1.71-1.1,0,0-.38-.82-1.64-1.29ZM29.62,66.46c-.52-.11-1.03-.56-1.25-1.04-.23-.48.1-1.56.16-1.74.05-.18.05-.47.05-.47.34.12.59.37.93.68.34.3.17,1.53.12,1.87-.05.34,0,.7,0,.7ZM28.07,62.12c-.15-.17-.36-.33-.63-.48-.05-.07-.08-.13-.16-.22-.08-.1-.21-.19-.34-.26-.04-.09-.1-.19-.18-.31.03-.03.07-.07.09-.08.2-.14.29-.12.36-.11.22.02.61.3.88.54.04.04.56.39.6.28-.1.13-.23.4-.44.55-.06.04-.13.06-.2.08ZM27.86,64.38c-.08.34-.05.71-.05.71-.5-.13-.95-.61-1.14-1.1-.18-.49.21-1.54.28-1.71.06-.17.08-.45.08-.45.31.12.53.38.84.69.3.31.07,1.52-.01,1.86ZM26.21,62.92c-.11.33-.11.7-.11.7-.48-.18-.89-.7-1.02-1.21-.13-.5.36-1.51.44-1.68.08-.17.12-.44.12-.44.3.15.49.43.77.76.27.34-.08,1.53-.19,1.86ZM24.71,61.33c-.14.32-.18.69-.18.69-.47-.23-.82-.78-.9-1.3-.08-.52.51-1.47.6-1.63.1-.16.17-.43.17-.43.28.18.45.47.68.84.24.36-.23,1.51-.38,1.83ZM23.13,60.24c-.45-.26-.75-.84-.79-1.37-.04-.52.62-1.42.73-1.57.11-.15.19-.41.19-.41.27.2.41.51.62.88.2.38-.35,1.49-.52,1.79-.17.31-.23.68-.23.68ZM21.88,58.34c-.42-.3-.68-.9-.68-1.43,0-.52.74-1.37.86-1.51.12-.14.23-.4.23-.4.25.23.37.54.54.93.18.4-.47,1.45-.66,1.75-.19.29-.29.65-.29.65ZM20.81,56.38c-.39-.34-.59-.96-.54-1.49.05-.52.86-1.29,1-1.42.13-.13.27-.37.27-.37.23.24.32.57.45.98.14.41-.61,1.4-.83,1.68-.22.28-.35.62-.35.62ZM19.9,54.31c-.36-.37-.5-1-.41-1.52.09-.51.96-1.22,1.1-1.34.14-.11.3-.35.3-.35.2.26.26.59.36,1.01.11.42-.72,1.35-.95,1.6-.24.26-.4.59-.4.59ZM19.21,52.19c-.32-.4-.4-1.05-.26-1.56.14-.5,1.06-1.12,1.21-1.22.15-.1.32-.32.32-.32.17.28.2.62.26,1.04.06.43-.83,1.28-1.09,1.5-.26.23-.45.55-.45.55ZM18.52,48.44c.18-.49,1.15-1.05,1.32-1.14.16-.09.35-.29.35-.29.16.29.17.63.2,1.06.04.43-.93,1.21-1.21,1.43-.28.22-.49.52-.49.52-.3-.42-.34-1.07-.16-1.57ZM18.34,46.22c.22-.47,1.24-.93,1.41-1,.17-.08.37-.26.37-.26.12.31.1.64.09,1.07,0,.43-1.04,1.12-1.33,1.3-.3.19-.54.47-.54.47-.25-.45-.23-1.1,0-1.58ZM18.34,43.98c.26-.45,1.3-.82,1.47-.89.17-.06.39-.23.39-.23.1.32.05.65,0,1.07-.05.43-1.12,1.03-1.42,1.19-.31.16-.57.43-.57.43-.21-.47-.14-1.12.13-1.57ZM18.49,41.73c.3-.43,1.39-.72,1.57-.77.18-.05.41-.2.41-.2.08.32,0,.65-.08,1.07-.08.43-1.22.94-1.54,1.07-.32.14-.61.38-.61.38-.18-.48-.05-1.12.26-1.56ZM18.88,39.53c.32-.41,1.41-.61,1.59-.64.18-.03.42-.16.42-.16.05.33-.05.65-.16,1.06-.11.42-1.26.84-1.59.95-.33.11-.63.33-.63.33-.14-.49.04-1.12.37-1.53ZM19.48,37.32c.37-.36,1.48-.42,1.66-.44.18-.01.44-.11.44-.11,0,.33-.13.64-.29,1.03-.16.4-1.36.67-1.7.74-.34.07-.67.25-.67.25-.07-.51.18-1.11.56-1.47ZM20.2,35.26c.4-.33,1.53-.32,1.72-.32.19,0,.45-.08.45-.08-.01.33-.18.62-.37,1.01-.19.39-1.43.58-1.78.62-.35.05-.69.2-.69.2-.04-.51.26-1.09.67-1.43ZM21.15,33.21c.43-.29,1.53-.17,1.72-.15.18.02.45-.03.45-.03-.04.33-.23.61-.46.97-.23.37-1.46.43-1.8.45-.35,0-.7.13-.7.13,0-.51.36-1.06.79-1.36ZM22.28,31.26c.45-.26,1.54-.05,1.72-.02.18.03.45,0,.45,0-.07.32-.28.59-.53.93-.25.35-1.48.32-1.83.3-.35-.01-.7.08-.7.08.05-.51.44-1.03.89-1.3ZM23.55,29.43c.47-.22,1.54.08,1.72.12.17.05.45.04.45.04-.1.32-.33.56-.61.88-.28.32-1.51.2-1.85.15-.34-.05-.71.02-.71.02.09-.5.53-.99,1-1.21ZM25,27.69c.49-.18,1.52.21,1.7.28.17.06.45.08.45.08-.12.31-.38.53-.68.83-.31.3-1.51.06-1.85-.01-.34-.07-.71-.05-.71-.05.13-.49.61-.94,1.1-1.12ZM26.57,26.09c.5-.15,1.53.31,1.7.38.17.08.45.11.45.11-.15.3-.42.5-.75.78-.33.28-1.54-.03-1.88-.13-.34-.1-.71-.09-.71-.09.17-.48.67-.9,1.19-1.05ZM28.39,24.65c.49-.08,1.4.49,1.55.59.15.09.41.16.41.16-.17.27-.45.44-.79.66-.35.23-1.44-.23-1.74-.36-.31-.14-.66-.18-.66-.18.22-.45.75-.79,1.24-.87ZM30.21,23.38c.5-.04,1.37.59,1.51.69.14.1.4.19.4.19-.2.25-.49.39-.85.58-.36.2-1.43-.34-1.72-.49-.3-.16-.65-.22-.65-.22.25-.42.82-.71,1.32-.74ZM32.1,22.3c.51.01,1.33.73,1.46.85.14.12.38.23.38.23-.23.23-.53.34-.92.5-.39.16-1.41-.48-1.69-.67-.28-.19-.63-.29-.63-.29.3-.4.89-.63,1.41-.62ZM34.03,21.25c.53.05,1.31.86,1.44,1,.13.13.37.27.37.27-.25.24-.58.33-.99.48-.41.15-1.42-.6-1.69-.82-.28-.22-.63-.35-.63-.35.34-.41.97-.62,1.5-.58ZM36.29,20.57c.52.08,1.24.95,1.35,1.09.12.14.35.29.35.29-.27.22-.61.29-1.03.41-.43.12-1.37-.7-1.63-.93-.26-.24-.6-.39-.6-.39.38-.39,1.03-.56,1.56-.48ZM38.34,19.9c.51.13,1.13,1.07,1.23,1.23.1.15.32.33.32.33-.29.19-.64.23-1.07.3-.44.07-1.29-.84-1.52-1.1-.23-.26-.56-.45-.56-.45.42-.34,1.08-.44,1.6-.31ZM40.57,19.49c.5.18,1.02,1.18,1.11,1.34.09.17.29.36.29.36-.31.16-.65.17-1.09.2-.44.03-1.21-.95-1.41-1.24-.21-.29-.51-.5-.51-.5.45-.3,1.12-.34,1.62-.16ZM42.78,19.29c.48.23.92,1.26.99,1.43.07.17.26.38.26.38-.32.14-.67.11-1.11.11-.44,0-1.12-1.06-1.29-1.35-.18-.3-.47-.54-.47-.54.47-.26,1.14-.24,1.63-.02ZM45.04,19.31c.45.27.78,1.33.83,1.51.06.17.22.4.22.4-.33.09-.67.03-1.11-.03-.44-.06-1-1.15-1.15-1.46-.15-.31-.41-.58-.41-.58.49-.2,1.16-.1,1.62.17ZM47.25,19.5c.43.3.68,1.39.72,1.56.04.18.18.41.18.41-.34.08-.68,0-1.11-.09-.44-.08-.91-1.22-1.04-1.54-.13-.33-.36-.61-.36-.61.51-.17,1.17-.03,1.6.27ZM49.46,19.89c.4.34.54,1.44.57,1.62.02.18.14.43.14.43-.35.04-.67-.07-1.1-.2-.42-.12-.79-1.3-.89-1.63-.09-.33-.3-.64-.3-.64.52-.13,1.16.07,1.57.42ZM51.64,20.48c.37.38.4,1.49.4,1.67,0,.18.1.44.1.44-.35,0-.66-.14-1.07-.3-.41-.17-.65-1.37-.72-1.71-.06-.34-.23-.67-.23-.67.53-.07,1.15.19,1.52.57ZM53.76,21.22c.34.41.28,1.52.27,1.7,0,.19.06.45.06.45-.35-.02-.66-.19-1.07-.39-.41-.2-.55-1.42-.59-1.77-.03-.35-.18-.69-.18-.69.55-.03,1.16.28,1.51.69ZM55.82,22.16c.31.43.15,1.53.13,1.72-.02.18.03.45.03.45-.36-.05-.66-.24-1.05-.47-.4-.23-.45-1.46-.45-1.8,0-.35-.13-.7-.13-.7.56.01,1.16.37,1.48.8ZM56.23,24.8s.31.71,1.69,1.11c0,0,.23.73,1.56,1.28,0,0,.09.21.31.49-.48.26-.75.6-.85.86-.21.11-.8.41-1.01.99-.54.23-.74.47-.96.99-.3.11-.72.3-1.06,1.02-.26.1-.75.38-1.06.98-.27.13-.76.36-.95.99-.18.1-.63.2-.99.98-.2.05-.72.33-1.03.97-.17.06-.35.27-.52.44-.04,0-.1-.04-.14-.03-.31-.7-1-.8-1.19-.79-.21-.49-.8-.75-1.29-.68-.22-.34-.64-.61-1.37-.51-.14-.13-.83-.59-1.47-.36-.1-.11-.38-.22-.68-.25-.02,0-.04,0-.05,0,.14-.49.04-.83-.12-1.09.23-.5.22-.84-.02-1.44.28-.45.24-1.11.03-1.45.33-.59-.01-1.35-.01-1.38.31-.77-.02-1.39-.01-1.42.31-.72.03-1.43.04-1.46.29-.75-.07-.97.06-1.44.15-.55,0-1.02-.04-1.33-.02-.15.06-.4.11-.66.35.06.8.08,1.35-.07,0,0,.63.5,2.02.31,0,0,.61.63,2.03.48,0,0,.38.61,1.95.65,0,0,.3.62,1.86.82,0,0,.35.7,1.82.99ZM57.73,23.26c.25.46,0,1.54-.04,1.72-.04.18-.02.45-.02.45-.34-.08-.6-.3-.96-.56-.36-.26-.29-1.49-.26-1.83.03-.35-.06-.71-.06-.71.53.06,1.07.47,1.33.93ZM58.28,23.5c.53.1,1.02.55,1.25,1.03.22.47-.12,1.54-.17,1.71-.06.17-.05.45-.05.45-.33-.1-.58-.34-.91-.63-.33-.29-.17-1.51-.11-1.85.05-.34,0-.71,0-.71ZM59.98,25.52c.1-.34.07-.71.07-.71.54.15,1.03.65,1.21,1.14.18.49-.28,1.52-.36,1.69-.08.17-.1.44-.1.44-.34-.14-.58-.4-.89-.71-.32-.32-.02-1.52.07-1.85ZM61.66,26.99c.12-.33.13-.7.13-.7.5.19.91.72,1.05,1.23.13.5-.39,1.49-.47,1.65-.09.16-.13.43-.13.43-.31-.16-.51-.44-.79-.78-.28-.34.1-1.52.21-1.84ZM63.32,27.92c.48.23.86.79.94,1.31.1.52-.5,1.46-.6,1.61-.1.15-.17.42-.17.42-.29-.18-.47-.48-.72-.84-.25-.36.22-1.5.36-1.82.14-.32.18-.68.18-.68ZM64.51,30.34c.18-.3.25-.66.25-.66.46.28.76.87.8,1.4.04.52-.65,1.4-.77,1.54-.11.14-.21.4-.21.4-.27-.21-.42-.52-.63-.91-.21-.39.38-1.47.55-1.77ZM65.7,32.15c.2-.28.3-.64.3-.64.43.32.69.93.68,1.46,0,.52-.77,1.34-.89,1.47-.13.14-.24.39-.24.39-.26-.23-.38-.56-.55-.96-.18-.4.5-1.44.7-1.72ZM67.07,33.52c.4.35.61.99.56,1.51-.05.52-.88,1.27-1.02,1.4-.14.12-.27.36-.27.36-.23-.26-.33-.58-.47-1-.14-.42.62-1.39.84-1.66.22-.27.36-.61.36-.61ZM67.97,35.56c.38.38.55,1.02.46,1.54-.08.52-.96,1.21-1.1,1.33-.14.11-.29.35-.29.35-.22-.27-.29-.6-.4-1.03-.12-.42.71-1.34.94-1.6.24-.25.4-.59.4-.59ZM68.69,37.72c.34.41.44,1.07.3,1.58-.14.5-1.08,1.11-1.23,1.21-.15.1-.33.32-.33.32-.19-.29-.23-.63-.3-1.06-.07-.43.84-1.27,1.1-1.5.26-.23.45-.55.45-.55ZM69.37,41.49c-.18.49-1.17,1.01-1.34,1.1-.16.09-.35.29-.35.29-.16-.3-.17-.65-.2-1.08-.03-.44.95-1.19,1.23-1.4.28-.2.5-.5.5-.5.3.44.34,1.1.16,1.6ZM69.58,43.74c-.22.47-1.26.91-1.43.98-.17.07-.38.25-.38.25-.13-.32-.11-.66-.1-1.1,0-.44,1.05-1.1,1.35-1.28.3-.18.54-.46.54-.46.26.47.24,1.13.02,1.61ZM69.58,45.98c-.26.45-1.33.8-1.51.85-.18.06-.4.22-.4.22-.11-.32-.05-.66-.01-1.1.04-.44,1.15-1.01,1.46-1.16.31-.16.58-.41.58-.41.22.48.14,1.15-.12,1.6h0ZM69.4,48.2c-.31.43-1.43.69-1.61.73-.19.04-.44.19-.44.19-.07-.35.03-.68.12-1.12.1-.44,1.27-.91,1.59-1.03.33-.12.62-.35.62-.35.17.5.02,1.14-.29,1.58ZM69.04,50.39c-.34.41-1.47.59-1.65.63-.19.03-.44.16-.44.16-.05-.35.07-.69.19-1.12.12-.43,1.32-.83,1.66-.92.33-.1.64-.31.64-.31.13.5-.05,1.14-.39,1.56ZM68.46,52.54c-.38.38-1.53.44-1.71.45-.19.01-.46.11-.46.11,0-.35.15-.67.32-1.09.17-.42,1.4-.68,1.74-.74.34-.06.67-.24.67-.24.08.52-.17,1.13-.55,1.51ZM67.68,54.69c-.4.35-1.55.33-1.74.33-.19,0-.47.09-.47.09.02-.35.19-.66.39-1.06.2-.4,1.44-.58,1.79-.62.35-.04.68-.2.68-.2.04.52-.25,1.12-.66,1.47ZM66.75,56.71c-.44.3-1.57.18-1.76.16-.19-.02-.48.04-.48.04.05-.35.26-.64.49-1.02.24-.38,1.5-.44,1.85-.45.35,0,.7-.13.7-.13,0,.52-.36,1.09-.8,1.4ZM65.65,58.67c-.46.28-1.58.08-1.77.05-.19-.03-.47,0-.47,0,.07-.34.3-.62.55-.99.26-.36,1.52-.34,1.87-.33.35.01.7-.08.7-.08-.04.52-.43,1.06-.89,1.34ZM64.34,60.52c-.48.23-1.58-.08-1.77-.13-.18-.05-.47-.04-.47-.04.11-.34.36-.59.66-.93.3-.34,1.55-.19,1.89-.14.35.05.71,0,.71,0-.1.52-.54,1.01-1.02,1.24ZM62.93,62.25c-.5.19-1.57-.21-1.75-.28-.18-.07-.47-.08-.47-.08.13-.32.41-.56.73-.87.33-.31,1.56-.06,1.9.02.34.08.71.05.71.05-.14.51-.62.97-1.12,1.16ZM61.35,63.82c-.51.14-1.55-.35-1.72-.43-.17-.08-.46-.12-.46-.12.17-.31.46-.52.81-.8.35-.28,1.56.08,1.89.19.33.11.7.11.7.11-.19.49-.71.91-1.22,1.05ZM59.61,65.29c-.53.1-1.51-.49-1.67-.59-.16-.1-.44-.16-.44-.16.19-.3.5-.48.88-.72.38-.25,1.54.22,1.86.36.32.14.69.17.69.17-.23.47-.79.84-1.31.94ZM57.78,66.55c-.54.06-1.45-.61-1.61-.72-.15-.11-.43-.2-.43-.2.22-.28.55-.43.95-.65.4-.21,1.52.35,1.82.51.3.16.67.23.67.23-.28.45-.87.77-1.4.83ZM55.85,67.68c-.54,0-1.38-.76-1.52-.89-.14-.13-.41-.24-.41-.24.25-.25.59-.37,1.01-.54.42-.17,1.47.5,1.76.7.29.19.64.3.64.3-.33.42-.95.68-1.49.68ZM53.82,68.65c-.53-.04-1.31-.86-1.44-1-.13-.14-.38-.27-.38-.27.27-.23.61-.33,1.03-.47.43-.14,1.42.61,1.68.83.27.21.61.35.61.35-.35.4-.98.6-1.51.56ZM51.72,69.42c-.53-.09-1.24-.97-1.36-1.11-.12-.15-.36-.3-.36-.3.29-.21.64-.28,1.09-.38.45-.1,1.38.73,1.62.96.25.24.58.4.58.4-.39.36-1.05.52-1.58.43ZM49.55,70.03c-.52-.14-1.13-1.09-1.23-1.25-.1-.16-.33-.34-.33-.34.31-.18.67-.2,1.12-.26.45-.06,1.28.87,1.51,1.13.23.26.54.46.54.46-.42.32-1.1.4-1.61.26ZM47.35,70.45c-.5-.19-1.03-1.19-1.11-1.35-.09-.16-.29-.36-.29-.36.32-.15.68-.15,1.14-.16.46-.01,1.2.98,1.4,1.26.2.28.5.5.5.5-.45.28-1.13.31-1.63.12ZM45.1,70.65c-.48-.23-.92-1.27-.99-1.45-.07-.17-.26-.39-.26-.39.34-.12.7-.08,1.15-.06.46.02,1.11,1.08,1.28,1.38.17.3.45.54.45.54-.48.24-1.15.21-1.63-.02ZM43.39,62.28c.64-.23.77-.16,1.14-.24.16-.03.36-.1.44-.2.02.16.09.5.01.91-.05.23-.42.41-1.25.48-.37.03-.51.18-.5.17-.07-.34-.2-.97.15-1.12ZM41.86,55.26c-.03-.12-.13-.27-.13-.27.22-.07.44-.02.72,0,.29.04.62.78.71.99.09.21.25.4.25.4-.33.14-.76.08-1.05-.11-.29-.18-.47-.9-.51-1.02ZM40.47,54.61c.23-.03.46.04.75.12.29.08.52.86.58,1.09.06.22.2.43.2.43-.36.09-.8-.04-1.07-.26-.27-.22-.35-.96-.36-1.08-.01-.12-.09-.29-.09-.29ZM52.92,36.26s.56.39.6.29c-.1.13-.23.4-.45.55-.06.05-.14.07-.22.09-.15-.14-.31-.25-.48-.28-.02-.04-.06-.1-.1-.16-.07-.25-.42-.63-.74-.79.05-.05.1-.1.13-.12.19-.14.29-.12.36-.11.22.02.62.3.89.54ZM54.06,35.39c.13.09.28.17.41.17-.11.12-.26.41-.61.65-.2.13-.58,0-1.19-.55-.27-.24-.5-.23-.48-.24.19-.29.59-.81.94-.66.6.29.63.43.94.64ZM55.06,34.39c.13.09.31.18.44.17-.11.12-.3.41-.64.64-.2.13-.58,0-1.19-.55-.27-.24-.48-.24-.45-.24.19-.28.55-.81.9-.66.6.29.63.43.94.64ZM56.03,33.45c.13.09.31.18.44.17-.1.12-.29.41-.64.64-.2.13-.58,0-1.19-.55-.27-.24-.48-.23-.45-.24.14-.27.51-.8.9-.66.6.29.63.43.94.64ZM57.02,32.44c.13.09.31.18.44.17-.11.12-.3.41-.64.64-.2.13-.58,0-1.19-.55-.27-.24-.47-.24-.46-.24.2-.29.56-.81.91-.66.6.29.63.43.94.64ZM58.08,31.46c.13.09.32.18.44.17-.11.12-.3.41-.64.64-.2.13-.58,0-1.19-.55-.27-.24-.47-.24-.45-.24.19-.28.56-.81.91-.66.6.29.63.43.94.64ZM59.07,30.51c.13.09.31.18.44.17-.11.12-.3.41-.65.64-.2.13-.58,0-1.19-.55-.27-.24-.47-.24-.46-.24.14-.27.51-.8.9-.66.6.29.63.43.94.64ZM59.99,29.57c.13.09.31.18.44.17-.11.12-.3.41-.64.64-.2.13-.58,0-1.19-.55-.27-.24-.48-.24-.46-.24.19-.28.56-.81.9-.66.6.29.63.43.94.64ZM60.71,29.49c-.2.13-.6-.08-1.15-.55-.28-.24-.48-.23-.46-.24.25-.51.69-.84.87-.83.11.11.22.22.37.34.15.16.37.36.69.58.04.09.09.2.18.33-.1.12-.35.27-.51.37ZM67.32,45.72c-.02.11-.03.21-.03.33,0,.07-.42-.05-.5-.12-.17-.17-.29-.66-.32-1.03,0-.06-.16-.69-.29-.64.47-.06,1.01-.25,1.04.25.01.28.13.63.18.8.03.09-.05.12-.1.42ZM57.89,45.55c.02.37.18.51.16.5-.34.07-.96.2-1.11-.16-.23-.64-.16-.77-.23-1.14-.04-.16-.1-.36-.2-.44.17-.01.5-.09.91-.01.23.05.42.42.48,1.26ZM59.2,45.52c.03.37.18.51.16.5-.29.1-.92.23-1.11-.16-.23-.64-.16-.77-.23-1.15-.03-.16-.1-.36-.2-.44.16-.01.49-.09.91,0,.23.05.41.42.47,1.26ZM60.73,46.02c-.34.07-.96.2-1.11-.16-.23-.64-.15-.77-.24-1.15-.03-.16-.1-.36-.2-.44.16-.01.5-.09.91,0,.23.05.41.42.47,1.26.03.37.18.51.16.5ZM62.17,46.06c-.33.07-.96.2-1.11-.16-.23-.64-.16-.77-.24-1.14-.03-.16-.1-.36-.2-.44.16-.02.5-.09.91-.01.23.05.41.42.47,1.26.03.37.18.51.16.5ZM63.42,45.53c.03.37.18.52.16.5-.29.1-.92.22-1.11-.16-.23-.64-.16-.77-.23-1.15-.03-.16-.1-.36-.2-.44.16-.02.5-.09.91-.01.23.05.41.42.47,1.26ZM64.82,44.29c.16-.01.47-.12.88-.04.23.05.41.42.48,1.26.03.38.18.52.16.5-.34.07-.96.2-1.11-.16-.23-.64-.16-.77-.23-1.15-.04-.16-.08-.33-.18-.41ZM64.93,46.03c-.34.07-.96.2-1.11-.16-.23-.64-.16-.77-.23-1.15-.04-.16-.1-.36-.2-.44.17-.02.5-.09.91-.01.23.05.41.42.47,1.26.03.37.18.52.16.5ZM55.76,44.96c0-.05,0-.11,0-.2,0-.12.03-.29.04-.42.01-.05,0-.09.01-.14.11-.01-.09,0,.3.06.23.05.41.42.47,1.26.03.37.18.51.16.5-.61.17-.95.18-1.01.01-.02-.05,0-.09,0-.15.12-.29.13-.65.02-.92ZM47.27,55.56c.15.17.37.29.37.29-.26.24-.69.32-1.03.24-.33-.08-.74-.7-.81-.8-.07-.1-.21-.21-.21-.21.19-.13.41-.17.69-.23.28-.06.84.54,1,.71ZM48.58,55.08c.17.15.4.25.4.25-.23.27-.65.4-.99.36-.34-.04-.82-.61-.9-.7-.08-.09-.23-.19-.23-.19.17-.16.39-.22.66-.31.27-.09.9.43,1.07.58ZM49.82,54.41c.19.13.43.19.43.19-.19.3-.59.49-.93.5-.34.01-.9-.48-.99-.56-.09-.08-.26-.15-.26-.15.15-.18.35-.27.61-.39.26-.13.95.3,1.15.43ZM50.95,53.61c.21.1.46.14.46.14-.16.33-.53.57-.88.62-.35.05-.97-.38-1.07-.45-.1-.07-.28-.12-.28-.12.13-.2.32-.31.57-.47.25-.16,1,.18,1.21.29ZM51.96,52.64c.22.06.47.05.47.05-.09.34-.42.64-.74.75-.32.11-1-.2-1.11-.25-.11-.05-.29-.07-.29-.07.09-.21.26-.36.46-.56.21-.2,1,0,1.22.07ZM52.94,54.29c-.23.28-.22.48-.23.46-.54-.26-.89-.74-.83-.89.03-.06.19-.18.41-.41,0,0,.02-.02.03-.03.14-.14.29-.32.45-.59.07-.11.15-.21.22-.22.13-.02.34.33.47.53.13.19-.07.6-.52,1.15ZM53.82,55.22c-.23.27-.22.48-.22.45-.28-.18-.8-.52-.66-.87.27-.59.41-.63.61-.94.08-.13.17-.31.16-.44.12.1.4.28.63.62.13.19,0,.57-.52,1.18ZM54.75,56.1c-.23.27-.22.47-.23.45-.27-.14-.79-.48-.66-.87.27-.6.41-.63.6-.94.08-.13.17-.32.16-.44.12.1.4.28.63.62.13.19,0,.57-.51,1.18ZM55.7,57.04c-.23.27-.22.48-.23.45-.28-.18-.8-.53-.66-.87.27-.59.41-.63.61-.94.08-.13.17-.31.16-.44.12.1.4.28.63.62.12.19,0,.57-.52,1.18ZM56.66,58.06c-.23.27-.23.48-.23.45-.28-.18-.8-.52-.66-.87.27-.59.41-.63.61-.94.08-.13.17-.32.16-.44.13.1.4.28.63.62.13.19,0,.57-.51,1.18ZM57.65,59.01c-.23.27-.22.47-.23.45-.27-.13-.79-.48-.66-.87.27-.59.41-.63.61-.94.08-.13.17-.31.16-.44.12.1.4.28.63.62.13.19,0,.57-.51,1.18ZM59.3,59.54c.08-.13.16-.28.15-.4.12.1.41.24.64.58.13.19,0,.57-.51,1.18-.23.27-.22.51-.23.48-.28-.18-.8-.55-.66-.9.27-.59.41-.63.61-.94ZM58.59,59.95c-.23.27-.23.47-.23.45-.28-.18-.8-.53-.66-.87.27-.59.41-.63.61-.94.08-.13.17-.31.16-.44.12.1.4.28.63.62.13.19,0,.57-.52,1.18ZM52.87,51.56c.23.03.47,0,.47,0-.05.35-.33.69-.64.84-.31.15-1.02-.06-1.14-.1-.12-.03-.3-.03-.3-.03.06-.22.21-.39.38-.61.18-.23.99-.13,1.22-.1ZM53.66,50.43c.23.02.47-.03.47-.03-.04.35-.29.7-.6.87-.3.17-1.02-.01-1.14-.04-.12-.03-.3-.02-.3-.02.04-.22.19-.4.36-.63.17-.23.98-.17,1.21-.15ZM54.3,49.23c.23,0,.46-.09.46-.09.01.35-.2.74-.48.94-.28.2-1.02.11-1.14.09-.12-.01-.3.02-.3.02.02-.23.14-.42.28-.67.14-.25.96-.29,1.19-.3ZM54.78,47.92c.22-.02.44-.11.44-.11.03.35-.16.74-.42.96-.26.22-.98.17-1.1.16-.12,0-.29.04-.29.04,0-.23.12-.43.24-.68.12-.26.91-.34,1.14-.36ZM54.96,46.58c.21-.06.41-.19.41-.19.09.34-.02.76-.24,1.02-.21.26-.94.34-1.05.36-.12.01-.28.09-.28.09-.03-.23.03-.44.1-.71.07-.28.84-.51,1.05-.57ZM55.42,44.57c-.14.31-.81.58-.92.62-.11.05-.24.16-.24.16-.1-.21-.09-.43-.09-.71,0-.29.67-.71.86-.82.19-.11.35-.29.35-.29.18.31.18.74.04,1.05ZM55.52,45.58c-.03.15-.07.3-.14.41-.18.29-.89.46-1,.49-.12.03-.26.13-.26.13-.06-.22-.02-.44.01-.72.04-.29.77-.61.97-.69.21-.08.39-.24.39-.24,0,0,0,0,0,0,0,.02-.02.06-.02.07.03.12.05.34.05.56ZM54.84,42.42c.18-.13.32-.32.32-.32.21.29.25.72.14,1.04-.11.32-.76.64-.87.7-.11.05-.23.18-.23.18-.11-.2-.12-.42-.15-.7-.03-.29.61-.77.79-.89ZM54.39,41.11c.16-.16.28-.36.28-.36.24.26.34.68.27,1.01-.07.33-.66.74-.76.81-.1.07-.2.21-.2.21-.14-.18-.18-.4-.25-.68-.07-.28.5-.84.66-.99ZM53.87,39.82c.15-.17.24-.39.24-.39.27.23.41.64.39.98-.03.33-.58.81-.67.89-.09.08-.18.23-.18.23-.16-.17-.22-.38-.32-.65-.1-.27.4-.89.55-1.06ZM52.6,38.96c-.06.1-.1.28-.1.28-.2-.11-.33-.29-.51-.52-.18-.23.11-.97.2-1.17.09-.21.1-.44.1-.44.33.14.59.48.67.81.07.32-.3.95-.37,1.05ZM53.13,38.62c.12-.19.18-.42.18-.42.3.19.5.58.51.92.02.33-.46.88-.54.97-.08.09-.14.26-.14.26-.18-.14-.27-.35-.41-.6-.13-.26.28-.93.4-1.12ZM44.5,55.41c-.05-.11-.18-.24-.18-.24.2-.11.43-.11.71-.13.29-.02.76.64.89.83.13.19.32.34.32.34-.29.2-.73.23-1.05.1-.32-.12-.64-.79-.7-.9ZM43.19,55.42c-.04-.11-.15-.26-.15-.26.21-.08.44-.06.72-.05.29.01.69.72.8.92.11.2.28.37.29.37-.2.04-.41.07-.63.09-.15-.02-.3-.04-.43-.1-.3-.16-.55-.86-.59-.97ZM45,57.32c-.05.23-.49.38-1.22.45-.37.03-.51.18-.5.16-.21-.58-.12-1.19.04-1.25.06-.02.23,0,.51.01.38.1.8.08,1.18-.11.01,0,.03,0,.04,0,.11.08,0,.49-.05.73ZM43.2,68.27c.04-.24.12-.29.18-.34.17-.14.65-.24,1.03-.27.06,0,.69-.14.64-.24.04.22.06.65-.06.95-.23-.03-.54,0-.88.06-.05,0-.08-.01-.14-.02-.18-.02-.4.05-.56.1-.05-.02-.13-.04-.22-.08,0-.06,0-.14,0-.17ZM43.43,65.06c.64-.23.77-.16,1.14-.24.16-.04.36-.1.44-.2.02.16.09.5.01.91-.05.23-.42.41-1.25.48-.37.03-.51.18-.5.17-.07-.34-.2-.97.16-1.12ZM45.02,64.17c-.05.23-.42.42-1.25.48-.37.03-.51.18-.5.16-.1-.29-.23-.93.16-1.11.64-.23.77-.16,1.14-.24.16-.03.36-.1.44-.2.02.17.09.5.01.91ZM45.04,66.95c-.05.23-.42.41-1.25.48-.37.03-.53.2-.52.18-.07-.34-.18-.99.18-1.13.64-.23.77-.16,1.14-.24.16-.03.33-.08.41-.18.01.16.12.48.04.89ZM43.44,60.83c.64-.23.77-.16,1.14-.24.16-.03.35-.1.44-.2.02.16.09.5.01.91-.05.23-.42.41-1.25.48-.37.03-.51.18-.5.16-.07-.34-.2-.96.16-1.11ZM43.41,58.14c.64-.23.77-.16,1.14-.24.16-.03.36-.1.44-.2.02.16.09.5.01.91-.05.23-.42.42-1.25.48-.37.03-.51.18-.5.16-.07-.34-.2-.97.16-1.11ZM43.44,59.46c.64-.23.77-.16,1.14-.24.16-.03.35-.1.44-.2.02.16.09.5.01.91-.05.23-.42.42-1.25.48-.37.03-.51.18-.5.16-.1-.29-.23-.93.16-1.12ZM45.18,67.34c.23-.5.22-.84-.02-1.44.28-.45.24-1.11.03-1.45.33-.59,0-1.35-.01-1.38.31-.77-.02-1.4-.01-1.43.31-.72.02-1.44.04-1.46.28-.75-.08-.97.06-1.45.15-.55,0-1.03-.04-1.33-.02-.17.09-.46.12-.75.38.05.98,0,1.1-.34.14.05,1.23.21,1.4-.41.24.03,1.08.14,1.38-.55.36-.02.97.04,1.16-.75.44.03.98-.08,1.2-.83.27.61.71,1.03,1,1.13.11.21.42.78.98.96.24.53.48.71.98.92.12.29.31.71,1.01,1.02.1.26.38.73.97,1.02.14.26.36.74.98.92.1.18.2.62.97.95.06.19.33.7.96.99.07.2.21.35.38.52.05-.02.1-.05.15-.07-.35.19-.83.67-1.16,1.16,0,0-.11.04-.46.19-.35.15-.86.56-1.19,1.07,0,0-.99.09-1.77,1.07,0,0-.84-.08-1.83.9,0,0-.94-.1-1.94.77,0,0-.89-.23-1.93.58,0,0-.94-.25-2.04.42,0,0-.82-.36-2.05.23,0,0-.12-.04-.28-.08.14-.5.04-.84-.12-1.11ZM60.35,61.9s0,0,0,0c0,0,0,0-.05.03.02,0,.03-.03.05-.04ZM59.98,62.07s-.19-.13-.23-.18c-.14-.19-.12-.28-.11-.36.02-.21.28-.61.51-.88.04-.04.37-.56.27-.6.22.15.64.55.65.89-.13.12-.25.27-.39.45-.07.07-.14.14-.24.24-.2.22-.41.38-.47.44ZM67.1,49.47s-.56.73-.48,1.97c0,0-.6.68-.64,1.99,0,0-.72.53-.83,1.89,0,0-.66.41-.99,1.8,0,0-.82.57-1.1,1.69,0,0-.91.48-1.31,1.68,0,0-.16.06-.38.21-.25-.47-.62-.73-.91-.81-.19-.5-.43-.73-1-.98-.12-.5-.6-.93-.97-1.02-.19-.63-.93-.92-.96-.93-.32-.74-.97-.94-.99-.97-.29-.71-.97-1-.98-1.03-.32-.71-.71-.61-.96-1.03-.27-.48-.7-.71-.94-.89-.14-.1-.25-.41-.45-.64.18-.18.32-.45.33-.85.64-.28.81-.95.78-1.26.45-.21.76-.92.54-1.29.56-.33.67-1,.51-1.44.39-.36.44-.95.24-1.29.54.18.89.1,1.15-.03.23.07.87.27,1.41-.01.56.22.86.18,1.38-.04.3.13.74.29,1.48.01.26.11.81.26,1.45.04.29.09.8.28,1.38-.05.2.06.59.3,1.4,0,.18.1.75.27,1.42.02.18.09.41.09.64.09-.02.31-.02.68.08,1.2,0,0-.48.58-.3,1.96ZM66.29,37.32s-.08,1.21.58,1.97c0,0-.24.94.39,2.03,0,0-.31.91.24,2.03,0,0-.11.27-.14.68-.54-.18-.94-.08-1.21.09-.5-.23-.84-.22-1.44.02-.45-.28-1.11-.24-1.45-.03-.59-.33-1.35,0-1.38.01-.77-.31-1.4.02-1.43.01-.72-.31-1.43-.03-1.46-.04-.75-.29-.96.07-1.45-.06-.55-.15-1.03,0-1.33.04-.13.02-.25-.04-.39-.08-.01-.31-.11-.58-.3-.77.19-.5,0-1.09-.28-1.41.1-.69-.28-1.11-.52-1.35.04-.67-.22-1.08-.65-1.33,0-.36-.22-.96-.81-1.18.02-.16-.08-.37-.23-.57.4-.24.57-.53.64-.81.51-.18.75-.43,1.02-1.01.51-.12.96-.6,1.06-.98.65-.18.96-.94.98-.97.76-.32.99-.98,1.01-1,.73-.28,1.04-.98,1.07-.99.73-.32.64-.72,1.07-.96.5-.28.73-.71.92-.95.1-.12.35-.22.57-.38.2.25.51.54.98.84,0,0,.09.8,1.22,1.67,0,0,.1.97,1.06,1.74,0,0,.04,1.04.91,1.85,0,0-.09.97.74,1.91h0ZM51.26,36.11c.34.09.65.41.77.72.12.31-.18.98-.23,1.09-.05.11-.07.28-.07.28-.21-.08-.36-.25-.56-.45-.2-.2-.01-.97.05-1.19.06-.22.04-.45.04-.45ZM50.14,35.31c.35.06.69.33.84.64.15.3-.08.99-.11,1.1-.04.12-.03.29-.03.29-.22-.06-.39-.21-.61-.39-.23-.18-.12-.97-.08-1.19.04-.22,0-.46,0-.46ZM49.77,36.56c-.24-.04-.43-.18-.68-.34-.26-.16-.21-.96-.18-1.18.02-.22-.04-.45-.04-.45.38.03.76.28.94.57.18.29,0,.99-.03,1.11-.03.12-.01.29-.01.29ZM48.64,35.88c-.23-.01-.42-.12-.68-.25-.26-.13-.32-.92-.34-1.14,0-.23-.09-.41-.09-.41.36-.02.73.15.95.41.21.26.14.98.13,1.1-.01.12.03.29.03.29ZM34.76,53.89c-.28-.24-.48-.24-.46-.24.25-.49.65-.81.85-.83.09.08.18.16.28.21.09.1.21.23.39.39.12.23.36.47.62.6-.07.13-.35.29-.53.41-.2.13-.6-.07-1.15-.55ZM33.8,54.78c-.27-.24-.48-.24-.46-.24.19-.29.56-.81.91-.66.6.29.63.43.94.64.13.09.32.18.44.17-.11.12-.3.41-.64.64-.2.13-.58,0-1.19-.55ZM32.87,55.72c-.27-.24-.48-.24-.46-.24.14-.27.51-.8.9-.66.6.29.63.43.94.64.13.09.31.18.44.17-.11.12-.3.41-.64.64-.2.13-.58,0-1.19-.55ZM31.89,56.67c-.27-.24-.47-.24-.46-.24.2-.28.56-.81.9-.66.6.29.63.43.94.64.13.09.32.18.44.17-.1.13-.29.41-.64.64-.2.13-.58,0-1.19-.55ZM30.83,57.65c-.27-.24-.48-.23-.46-.24.19-.29.56-.81.91-.66.6.29.63.43.94.64.13.09.31.18.44.17-.11.13-.3.41-.64.64-.2.13-.58,0-1.19-.55ZM29.84,58.65c-.27-.24-.48-.23-.46-.24.14-.27.51-.8.91-.66.6.29.63.43.94.64.14.09.32.18.44.17-.11.12-.3.41-.64.64-.2.13-.58,0-1.19-.55ZM28.86,59.6c-.27-.24-.47-.24-.45-.24.19-.28.56-.81.9-.66.6.29.63.43.94.64.13.09.31.18.44.17-.11.12-.3.41-.65.64-.2.13-.58,0-1.19-.55ZM28.32,59.7c.6.29.63.43.94.64.13.09.28.17.4.17-.11.12-.26.41-.61.65-.2.13-.58,0-1.19-.55-.27-.25-.51-.24-.49-.24.19-.28.59-.81.94-.66ZM20.99,44.34c.23.05.42.42.48,1.26.03.38.18.52.16.5-.54.15-.88.14-1,.02.07-.35.09-.88-.19-1.56,0,0,0-.01,0-.02,0,0,.05-.11.11-.27.08,0,.09,0,.43.07ZM31.23,44.32c.28-.04.56-.13.73,0,.07.05.14.11.15.26.01.28.11.63.15.8.02.09-.04.12-.08.42-.01.11-.02.21-.02.33,0,.06-.35-.05-.41-.13-.14-.17-.24-.66-.27-1.03,0-.06-.14-.69-.24-.64ZM29.84,44.37c.17-.02.48-.12.9-.04.24.05.42.42.48,1.26.03.37.18.52.17.5-.34.07-.97.2-1.13-.16-.23-.64-.16-.77-.24-1.15-.03-.16-.08-.33-.18-.41ZM28.39,44.36c.17-.02.5-.09.92-.01.23.05.42.42.48,1.26.03.37.18.52.16.5-.34.07-.98.2-1.12-.16-.24-.64-.16-.77-.24-1.14-.04-.16-.11-.36-.2-.44ZM27.02,44.36c.16-.02.5-.09.92-.01.23.05.42.42.48,1.26.02.37.18.52.16.5-.3.1-.93.23-1.13-.16-.23-.64-.15-.77-.24-1.14-.03-.16-.1-.36-.2-.44ZM25.59,44.39c.17-.01.5-.09.92,0,.23.05.42.42.48,1.26.03.38.18.52.16.5-.34.07-.98.2-1.13-.16-.23-.64-.16-.77-.24-1.15-.04-.16-.1-.36-.2-.44ZM24.12,44.35c.17-.02.5-.09.92-.01.23.05.42.42.48,1.26.03.37.18.52.17.5-.34.07-.98.2-1.13-.16-.23-.64-.16-.77-.24-1.14-.04-.16-.1-.36-.2-.44ZM22.97,46.13c-.34.07-.98.2-1.13-.16-.23-.64-.16-.77-.24-1.15-.03-.16-.1-.36-.2-.44.17-.01.5-.09.92,0,.23.05.42.42.48,1.26.02.37.18.52.16.5ZM22.94,44.8c-.03-.16-.1-.36-.2-.44.16-.02.5-.09.92-.01.23.05.42.42.48,1.26.02.37.18.52.17.5-.3.1-.94.22-1.13-.16-.23-.64-.16-.77-.24-1.14ZM28.27,28.32c.13.2-.07.62-.53,1.19-.23.29-.23.49-.23.47-.41-.19-.71-.51-.82-.73.16-.11.33-.25.47-.44.16-.22.29-.44.39-.59.09-.16.14-.26.14-.26,0,0,.11-.04.26-.1.11.12.24.32.33.46ZM40.74,34.43c-.15-.17-.36-.28-.36-.28.26-.24.69-.33,1.02-.26.33.07.74.67.8.77.06.1.21.21.21.21-.19.14-.41.17-.68.24-.28.06-.84-.5-.99-.67ZM39.45,34.9c-.17-.15-.38-.25-.38-.25.24-.26.66-.39,1-.34.33.04.79.61.87.7.07.09.22.19.22.19-.17.15-.39.21-.66.29-.27.09-.87-.44-1.04-.59ZM38.22,35.52c-.19-.14-.42-.21-.42-.21.2-.29.59-.46.94-.45.34,0,.89.52.98.61.09.08.26.16.26.16-.15.17-.35.25-.61.36-.26.12-.95-.34-1.13-.48ZM37.09,36.36c-.21-.11-.46-.15-.46-.15.16-.32.54-.54.88-.58.35-.04.97.41,1.07.48.1.07.28.13.28.13-.13.19-.33.3-.57.45-.25.15-1-.22-1.21-.33ZM36.03,37.3c-.23-.07-.48-.08-.48-.08.05-.14.15-.27.27-.39.02-.02.05-.04.07-.07.13-.1.28-.19.44-.23.34-.09,1.02.24,1.13.3.11.05.3.08.3.08-.1.2-.27.33-.49.51-.22.18-1.02-.06-1.25-.13ZM34.68,37c.02-.23.29-.63.53-.92.03-.04.38-.58.28-.62.2.14.56.48.66.8-.34.15-.76.52-.85.82-.03.04-.05.09-.08.13-.01,0-.02,0-.03.01-.11.06-.21.13-.3.22-.03-.03-.07-.07-.09-.09-.14-.19-.12-.29-.11-.37ZM33.69,35.92c.28-.62.42-.65.63-.97.09-.14.17-.29.16-.42.13.1.42.25.66.6.13.2,0,.59-.54,1.22-.24.28-.23.52-.23.5-.29-.19-.83-.57-.68-.93ZM32.66,34.93c.28-.62.42-.65.63-.98.09-.14.18-.32.17-.45.13.1.42.29.65.64.13.2,0,.59-.53,1.22-.24.28-.23.49-.23.47-.29-.19-.83-.54-.68-.9ZM31.7,33.96c.28-.62.42-.65.63-.97.09-.14.17-.32.17-.45.13.1.41.29.65.64.13.2,0,.59-.53,1.22-.24.28-.23.49-.23.47-.28-.14-.81-.5-.68-.9ZM30.67,32.98c.28-.62.42-.65.63-.97.09-.14.17-.32.17-.45.12.11.41.29.65.64.13.2,0,.59-.53,1.22-.24.28-.23.49-.24.47-.29-.19-.83-.54-.68-.9ZM29.67,31.92c.28-.62.43-.65.63-.97.09-.14.18-.32.17-.45.13.11.41.29.65.64.13.2,0,.59-.53,1.22-.24.28-.23.49-.23.47-.29-.19-.83-.54-.68-.9ZM28.65,30.47c-.24.28-.23.49-.24.47-.29-.19-.83-.55-.68-.9.28-.62.43-.65.63-.98.09-.14.18-.32.17-.45.12.1.41.29.65.64.13.2,0,.59-.53,1.22ZM28.7,30.95c.28-.62.43-.65.63-.97.09-.14.18-.33.17-.46.12.11.41.29.65.64.13.2,0,.59-.53,1.22-.24.28-.23.49-.23.47-.28-.14-.82-.5-.68-.9ZM35.15,38.35c-.23-.04-.48,0-.48,0,.05-.35.34-.68.66-.83.32-.14,1.05.1,1.17.13.12.04.31.04.31.04-.06.22-.22.38-.4.6-.18.22-1.02.1-1.25.05ZM34.33,39.52c-.24-.02-.48.04-.48.04.02-.35.28-.71.59-.88.3-.17,1.05,0,1.17.03.12.03.31,0,.31,0-.04.23-.18.4-.35.64-.17.24-1.01.19-1.24.17ZM33.75,40.76c-.23,0-.46.08-.46.08,0-.36.21-.73.49-.93.28-.19,1-.09,1.13-.07.12.02.3-.01.3-.01-.02.23-.14.41-.28.66-.14.25-.95.27-1.18.27ZM33.29,42.04c-.23.03-.46.13-.46.13-.04-.35.14-.75.4-.98.26-.23,1.02-.2,1.14-.2.13,0,.3-.05.3-.05,0,.23-.1.43-.21.69-.12.26-.94.38-1.17.41ZM32.91,43.45c-.23.05-.36.17-.36.17-.07-.35.05-.82.29-1.07.23-.25.98-.3,1.1-.31.12,0,.29-.08.29-.08.02.23-.06.44-.14.71-.09.28-.95.53-1.17.58ZM32.71,46.89c.1-.32.76-.68.86-.74.11-.06.23-.19.23-.19.12.2.13.42.17.7.04.29-.6.8-.78.93-.18.14-.32.34-.32.34-.22-.28-.27-.71-.16-1.04ZM32.61,44c.19-.29.91-.48,1.02-.51.12-.03.27-.13.27-.13.06.22.02.45-.02.74-.04.29-.79.63-1,.72-.21.09-.4.25-.4.25-.14-.34-.07-.78.12-1.07ZM32.58,45.42c.15-.3.85-.56.97-.6.12-.04.26-.15.26-.15.08.21.07.43.06.72-.01.29-.72.69-.92.8-.2.11-.37.28-.37.28-.17-.31-.15-.74,0-1.05ZM33.6,48.9c-.17.16-.28.37-.28.37-.25-.26-.34-.68-.27-1.02.07-.33.68-.76.78-.83.1-.07.21-.22.21-.22.14.18.18.4.25.68.07.28-.51.85-.68,1.01ZM34.18,50.19c-.14.18-.23.41-.23.41-.28-.22-.42-.63-.4-.97.02-.34.57-.84.66-.92.09-.08.18-.24.18-.24.16.16.23.38.33.64.1.27-.4.91-.54,1.09ZM35.41,51.03c.06-.11.1-.28.1-.28.2.11.33.29.51.51.18.23-.11.99-.19,1.2-.09.22-.1.46-.1.46-.33-.13-.6-.48-.67-.81-.08-.33.3-.98.36-1.08ZM34.89,51.38c-.12.2-.17.43-.17.43-.31-.18-.51-.57-.53-.91-.02-.34.46-.91.53-1.01.08-.09.14-.26.14-.26.18.14.28.34.42.59.14.25-.27.96-.38,1.16ZM43.51,34.51c.05.11.18.23.18.23-.2.11-.43.11-.71.14-.29.02-.75-.62-.88-.81-.13-.18-.32-.33-.32-.33.29-.2.73-.23,1.04-.11.32.12.63.77.68.88ZM43.27,27.15c.64-.23.77-.16,1.14-.24.16-.04.35-.1.44-.2.01.16.08.5,0,.91-.05.23-.42.42-1.25.48-.37.03-.51.18-.5.17-.07-.34-.2-.97.16-1.11ZM44.88,22.2c-.05.23-.48.38-1.22.45-.37.03-.51.18-.5.16-.19-.52-.12-1.05,0-1.19.19.01.42,0,.7-.05.21,0,.44-.02.75-.09.01,0,.02,0,.04,0,.07.03.18.06.33.1.02.15-.05.44-.09.63ZM44.27,33.6c.3.15.55.83.59.94.04.11.15.25.15.25-.21.08-.43.07-.72.06-.28,0-.68-.7-.79-.89-.1-.2-.28-.36-.28-.36.32-.17.75-.15,1.05,0ZM43.08,33.13c.04-.24.12-.29.18-.34.17-.14.66-.24,1.03-.26.06,0,.69-.14.64-.24.03.23.06.71-.08,1-.17.02-.31.04-.39.08-.27-.05-.71-.26-1.36,0-.02-.07-.02-.19-.01-.23ZM43.33,31.34c.64-.23.77-.16,1.14-.24.16-.03.33-.08.41-.18.01.16.12.48.04.89-.05.23-.42.42-1.25.48-.37.03-.53.2-.52.18-.07-.34-.18-.99.18-1.13ZM43.31,29.92c.64-.23.77-.16,1.14-.24.16-.03.36-.1.44-.2.01.16.08.5,0,.91-.05.23-.41.42-1.25.48-.37.03-.51.18-.5.16-.07-.34-.2-.96.16-1.11ZM44.9,29.04c-.05.23-.42.41-1.25.47-.37.03-.51.18-.5.17-.1-.29-.23-.92.16-1.11.64-.23.77-.16,1.14-.24.16-.04.36-.1.44-.2.02.16.09.5.01.91ZM43.32,25.7c.64-.23.77-.16,1.14-.24.16-.03.35-.1.44-.19.02.16.09.5.01.91-.05.23-.42.42-1.25.48-.37.03-.51.18-.5.17-.07-.34-.2-.97.16-1.11ZM43.28,23.01c.64-.23.77-.16,1.14-.24.16-.03.36-.1.44-.2.02.16.09.5.01.91-.05.23-.41.41-1.25.48-.37.03-.51.18-.5.16-.07-.34-.2-.96.16-1.11ZM43.32,24.33c.64-.23.77-.16,1.14-.24.16-.03.35-.1.44-.2.02.16.09.5.01.91-.05.23-.42.41-1.25.48-.37.03-.51.18-.5.16-.1-.29-.23-.92.16-1.11ZM46.12,33.72c.35-.07.76.06,1.01.29.25.23.29.95.3,1.07,0,.12.08.28.08.28-.23.02-.44-.06-.71-.14-.27-.09-.46-.86-.51-1.08-.05-.22-.17-.42-.17-.42ZM46.15,34.76c.02.12.11.27.11.27-.22.05-.44,0-.72-.05-.28-.05-.56-.8-.63-1.01-.08-.21-.22-.4-.22-.4.34-.12.77-.03,1.04.17.27.2.4.91.43,1.02ZM42.93,22.82c-.07.23-.27.87,0,1.41-.22.56-.17.86.04,1.38-.13.3-.29.74-.01,1.48-.11.26-.26.8-.04,1.45-.09.29-.28.8.05,1.38-.06.2-.3.6,0,1.4-.1.18-.27.75-.02,1.42-.09.19-.1.4-.1.65-.86-.17-1.25.29-1.3.28-.61-.15-1.15.09-1.49.37-.32-.07-1.02.11-1.28.58-.33-.04-1.16.34-1.31.75-.28-.02-.86.26-1.06.7-.26-.51-.6-.68-.91-.76-.2-.52-.44-.75-1.04-1.01-.13-.51-.62-.96-1.01-1.05-.19-.65-.96-.95-.99-.97-.33-.76-1.01-.98-1.02-1-.29-.73-1-1.04-1.01-1.07-.34-.73-.74-.63-.99-1.07-.29-.5-.73-.73-.97-.92-.1-.08-.2-.28-.32-.47.32-.19.74-.52,1.11-1.17,0,0,.88-.06,1.64-1.21,0,0,.86-.07,1.75-1.04,0,0,.96.01,1.84-.93,0,0,.94.15,1.92-.75,0,0,.86.23,1.98-.57,0,0,.78.32,2-.38,0,0,.74.33,2.07-.25,0,0,.15.1.44.15-.15.53-.1.97.02,1.22ZM20.9,40.4s.53-.43.48-1.97c0,0,.59-.38.66-1.95,0,0,.72-.5.83-1.89,0,0,.7-.26.98-1.79,0,0,.79-.37,1.14-1.67,0,0,.41-.28.65-.57.24-.29.54-.74.66-1.09,0,0,.09-.05.22-.11.27.44.59.69.85.78.12.22.43.81,1.01,1,.24.55.49.74,1.01.95.12.3.32.73,1.04,1.06.11.27.39.75,1.01,1.06.14.27.37.77,1.01.95.1.19.21.64,1,.99.06.2.34.72.99,1.02.06.17.18.31.32.45-.19.24-.33.53-.33.81-.26.17-.78.63-.78,1.2-.25.05-.71,1.03-.53,1.37-.23.12-.56.68-.42,1.36-.19.12-.57.92-.26,1.49-.07.04-.12.13-.16.23-.5-.14-.85-.04-1.11.12-.5-.23-.85-.22-1.46.02-.45-.28-1.12-.24-1.46-.03-.6-.33-1.36,0-1.39.01-.77-.31-1.41.02-1.44.01-.73-.31-1.45-.03-1.48-.04-.76-.29-.98.08-1.46-.06-.56-.15-1.04,0-1.35.04-.11.02-.28-.03-.47-.08.08-.35.13-.88-.04-1.61,0,0,.52-.68.31-2.05ZM22.47,54.53s.02-1.14-.74-1.92c0,0,.09-1.2-.58-1.95,0,0,.21-1.03-.39-1.94-.14-.23.09-.36.08-.67,0-.31-.13-1.08-.32-1.48,0,0,.03-.07.07-.18.49.14.82.06,1.07-.07.24.07.88.27,1.43,0,.56.22.87.17,1.4-.04.3.13.74.3,1.5.01.27.11.81.26,1.47.04.29.09.81.28,1.39-.05.2.06.6.31,1.41,0,.18.1.76.28,1.44.02.19.09.34.1.59.1.04.16.11.29.21.38-.17.27-.07,1.3.27,1.41-.03.35.07,1.32.53,1.32-.17.44.25,1.24.68,1.27-.04.54.28,1.06.81,1.32,0,.17.08.37.21.55-.49.26-.75.59-.85.86-.22.11-.8.41-1.01.99-.54.23-.74.48-.96.99-.3.11-.73.31-1.06,1.02-.27.1-.75.38-1.06.98-.27.14-.77.36-.95.99-.19.1-.63.2-.99.98-.2.05-.72.33-1.03.97-.13.05-.26.18-.39.32-.2-.27-.52-.59-1.02-.91,0,0-.14-.86-1.22-1.64,0,0-.09-.99-1.06-1.74,0,0,.05-.84-.91-1.89ZM36.79,53.87c-.11-.02-.21-.11-.31-.17-.07-.04-.13-.09-.2-.14-.12-.12-.22-.25-.27-.4-.13-.32.15-1,.2-1.12.04-.11.06-.29.06-.29.22.08.37.24.58.44.21.2.04,1-.02,1.22-.06.23-.03.47-.03.47h0ZM37.97,54.72c-.35-.04-.7-.3-.87-.6-.16-.3.02-1.02.06-1.14.03-.12.02-.3.02-.3.23.05.4.19.63.36.23.17.17.98.14,1.21-.02.23.02.47.02.47ZM38.9,53.41c-.28-.18-.65-.33-.65-.33,0,0-.18-.23-.45-.44-.24-.18-.56-.34-.56-.34,0,0-.08-.22-.26-.42-.24-.26-.61-.51-.61-.51,0,0-.06-.21-.23-.44-.2-.27-.53-.58-.53-.58,0,0,0-.19-.13-.41-.18-.31-.48-.68-.48-.68,0,0,.02-.21-.08-.45-.14-.32-.4-.71-.4-.71,0,0,.04-.26-.02-.51-.09-.33-.3-.68-.3-.68,0,0,.08-.22.05-.49-.04-.35-.2-.77-.2-.77,0,0,.09-.22.09-.5,0-.33-.09-.74-.09-.74,0,0,.13-.22.17-.54.04-.34,0-.77,0-.77,0,0,.15-.19.21-.44.07-.33.05-.74.05-.74,0,0,.19-.16.3-.42.12-.3.17-.7.17-.7,0,0,.22-.19.36-.46.16-.3.26-.68.26-.68,0,0,.27-.19.44-.44.18-.26.27-.57.27-.57,0,0,.29-.16.49-.38.23-.25.4-.57.4-.57,0,0,.26-.08.47-.25.28-.22.52-.53.52-.53,0,0,.31-.09.54-.26.26-.19.46-.45.46-.45,0,0,.38-.03.64-.15.31-.14.5-.39.5-.39,0,0,.29.03.57-.06.33-.11.65-.34.65-.34,0,0,.27.06.53.01.33-.07.68-.26.68-.26,0,0,.31.11.61.09.32-.02.64-.18.64-.18,0,0,.25.14.54.16.35.02.75-.06.75-.06,0,0,.23.17.54.22.32.05.72,0,.72,0,0,0,.21.18.52.28.3.1.66.1.66.1,0,0,.18.22.41.33.31.14.7.18.7.18,0,0,.15.23.39.39.28.19.66.31.66.31,0,0,.15.26.38.44.28.22.64.36.64.36,0,0,.07.25.26.46.23.26.59.48.59.48,0,0,.06.29.21.49.21.28.55.49.55.49,0,0,0,.29.14.53.16.31.46.59.46.59,0,0-.02.29.07.5.13.32.39.61.39.61,0,0-.05.27,0,.51.08.35.27.7.27.7,0,0-.07.39-.02.66.06.34.23.59.23.59,0,0-.12.27-.12.54,0,.37.12.77.12.77,0,0-.13.19-.17.46-.05.34,0,.77,0,.77,0,0-.18.22-.25.49-.08.32-.04.71-.04.71,0,0-.19.21-.31.49-.12.3-.16.67-.16.67,0,0-.23.21-.37.48-.15.28-.23.63-.23.63,0,0-.24.17-.41.41-.19.26-.32.59-.32.59,0,0-.26.14-.46.36-.23.24-.4.56-.4.56,0,0-.29.1-.51.28-.26.22-.45.53-.45.53,0,0-.29.08-.53.24-.27.18-.5.44-.5.44,0,0-.34.04-.62.16-.3.14-.54.36-.54.36,0,0-.33,0-.6.09-.31.11-.56.32-.56.32,0,0-.33-.05-.61,0-.35.07-.66.24-.66.24,0,0-.3-.07-.59-.05-.32.03-.63.15-.63.15,0,0-.24-.13-.54-.15-.33-.02-.71.07-.71.07,0,0-.21-.16-.49-.21-.33-.06-.75,0-.75,0,0,0-.18-.18-.47-.28-.31-.1-.73-.11-.73-.11,0,0-.17-.18-.45-.3-.29-.13-.69-.21-.69-.21,0,0-.15-.2-.39-.36ZM38.26,53.45c.23.03.41.15.66.3.25.15.26.96.25,1.19,0,.23.07.46.07.46-.36,0-.73-.24-.92-.52-.19-.28-.07-1.01-.05-1.14.02-.12,0-.3,0-.3ZM39.34,54.05c.23,0,.43.11.69.22.26.12.36.93.38,1.16.02.23.12.45.12.45-.36.04-.75-.15-.97-.41-.22-.26-.19-1-.18-1.12,0-.12-.04-.3-.04-.3ZM42.86,70.64c-.46-.27-.8-1.35-.86-1.53-.06-.18-.22-.41-.22-.41.35-.09.7-.03,1.15.04.45.06,1.01,1.17,1.16,1.48.14.31.4.58.4.58-.5.2-1.16.11-1.63-.16ZM40.64,70.46c-.44-.31-.68-1.41-.72-1.59-.04-.18-.19-.43-.19-.43.35-.06.7.03,1.15.13.44.1.91,1.26,1.03,1.58.12.32.35.61.35.61-.51.16-1.17.01-1.61-.3ZM38.45,70.07c-.41-.34-.58-1.45-.6-1.64-.03-.19-.15-.44-.15-.44.35-.04.69.09,1.13.22.44.13.81,1.31.91,1.64.1.33.3.63.3.63-.52.12-1.17-.08-1.58-.42ZM36.26,69.49c-.38-.38-.43-1.5-.44-1.69,0-.19-.11-.45-.11-.45.36,0,.68.15,1.11.33.42.17.67,1.39.73,1.73.06.33.24.66.24.66-.53.07-1.16-.19-1.53-.57ZM34.18,68.74c-.34-.41-.3-1.53-.3-1.72,0-.19-.07-.46-.07-.46.36.02.67.21,1.07.42.41.21.56,1.44.6,1.78.03.34.18.68.18.68-.53.02-1.13-.28-1.48-.69ZM32.13,67.8c-.3-.44-.15-1.55-.12-1.74.02-.19-.03-.47-.03-.47.35.06.64.27,1.03.52.38.25.41,1.49.41,1.83s.11.69.11.69c-.53-.03-1.1-.39-1.4-.83ZM30.19,66.67c-.26-.46-.03-1.56.01-1.74.04-.18.01-.47.01-.47.35.09.62.32.98.6.36.28.29,1.51.27,1.85-.03.34.06.7.06.7-.53-.07-1.07-.48-1.33-.94ZM30.63,67.54c.55.33,1.28.52,1.28.52,0,0,.38.37.82.58.56.26,1.22.37,1.22.37,0,0,.39.36.89.53.56.2,1.25.22,1.25.22,0,0,.37.33.86.46.6.17,1.35.16,1.35.16,0,0,.35.28.79.35.63.11,1.43.04,1.43.04,0,0,.41.24.91.29.62.06,1.35-.08,1.35-.08,0,0,.44.2.97.21.59,0,1.28-.18,1.28-.18,0,0,.58.13,1.1.08.6-.06,1.16-.29,1.16-.29,0,0,.52.13,1.03.03.61-.11,1.22-.44,1.22-.44,0,0,.48.08.94-.05.62-.16,1.27-.54,1.27-.54,0,0,.56,0,1.04-.18.56-.21,1.06-.61,1.06-.61,0,0,.51,0,1-.23.54-.25,1.08-.72,1.08-.72,0,0,.5-.06.93-.31.54-.31,1.05-.83,1.05-.83,0,0,.51-.13.88-.4.53-.38.98-.92.98-.92,0,0,.49-.15.88-.47.47-.38.84-.94.84-.94,0,0,.49-.22.85-.58.45-.44.79-1.04.79-1.04,0,0,.44-.26.79-.68.38-.45.68-1.07.68-1.07,0,0,.43-.29.72-.7.35-.49.56-1.11.56-1.11,0,0,.4-.32.67-.77.32-.56.52-1.27.52-1.27,0,0,.36-.34.58-.79.26-.57.39-1.29.39-1.29,0,0,.33-.34.51-.82.18-.5.21-1.16.21-1.16,0,0,.33-.46.48-.99.17-.62.16-1.34.16-1.34,0,0,.27-.35.36-.84.11-.61.04-1.39.04-1.39,0,0,.22-.43.27-.98.05-.59-.07-1.3-.07-1.3,0,0,.19-.44.19-.91,0-.62-.19-1.31-.19-1.31,0,0,.13-.48.1-.97-.04-.56-.25-1.15-.25-1.15,0,0,.07-.65-.02-1.21-.11-.63-.39-1.19-.39-1.19,0,0,.06-.5-.08-1.03-.14-.55-.5-1.13-.5-1.13,0,0,.02-.5-.17-1.02-.2-.56-.6-1.12-.6-1.12,0,0-.01-.51-.23-.99-.25-.56-.72-1.1-.72-1.1,0,0-.06-.48-.29-.87-.32-.56-.84-1.1-.84-1.1,0,0-.14-.47-.44-.9-.38-.53-.94-1.03-.94-1.03,0,0-.05-.32-.34-.68-.4-.48-1.07-1.02-1.07-1.02,0,0-.19-.43-.57-.8-.41-.39-1-.73-1-.73-.24-.47-.59-.78-.89-.99-.3-.21-.92-.5-.92-.5,0,0-.19-.37-.59-.65-.49-.34-1.21-.6-1.21-.6-.25-.35-.5-.52-.92-.76-.41-.24-.9-.33-.98-.37-.08-.04-.38-.34-.81-.58-.43-.24-1.29-.4-1.29-.4,0,0-.36-.35-.86-.53-.57-.2-1.3-.23-1.3-.23,0,0-.31-.31-.79-.44-.59-.16-1.38-.14-1.38-.14,0,0-.38-.29-.91-.4-.61-.13-1.37-.08-1.37-.08,0,0-.51-.23-1.04-.28-.59-.05-1.19.09-1.19.09,0,0-.45-.15-.98-.15-.59,0-1.27.12-1.27.12,0,0-.56-.11-1.1-.06-.58.05-1.14.26-1.14.26,0,0-.6-.08-1.12.01-.62.11-1.17.39-1.17.39,0,0-.57-.03-1.06.1-.59.16-1.12.49-1.12.49,0,0-.6.01-1.12.21-.56.21-1.05.6-1.05.6,0,0-.48-.04-.98.19-.52.24-1.06.74-1.06.74,0,0-.48.04-.93.29-.56.31-1.11.85-1.11.85,0,0-.49.16-.9.45-.5.35-.95.85-.95.85,0,0-.44.13-.82.45-.46.38-.89.96-.89.96,0,0-.49.22-.9.63-.43.43-.77,1.04-.77,1.04,0,0-.43.25-.77.65-.35.42-.62.99-.62.99,0,0-.48.36-.8.81-.35.5-.54,1.09-.54,1.09,0,0-.41.37-.69.85-.31.53-.49,1.19-.49,1.19,0,0-.38.34-.6.81-.25.53-.35,1.18-.35,1.18,0,0-.34.41-.53.91-.2.54-.25,1.18-.25,1.18,0,0-.33.46-.46.98-.15.59-.12,1.25-.12,1.25,0,0-.29.44-.39.99-.11.57-.05,1.26-.05,1.26,0,0-.22.52-.27,1.07-.05.56.07,1.14.07,1.14,0,0-.16.59-.16,1.17,0,.59.15,1.17.15,1.17,0,0-.14.56-.08,1.12.05.58.3,1.16.3,1.16,0,0-.1.51-.01,1.04.1.58.4,1.19.4,1.19,0,0-.03.58.1,1.08.16.57.48,1.06.48,1.06,0,0-.02.57.15,1.06.21.61.62,1.16.62,1.16,0,0,0,.5.22.94.26.56.74,1.1.74,1.1,0,0,.04.49.29.93.31.55.84,1.07.84,1.07,0,0,.09.51.39.92.35.48.89.88.89.88,0,0,.13.48.44.85.42.51,1.05.96,1.05.96,0,0,.15.39.48.72.44.44,1.1.84,1.1.84,0,0,.21.4.59.71.49.4,1.19.74,1.19.74,0,0,.28.43.67.7.49.34,1.11.53,1.11.53,0,0,.31.43.77.71ZM35.58,74.84l.47.79.8-.35-.66,3.15,1.05.2.91-4.18-.88-.2-1.69.59ZM30.11,74.82l3.33,1.32.39-1.08-3.31-1.28-.41,1.03ZM86.83,46.58c-.44.76-2.23,1.33-2.52,1.43-.29.09-.67.37-.67.37-.18-.55-.09-1.11-.01-1.84.07-.73,1.91-1.69,2.43-1.94.53-.26.97-.69.97-.69.37.81.24,1.91-.2,2.68ZM86.53,50.29c-.52.72-2.38,1.15-2.7,1.22-.31.07-.72.32-.72.32-.11-.58.04-1.15.21-1.88.16-.73,2.12-1.51,2.66-1.71.55-.2,1.03-.58,1.03-.58.28.83.04,1.91-.48,2.64ZM85.94,53.94c-.56.69-2.45,1-2.77,1.05-.32.05-.74.27-.74.27-.08-.58.12-1.14.32-1.86.21-.72,2.21-1.38,2.77-1.54.56-.17,1.06-.52,1.06-.52.23.85-.08,1.91-.64,2.6h0ZM84.97,57.53c-.63.62-2.55.73-2.86.75-.32.02-.77.19-.77.19-.01-.59.24-1.12.53-1.81.29-.69,2.35-1.13,2.92-1.24.57-.11,1.11-.4,1.11-.4.13.87-.29,1.89-.92,2.52ZM83.66,61.12c-.68.58-2.59.55-2.91.55-.32,0-.78.14-.78.14.03-.59.32-1.1.65-1.77.33-.67,2.42-.97,3-1.04.58-.07,1.14-.32,1.14-.32.07.87-.42,1.87-1.1,2.45ZM82.1,64.49c-.73.51-2.63.3-2.95.27-.32-.04-.79.06-.79.06.08-.58.42-1.07.82-1.7.4-.64,2.5-.74,3.09-.75.58-.01,1.16-.21,1.16-.21,0,.88-.6,1.82-1.33,2.33ZM80.27,67.76c-.76.47-2.65.14-2.96.08-.31-.05-.79.01-.79.01.12-.58.49-1.04.93-1.65.44-.61,2.55-.58,3.13-.55.58.02,1.18-.14,1.18-.14-.07.87-.72,1.78-1.48,2.24h0ZM78.08,70.86c-.8.39-2.65-.13-2.95-.22-.31-.09-.79-.07-.79-.07.18-.56.6-.98,1.1-1.55.5-.56,2.59-.32,3.17-.23.58.08,1.19-.02,1.19-.02-.16.86-.9,1.7-1.71,2.08ZM75.72,73.74c-.83.32-2.63-.35-2.93-.46-.3-.11-.78-.13-.78-.13.23-.54.68-.93,1.22-1.45.54-.52,2.61-.1,3.18.03.57.13,1.18.08,1.18.08-.23.85-1.04,1.62-1.88,1.93ZM73.07,76.36c-.86.24-2.58-.59-2.87-.72-.29-.14-.77-.2-.77-.2.28-.52.76-.86,1.35-1.33.59-.47,2.61.14,3.16.32.55.18,1.17.19,1.17.19-.31.82-1.18,1.51-2.04,1.75ZM70.17,78.81c-.88.16-2.52-.82-2.79-.98-.28-.16-.75-.27-.75-.27.32-.49.84-.79,1.47-1.2.63-.42,2.58.37,3.12.6.53.23,1.15.29,1.15.29-.38.79-1.32,1.4-2.2,1.56ZM67.1,80.93c-.89.09-2.43-1.02-2.68-1.2-.25-.18-.71-.33-.71-.33.37-.47.92-.72,1.59-1.08.67-.36,2.54.58,3.05.85.51.27,1.12.38,1.12.38-.46.76-1.46,1.29-2.35,1.38ZM63.88,82.81c-.9,0-2.31-1.27-2.54-1.48-.23-.21-.67-.4-.67-.4.42-.42.99-.62,1.7-.91.71-.29,2.46.84,2.94,1.17.47.33,1.07.5,1.07.5-.54.7-1.59,1.13-2.49,1.13ZM60.48,84.43c-.88-.07-2.19-1.44-2.4-1.66-.22-.23-.64-.45-.64-.45.44-.39,1.02-.54,1.73-.78.71-.23,2.37,1.02,2.82,1.38.45.36,1.02.58,1.02.58-.58.66-1.64,1.01-2.52.94ZM56.98,85.72c-.89-.14-2.08-1.61-2.27-1.85-.2-.25-.6-.51-.6-.51.48-.35,1.08-.46,1.82-.63.74-.17,2.29,1.21,2.71,1.61.42.39.98.66.98.66-.65.61-1.75.87-2.63.72ZM53.35,86.73c-.87-.24-1.89-1.82-2.05-2.09-.17-.26-.54-.57-.54-.57.52-.3,1.12-.34,1.88-.43.75-.1,2.15,1.45,2.52,1.89.37.44.9.76.9.76-.71.54-1.84.68-2.7.44ZM49.67,87.43c-.84-.31-1.71-1.98-1.86-2.26-.15-.28-.49-.61-.49-.61.55-.25,1.15-.24,1.91-.27.76-.03,2.01,1.64,2.34,2.1.33.47.83.83.83.83-.75.47-1.89.51-2.73.2ZM45.9,87.77c-.81-.38-1.53-2.12-1.65-2.41-.12-.29-.44-.65-.44-.65.56-.2,1.17-.14,1.93-.1.76.04,1.86,1.81,2.14,2.3.29.5.75.9.75.9-.79.41-1.92.35-2.73-.04ZM42.14,87.77c-.77-.45-1.34-2.25-1.44-2.54-.09-.3-.38-.68-.38-.68.58-.16,1.17-.04,1.93.06.76.1,1.69,1.96,1.93,2.47.25.52.67.96.67.96-.83.33-1.95.18-2.72-.27ZM38.43,87.47c-.73-.52-1.14-2.35-1.21-2.66-.07-.3-.32-.71-.32-.71.59-.1,1.17.06,1.92.23.74.17,1.52,2.09,1.72,2.63.2.54.58,1.02.58,1.02-.85.26-1.96.01-2.69-.5ZM34.77,86.81c-.69-.57-.96-2.43-1.01-2.74-.05-.31-.26-.74-.26-.74.6-.06,1.17.14,1.89.36.73.22,1.35,2.2,1.52,2.75.16.55.5,1.06.5,1.06-.87.2-1.95-.13-2.64-.69ZM31.1,85.84c-.63-.64-.71-2.51-.73-2.82-.01-.31-.19-.76-.19-.76.6,0,1.14.26,1.85.55.71.29,1.13,2.32,1.23,2.88.1.56.4,1.1.4,1.1-.89.11-1.93-.32-2.56-.95ZM27.62,84.58c-.58-.68-.51-2.56-.5-2.87.01-.31-.13-.77-.13-.77.6.05,1.12.35,1.8.7.68.35.94,2.4.99,2.97.06.57.31,1.13.31,1.13-.89.05-1.9-.47-2.48-1.15ZM23.66,78.41s-1.07-1.5-2.84-1.83c0,0-.63-1.37-2.72-2.13,0,0-.43-1.49-2.45-2.29,0,0-.21-1.31-2.29-2.64,0,0-.24-1.44-2.03-2.73,0,0-.14-1.64-1.77-2.9,0,0,.09-1.4-1.52-3.14,0,0,.03-1.89-1.23-3.18,0,0,.14-1.99-.97-3.25,0,0,.35-1.71-.66-3.22-.24-.39.14-.6.13-1.11-.01-.52-.21-1.8-.53-2.46,0,0,.74-1.33-.09-3.38,0,0,.77-1.16.24-3.47,0,0,.86-1.13.51-3.4,0,0,.89-.71.8-3.27,0,0,.98-.62,1.1-3.23,0,0,1.2-.83,1.37-3.15,0,0,1.17-.44,1.63-2.98,0,0,1.32-.61,1.9-2.77,0,0,.68-.46,1.07-.94.39-.48.9-1.24,1.1-1.81,0,0,.89-.37,1.44-1.11.55-.74.88-1.41.88-1.41,0,0,1.52-.31,2.63-2.29,0,0,1.47-.1,2.74-2,0,0,1.44-.12,2.91-1.74,0,0,1.6.03,3.06-1.54,0,0,1.57.25,3.2-1.24,0,0,1.43.38,3.3-.96,0,0,1.3.53,3.33-.63,0,0,1.23.54,3.44-.41,0,0,1.03.75,3.44-.05,0,0,1.38.76,3.36.22,0,0,1.05.83,3.37.52,0,0,1.02,1.05,3.38.8,0,0,.63,1.01,3.25,1.07,0,0,.5,1.04,3.09,1.36,0,0,.59,1.16,3.04,1.64,0,0,.52,1.18,2.81,1.85,0,0,.39,1.2,2.61,2.12,0,0,.59,1.47,2.47,2.33,0,0,.16,1.23,2.29,2.59,0,0,.14,1.33,2.03,2.77,0,0,.17,1.62,1.77,2.88,0,0,.06,1.72,1.52,3.07,0,0-.16,1.62,1.23,3.18,0,0-.13,2.01.97,3.27,0,0-.39,1.55.66,3.37,0,0-.51,1.51.39,3.37,0,0-.67,1.51.09,3.44,0,0-.74.92-.26,3.49,0,0-.8.97-.5,3.26,0,0-.93,1.22-.8,3.26,0,0-1.01,1.14-1.07,3.31,0,0-1.19.88-1.39,3.13,0,0-1.1.68-1.65,3,0,0-1.36.94-1.83,2.81,0,0-1.51.79-2.19,2.78,0,0-1.3.39-2.31,2.36,0,0,0,.04-.58.32-.58.28-1.45,1.14-2.03,1.99,0,0-.18.07-.77.31-.59.25-1.43.92-1.98,1.77,0,0-1.65.14-2.95,1.79,0,0-1.39-.13-3.05,1.5,0,0-1.57-.15-3.22,1.28,0,0-1.48-.38-3.21.96,0,0-1.57-.41-3.39.7,0,0-1.38-.6-3.42.37,0,0-1.35-.67-3.4.08,0,0-1.3-.79-3.42-.21,0,0-1.02-.85-3.38-.48,0,0-.84-.97-3.34-.83,0,0-.97-1.15-3.25-1.09,0,0-.89-1.22-3.02-1.39,0,0-1.02-1.36-3.04-1.67ZM24.2,83.02c-.51-.73-.25-2.6-.21-2.91.04-.31-.05-.78-.05-.78.59.11,1.08.45,1.72.86.64.41.7,2.48.7,3.05s.19,1.15.19,1.15c-.89-.04-1.84-.65-2.35-1.39ZM20.96,81.13c-.45-.77-.05-2.61.02-2.91.07-.31.02-.78.02-.78.58.15,1.04.53,1.64,1,.61.46.5,2.52.45,3.1-.05.57.1,1.16.1,1.16-.89-.11-1.79-.79-2.23-1.56h0ZM20.01,80.77c-.88-.18-1.72-.93-2.1-1.74-.38-.8.17-2.6.26-2.9.09-.3.08-.78.08-.78.57.2.99.62,1.56,1.12.56.5.28,2.56.2,3.12-.1.57,0,1.17,0,1.17ZM17.06,77.3c-.13.57-.08,1.19-.08,1.19-.83-.22-1.59-1.02-1.9-1.85-.3-.82.35-2.57.46-2.85.11-.29.13-.75.13-.75.52.21.89.63,1.4,1.15.5.51.11,2.55-.02,3.11ZM14.31,74.86c-.18.55-.19,1.17-.19,1.17-.81-.3-1.49-1.16-1.71-2.01-.22-.84.6-2.52.74-2.8.14-.28.2-.74.2-.74.5.26.83.71,1.28,1.27.45.56-.14,2.55-.32,3.1ZM11.49,73.36c-.78-.38-1.36-1.31-1.5-2.17-.14-.86.85-2.45,1.01-2.71.16-.26.27-.71.27-.71.47.3.76.79,1.15,1.39.4.6-.39,2.52-.62,3.05-.23.53-.3,1.15-.3,1.15ZM9.54,69.26c-.28.51-.39,1.13-.39,1.13-.74-.44-1.26-1.41-1.33-2.28-.07-.87,1.04-2.38,1.22-2.62.18-.25.33-.69.33-.69.45.34.69.85,1.03,1.48.35.63-.59,2.48-.86,2.99h0ZM7.56,66.13c-.32.49-.48,1.09-.48,1.09-.71-.5-1.14-1.5-1.13-2.38,0-.87,1.23-2.29,1.43-2.52.2-.23.38-.66.38-.66.42.37.62.9.91,1.55.29.66-.79,2.43-1.11,2.92h0ZM5.28,63.93c-.66-.56-.99-1.6-.9-2.47.08-.87,1.45-2.16,1.67-2.38.22-.21.45-.62.45-.62.38.41.53.95.76,1.63.23.68-1.02,2.35-1.38,2.8-.36.46-.59,1.04-.59,1.04ZM3.73,60.48c-.6-.61-.85-1.68-.69-2.54.16-.86,1.62-2.03,1.86-2.23.24-.19.5-.58.5-.58.34.44.45.99.61,1.69.17.7-1.21,2.25-1.61,2.67-.4.43-.67.99-.67.99ZM2.08,54.33c.24-.84,1.81-1.87,2.07-2.04.26-.17.55-.53.55-.53.3.47.35,1.03.45,1.74.1.71-1.43,2.13-1.86,2.51-.44.39-.77.92-.77.92-.54-.66-.68-1.75-.44-2.59ZM1.43,50.68c.3-.82,1.93-1.75,2.2-1.91.27-.15.59-.49.59-.49.27.49.28,1.05.33,1.77.05.72-1.56,2.03-2.03,2.38-.47.36-.83.87-.83.87-.5-.7-.56-1.79-.27-2.62ZM1.09,49.6c-.43-.74-.38-1.84,0-2.63.38-.79,2.1-1.55,2.38-1.68.28-.12.63-.43.63-.43.21.51.17,1.07.15,1.79-.02.72-1.76,1.86-2.26,2.17-.5.31-.91.78-.91.78ZM1.06,43.22c.44-.75,2.22-1.38,2.51-1.48.29-.1.67-.38.67-.38.17.53.08,1.08,0,1.8-.08.71-1.91,1.71-2.43,1.98-.52.27-.97.71-.97.71-.36-.78-.23-1.86.22-2.62ZM1.39,39.47c.5-.72,2.32-1.2,2.62-1.28.3-.08.7-.33.7-.33.13.54,0,1.09-.14,1.79-.13.71-2.04,1.56-2.58,1.79-.54.23-1.02.63-1.02.63-.3-.8-.08-1.88.43-2.6ZM1.97,35.8c.55-.68,2.41-1.01,2.72-1.07.31-.06.72-.27.72-.27.09.55-.09,1.08-.28,1.77-.19.7-2.16,1.4-2.72,1.58-.56.18-1.07.55-1.07.55-.23-.82.07-1.88.63-2.56ZM2.98,32.11c.64-.6,2.52-.71,2.83-.73.31-.02.74-.18.74-.18.02.56-.23,1.06-.5,1.72-.28.67-2.32,1.12-2.89,1.23-.58.11-1.13.41-1.13.41-.13-.85.31-1.85.95-2.46ZM4.25,28.66c.68-.56,2.56-.54,2.88-.54.31,0,.76-.13.76-.13-.02.56-.3,1.05-.62,1.69-.32.65-2.39.97-2.97,1.04-.58.08-1.16.33-1.16.33-.07-.85.43-1.83,1.11-2.39ZM5.78,25.24c.73-.49,2.61-.29,2.91-.26.31.03.77-.06.77-.06-.07.55-.4,1.01-.78,1.62-.38.61-2.47.73-3.06.74-.59.02-1.19.22-1.19.22.02-.86.62-1.78,1.35-2.27ZM7.66,21.98c.77-.43,2.62-.09,2.93-.03.31.06.77,0,.77,0-.12.54-.48.98-.91,1.56-.43.58-2.52.54-3.11.51-.59-.03-1.2.13-1.2.13.08-.85.75-1.73,1.52-2.16ZM9.8,18.93c.8-.37,2.62.13,2.92.21.3.08.77.07.77.07-.17.53-.56.93-1.04,1.47-.48.54-2.56.33-3.14.25-.58-.08-1.2.03-1.2.03.15-.84.89-1.65,1.7-2.03h0ZM12.21,16.02c.83-.3,2.6.35,2.89.46.29.11.76.13.76.13-.21.51-.64.88-1.16,1.38-.52.5-2.58.1-3.15-.02-.58-.13-1.2-.08-1.2-.08.23-.83,1.04-1.57,1.87-1.87ZM14.81,13.37c.85-.22,2.55.6,2.83.73.28.14.74.2.74.2-.26.49-.72.82-1.29,1.26-.57.45-2.58-.14-3.14-.32-.56-.18-1.19-.19-1.19-.19.3-.8,1.18-1.47,2.04-1.69ZM17.72,10.94c.87-.14,2.49.82,2.75.98.27.16.72.27.72.27-.3.47-.8.75-1.4,1.15-.61.39-2.56-.37-3.09-.59-.54-.23-1.17-.29-1.17-.29.38-.77,1.31-1.36,2.19-1.5ZM20.8,8.8c.88-.07,2.4,1.03,2.65,1.22.25.18.7.33.7.33-.35.44-.86.68-1.5,1.01-.64.34-2.51-.59-3.03-.86-.52-.27-1.14-.39-1.14-.39.44-.73,1.43-1.24,2.31-1.3h0ZM24.04,6.94c.88.02,2.29,1.26,2.52,1.47.23.2.66.39.66.39-.38.41-.92.59-1.59.87-.67.28-2.44-.83-2.93-1.15-.49-.32-1.09-.5-1.09-.5.51-.69,1.54-1.1,2.43-1.07ZM27.38,5.27c.88.07,2.19,1.44,2.4,1.67.22.23.63.44.63.44-.41.4-.96.56-1.65.8-.69.25-2.37-1-2.83-1.37-.47-.37-1.05-.58-1.05-.58.56-.68,1.62-1.04,2.5-.97ZM31.03,4.01c.87.17,2.01,1.67,2.2,1.91.19.25.57.51.57.51-.47.35-1.04.45-1.75.62-.72.17-2.25-1.25-2.67-1.66-.42-.41-.98-.69-.98-.69.65-.62,1.75-.86,2.63-.69ZM34.59,3.02c.85.22,1.89,1.8,2.06,2.06.17.26.54.55.54.55-.49.32-1.06.38-1.79.5-.73.12-2.16-1.4-2.55-1.84-.39-.44-.93-.76-.93-.76.69-.57,1.81-.74,2.67-.51ZM38.32,2.34c.83.3,1.71,1.97,1.86,2.24.14.27.48.59.48.59-.51.27-1.09.28-1.83.33-.74.05-2.02-1.59-2.36-2.06-.35-.47-.85-.84-.85-.84.74-.5,1.87-.57,2.71-.26ZM42.01,1.99c.8.37,1.53,2.11,1.65,2.39.12.28.43.63.43.63-.54.23-1.11.18-1.85.17-.74,0-1.87-1.76-2.17-2.26-.3-.5-.78-.91-.78-.91.78-.44,1.91-.41,2.72-.03ZM45.79,2.03c.76.45,1.31,2.22,1.4,2.51.09.29.36.66.36.66-.56.16-1.13.05-1.86-.04-.74-.09-1.68-1.92-1.92-2.44-.25-.52-.68-.98-.68-.98.82-.34,1.94-.17,2.71.28ZM49.49,2.35c.72.5,1.13,2.32,1.2,2.61.07.3.31.69.31.69-.57.12-1.13-.02-1.85-.16-.73-.14-1.53-2.04-1.73-2.58-.21-.54-.6-1.02-.6-1.02.85-.29,1.95-.06,2.68.45ZM53.18,2.99c.67.57.91,2.41.95,2.72.04.3.24.71.24.71-.58.07-1.12-.12-1.83-.33-.71-.21-1.32-2.17-1.48-2.73-.16-.56-.5-1.07-.5-1.07.87-.21,1.95.12,2.62.69ZM56.83,3.98c.61.63.66,2.49.67,2.8,0,.31.16.74.16.74-.58.01-1.1-.23-1.78-.51-.69-.28-1.1-2.29-1.2-2.86-.1-.57-.39-1.12-.39-1.12.89-.12,1.93.32,2.54.95ZM60.31,5.21c.56.68.45,2.53.43,2.84-.02.3.11.75.11.75-.58-.03-1.08-.32-1.74-.65-.66-.33-.9-2.37-.95-2.95-.05-.58-.3-1.15-.3-1.15.9-.05,1.89.47,2.45,1.16ZM63.7,6.8c.5.72.25,2.56.21,2.86-.04.3.05.75.05.75-.58-.08-1.05-.4-1.68-.78-.64-.38-.71-2.44-.72-3.01,0-.58-.21-1.16-.21-1.16.9.02,1.85.61,2.36,1.34ZM67,8.64c.43.76,0,2.57-.06,2.87-.07.3-.03.76-.03.76-.57-.13-1.01-.5-1.6-.94-.6-.44-.48-2.49-.43-3.07.05-.58-.1-1.18-.1-1.18.89.11,1.78.79,2.22,1.55ZM67.94,9.03c.88.17,1.72.92,2.09,1.72.37.79-.19,2.56-.29,2.86-.09.29-.08.75-.08.75-.55-.17-.97-.57-1.52-1.05-.56-.48-.28-2.52-.19-3.09.09-.57,0-1.18,0-1.18ZM70.9,12.39c.15-.56.11-1.18.11-1.18.86.26,1.62,1.08,1.91,1.91.29.83-.45,2.54-.56,2.82-.12.28-.16.74-.16.74-.53-.23-.91-.66-1.41-1.19-.51-.53-.04-2.54.11-3.09ZM73.58,14.86c.19-.55.21-1.16.21-1.16.84.32,1.53,1.2,1.75,2.05.22.84-.65,2.49-.79,2.76-.14.27-.22.73-.22.73-.51-.27-.85-.74-1.31-1.3-.46-.57.17-2.53.36-3.07ZM76.37,16.42c.81.39,1.43,1.32,1.58,2.19.15.86-.85,2.43-1.01,2.69-.17.26-.27.71-.27.71-.49-.31-.79-.8-1.2-1.4-.42-.61.37-2.51.61-3.04.24-.53.3-1.15.3-1.15ZM78.36,20.45c.29-.5.42-1.11.42-1.11.76.47,1.28,1.46,1.35,2.34.06.87-1.1,2.33-1.29,2.57-.19.24-.35.67-.35.67-.45-.36-.7-.88-1.05-1.52-.35-.65.63-2.46.92-2.96ZM80.34,23.48c.33-.48.51-1.07.51-1.07.72.53,1.16,1.56,1.14,2.44,0,.87-1.29,2.24-1.5,2.46-.21.22-.4.64-.4.64-.42-.4-.62-.93-.92-1.6-.3-.67.83-2.4,1.17-2.87ZM82.63,25.76c.68.59,1.02,1.65.94,2.52-.08.87-1.47,2.12-1.7,2.33-.23.21-.45.61-.45.61-.39-.43-.55-.98-.78-1.67-.24-.7,1.04-2.32,1.41-2.77.37-.45.6-1.02.6-1.02h0ZM84.13,29.18c.64.63.91,1.71.77,2.58-.14.86-1.6,2.03-1.84,2.22-.24.19-.49.58-.49.58-.36-.45-.48-1.01-.67-1.71-.19-.71,1.18-2.25,1.58-2.67.4-.42.66-.98.66-.98ZM85.86,35.42c-.23.84-1.8,1.86-2.06,2.02-.26.17-.55.53-.55.53-.32-.48-.38-1.05-.5-1.77-.12-.72,1.4-2.12,1.84-2.5.44-.38.76-.91.76-.91.57.69.74,1.79.51,2.64ZM86.49,39.06c-.3.82-1.96,1.69-2.24,1.83-.27.14-.59.48-.59.48-.27-.51-.28-1.08-.34-1.81-.05-.73,1.59-1.99,2.06-2.33.47-.34.84-.84.84-.84.51.73.57,1.85.27,2.67ZM86.81,40.14c.44.77.4,1.89.03,2.69-.37.79-2.11,1.51-2.39,1.63-.28.12-.64.42-.64.42-.22-.53-.18-1.1-.17-1.83.01-.73,1.76-1.85,2.26-2.14.5-.3.91-.77.91-.77ZM87.99,45.26c0-1.04-.32-2.2-.32-2.2,0,0,.22-.8.16-1.62-.07-.94-.42-1.93-.42-1.93,0,0,.13-1.1-.03-2.04-.18-1.07-.65-2-.65-2,0,0,.11-.84-.13-1.73-.25-.92-.84-1.89-.84-1.89,0,0,.02-.85-.29-1.71-.33-.93-1.01-1.88-1.01-1.88,0,0-.02-.86-.39-1.67-.42-.94-1.2-1.84-1.2-1.84,0,0-.1-.81-.48-1.47-.54-.95-1.41-1.85-1.41-1.85,0,0-.22-.79-.74-1.52-.63-.88-1.58-1.74-1.58-1.74,0,0-.09-.54-.58-1.13-.66-.8-1.79-1.72-1.79-1.72,0,0-.33-.72-.97-1.34-.68-.66-1.68-1.23-1.68-1.23-.4-.79-.99-1.32-1.49-1.67-.5-.35-1.54-.83-1.54-.83,0,0-.32-.62-.99-1.09-.82-.57-2.03-1.01-2.03-1.01-.42-.58-.84-.87-1.54-1.28-.7-.41-1.52-.55-1.64-.62-.13-.06-.64-.58-1.36-.97-.72-.4-2.17-.68-2.17-.68,0,0-.61-.59-1.45-.89-.96-.34-2.17-.39-2.17-.39,0,0-.52-.52-1.33-.73-.99-.26-2.31-.23-2.31-.23,0,0-.64-.49-1.53-.67-1.02-.21-2.31-.13-2.31-.13,0,0-.86-.4-1.75-.47-.98-.08-2,.16-2,.16,0,0-.75-.25-1.64-.26-.99-.01-2.14.21-2.14.21,0,0-.94-.18-1.83-.1-.98.09-1.91.44-1.91.44,0,0-1.01-.13-1.88.02-1.04.18-1.96.66-1.96.66,0,0-.95-.06-1.78.17-.99.27-1.88.82-1.88.82,0,0-1,.02-1.88.35-.94.35-1.76,1.01-1.76,1.01,0,0-.81-.06-1.64.31-.88.4-1.77,1.24-1.77,1.24,0,0-.81.07-1.56.48-.94.53-1.86,1.42-1.86,1.42,0,0-.81.27-1.51.76-.84.59-1.6,1.42-1.6,1.42,0,0-.73.22-1.38.76-.77.63-1.49,1.6-1.49,1.6,0,0-.83.38-1.52,1.06-.72.72-1.29,1.75-1.29,1.75,0,0-.72.42-1.29,1.09-.59.7-1.04,1.66-1.04,1.66,0,0-.81.6-1.35,1.36-.59.83-.91,1.83-.91,1.83,0,0-.69.62-1.16,1.43-.52.9-.82,2.01-.82,2.01,0,0-.63.58-1.01,1.36-.42.88-.59,1.98-.59,1.98,0,0-.57.69-.89,1.53-.34.92-.42,1.98-.42,1.98,0,0-.54.77-.77,1.64-.26.98-.2,2.1-.2,2.1,0,0-.48.73-.66,1.66-.19.96-.08,2.12-.08,2.12,0,0-.37.87-.45,1.79-.09.94.11,1.92.11,1.92,0,0-.27,1-.28,1.97,0,.99.25,1.96.25,1.96,0,0-.23.94-.14,1.88.09.97.5,1.95.5,1.95,0,0-.18.85-.03,1.75.17.97.67,2,.67,2,0,0-.05.98.17,1.81.26.96.8,1.79.8,1.79,0,0-.02.96.27,1.78.36,1.02,1.05,1.95,1.05,1.95,0,0,.01.83.36,1.58.44.94,1.24,1.85,1.24,1.85,0,0,.07.83.48,1.57.52.93,1.41,1.81,1.41,1.81,0,0,.16.85.65,1.54.58.81,1.5,1.48,1.5,1.48,0,0,.22.8.73,1.42.7.86,1.77,1.61,1.77,1.61,0,0,.25.66.8,1.22.74.74,1.85,1.42,1.85,1.42,0,0,.35.67.99,1.2.82.67,1.99,1.24,1.99,1.24,0,0,.47.72,1.12,1.17.83.57,1.87.9,1.87.9,0,0,.52.73,1.29,1.19.93.56,2.15.87,2.15.87,0,0,.63.62,1.38.97.94.44,2.06.62,2.06.62,0,0,.65.6,1.5.89.95.34,2.1.38,2.1.38,0,0,.62.54,1.44.77,1.01.28,2.26.27,2.26.27,0,0,.58.46,1.33.59,1.06.19,2.4.06,2.4.06,0,0,.69.41,1.53.48,1.04.1,2.26-.13,2.26-.13,0,0,.74.34,1.63.35.99.01,2.14-.3,2.14-.3,0,0,.97.21,1.85.13,1.01-.09,1.95-.48,1.95-.48,0,0,.87.21,1.72.05,1.02-.18,2.06-.74,2.06-.74,0,0,.8.13,1.57-.07,1.04-.28,2.13-.92,2.13-.92,0,0,.94,0,1.75-.3.94-.35,1.78-1.02,1.78-1.02,0,0,.85,0,1.67-.39.91-.42,1.81-1.22,1.81-1.22,0,0,.83-.1,1.57-.52.91-.53,1.76-1.4,1.76-1.4,0,0,.85-.22,1.48-.67.89-.63,1.65-1.55,1.65-1.55,0,0,.83-.26,1.48-.79.79-.64,1.42-1.57,1.42-1.57,0,0,.82-.37,1.43-.97.75-.74,1.31-1.75,1.31-1.75,0,0,.74-.43,1.33-1.13.64-.76,1.14-1.8,1.14-1.8,0,0,.72-.49,1.2-1.17.58-.82.94-1.87.94-1.87,0,0,.68-.53,1.12-1.3.55-.94.88-2.14.88-2.14,0,0,.61-.56.97-1.33.44-.96.65-2.16.65-2.16,0,0,.56-.57.86-1.38.31-.85.35-1.95.35-1.95,0,0,.56-.77.8-1.67.29-1.05.27-2.25.27-2.25,0,0,.46-.58.61-1.4.19-1.03.07-2.34.07-2.34,0,0,.37-.72.45-1.65.09-.99-.11-2.18-.11-2.18,0,0,.31-.73.31-1.53Z"/>
</svg>