<?xml version="1.0" encoding="UTF-8"?>
<svg xmlns="http://www.w3.org/2000/svg" version="1.1" viewBox="0 0 170.1 170.1">
  <defs>
    <style>
      .cls-1 {
        stroke: #efb134;
      }

      .cls-1, .cls-2 {
        display: none;
        fill: none;
        stroke-miterlimit: 10;
        stroke-width: .5px;
      }

      .cls-2 {
        stroke: #f8b62d;
      }

      .cls-3 {
        fill: #ffffff;
      }

      .cls-4 {
        fill: #9e3ffd;
      }
    </style>
  </defs>
  <g>
    <g id="_图层_1" data-name="图层_1">
      <path class="cls-4" d="M141.7,170.1H28.4c-15.7,0-28.4-12.7-28.4-28.4V28.3C0,12.7,12.7,0,28.4,0h113.4C157.4,0,170.1,12.7,170.1,28.3v113.4c0,15.6-12.7,28.3-28.4,28.3h0Z"/>
      <path class="cls-2" d="M1465.3-351.4c4.5-2,9.9-3.2,16.4-3.2h20.8c39.4-.2,39.7,43.5,39.7,43.5h-21.2c-1.5-22.5-23.2-22-23.2-22h-11.2s-10,.1-17.5,8.7"/>
      <g>
        <path class="cls-3" d="M104.1,79.8v18.4h10.6c4.2,0,7.7-3.4,7.7-7.7v-18.4h-10.6c-4.2,0-7.7,3.4-7.7,7.7Z"/>
        <path class="cls-3" d="M40.7,77.1h18c23.4,0,30.3-18.6,32.4-29.2h-18.9c-4.7,10.9-17.3,11-17.3,11h-10s-11,.2-17.7-11H8.3c2.1,10.6,9,29.2,32.4,29.2Z"/>
        <path class="cls-3" d="M125.1,66.1s15.2-1.1,19.2,15.8h18.3c-.9-8.7-6-34-33.5-34h-31.9c-1,5.2-2.6,12.3-7.3,18.2,0,0,35.2,0,35.2,0Z"/>
        <path class="cls-3" d="M124.3,104h-25.6c-9.2,0-10.1-.3-13.1-4.1-1.8-2.8-2.8-4.6-6.6-7.9-2.8-2.4-6.4-4-6.4-4-3.8-1.7-8.4-2.8-13.9-2.8h-17.6c-33.4-.2-33.7,36.9-33.7,36.9h18c1.3-19.1,19.7-18.7,19.7-18.7h9.5s8.4,0,14.9,7.4c.9,1.1,2.3,3.1,2.3,3.1,5.5,8.3,13.1,8.2,23.9,8.2h33.3c27.7,0,32.6-25.8,33.5-34.2h-18.3c-3.9,17.1-20,16-20,16h0Z"/>
      </g>
      <path class="cls-1" d="M1133.3-1151.1c4.5-2,9.9-3.2,16.4-3.2h20.8c39.4-.2,39.7,43.5,39.7,43.5h-21.2c-1.5-22.5-23.2-22-23.2-22h-11.2s-10,.2-17.5,8.7"/>
    </g>
  </g>
</svg>